<?xml version="1.0" encoding="UTF-8" standalone="no"?>
<!DOCTYPE svg PUBLIC "-//W3C//DTD SVG 1.1//EN" "http://www.w3.org/Graphics/SVG/1.1/DTD/svg11.dtd">
<svg xmlns="http://www.w3.org/2000/svg" xmlns:xlink="http://www.w3.org/1999/xlink" version="1.1" width="439.37pt" height="674.646pt" viewBox="0 0 439.37 674.646">
<g enable-background="new">
<g id="Layer-1" data-name="P">
<symbol id="font_5ba_4b">
<path d="M 0 .48700003 L 0 .44200004 L .060000004 .43500004 L .18900001 0 L .289 0 L .408 .35900004 L .519 0 L .62 0 L .75600007 .43400003 L .81200006 .44200004 L .81200006 .48700003 L .623 .48700003 L .623 .44200004 L .676 .43500004 L .683 .42100004 L .595 .132 L .486 .48700003 L .386 .48700003 L .269 .132 L .18800001 .42000003 L .19900002 .43400003 L .24800001 .44200004 L .24800001 .48700003 L 0 .48700003 Z "/>
</symbol>
<symbol id="font_5ba_3c">
<path d="M .147 .739 L 0 .69200006 L 0 .65300008 L .072 .65300008 L .072 .064 L .058000003 .05 L .007000001 .045 L .007000001 0 L .25300003 0 L .25300003 .045 L .21000001 .05 L .19500001 .064 L .19500001 .39400003 C .21300002 .4 .25400005 .41200004 .29100005 .41200004 C .35500003 .41200004 .38100005 .36100004 .38100005 .303 L .38100005 .064 L .36700005 .05 L .323 .045 L .323 0 L .56900009 0 L .56900009 .045 L .517 .05 L .504 .064 L .504 .33200003 C .504 .462 .43700005 .499 .37200005 .499 C .31400005 .499 .25900004 .47200004 .19500001 .437 L .19500001 .739 L .147 .739 Z "/>
</symbol>
<symbol id="font_5ba_3d">
<path d="M .060000007 .64900007 C .060000007 .60800006 .09300001 .57500007 .134 .57500007 C .17500001 .57500007 .20800002 .60800006 .20800002 .64900007 C .20800002 .69000008 .17500001 .72300007 .134 .72300007 C .09300001 .72300007 .060000007 .69000008 .060000007 .64900007 M .14400001 .49600003 L .0020000004 .44900004 L .0020000004 .409 L .069000009 .409 L .069000009 .064 L .055000005 .05 L 0 .045 L 0 0 L .26400004 0 L .26400004 .045 L .20700002 .05 L .19200002 .064 L .19200002 .49600003 L .14400001 .49600003 Z "/>
</symbol>
<symbol id="font_5ba_37">
<path d="M .42900003 .125 C .40700004 .11000001 .351 .07800001 .291 .07800001 C .245 .07800001 .208 .09300001 .18 .128 C .165 .14700002 .13800001 .18900001 .13800001 .26900003 C .13800001 .31500004 .16000001 .45700003 .26700003 .45700003 C .275 .45700003 .28300003 .45600004 .29200004 .45400004 L .29200004 .34800003 C .316 .33200003 .335 .32900004 .35000003 .32900004 C .39200003 .32900004 .423 .356 .423 .39800004 C .423 .41300003 .41900004 .446 .38300003 .47300003 C .35000003 .49800004 .303 .508 .259 .508 C .164 .508 .105000007 .46600003 .07700001 .439 C .030000002 .39400003 0 .328 0 .24600002 C 0 .165 .030000002 .10300001 .07000001 .064 C .10100001 .034 .156 0 .24100003 0 C .26700003 0 .344 .0030000006 .42900003 .054 L .42900003 .125 Z "/>
</symbol>
<symbol id="font_5ba_7">
<path d="M 0 0 C .11500001 .016000003 .18900001 .09300001 .18900001 .19700001 C .18900001 .263 .154 .30400003 .098000008 .30400003 C .056 .30400003 .028000003 .277 .028000003 .23600002 C .028000003 .21500002 .034 .19900002 .049000004 .18200001 L .111 .18200001 C .112 .17500001 .112 .16900002 .112 .165 C .112 .11000001 .080000009 .06300001 0 .046000005 L 0 0 Z "/>
</symbol>
<symbol id="font_5ba_1">
<path d="M 0 0 Z "/>
</symbol>
<use xlink:href="#font_5ba_4b" transform="matrix(10.5,0,0,-10.5,51.0131,55.09839)" fill="#231f20"/>
<use xlink:href="#font_5ba_3c" transform="matrix(10.5,0,0,-10.5,59.6651,55.09839)" fill="#231f20"/>
<use xlink:href="#font_5ba_3d" transform="matrix(10.5,0,0,-10.5,66.0491,55.09839)" fill="#231f20"/>
<use xlink:href="#font_5ba_37" transform="matrix(10.5,0,0,-10.5,69.3356,55.19289)" fill="#231f20"/>
<use xlink:href="#font_5ba_3c" transform="matrix(10.5,0,0,-10.5,74.3756,55.09839)" fill="#231f20"/>
<use xlink:href="#font_5ba_7" transform="matrix(10.5,0,0,-10.5,80.79111,56.93589)" fill="#231f20"/>
<use xlink:href="#font_5ba_1" transform="matrix(10.5,0,0,-10.5,83.50011,55.09839)" fill="#231f20"/>
</g>
<g id="Layer-1" data-name="P">
<g id="Layer-2" data-name="Span">
</g>
<symbol id="font_5bb_14">
<path d="M 0 .709 L 0 .542 L .047000007 .542 L .063 .633 L .37100003 .633 L .045 0 L .12800002 0 L .12800002 .023000002 L .46 .669 L .46 .709 L 0 .709 Z "/>
</symbol>
<symbol id="font_5bb_1">
<path d="M 0 0 Z "/>
</symbol>
<symbol id="font_5bb_60">
<path d="M 0 0 L 1 0 L 1 .06100002 L 0 .06100002 L 0 0 Z "/>
</symbol>
<symbol id="font_5bb_68">
<path d="M 0 0 L .22 0 L .22 .036000004 L .172 .041 L .155 .059000005 L .155 .22600001 L .201 .22600001 C .23700002 .22600001 .264 .208 .286 .156 L .34 .032 L .34 0 L .50600007 0 L .50600007 .036000004 L .43800003 .043 L .42100004 .055000005 L .36600004 .16600001 C .34800003 .2 .335 .24000001 .27400003 .254 L .27400003 .256 C .289 .26000003 .321 .273 .342 .323 L .372 .39400003 C .377 .40500004 .379 .41400004 .39000003 .42600004 L .46 .386 C .47800002 .39600004 .488 .41400004 .488 .43500004 C .488 .46400003 .46600003 .49 .425 .49 C .377 .49 .347 .455 .328 .409 L .294 .33100004 C .275 .287 .24100003 .27 .20300001 .27 L .155 .27 L .155 .42400003 L .172 .44000004 L .22 .44500003 L .22 .48100005 L 0 .48100005 L 0 .44500003 L .054000006 .44000004 L .071 .42400003 L .071 .057000005 L .054000006 .041 L 0 .036000004 L 0 0 Z "/>
</symbol>
<symbol id="font_5bb_71">
<path d="M .23400003 .499 C .072000008 .499 0 .37800003 0 .24900002 C 0 .16700001 .029 .109000008 .063 .072000008 C .091000009 .041 .14400001 0 .23200003 0 C .31300003 0 .36600004 .035 .397 .067 C .43500004 .10700001 .46600003 .16800002 .46600003 .24900002 C .46600003 .38700003 .379 .499 .23400003 .499 M .231 .455 C .25300003 .455 .29400004 .45200003 .328 .409 C .36600004 .36 .372 .291 .372 .24900002 C .372 .20400001 .36600004 .15500002 .335 .109000008 C .30400003 .063 .26400004 .044 .23200003 .044 C .19800002 .044 .15100001 .057 .120000008 .12100001 C .10000001 .16300002 .09400001 .21000001 .09400001 .25 C .09400001 .305 .105000007 .36800004 .136 .409 C .16900002 .45200003 .21000001 .455 .231 .455 Z "/>
</symbol>
<symbol id="font_5bb_74">
<path d="M .091000009 0 L .349 0 L .349 .036000004 L .279 .041 L .26200003 .057000005 L .26200003 .43500004 L .363 .43500004 L .37800003 .41900004 L .38900004 .335 L .44000004 .335 L .44000004 .48100005 L 0 .48100005 L 0 .335 L .051 .335 L .062 .41900004 L .077 .43500004 L .178 .43500004 L .178 .057000005 L .161 .041 L .091000009 .036000004 L .091000009 0 Z "/>
</symbol>
<symbol id="font_5bb_82">
<path d="M 0 0 L .23600002 0 L .23600002 .036 L .172 .04100001 L .155 .056999998 L .155 .224 C .20600002 .215 .237 .215 .24900003 .215 C .325 .215 .38 .24100001 .419 .279 C .455 .314 .49300004 .37800003 .49300004 .47500003 C .49300004 .63500007 .4 .708 .302 .708 C .264 .708 .22100002 .69900009 .155 .64900007 L .155 .70400008 L .11700001 .70400008 L 0 .66800007 L 0 .637 L .071 .637 L .071 .056999998 L .055000009 .04100001 L 0 .036 L 0 0 M .155 .61200007 C .179 .62600007 .22000002 .64400008 .259 .64400008 C .357 .64400008 .403 .56 .403 .463 C .403 .35400004 .34600003 .259 .22900002 .259 C .21400002 .259 .19000001 .261 .155 .27600003 L .155 .61200007 Z "/>
</symbol>
<symbol id="font_5bb_87">
<path d="M 0 0 L .243 0 C .291 0 .425 .021000002 .425 .14500001 C .425 .26500003 .30900003 .29000003 .22600001 .29000003 C .2 .29000003 .18 .289 .155 .286 L .155 .42400003 L .172 .44000004 L .22600001 .44500003 L .22600001 .48100005 L 0 .48100005 L 0 .44500003 L .054000006 .44000004 L .071 .42400003 L .071 .057000005 L .054000006 .041 L 0 .036000004 L 0 0 M .155 .238 C .17600002 .24400002 .19500001 .246 .21900001 .246 C .25800003 .246 .34100003 .24300002 .34100003 .143 C .34100003 .042000005 .24700001 .044000005 .21400002 .044000005 C .193 .044000005 .17300001 .046000005 .155 .05 L .155 .238 M .43 .44500003 L .484 .44000004 L .50100007 .42400003 L .50100007 .057000005 L .484 .041 L .43 .036000004 L .43 0 L .656 0 L .656 .036000004 L .602 .041 L .58500006 .057000005 L .58500006 .42400003 L .602 .44000004 L .656 .44500003 L .656 .48100005 L .43 .48100005 L .43 .44500003 Z "/>
</symbol>
<symbol id="font_5bb_6f">
<path d="M 0 0 L .22 0 L .22 .036000004 L .172 .041 L .155 .057000005 L .155 .089 L .38700003 .33800004 L .38700003 .057000005 L .37 .041 L .32200004 .036000004 L .32200004 0 L .54200008 0 L .54200008 .036000004 L .488 .041 L .47100006 .057000005 L .47100006 .42400003 L .488 .44000004 L .54200008 .44500003 L .54200008 .48100005 L .32200004 .48100005 L .32200004 .44500003 L .37 .44000004 L .38700003 .42400003 L .38700003 .4 L .155 .15100001 L .155 .42400003 L .172 .44000004 L .22 .44500003 L .22 .48100005 L 0 .48100005 L 0 .44500003 L .054000006 .44000004 L .071 .42400003 L .071 .057000005 L .054000006 .041 L 0 .036000004 L 0 0 M .19500001 .693 C .18900001 .703 .17600002 .716 .15200001 .716 C .125 .716 .105000007 .698 .105000007 .66700008 C .105000007 .601 .179 .55600008 .27100004 .55600008 C .363 .55600008 .437 .601 .437 .66700008 C .437 .698 .41700004 .716 .39000003 .716 C .36600004 .716 .35300002 .703 .347 .693 L .347 .615 C .32900004 .60200008 .307 .59400007 .27100004 .59400007 C .23500002 .59400007 .21300002 .60200008 .19500001 .615 L .19500001 .693 Z "/>
</symbol>
<use xlink:href="#font_5bb_14" transform="matrix(10.5,0,0,-10.5,87.180599,55.497388)" fill="#231f20"/>
<use xlink:href="#font_5bb_1" transform="matrix(10.5,0,0,-10.5,92.273097,55.09839)" fill="#231f20"/>
<use xlink:href="#font_5bb_60" transform="matrix(10.5,0,0,-10.5,95.2131,52.893388)" fill="#231f20"/>
<use xlink:href="#font_5bb_1" transform="matrix(10.5,0,0,-10.5,105.7131,55.09839)" fill="#231f20"/>
<use xlink:href="#font_5bb_68" transform="matrix(10.5,0,0,-10.5,108.9681,55.09839)" fill="#231f20"/>
<use xlink:href="#font_5bb_71" transform="matrix(10.5,0,0,-10.5,114.66959,55.19289)" fill="#231f20"/>
<use xlink:href="#font_5bb_74" transform="matrix(10.5,0,0,-10.5,120.119098,55.09839)" fill="#231f20"/>
<use xlink:href="#font_5bb_71" transform="matrix(10.5,0,0,-10.5,125.29559,55.19289)" fill="#231f20"/>
<use xlink:href="#font_5bb_82" transform="matrix(10.5,0,0,-10.5,130.8081,57.38739)" fill="#231f20"/>
<use xlink:href="#font_5bb_87" transform="matrix(10.5,0,0,-10.5,136.68811,55.09839)" fill="#231f20"/>
<use xlink:href="#font_5bb_6f" transform="matrix(10.5,0,0,-10.5,144.20612,55.09839)" fill="#231f20"/>
</g>
<g id="Layer-1" data-name="P">
<symbol id="font_5ba_43">
<path d="M .26200003 .508 C .12300001 .508 0 .43500004 0 .252 C 0 .07800001 .11500001 0 .25300003 0 C .363 0 .51000007 .052 .51000007 .254 C .51000007 .35700003 .46600003 .418 .43 .44900004 C .39100004 .48300005 .335 .508 .26200003 .508 M .254 .45400004 C .35400004 .45400004 .372 .30800004 .372 .252 C .372 .18500002 .351 .054 .254 .054 C .16000001 .054 .13800001 .18400002 .13800001 .255 C .13800001 .32700003 .15200001 .36900003 .165 .395 C .17700002 .418 .202 .45400004 .254 .45400004 Z "/>
</symbol>
<symbol id="font_5ba_46">
<path d="M .005000001 0 L .28100003 0 L .28100003 .045 L .21000001 .05 L .19500001 .064 L .19500001 .351 C .214 .36400003 .24500002 .38000003 .27100004 .38000003 C .3 .38000003 .32100005 .35900004 .33100004 .34300003 L .38300003 .34300003 L .39600004 .48100005 C .37400005 .49100004 .35700003 .49800004 .33300004 .49800004 C .30200003 .49800004 .263 .469 .191 .39400003 L .19500001 .49600003 L .147 .49600003 L 0 .44900004 L 0 .409 L .072 .409 L .072 .064 L .058000003 .05 L .005000001 .045 L .005000001 0 Z "/>
</symbol>
<symbol id="font_5ba_47">
<path d="M .354 .48400004 C .294 .504 .24000001 .508 .206 .508 C .136 .508 .0069999995 .47800002 .0069999995 .36 C .0069999995 .28300003 .06600001 .25100003 .16600001 .20600002 C .24200002 .172 .25100003 .15500002 .25100003 .127 C .25100003 .08200001 .23000002 .054 .162 .054 C .14500001 .054 .117000009 .057 .082 .07400001 L .072000008 .08500001 L .061000006 .171 L 0 .171 L 0 .023000002 C .06600001 .0050000005 .12900001 0 .162 0 C .323 0 .36900003 .08400001 .36900003 .16200002 C .36900003 .18400002 .367 .20400001 .34800003 .22700002 C .33200003 .24600002 .305 .26500003 .229 .30200003 C .14700002 .34300003 .13 .363 .13 .39000003 C .13 .44300003 .17500001 .45400004 .20500002 .45400004 C .22 .45400004 .24200002 .45200003 .272 .43700005 L .284 .42600004 L .294 .351 L .354 .351 L .354 .48400004 Z "/>
</symbol>
<symbol id="font_5ba_39">
<path d="M .45400004 .133 C .38000003 .087000008 .32500003 .079 .29000003 .079 C .157 .079 .128 .18100001 .128 .26400004 L .455 .26400004 C .455 .36900003 .432 .508 .24900002 .508 C .163 .508 .10800001 .47400005 .07700001 .44500003 C .030000002 .40000005 0 .33200003 0 .25 C 0 .156 .038000004 .09900001 .067 .069000009 C .10200001 .033 .15900001 0 .24900002 0 C .33800004 0 .41200004 .035 .45400004 .059 L .45400004 .133 M .133 .31700004 C .133 .40500004 .18800001 .45400004 .23700002 .45400004 C .286 .45400004 .32400004 .40700004 .32400004 .32500003 L .32400004 .31700004 L .133 .31700004 Z "/>
</symbol>
<use xlink:href="#font_5ba_4b" transform="matrix(10.5,0,0,-10.5,223.9265,55.09839)" fill="#231f20"/>
<use xlink:href="#font_5ba_43" transform="matrix(10.5,0,0,-10.5,232.568,55.19289)" fill="#231f20"/>
<use xlink:href="#font_5ba_46" transform="matrix(10.5,0,0,-10.5,238.56349,55.09839)" fill="#231f20"/>
<use xlink:href="#font_5ba_47" transform="matrix(10.5,0,0,-10.5,243.16249,55.19289)" fill="#231f20"/>
<use xlink:href="#font_5ba_39" transform="matrix(10.5,0,0,-10.5,247.814,55.19289)" fill="#231f20"/>
<use xlink:href="#font_5ba_7" transform="matrix(10.5,0,0,-10.5,253.25299,56.93589)" fill="#231f20"/>
<use xlink:href="#font_5ba_1" transform="matrix(10.5,0,0,-10.5,255.96199,55.09839)" fill="#231f20"/>
</g>
<g id="Layer-1" data-name="P">
<g id="Layer-2" data-name="Span">
</g>
<symbol id="font_5bb_e">
<path d="M .22600001 .683 L 0 .61800006 L 0 .57600006 L .16300002 .60300007 L .16300002 .066 L .15100001 .048 L .032000007 .048 L .032000007 0 L .38000003 0 L .38000003 .041 L .268 .041 L .256 .061000006 L .256 .683 L .22600001 .683 Z "/>
</symbol>
<symbol id="font_5bb_12">
<path d="M .051000004 .683 L .051000004 .35300002 C .091000009 .358 .11600001 .359 .14100002 .359 C .22500001 .359 .34600003 .336 .34600003 .212 C .34600003 .098000008 .264 .047 .19200002 .047 C .15600002 .047 .13200002 .057000005 .12200001 .061000006 L .082 .147 C .07700001 .148 .069000009 .15 .059000005 .15 C .018000003 .15 0 .12200001 0 .097 C 0 .009 .16000001 0 .17700002 0 C .271 0 .331 .033 .365 .064 C .411 .105000007 .43800003 .164 .43800003 .231 C .43800003 .37600003 .319 .421 .22100003 .421 C .19700001 .421 .15700002 .418 .113000009 .405 L .113000009 .6050001 L .409 .6050001 L .409 .683 L .051000004 .683 Z "/>
</symbol>
<symbol id="font_5bb_85">
<path d="M .006000001 .48100005 L .006000001 .44500003 L .067 .43300004 L .20100002 .238 L .057000005 .045 L 0 .037 L 0 0 L .18900001 0 L .18900001 .037 L .13200002 .044000005 L .12700002 .056 L .22900002 .201 L .32200004 .052 L .31700004 .044000005 L .275 .037 L .275 0 L .488 0 L .488 .037 L .42800004 .045 L .28100003 .259 L .41300003 .43400003 L .46900005 .44500003 L .46900005 .48100005 L .28900004 .48100005 L .28900004 .44500003 L .337 .43800003 L .34500004 .425 L .254 .29700003 L .17000002 .42800004 L .17500001 .43800003 L .22100002 .44500003 L .22100002 .48100005 L .006000001 .48100005 Z "/>
</symbol>
<symbol id="font_5bb_83">
<path d="M 0 .69900009 L 0 .66300007 L .061 .656 L .23000002 .222 C .21000001 .171 .18900001 .116000007 .149 .072 L .053 .11000001 C .032 .094000007 .027 .07000001 .027 .056999998 C .027 .026000008 .051 0 .095000009 0 C .14600002 0 .17700002 .032000007 .19700001 .059 C .20700002 .072 .23000002 .105000007 .256 .16800002 L .456 .65400007 L .514 .66300007 L .514 .69900009 L .336 .69900009 L .336 .66300007 L .39000003 .65800008 L .398 .642 L .273 .33100004 L .15300001 .642 L .165 .65800008 L .21800001 .66300007 L .21800001 .69900009 L 0 .69900009 Z "/>
</symbol>
<symbol id="font_5bb_89">
<path d="M .26200003 .48100005 L .26200003 .44500003 L .312 .44000004 L .32900004 .42400003 L .32900004 .27 L .29500003 .27 C .24900002 .27 .22000002 .298 .20700002 .33200003 L .178 .40800003 C .165 .44000004 .143 .49 .087000008 .49 C .054 .49 .024 .47000004 .024 .43500004 C .024 .42200003 .029000001 .39800004 .052 .386 L .120000008 .42600004 C .13000001 .41300003 .132 .40600003 .136 .39400003 L .163 .323 C .17 .303 .185 .266 .23200001 .256 L .23200001 .254 C .19800002 .25 .158 .22600001 .126 .15900001 L .07700001 .055000005 L .060000004 .043 L 0 .036000004 L 0 0 L .148 0 L .148 .032 L .19700001 .147 C .21300002 .18400002 .23500002 .22600001 .28300003 .22600001 L .32900004 .22600001 L .32900004 .057000005 L .312 .041 L .26200003 .036000004 L .26200003 0 L .47200004 0 L .47200004 .036000004 L .42200003 .041 L .40500004 .057000005 L .40500004 .22600001 L .45100004 .22600001 C .499 .22600001 .521 .18400002 .537 .147 L .586 .032 L .586 0 L .734 0 L .734 .036000004 L .674 .043 L .657 .055000005 L .60800006 .15900001 C .57600006 .22600001 .536 .25 .50200006 .254 L .50200006 .256 C .549 .266 .564 .303 .57100006 .323 L .59800007 .39400003 C .60200008 .40600003 .60400006 .41300003 .614 .42600004 L .68200007 .386 C .70500007 .39800004 .71000006 .42200003 .71000006 .43500004 C .71000006 .47000004 .68 .49 .647 .49 C .591 .49 .569 .44000004 .55600008 .40800003 L .527 .33200003 C .514 .298 .485 .27 .439 .27 L .40500004 .27 L .40500004 .42400003 L .42200003 .44000004 L .47200004 .44500003 L .47200004 .48100005 L .26200003 .48100005 Z "/>
</symbol>
<symbol id="font_5bb_80">
<path d="M .411 .11500001 C .33900003 .06600001 .287 .057 .254 .057 C .14 .057 .086 .16300002 .086 .26500003 L .086 .272 L .41000004 .272 C .411 .282 .411 .291 .411 .3 C .411 .46100004 .31 .499 .23200003 .499 C .149 .499 .097 .462 .07000001 .43400003 C .026 .38900004 0 .32200004 0 .24600002 C 0 .10800001 .075 0 .227 0 C .29200004 0 .358 .023000002 .411 .060000004 L .411 .11500001 M .091000009 .314 C .098000008 .38000003 .134 .455 .22 .455 C .279 .455 .30200003 .416 .30800004 .404 C .316 .38900004 .32200004 .35900004 .32200004 .33900003 L .32200004 .314 L .091000009 .314 Z "/>
</symbol>
<use xlink:href="#font_5bb_e" transform="matrix(10.5,0,0,-10.5,259.8422,55.09839)" fill="#231f20"/>
<use xlink:href="#font_5bb_12" transform="matrix(10.5,0,0,-10.5,265.0502,55.22439)" fill="#231f20"/>
<use xlink:href="#font_5bb_1" transform="matrix(10.5,0,0,-10.5,270.36323,55.09839)" fill="#231f20"/>
<use xlink:href="#font_5bb_60" transform="matrix(10.5,0,0,-10.5,273.30323,52.893388)" fill="#231f20"/>
<use xlink:href="#font_5bb_1" transform="matrix(10.5,0,0,-10.5,283.80323,55.09839)" fill="#231f20"/>
<use xlink:href="#font_5bb_85" transform="matrix(10.5,0,0,-10.5,286.86924,55.09839)" fill="#231f20"/>
<use xlink:href="#font_5bb_83" transform="matrix(10.5,0,0,-10.5,292.02473,57.38739)" fill="#231f20"/>
<use xlink:href="#font_5bb_89" transform="matrix(10.5,0,0,-10.5,297.24324,55.09839)" fill="#231f20"/>
<use xlink:href="#font_5bb_80" transform="matrix(10.5,0,0,-10.5,305.3387,55.19289)" fill="#231f20"/>
</g>
<g id="Layer-1" data-name="P">
<symbol id="font_5ba_48">
<path d="M .065000008 .41900004 L .065000008 .128 C .065000008 .061 .069000009 0 .187 0 C .21200001 0 .28700004 .016 .33600004 .032 L .33600004 .080000009 C .31100003 .07400001 .29200004 .07300001 .272 .07300001 C .229 .07300001 .18800003 .08400001 .18800003 .17 L .18800003 .41900004 L .33600004 .41900004 L .33600004 .47900004 L .18800003 .47900004 L .18800003 .60300007 L .12600002 .60300007 L .074 .499 L 0 .45700003 L 0 .41900004 L .065000008 .41900004 Z "/>
</symbol>
<use xlink:href="#font_5ba_4b" transform="matrix(10.5,0,0,-10.5,51.0131,72.49567)" fill="#231f20"/>
<use xlink:href="#font_5ba_3c" transform="matrix(10.5,0,0,-10.5,59.6651,72.49567)" fill="#231f20"/>
<use xlink:href="#font_5ba_3d" transform="matrix(10.5,0,0,-10.5,66.0491,72.49567)" fill="#231f20"/>
<use xlink:href="#font_5ba_48" transform="matrix(10.5,0,0,-10.5,69.14661,72.548168)" fill="#231f20"/>
<use xlink:href="#font_5ba_39" transform="matrix(10.5,0,0,-10.5,73.0841,72.590167)" fill="#231f20"/>
<use xlink:href="#font_5ba_7" transform="matrix(10.5,0,0,-10.5,78.5231,74.33317)" fill="#231f20"/>
<use xlink:href="#font_5ba_1" transform="matrix(10.5,0,0,-10.5,81.2321,72.49567)" fill="#231f20"/>
</g>
<g id="Layer-1" data-name="P">
<g id="Layer-2" data-name="Span">
</g>
<symbol id="font_5bb_9e">
<path d="M .432 .75500008 C .421 .72700008 .389 .72 .363 .716 L .279 .703 C .187 .689 .09500001 .66200008 .044000005 .531 C .015000001 .45600004 0 .35400004 0 .277 C 0 .19700001 .026000005 0 .23200001 0 C .313 0 .366 .035 .397 .067 C .435 .106000009 .466 .16600001 .466 .255 C .466 .38900004 .389 .499 .251 .499 C .15200001 .499 .10000001 .441 .07100001 .38900004 L .069000009 .38900004 C .07700001 .55700007 .15100001 .601 .24700003 .615 L .341 .628 C .375 .633 .447 .647 .466 .75500008 L .432 .75500008 M .24100001 .455 C .349 .455 .372 .31500004 .372 .252 C .372 .20800002 .367 .15100001 .335 .10300001 C .304 .057 .264 .044 .23200001 .044 C .19800002 .044 .15100001 .057 .120000008 .12100001 C .097 .16800002 .09400001 .22000002 .09400001 .25 C .09400001 .29000003 .10900001 .455 .24100001 .455 Z "/>
</symbol>
<symbol id="font_5bb_73">
<path d="M .11000001 .49000005 L .11000001 .45400004 L .172 .44900004 L .18900001 .43100003 C .187 .374 .179 .296 .167 .23500002 C .147 .13800001 .12200001 .095000009 .09900001 .067 L .036000004 .109000008 C .012000001 .09700001 0 .075 0 .052 C 0 .037 .011000001 0 .055 0 C .095000009 0 .124000009 .023000002 .142 .044 C .163 .068 .192 .11500001 .214 .21400002 C .229 .282 .238 .37100003 .24100001 .44400005 L .35100005 .44400005 L .35100005 .06600001 L .33400003 .05 L .286 .045 L .286 .009000001 L .50600007 .009000001 L .50600007 .045 L .45200003 .05 L .43500004 .06600001 L .43500004 .43300004 L .45200003 .44900004 L .50600007 .45400004 L .50600007 .49000005 L .11000001 .49000005 Z "/>
</symbol>
<use xlink:href="#font_5bb_14" transform="matrix(10.5,0,0,-10.5,84.9126,72.89467)" fill="#231f20"/>
<use xlink:href="#font_5bb_1" transform="matrix(10.5,0,0,-10.5,90.0051,72.49567)" fill="#231f20"/>
<use xlink:href="#font_5bb_60" transform="matrix(10.5,0,0,-10.5,92.9451,70.290668)" fill="#231f20"/>
<use xlink:href="#font_5bb_1" transform="matrix(10.5,0,0,-10.5,103.4451,72.49567)" fill="#231f20"/>
<use xlink:href="#font_5bb_9e" transform="matrix(10.5,0,0,-10.5,106.8366,72.590167)" fill="#231f20"/>
<use xlink:href="#font_5bb_80" transform="matrix(10.5,0,0,-10.5,112.5066,72.590167)" fill="#231f20"/>
<use xlink:href="#font_5bb_73" transform="matrix(10.5,0,0,-10.5,117.0531,72.590167)" fill="#231f20"/>
<use xlink:href="#font_5bb_87" transform="matrix(10.5,0,0,-10.5,122.9961,72.49567)" fill="#231f20"/>
<use xlink:href="#font_5bb_6f" transform="matrix(10.5,0,0,-10.5,130.5141,72.49567)" fill="#231f20"/>
</g>
<g id="Layer-1" data-name="P">
<use xlink:href="#font_5ba_4b" transform="matrix(10.5,0,0,-10.5,223.9265,72.49567)" fill="#231f20"/>
<use xlink:href="#font_5ba_43" transform="matrix(10.5,0,0,-10.5,232.568,72.590167)" fill="#231f20"/>
<use xlink:href="#font_5ba_46" transform="matrix(10.5,0,0,-10.5,238.56349,72.49567)" fill="#231f20"/>
<use xlink:href="#font_5ba_47" transform="matrix(10.5,0,0,-10.5,243.16249,72.590167)" fill="#231f20"/>
<use xlink:href="#font_5ba_48" transform="matrix(10.5,0,0,-10.5,247.62499,72.548168)" fill="#231f20"/>
<use xlink:href="#font_5ba_7" transform="matrix(10.5,0,0,-10.5,251.4995,74.33317)" fill="#231f20"/>
<use xlink:href="#font_5ba_1" transform="matrix(10.5,0,0,-10.5,254.2085,72.49567)" fill="#231f20"/>
</g>
<g id="Layer-1" data-name="P">
<g id="Layer-2" data-name="Span">
</g>
<symbol id="font_5bb_75">
<path d="M .114 .62100008 L .114 .58500006 L .17600002 .58000007 L .19300002 .56200006 C .17500001 .45200003 .13200002 .30900003 .050000006 .186 L 0 .186 L 0 0 L .051000004 0 L .069000009 .124 L .084 .14 L .416 .14 L .43100003 .124 L .449 0 L .5 0 L .5 .186 L .435 .186 L .423 .19600001 L .423 .564 L .44 .58000007 L .49400003 .58500006 L .49400003 .62100008 L .114 .62100008 M .108 .186 C .17500001 .30400003 .22400002 .459 .24500002 .57500007 L .33900003 .57500007 L .33900003 .186 L .108 .186 Z "/>
</symbol>
<symbol id="font_5bb_8d">
<path d="M 0 0 L .75 0 L .75 .036000004 L .696 .041 L .679 .057000005 L .679 .42400003 L .696 .44000004 L .75 .44500003 L .75 .48100005 L .53200009 .48100005 L .53200009 .44500003 L .57800009 .44000004 L .595 .42400003 L .595 .046000005 L .41700004 .046000005 L .41700004 .42400003 L .43400003 .44000004 L .48000006 .44500003 L .48000006 .48100005 L .27 .48100005 L .27 .44500003 L .316 .44000004 L .333 .42400003 L .333 .046000005 L .155 .046000005 L .155 .42400003 L .172 .44000004 L .21800001 .44500003 L .21800001 .48100005 L 0 .48100005 L 0 .44500003 L .054000006 .44000004 L .071 .42400003 L .071 .057000005 L .054000006 .041 L 0 .036000004 L 0 0 Z "/>
</symbol>
<symbol id="font_5bb_7a">
<path d="M 0 0 L .22 0 L .22 .036000004 L .172 .041 L .155 .057000005 L .155 .089 L .38700003 .33800004 L .38700003 .057000005 L .37 .041 L .32200004 .036000004 L .32200004 0 L .54200008 0 L .54200008 .036000004 L .488 .041 L .47100006 .057000005 L .47100006 .42400003 L .488 .44000004 L .54200008 .44500003 L .54200008 .48100005 L .32200004 .48100005 L .32200004 .44500003 L .37 .44000004 L .38700003 .42400003 L .38700003 .4 L .155 .15100001 L .155 .42400003 L .172 .44000004 L .22 .44500003 L .22 .48100005 L 0 .48100005 L 0 .44500003 L .054000006 .44000004 L .071 .42400003 L .071 .057000005 L .054000006 .041 L 0 .036000004 L 0 0 Z "/>
</symbol>
<symbol id="font_5bb_9">
<path d="M 0 0 C .098000008 .0119999949 .169 .087 .169 .182 C .169 .223 .15 .27600003 .091000009 .27600003 C .06400001 .27600003 .030000005 .263 .030000005 .218 C .030000005 .199 .037000006 .186 .046 .177 L .11 .177 L .11 .16600001 C .11 .12799999 .095 .045999998 0 .033999996 L 0 0 Z "/>
</symbol>
<symbol id="font_5bb_7b">
<path d="M .388 .10300001 C .358 .083000008 .312 .060000004 .26000003 .060000004 C .09400001 .060000004 .09200001 .22500001 .09200001 .25800003 C .09200001 .314 .106000009 .374 .13900002 .41300003 C .172 .45200003 .21200001 .45900003 .236 .45900003 C .26000003 .45900003 .27600003 .45200003 .286 .446 L .286 .36400003 C .303 .35300002 .32200004 .35000003 .333 .35000003 C .365 .35000003 .38700003 .372 .38700003 .40500004 C .38700003 .44500003 .351 .499 .24200002 .499 C .095 .499 0 .40500004 0 .24900002 C 0 .091000009 .095 0 .22600001 0 C .26000003 0 .312 .0060000007 .388 .051000004 L .388 .10300001 Z "/>
</symbol>
<symbol id="font_5bb_7e">
<path d="M .30600003 .009000001 L .44600005 .009000001 L .44600005 .045 L .39300005 .045 L .37600003 .06600001 L .37600003 .356 C .37600003 .37700004 .37500004 .42800004 .344 .46100004 C .30900003 .49800004 .24800003 .499 .22500003 .499 C .079 .499 .024999999 .43500004 .024999999 .38200004 C .024999999 .358 .044 .356 .056 .356 L .125 .356 L .125 .44000004 C .15 .44900004 .178 .455 .204 .455 C .29700003 .455 .29200004 .38300003 .29200004 .344 L .29200004 .312 C .185 .286 .137 .27 .101 .256 C .053999999 .23700002 0 .20600002 0 .13100001 C 0 .068 .038000004 0 .12799999 0 C .16600001 0 .215 .012 .29200004 .067 L .30600003 .009000001 M .29200004 .10100001 C .22800002 .064 .194 .056 .16800002 .056 C .107 .056 .08800001 .102000009 .08800001 .13900002 C .08800001 .194 .12600002 .21600002 .15799999 .23100002 C .19300002 .24700001 .24900002 .26500003 .29200004 .277 L .29200004 .10100001 Z "/>
</symbol>
<symbol id="font_5bb_78">
<path d="M 0 .48100005 L 0 .44500003 L .054000006 .44000004 L .071 .42400003 L .071 .057000005 L .054000006 .041 L 0 .036000004 L 0 0 L .18800001 0 L .18800001 .036000004 L .14 .041 L .12300001 .057000005 L .12300001 .44000004 L .287 0 L .323 0 L .48500005 .44000004 L .48500005 .057000005 L .46800003 .041 L .42000003 .036000004 L .42000003 0 L .64 0 L .64 .036000004 L .5860001 .041 L .569 .057000005 L .569 .42400003 L .5860001 .44000004 L .64 .44500003 L .64 .48100005 L .446 .48100005 L .446 .45700003 L .32200004 .11400001 L .19800002 .45700003 L .19800002 .48100005 L 0 .48100005 Z "/>
</symbol>
<use xlink:href="#font_5bb_e" transform="matrix(10.5,0,0,-10.5,258.0887,72.49567)" fill="#231f20"/>
<use xlink:href="#font_5bb_12" transform="matrix(10.5,0,0,-10.5,263.29673,72.621669)" fill="#231f20"/>
<use xlink:href="#font_5bb_1" transform="matrix(10.5,0,0,-10.5,268.60975,72.49567)" fill="#231f20"/>
<use xlink:href="#font_5bb_60" transform="matrix(10.5,0,0,-10.5,271.54975,70.290668)" fill="#231f20"/>
<use xlink:href="#font_5bb_1" transform="matrix(10.5,0,0,-10.5,282.04975,72.49567)" fill="#231f20"/>
<use xlink:href="#font_5bb_85" transform="matrix(10.5,0,0,-10.5,285.11576,72.49567)" fill="#231f20"/>
<use xlink:href="#font_5bb_83" transform="matrix(10.5,0,0,-10.5,290.27125,74.78467)" fill="#231f20"/>
<use xlink:href="#font_5bb_75" transform="matrix(10.5,0,0,-10.5,295.38475,73.96567)" fill="#231f20"/>
<use xlink:href="#font_5bb_8d" transform="matrix(10.5,0,0,-10.5,301.20176,72.49567)" fill="#231f20"/>
<use xlink:href="#font_5bb_7a" transform="matrix(10.5,0,0,-10.5,309.70677,72.49567)" fill="#231f20"/>
<use xlink:href="#font_5bb_6f" transform="matrix(10.5,0,0,-10.5,316.02778,72.49567)" fill="#231f20"/>
<use xlink:href="#font_5bb_9" transform="matrix(10.5,0,0,-10.5,322.44328,74.28067)" fill="#231f20"/>
<use xlink:href="#font_5bb_1" transform="matrix(10.5,0,0,-10.5,324.9528,72.49567)" fill="#231f20"/>
<use xlink:href="#font_5bb_7b" transform="matrix(10.5,0,0,-10.5,328.28129,72.590167)" fill="#231f20"/>
<use xlink:href="#font_5bb_7e" transform="matrix(10.5,0,0,-10.5,333.0168,72.590167)" fill="#231f20"/>
<use xlink:href="#font_5bb_78" transform="matrix(10.5,0,0,-10.5,338.2038,72.49567)" fill="#231f20"/>
<use xlink:href="#font_5bb_87" transform="matrix(10.5,0,0,-10.5,345.5538,72.49567)" fill="#231f20"/>
<use xlink:href="#font_5bb_6f" transform="matrix(10.5,0,0,-10.5,353.0718,72.49567)" fill="#231f20"/>
<use xlink:href="#font_5bb_1" transform="matrix(10.5,0,0,-10.5,359.07783,72.49567)" fill="#231f20"/>
</g>
<g id="Layer-1" data-name="P">
<symbol id="font_5bb_93">
<path d="M 0 0 L .22 0 L .22 .036000004 L .172 .041 L .155 .057000005 L .155 .43500004 L .36100004 .43500004 L .36100004 .057000005 L .344 .041 L .296 .036000004 L .296 0 L .51600006 0 L .51600006 .036000004 L .462 .041 L .44500003 .057000005 L .44500003 .42400003 L .462 .44000004 L .51600006 .44500003 L .51600006 .48100005 L 0 .48100005 L 0 .44500003 L .054000006 .44000004 L .071 .42400003 L .071 .057000005 L .054000006 .041 L 0 .036000004 L 0 0 Z "/>
</symbol>
<use xlink:href="#font_5bb_93" transform="matrix(10.5,0,0,-10.5,224.252,85.0957)" fill="#231f20"/>
<use xlink:href="#font_5bb_73" transform="matrix(10.5,0,0,-10.5,229.775,85.1902)" fill="#231f20"/>
<use xlink:href="#font_5bb_71" transform="matrix(10.5,0,0,-10.5,235.7915,85.1902)" fill="#231f20"/>
<use xlink:href="#font_5bb_85" transform="matrix(10.5,0,0,-10.5,240.989,85.0957)" fill="#231f20"/>
<use xlink:href="#font_5bb_71" transform="matrix(10.5,0,0,-10.5,246.3335,85.1902)" fill="#231f20"/>
<use xlink:href="#font_5bb_6f" transform="matrix(10.5,0,0,-10.5,251.93,85.0957)" fill="#231f20"/>
</g>
<g id="Layer-1" data-name="P">
<symbol id="font_5bc_29">
<path d="M .27899999 0 L .27899999 .263 L .43 .674 L .29400004 .674 L .254 .51600006 C .24200002 .46800003 .231 .41900004 .223 .37 L .22100002 .37 C .21100001 .42000003 .19800002 .47000004 .186 .513 L .14 .674 L 0 .674 L .148 .25800003 L .148 0 L .27899999 0 Z "/>
</symbol>
<use xlink:href="#font_5bc_29" transform="matrix(10,0,0,-10,217.5251,119.18378)" fill="#231f20"/>
</g>
<g id="Layer-1" data-name="P">
<symbol id="font_5ba_4d">
<path d="M 0 .70600005 L 0 .661 L .060000004 .653 L .238 .20700002 C .21700001 .157 .19500001 .11400001 .16 .08500001 L .07300001 .14500001 C .052 .135 .021000002 .113000009 .021000002 .075 C .021000002 .023000002 .075 0 .105000007 0 C .131 0 .17 .009000003 .214 .05600001 C .245 .09 .27400003 .13700001 .293 .18400002 L .48600004 .653 L .54 .661 L .54 .70600005 L .34800003 .70600005 L .34800003 .661 L .40100003 .656 L .41000004 .64100006 L .30100004 .35900004 L .193 .642 L .20300001 .656 L .254 .661 L .254 .70600005 L 0 .70600005 Z "/>
</symbol>
<symbol id="font_5ba_35">
<path d="M .317 .009000001 L .49200005 .009000001 L .49200005 .054 L .44000004 .059 L .42700003 .07300001 L .42700003 .33100004 C .42700003 .37800003 .423 .43400003 .38400004 .47000004 C .34600003 .506 .28100003 .508 .252 .508 C .213 .508 .14400001 .504 .086 .47300003 C .028000005 .44200004 .024000004 .404 .024000004 .38900004 C .024000004 .363 .049000004 .35500003 .07000001 .35500003 L .16200002 .35500003 L .16200002 .44900004 C .18100001 .45200003 .19500001 .45400004 .21000001 .45400004 C .3 .45400004 .30400003 .39400003 .30400003 .36 L .30400003 .351 L .30400003 .321 C .268 .31300003 .16800002 .29000003 .118 .272 C .068 .254 0 .22000002 0 .134 C 0 .058000003 .042000005 0 .133 0 C .194 0 .25 .031000004 .30400003 .06600001 L .317 .009000001 M .30400003 .10700001 C .261 .08800001 .236 .07800001 .208 .07800001 C .17400001 .07800001 .134 .09200001 .134 .15200001 C .134 .22600001 .222 .255 .30400003 .27 L .30400003 .10700001 Z "/>
</symbol>
<symbol id="font_5ba_38">
<path d="M .35200004 .661 L .35200004 .499 C .323 .504 .289 .508 .26200003 .508 C .13900002 .508 0 .441 0 .24000001 C 0 .08900001 .09200001 0 .194 0 C .25300003 0 .30600003 .031000004 .35200004 .065000008 L .35200004 .009000001 L .54 .009000001 L .54 .054 L .48900003 .059 L .47500003 .07300001 L .47500003 .748 L .42700003 .748 L .279 .70100006 L .279 .661 L .35200004 .661 M .35200004 .10400001 C .312 .08800001 .286 .08500001 .272 .08500001 C .16000001 .08500001 .134 .17800002 .134 .261 C .134 .36 .171 .45400004 .27800004 .45400004 C .30200003 .45400004 .319 .448 .35200004 .43800003 L .35200004 .10400001 Z "/>
</symbol>
<use xlink:href="#font_5ba_4d" transform="matrix(10.5,0,0,-10.5,50.9816,140.89643)" fill="#231f20"/>
<use xlink:href="#font_5ba_35" transform="matrix(10.5,0,0,-10.5,56.819604,138.69142)" fill="#231f20"/>
<use xlink:href="#font_5ba_46" transform="matrix(10.5,0,0,-10.5,62.353105,138.59693)" fill="#231f20"/>
<use xlink:href="#font_5ba_38" transform="matrix(10.5,0,0,-10.5,66.9101,138.69142)" fill="#231f20"/>
<use xlink:href="#font_5ba_7" transform="matrix(10.5,0,0,-10.5,73.10511,140.43442)" fill="#231f20"/>
<use xlink:href="#font_5ba_1" transform="matrix(10.5,0,0,-10.5,75.81411,138.59693)" fill="#231f20"/>
</g>
<g id="Layer-1" data-name="P">
<g id="Layer-2" data-name="Span">
</g>
<symbol id="font_5bb_7f">
<path d="M 0 .48100005 L 0 .44500003 L .054000006 .44000004 L .071 .42400003 L .071 .057000005 L .054000006 .041 L 0 .036000004 L 0 0 L .25300003 0 C .294 0 .344 .004 .38700003 .033 C .432 .063 .44400005 .105000007 .44400005 .13700001 C .44400005 .22100002 .377 .25 .32200004 .25500003 L .32200004 .257 C .377 .27100004 .418 .314 .418 .372 C .418 .43 .386 .48100005 .24800003 .48100005 L 0 .48100005 M .155 .43500004 C .18200001 .441 .20500002 .44300003 .23000002 .44300003 C .277 .44300003 .33600004 .42800004 .33600004 .35700003 C .33600004 .272 .25300003 .268 .21000001 .268 C .18800001 .268 .17400001 .26900003 .155 .27100004 L .155 .43500004 M .155 .22900002 C .178 .23200001 .20400001 .23400001 .231 .23400001 C .25800003 .23400001 .29500003 .23300001 .321 .216 C .35300002 .19500001 .358 .163 .358 .13700001 C .358 .063 .289 .038000004 .231 .038000004 C .202 .038000004 .18100001 .040000004 .155 .046000005 L .155 .22900002 Z "/>
</symbol>
<use xlink:href="#font_5bb_e" transform="matrix(10.5,0,0,-10.5,79.6943,138.59693)" fill="#231f20"/>
<use xlink:href="#font_5bb_14" transform="matrix(10.5,0,0,-10.5,85.332798,138.99593)" fill="#231f20"/>
<use xlink:href="#font_5bb_1" transform="matrix(10.5,0,0,-10.5,90.42529,138.59693)" fill="#231f20"/>
<use xlink:href="#font_5bb_60" transform="matrix(10.5,0,0,-10.5,93.365299,136.39192)" fill="#231f20"/>
<use xlink:href="#font_5bb_1" transform="matrix(10.5,0,0,-10.5,103.865299,138.59693)" fill="#231f20"/>
<use xlink:href="#font_5bb_75" transform="matrix(10.5,0,0,-10.5,106.700298,140.06693)" fill="#231f20"/>
<use xlink:href="#font_5bb_7f" transform="matrix(10.5,0,0,-10.5,112.5173,138.59693)" fill="#231f20"/>
<use xlink:href="#font_5bb_71" transform="matrix(10.5,0,0,-10.5,118.15475,138.69142)" fill="#231f20"/>
<use xlink:href="#font_5bb_82" transform="matrix(10.5,0,0,-10.5,123.66725,140.88593)" fill="#231f20"/>
</g>
<g id="Layer-1" data-name="P">
<symbol id="font_5ba_49">
<path d="M .14000002 .508 L 0 .46000005 L 0 .42100004 L .065000008 .42100004 L .065000008 .171 C .065000008 .11000001 .083000008 0 .19800002 0 C .26600004 0 .32400004 .035 .36900003 .064 L .36900003 .009000001 L .557 .009000001 L .557 .054 L .506 .059 L .492 .07300001 L .492 .508 L .44600005 .508 L .30400003 .46000005 L .30400003 .42100004 L .36900003 .42100004 L .36900003 .102000009 C .33800004 .09200001 .30400003 .08600001 .28000004 .08600001 C .25800003 .08600001 .23000002 .08900001 .21000001 .113000009 C .18900001 .13800001 .18800003 .17600002 .18800003 .19800002 L .18800003 .508 L .14000002 .508 Z "/>
</symbol>
<symbol id="font_5ba_42">
<path d="M .0030000006 0 L .24900002 0 L .24900002 .045 L .20500002 .05 L .19100002 .064 L .19100002 .39400003 C .24900002 .411 .277 .41200004 .286 .41200004 C .35200004 .41200004 .37600003 .36 .37600003 .3 L .37600003 .064 L .36200003 .05 L .31800003 .045 L .31800003 0 L .564 0 L .564 .045 L .512 .05 L .499 .064 L .499 .33200003 C .499 .37100003 .49100007 .499 .367 .499 C .31100003 .499 .24300003 .467 .19100002 .437 L .19100002 .49600003 L .143 .49600003 L 0 .44900004 L 0 .409 L .068 .409 L .068 .064 L .054 .05 L .0030000006 .045 L .0030000006 0 Z "/>
</symbol>
<symbol id="font_5ba_3b">
<path d="M .373 .68500009 C .312 .712 .266 .716 .239 .716 C .153 .716 .101 .689 .071 .661 C .045 .63600006 .021000002 .59800007 .021000002 .54 C .021000002 .46100004 .074 .41400004 .14500001 .39200003 C .12000001 .36900003 .09 .34100003 .09 .296 C .09 .287 .092 .266 .10300001 .24700001 C .049000004 .24100001 0 .21100001 0 .139 C 0 .094000007 .02 .055000009 .069000009 .029 C .085 .019999996 .12799999 0 .20700002 0 C .30400003 0 .36400003 .030000002 .389 .045 C .46100004 .088 .47600005 .142 .47600005 .18100001 C .47600005 .22800002 .451 .255 .405 .277 C .384 .287 .345 .301 .257 .31300003 L .18900001 .32200004 C .18800003 .329 .18600002 .33900003 .18600002 .347 C .18600002 .366 .192 .381 .194 .38600005 C .20200002 .38500003 .21200001 .38500003 .22299999 .38500003 C .268 .38500003 .335 .393 .38500003 .43700005 C .43100003 .47800002 .43600003 .527 .43600003 .554 C .43600003 .56500008 .43400003 .594 .41300003 .628 L .521 .628 L .521 .68500009 L .373 .68500009 M .231 .669 C .26 .669 .313 .642 .313 .55 C .313 .53400006 .31100003 .497 .293 .467 C .27400003 .43600003 .24700001 .43 .231 .43 C .17500001 .43 .14900002 .503 .14900002 .551 C .14900002 .582 .16500002 .669 .231 .669 M .24900002 .222 C .31 .21200001 .328 .2 .336 .194 C .35300002 .18 .35700003 .163 .35700003 .148 C .35700003 .096 .30400003 .054000006 .241 .054000006 C .164 .054000006 .123 .107 .123 .15400002 C .123 .192 .14700002 .221 .164 .236 L .24900002 .222 Z "/>
</symbol>
<use xlink:href="#font_5ba_4d" transform="matrix(10.5,0,0,-10.5,223.89499,140.89643)" fill="#231f20"/>
<use xlink:href="#font_5ba_43" transform="matrix(10.5,0,0,-10.5,229.733,138.69142)" fill="#231f20"/>
<use xlink:href="#font_5ba_49" transform="matrix(10.5,0,0,-10.5,235.7495,138.69142)" fill="#231f20"/>
<use xlink:href="#font_5ba_42" transform="matrix(10.5,0,0,-10.5,242.0915,138.59693)" fill="#231f20"/>
<use xlink:href="#font_5ba_3b" transform="matrix(10.5,0,0,-10.5,248.486,140.87543)" fill="#231f20"/>
<use xlink:href="#font_5ba_7" transform="matrix(10.5,0,0,-10.5,254.24,140.43442)" fill="#231f20"/>
<use xlink:href="#font_5ba_1" transform="matrix(10.5,0,0,-10.5,256.949,138.59693)" fill="#231f20"/>
</g>
<g id="Layer-1" data-name="P">
<g id="Layer-2" data-name="Span">
</g>
<symbol id="font_5bb_11">
<path d="M .34100003 .71500006 L 0 .297 L 0 .23200001 L .322 .23200001 L .322 0 L .4 0 L .4 .23200001 L .512 .23200001 L .512 .297 L .4 .297 L .4 .71500006 L .34100003 .71500006 M .322 .606 L .322 .297 L .075 .297 L .322 .606 Z "/>
</symbol>
<use xlink:href="#font_5bb_e" transform="matrix(10.5,0,0,-10.5,260.8292,138.59693)" fill="#231f20"/>
<use xlink:href="#font_5bb_11" transform="matrix(10.5,0,0,-10.5,266.0057,138.99593)" fill="#231f20"/>
<use xlink:href="#font_5bb_1" transform="matrix(10.5,0,0,-10.5,271.5602,138.59693)" fill="#231f20"/>
<use xlink:href="#font_5bb_60" transform="matrix(10.5,0,0,-10.5,274.5002,136.39192)" fill="#231f20"/>
<use xlink:href="#font_5bb_1" transform="matrix(10.5,0,0,-10.5,285.0002,138.59693)" fill="#231f20"/>
<use xlink:href="#font_5bb_78" transform="matrix(10.5,0,0,-10.5,288.25523,138.59693)" fill="#231f20"/>
<use xlink:href="#font_5bb_71" transform="matrix(10.5,0,0,-10.5,295.6787,138.69142)" fill="#231f20"/>
<use xlink:href="#font_5bb_73" transform="matrix(10.5,0,0,-10.5,300.75025,138.69142)" fill="#231f20"/>
<use xlink:href="#font_5bb_71" transform="matrix(10.5,0,0,-10.5,306.76673,138.69142)" fill="#231f20"/>
<use xlink:href="#font_5bb_75" transform="matrix(10.5,0,0,-10.5,311.73326,140.06693)" fill="#231f20"/>
<use xlink:href="#font_5bb_71" transform="matrix(10.5,0,0,-10.5,317.62376,138.69142)" fill="#231f20"/>
<use xlink:href="#font_5bb_6f" transform="matrix(10.5,0,0,-10.5,323.22029,138.59693)" fill="#231f20"/>
</g>
<g id="Layer-1" data-name="P">
<use xlink:href="#font_5ba_4d" transform="matrix(10.5,0,0,-10.5,50.9816,158.29358)" fill="#231f20"/>
<use xlink:href="#font_5ba_39" transform="matrix(10.5,0,0,-10.5,56.819604,156.08858)" fill="#231f20"/>
<use xlink:href="#font_5ba_35" transform="matrix(10.5,0,0,-10.5,62.3216,156.08858)" fill="#231f20"/>
<use xlink:href="#font_5ba_46" transform="matrix(10.5,0,0,-10.5,67.8551,155.99408)" fill="#231f20"/>
<use xlink:href="#font_5ba_7" transform="matrix(10.5,0,0,-10.5,71.84511,157.83158)" fill="#231f20"/>
<use xlink:href="#font_5ba_1" transform="matrix(10.5,0,0,-10.5,74.55411,155.99408)" fill="#231f20"/>
</g>
<g id="Layer-1" data-name="P">
<g id="Layer-2" data-name="Span">
</g>
<symbol id="font_5bb_d">
<path d="M .24000001 .69500008 C .18800003 .69500008 .12000001 .68100008 .067 .60800006 C .008000001 .52700009 0 .412 0 .34600003 C 0 .23 .04 0 .23700002 0 C .299 0 .365 .023000002 .414 .098000008 C .432 .125 .47400005 .201 .47400005 .351 C .47400005 .46400003 .449 .55300006 .404 .61200007 C .354 .67800006 .29000003 .69500008 .24000001 .69500008 M .23500002 .6470001 C .291 .6470001 .321 .61100009 .337 .5820001 C .366 .53000006 .38000003 .455 .38000003 .349 C .38000003 .22600001 .361 .162 .343 .124000009 C .326 .08800001 .29500003 .048 .23700002 .048 C .11300001 .048 .094000007 .21800001 .094000007 .347 C .094000007 .558 .14500001 .6470001 .23500002 .6470001 Z "/>
</symbol>
<symbol id="font_5bb_6a">
<path d="M 0 0 L .24200002 0 L .24200002 .036000004 L .172 .041 L .155 .057000005 L .155 .43500004 L .314 .43500004 L .32900004 .41900004 L .34300003 .316 L .39400003 .316 L .39400003 .48100005 L 0 .48100005 L 0 .44500003 L .054000006 .44000004 L .071 .42400003 L .071 .057000005 L .054000006 .041 L 0 .036000004 L 0 0 Z "/>
</symbol>
<use xlink:href="#font_5bb_e" transform="matrix(10.5,0,0,-10.5,78.4344,155.99408)" fill="#231f20"/>
<use xlink:href="#font_5bb_d" transform="matrix(10.5,0,0,-10.5,83.432399,156.12009)" fill="#231f20"/>
<use xlink:href="#font_5bb_1" transform="matrix(10.5,0,0,-10.5,88.8399,155.99408)" fill="#231f20"/>
<use xlink:href="#font_5bb_60" transform="matrix(10.5,0,0,-10.5,91.7799,153.78908)" fill="#231f20"/>
<use xlink:href="#font_5bb_1" transform="matrix(10.5,0,0,-10.5,102.2799,155.99408)" fill="#231f20"/>
<use xlink:href="#font_5bb_6a" transform="matrix(10.5,0,0,-10.5,105.534908,155.99408)" fill="#231f20"/>
<use xlink:href="#font_5bb_71" transform="matrix(10.5,0,0,-10.5,110.2284,156.08858)" fill="#231f20"/>
<use xlink:href="#font_5bb_75" transform="matrix(10.5,0,0,-10.5,115.1949,157.46408)" fill="#231f20"/>
</g>
<g id="Layer-1" data-name="P">
<use xlink:href="#font_5ba_4d" transform="matrix(10.5,0,0,-10.5,223.89499,158.29358)" fill="#231f20"/>
<use xlink:href="#font_5ba_43" transform="matrix(10.5,0,0,-10.5,229.733,156.08858)" fill="#231f20"/>
<use xlink:href="#font_5ba_49" transform="matrix(10.5,0,0,-10.5,235.7495,156.08858)" fill="#231f20"/>
<use xlink:href="#font_5ba_46" transform="matrix(10.5,0,0,-10.5,242.0495,155.99408)" fill="#231f20"/>
<use xlink:href="#font_5ba_7" transform="matrix(10.5,0,0,-10.5,246.0395,157.83158)" fill="#231f20"/>
<use xlink:href="#font_5ba_1" transform="matrix(10.5,0,0,-10.5,248.7485,155.99408)" fill="#231f20"/>
</g>
<g id="Layer-1" data-name="P">
<g id="Layer-2" data-name="Span">
</g>
<symbol id="font_5bb_10">
<path d="M .11200001 .61500009 C .151 .64100006 .183 .64400008 .204 .64400008 C .232 .64400008 .271 .6380001 .301 .60600009 C .329 .57600006 .333 .53800007 .333 .51600006 C .333 .40800003 .234 .386 .187 .386 L .15800002 .386 L .15800002 .32700003 L .16800002 .328 C .18 .329 .20000002 .331 .21200001 .331 C .307 .331 .359 .286 .359 .205 C .359 .125 .303 .048 .19800002 .048 C .164 .048 .139 .057000005 .117000009 .072000008 L .086 .157 C .076000008 .16 .06600001 .162 .057000005 .162 C .019000002 .162 0 .136 0 .11100001 C 0 .051 .1 0 .19800002 0 C .262 0 .324 .018 .37100003 .052 C .439 .102000009 .451 .16600001 .451 .206 C .451 .31100003 .368 .36 .276 .365 L .276 .367 C .361 .388 .425 .442 .425 .52800008 C .425 .61800006 .36200003 .69500008 .22800002 .69500008 C .14000002 .69500008 .017 .65000006 .017 .56200006 C .017 .535 .034 .508 .071 .508 C .080000009 .508 .09700001 .51000007 .11200001 .521 L .11200001 .61500009 Z "/>
</symbol>
<use xlink:href="#font_5bb_e" transform="matrix(10.5,0,0,-10.5,252.6289,155.99408)" fill="#231f20"/>
<use xlink:href="#font_5bb_10" transform="matrix(10.5,0,0,-10.5,257.73194,156.12009)" fill="#231f20"/>
<use xlink:href="#font_5bb_1" transform="matrix(10.5,0,0,-10.5,263.13945,155.99408)" fill="#231f20"/>
<use xlink:href="#font_5bb_60" transform="matrix(10.5,0,0,-10.5,266.07945,153.78908)" fill="#231f20"/>
<use xlink:href="#font_5bb_1" transform="matrix(10.5,0,0,-10.5,276.57945,155.99408)" fill="#231f20"/>
<use xlink:href="#font_5bb_7f" transform="matrix(10.5,0,0,-10.5,279.83445,155.99408)" fill="#231f20"/>
<use xlink:href="#font_5bb_7e" transform="matrix(10.5,0,0,-10.5,285.52546,156.08858)" fill="#231f20"/>
<use xlink:href="#font_5bb_8d" transform="matrix(10.5,0,0,-10.5,290.71244,155.99408)" fill="#231f20"/>
</g>
<g id="Layer-1" data-name="P">
<symbol id="font_5ba_40">
<path d="M 0 0 L .26700003 0 L .26700003 .045 L .21000001 .05 L .19500001 .064 L .19500001 .739 L .15100001 .739 L 0 .69100007 L 0 .652 L .072 .652 L .072 .064 L .058000003 .05 L 0 .045 L 0 0 Z "/>
</symbol>
<use xlink:href="#font_5ba_4d" transform="matrix(10.5,0,0,-10.5,50.9816,175.69101)" fill="#231f20"/>
<use xlink:href="#font_5ba_39" transform="matrix(10.5,0,0,-10.5,56.819604,173.48601)" fill="#231f20"/>
<use xlink:href="#font_5ba_40" transform="matrix(10.5,0,0,-10.5,62.1851,173.39151)" fill="#231f20"/>
<use xlink:href="#font_5ba_40" transform="matrix(10.5,0,0,-10.5,65.3666,173.39151)" fill="#231f20"/>
<use xlink:href="#font_5ba_43" transform="matrix(10.5,0,0,-10.5,68.6846,173.48601)" fill="#231f20"/>
<use xlink:href="#font_5ba_4b" transform="matrix(10.5,0,0,-10.5,74.22861,173.39151)" fill="#231f20"/>
<use xlink:href="#font_5ba_7" transform="matrix(10.5,0,0,-10.5,82.55511,175.229)" fill="#231f20"/>
<use xlink:href="#font_5ba_1" transform="matrix(10.5,0,0,-10.5,85.26411,173.39151)" fill="#231f20"/>
</g>
<g id="Layer-1" data-name="P">
<g id="Layer-2" data-name="Span">
</g>
<use xlink:href="#font_5bb_e" transform="matrix(10.5,0,0,-10.5,89.1444,173.39151)" fill="#231f20"/>
<use xlink:href="#font_5bb_e" transform="matrix(10.5,0,0,-10.5,94.835399,173.39151)" fill="#231f20"/>
<use xlink:href="#font_5bb_1" transform="matrix(10.5,0,0,-10.5,99.72839,173.39151)" fill="#231f20"/>
<use xlink:href="#font_5bb_60" transform="matrix(10.5,0,0,-10.5,102.668399,171.18651)" fill="#231f20"/>
<use xlink:href="#font_5bb_1" transform="matrix(10.5,0,0,-10.5,113.168399,173.39151)" fill="#231f20"/>
<use xlink:href="#font_5bb_89" transform="matrix(10.5,0,0,-10.5,116.1084,173.39151)" fill="#231f20"/>
<use xlink:href="#font_5bb_80" transform="matrix(10.5,0,0,-10.5,124.203899,173.48601)" fill="#231f20"/>
<use xlink:href="#font_5bb_73" transform="matrix(10.5,0,0,-10.5,128.7504,173.48601)" fill="#231f20"/>
<use xlink:href="#font_5bb_74" transform="matrix(10.5,0,0,-10.5,134.5464,173.39151)" fill="#231f20"/>
<use xlink:href="#font_5bb_87" transform="matrix(10.5,0,0,-10.5,139.6494,173.39151)" fill="#231f20"/>
<use xlink:href="#font_5bb_6f" transform="matrix(10.5,0,0,-10.5,147.1674,173.39151)" fill="#231f20"/>
</g>
<g id="Layer-1" data-name="P">
<use xlink:href="#font_5ba_4d" transform="matrix(10.5,0,0,-10.5,223.89499,175.69101)" fill="#231f20"/>
<use xlink:href="#font_5ba_43" transform="matrix(10.5,0,0,-10.5,229.733,173.48601)" fill="#231f20"/>
<use xlink:href="#font_5ba_49" transform="matrix(10.5,0,0,-10.5,235.7495,173.48601)" fill="#231f20"/>
<use xlink:href="#font_5ba_46" transform="matrix(10.5,0,0,-10.5,242.0495,173.39151)" fill="#231f20"/>
<use xlink:href="#font_5ba_47" transform="matrix(10.5,0,0,-10.5,246.6485,173.48601)" fill="#231f20"/>
<use xlink:href="#font_5ba_7" transform="matrix(10.5,0,0,-10.5,251.237,175.229)" fill="#231f20"/>
<use xlink:href="#font_5ba_1" transform="matrix(10.5,0,0,-10.5,253.946,173.39151)" fill="#231f20"/>
</g>
<g id="Layer-1" data-name="P">
<g id="Layer-2" data-name="Span">
</g>
<symbol id="font_5bb_6">
<path d="M .28 .8600001 C .09900001 .836 0 .6840001 0 .42900003 C 0 .176 .102 .019000002 .28 0 L .28 .042000005 C .14500001 .069 .08500001 .186 .08500001 .42700006 C .08500001 .67300006 .144 .79 .28 .8180001 L .28 .8600001 Z "/>
</symbol>
<symbol id="font_5bb_79">
<path d="M .10800001 .23100002 C .11500001 .23200001 .148 .23500002 .16700001 .23500002 C .19500001 .23500002 .27400003 .23200001 .27400003 .143 C .27400003 .067 .215 .044 .155 .044 C .13100001 .044 .097 .048 .062000008 .06600001 L .048 .15100001 L 0 .15100001 L 0 .021000002 C .033 .012 .08800001 0 .157 0 C .24200002 0 .36600004 .024 .36600004 .14500001 C .36600004 .23700002 .291 .261 .24100003 .26500003 L .24100003 .26700003 C .303 .28100003 .344 .326 .344 .379 C .344 .49100004 .231 .499 .16600001 .499 C .13900002 .499 .091000009 .49700005 .02 .47800002 L .02 .365 L .068 .365 L .079 .43600003 C .10900001 .45000003 .13800001 .455 .163 .455 C .193 .455 .25800003 .44700004 .25800003 .36900003 C .25800003 .28500004 .19000001 .279 .15400002 .279 C .13700001 .279 .12200001 .28000004 .10800001 .282 L .10800001 .23100002 Z "/>
</symbol>
<symbol id="font_5bb_77">
<path d="M 0 0 L .22 0 L .22 .036000004 L .172 .041 L .155 .057000005 L .155 .22800002 L .379 .22800002 L .379 .057000005 L .36200003 .041 L .314 .036000004 L .314 0 L .53400006 0 L .53400006 .036000004 L .48000006 .041 L .46300004 .057000005 L .46300004 .42400003 L .48000006 .44000004 L .53400006 .44500003 L .53400006 .48100005 L .314 .48100005 L .314 .44500003 L .36200003 .44000004 L .379 .42400003 L .379 .27400003 L .155 .27400003 L .155 .42400003 L .172 .44000004 L .22 .44500003 L .22 .48100005 L 0 .48100005 L 0 .44500003 L .054000006 .44000004 L .071 .42400003 L .071 .057000005 L .054000006 .041 L 0 .036000004 L 0 0 Z "/>
</symbol>
<use xlink:href="#font_5bb_e" transform="matrix(10.5,0,0,-10.5,257.8261,173.39151)" fill="#231f20"/>
<use xlink:href="#font_5bb_11" transform="matrix(10.5,0,0,-10.5,263.00263,173.79051)" fill="#231f20"/>
<use xlink:href="#font_5bb_1" transform="matrix(10.5,0,0,-10.5,268.55714,173.39151)" fill="#231f20"/>
<use xlink:href="#font_5bb_60" transform="matrix(10.5,0,0,-10.5,271.49714,171.18651)" fill="#231f20"/>
<use xlink:href="#font_5bb_1" transform="matrix(10.5,0,0,-10.5,281.99714,173.39151)" fill="#231f20"/>
<use xlink:href="#font_5bb_7f" transform="matrix(10.5,0,0,-10.5,285.25215,173.39151)" fill="#231f20"/>
<use xlink:href="#font_5bb_7e" transform="matrix(10.5,0,0,-10.5,290.94316,173.48601)" fill="#231f20"/>
<use xlink:href="#font_5bb_8d" transform="matrix(10.5,0,0,-10.5,296.13014,173.39151)" fill="#231f20"/>
<use xlink:href="#font_5bb_1" transform="matrix(10.5,0,0,-10.5,304.32014,173.39151)" fill="#231f20"/>
<use xlink:href="#font_5bb_6" transform="matrix(10.5,0,0,-10.5,308.37315,174.8825)" fill="#231f20"/>
<use xlink:href="#font_5bb_83" transform="matrix(10.5,0,0,-10.5,311.62815,175.68051)" fill="#231f20"/>
<use xlink:href="#font_5bb_89" transform="matrix(10.5,0,0,-10.5,316.84666,173.39151)" fill="#231f20"/>
<use xlink:href="#font_5bb_80" transform="matrix(10.5,0,0,-10.5,324.94215,173.48601)" fill="#231f20"/>
<use xlink:href="#font_5bb_1" transform="matrix(10.5,0,0,-10.5,329.69865,173.39151)" fill="#231f20"/>
<use xlink:href="#font_5bb_7a" transform="matrix(10.5,0,0,-10.5,332.95365,173.39151)" fill="#231f20"/>
<use xlink:href="#font_5bb_79" transform="matrix(10.5,0,0,-10.5,339.27467,173.48601)" fill="#231f20"/>
<use xlink:href="#font_5bb_7f" transform="matrix(10.5,0,0,-10.5,343.74766,173.39151)" fill="#231f20"/>
<use xlink:href="#font_5bb_80" transform="matrix(10.5,0,0,-10.5,349.38615,173.48601)" fill="#231f20"/>
<use xlink:href="#font_5bb_7b" transform="matrix(10.5,0,0,-10.5,354.53114,173.48601)" fill="#231f20"/>
<use xlink:href="#font_5bb_74" transform="matrix(10.5,0,0,-10.5,359.2026,173.39151)" fill="#231f20"/>
<use xlink:href="#font_5bb_77" transform="matrix(10.5,0,0,-10.5,364.3056,173.39151)" fill="#231f20"/>
<use xlink:href="#font_5bb_87" transform="matrix(10.5,0,0,-10.5,370.5426,173.39151)" fill="#231f20"/>
<use xlink:href="#font_5bb_6f" transform="matrix(10.5,0,0,-10.5,378.0606,173.39151)" fill="#231f20"/>
<use xlink:href="#font_5bb_1" transform="matrix(10.5,0,0,-10.5,384.06663,173.39151)" fill="#231f20"/>
</g>
<g id="Layer-1" data-name="P">
<symbol id="font_5bb_7">
<path d="M 0 .8180001 C .13700001 .79 .19500001 .67300006 .19500001 .42800004 C .19500001 .186 .135 .069 0 .042000005 L 0 0 C .178 .019999996 .28000004 .176 .28000004 .42900003 C .28000004 .6840001 .18100001 .836 0 .8600001 L 0 .8180001 Z "/>
</symbol>
<use xlink:href="#font_5bb_93" transform="matrix(10.5,0,0,-10.5,224.252,185.99149)" fill="#231f20"/>
<use xlink:href="#font_5bb_82" transform="matrix(10.5,0,0,-10.5,230.216,188.28049)" fill="#231f20"/>
<use xlink:href="#font_5bb_80" transform="matrix(10.5,0,0,-10.5,236.16951,186.08599)" fill="#231f20"/>
<use xlink:href="#font_5bb_75" transform="matrix(10.5,0,0,-10.5,240.82102,187.46149)" fill="#231f20"/>
<use xlink:href="#font_5bb_78" transform="matrix(10.5,0,0,-10.5,246.63802,185.99149)" fill="#231f20"/>
<use xlink:href="#font_5bb_80" transform="matrix(10.5,0,0,-10.5,254.06153,186.08599)" fill="#231f20"/>
<use xlink:href="#font_5bb_74" transform="matrix(10.5,0,0,-10.5,258.98603,185.99149)" fill="#231f20"/>
<use xlink:href="#font_5bb_7" transform="matrix(10.5,0,0,-10.5,264.09953,187.48249)" fill="#231f20"/>
</g>
<g id="Layer-1" data-name="P">
<use xlink:href="#font_5ba_4d" transform="matrix(10.5,0,0,-10.5,50.9816,205.6882)" fill="#231f20"/>
<use xlink:href="#font_5ba_39" transform="matrix(10.5,0,0,-10.5,56.819604,203.4832)" fill="#231f20"/>
<use xlink:href="#font_5ba_47" transform="matrix(10.5,0,0,-10.5,62.3636,203.4832)" fill="#231f20"/>
<use xlink:href="#font_5ba_7" transform="matrix(10.5,0,0,-10.5,66.9521,205.2262)" fill="#231f20"/>
<use xlink:href="#font_5ba_1" transform="matrix(10.5,0,0,-10.5,69.6611,203.3887)" fill="#231f20"/>
</g>
<g id="Layer-1" data-name="P">
<g id="Layer-2" data-name="Span">
</g>
<use xlink:href="#font_5bb_14" transform="matrix(10.5,0,0,-10.5,73.3418,203.7877)" fill="#231f20"/>
<use xlink:href="#font_5bb_1" transform="matrix(10.5,0,0,-10.5,78.434299,203.3887)" fill="#231f20"/>
<use xlink:href="#font_5bb_60" transform="matrix(10.5,0,0,-10.5,81.3743,201.1837)" fill="#231f20"/>
<use xlink:href="#font_5bb_1" transform="matrix(10.5,0,0,-10.5,91.8743,203.3887)" fill="#231f20"/>
<use xlink:href="#font_5bb_75" transform="matrix(10.5,0,0,-10.5,94.7093,204.8587)" fill="#231f20"/>
<use xlink:href="#font_5bb_7e" transform="matrix(10.5,0,0,-10.5,100.652309,203.4832)" fill="#231f20"/>
</g>
<g id="Layer-1" data-name="P">
<symbol id="font_5ba_3a">
<path d="M .0010000002 0 L .27100004 0 L .27100004 .045 L .20400001 .05 L .18800001 .064 L .18800001 .41400004 L .32200004 .41400004 L .32200004 .47400005 L .18800001 .47400005 L .18800001 .53400006 C .18800001 .625 .20300001 .66300007 .22700002 .694 L .32400004 .60800006 C .35200004 .61600008 .38200004 .634 .38200004 .671 C .38200004 .72300007 .32900004 .74300006 .28800003 .74300006 C .228 .74300006 .18100001 .71400007 .15 .68700006 C .079 .625 .065 .544 .065 .48800005 L .065 .48200003 L 0 .45200003 L 0 .41400004 L .065 .41400004 L .065 .064 L .051 .05 L .0010000002 .045 L .0010000002 0 Z "/>
</symbol>
<use xlink:href="#font_5ba_4d" transform="matrix(10.5,0,0,-10.5,223.89499,205.6882)" fill="#231f20"/>
<use xlink:href="#font_5ba_43" transform="matrix(10.5,0,0,-10.5,229.733,203.4832)" fill="#231f20"/>
<use xlink:href="#font_5ba_49" transform="matrix(10.5,0,0,-10.5,235.7495,203.4832)" fill="#231f20"/>
<use xlink:href="#font_5ba_46" transform="matrix(10.5,0,0,-10.5,242.0495,203.3887)" fill="#231f20"/>
<use xlink:href="#font_5ba_47" transform="matrix(10.5,0,0,-10.5,246.6485,203.4832)" fill="#231f20"/>
<use xlink:href="#font_5ba_39" transform="matrix(10.5,0,0,-10.5,251.3,203.4832)" fill="#231f20"/>
<use xlink:href="#font_5ba_40" transform="matrix(10.5,0,0,-10.5,256.66554,203.3887)" fill="#231f20"/>
<use xlink:href="#font_5ba_3a" transform="matrix(10.5,0,0,-10.5,259.9205,203.3887)" fill="#231f20"/>
<use xlink:href="#font_5ba_7" transform="matrix(10.5,0,0,-10.5,263.5115,205.2262)" fill="#231f20"/>
<use xlink:href="#font_5ba_1" transform="matrix(10.5,0,0,-10.5,266.22053,203.3887)" fill="#231f20"/>
</g>
<g id="Layer-1" data-name="P">
<g id="Layer-2" data-name="Span">
</g>
<symbol id="font_5bb_15">
<path d="M .31900005 .36700005 C .38100005 .398 .43400005 .45700003 .43400005 .535 C .43400005 .595 .38400004 .70100006 .23900001 .70100006 C .09 .70100006 .032 .609 .032 .519 C .032 .44 .077999997 .39000006 .13700001 .366 C .068 .343 0 .28500004 0 .19000001 C 0 .045 .126 0 .228 0 C .34900005 0 .462 .063 .462 .19600001 C .462 .306 .36600004 .352 .31900005 .36700005 M .17500001 .34500004 C .30500005 .297 .37600003 .277 .37600003 .18300002 C .37600003 .11000001 .32700003 .052 .233 .052 C .104 .052 .07700001 .14500001 .07700001 .19700001 C .077999997 .21000001 .076000008 .306 .17500001 .34500004 M .277 .385 C .172 .421 .114999998 .45900006 .114999998 .536 C .114999998 .58500006 .157 .653 .237 .653 C .32100005 .653 .35800005 .597 .35800005 .527 C .35800005 .453 .31200005 .408 .277 .385 Z "/>
</symbol>
<symbol id="font_5bb_18">
<path d="M .030999996 .587 C .030999996 .55300006 .060999998 .523 .095000009 .523 C .12900001 .523 .15900001 .55300006 .15900001 .587 C .15900001 .62100008 .12900001 .651 .095000009 .651 C .060999998 .651 .030999996 .62100008 .030999996 .587 M 0 0 C .098 .0119999949 .169 .087 .169 .182 C .169 .223 .15 .27600003 .091 .27600003 C .064 .27600003 .030000002 .263 .030000002 .218 C .030000002 .199 .037 .186 .046000005 .177 L .11000001 .177 L .11000001 .16600001 C .11000001 .12799999 .095000009 .045999998 0 .033999996 L 0 0 Z "/>
</symbol>
<use xlink:href="#font_5bb_e" transform="matrix(10.5,0,0,-10.5,270.1004,203.3887)" fill="#231f20"/>
<use xlink:href="#font_5bb_15" transform="matrix(10.5,0,0,-10.5,275.1929,203.5462)" fill="#231f20"/>
<use xlink:href="#font_5bb_1" transform="matrix(10.5,0,0,-10.5,280.5374,203.3887)" fill="#231f20"/>
<use xlink:href="#font_5bb_60" transform="matrix(10.5,0,0,-10.5,283.47743,201.1837)" fill="#231f20"/>
<use xlink:href="#font_5bb_1" transform="matrix(10.5,0,0,-10.5,293.97743,203.3887)" fill="#231f20"/>
<use xlink:href="#font_5bb_6" transform="matrix(10.5,0,0,-10.5,298.03044,204.8797)" fill="#231f20"/>
<use xlink:href="#font_5bb_7f" transform="matrix(10.5,0,0,-10.5,301.61094,203.3887)" fill="#231f20"/>
<use xlink:href="#font_5bb_87" transform="matrix(10.5,0,0,-10.5,306.96595,203.3887)" fill="#231f20"/>
<use xlink:href="#font_5bb_7" transform="matrix(10.5,0,0,-10.5,314.49446,204.8797)" fill="#231f20"/>
<use xlink:href="#font_5bb_1" transform="matrix(10.5,0,0,-10.5,318.54747,203.3887)" fill="#231f20"/>
<use xlink:href="#font_5bb_6" transform="matrix(10.5,0,0,-10.5,322.60047,204.8797)" fill="#231f20"/>
<use xlink:href="#font_5bb_71" transform="matrix(10.5,0,0,-10.5,326.25447,203.4832)" fill="#231f20"/>
<use xlink:href="#font_5bb_75" transform="matrix(10.5,0,0,-10.5,331.22099,204.8587)" fill="#231f20"/>
<use xlink:href="#font_5bb_7a" transform="matrix(10.5,0,0,-10.5,337.038,203.3887)" fill="#231f20"/>
<use xlink:href="#font_5bb_77" transform="matrix(10.5,0,0,-10.5,343.359,203.3887)" fill="#231f20"/>
<use xlink:href="#font_5bb_7" transform="matrix(10.5,0,0,-10.5,349.6065,204.8797)" fill="#231f20"/>
<use xlink:href="#font_5bb_1" transform="matrix(10.5,0,0,-10.5,353.65953,203.3887)" fill="#231f20"/>
<use xlink:href="#font_5bb_7b" transform="matrix(10.5,0,0,-10.5,356.988,203.4832)" fill="#231f20"/>
<use xlink:href="#font_5bb_7e" transform="matrix(10.5,0,0,-10.5,361.72355,203.4832)" fill="#231f20"/>
<use xlink:href="#font_5bb_78" transform="matrix(10.5,0,0,-10.5,366.91053,203.3887)" fill="#231f20"/>
<use xlink:href="#font_5bb_18" transform="matrix(10.5,0,0,-10.5,374.62803,205.1737)" fill="#231f20"/>
<use xlink:href="#font_5bb_1" transform="matrix(10.5,0,0,-10.5,377.3055,203.3887)" fill="#231f20"/>
</g>
<g id="Layer-1" data-name="P">
<symbol id="font_5bb_81">
<path d="M .493 .48100005 L .24600002 .48100005 C .17900002 .48100005 .07 .46600003 .07 .35000003 C .07 .28300003 .120000008 .23600002 .19500001 .23200001 L .19500001 .23 C .15200001 .215 .134 .18400002 .124000009 .165 L .067 .055000005 L .050000006 .043 L 0 .036000004 L 0 0 L .14000002 0 L .14000002 .032 L .19700001 .156 C .21200001 .186 .23000002 .21400002 .272 .21400002 L .338 .21400002 L .338 .057000005 L .321 .041 L .273 .036000004 L .273 0 L .493 0 L .493 .036000004 L .439 .041 L .42200003 .057000005 L .42200003 .42400003 L .439 .44000004 L .493 .44500003 L .493 .48100005 M .338 .25800003 C .321 .256 .304 .254 .278 .254 C .20100002 .254 .15200001 .273 .15200001 .34300003 C .15200001 .43500004 .23100002 .437 .275 .437 C .29500003 .437 .314 .43600003 .338 .432 L .338 .25800003 Z "/>
</symbol>
<use xlink:href="#font_5bb_6" transform="matrix(10.5,0,0,-10.5,225.05,217.4797)" fill="#231f20"/>
<use xlink:href="#font_5bb_7f" transform="matrix(10.5,0,0,-10.5,228.6305,215.98871)" fill="#231f20"/>
<use xlink:href="#font_5bb_87" transform="matrix(10.5,0,0,-10.5,233.98549,215.98871)" fill="#231f20"/>
<use xlink:href="#font_5bb_7" transform="matrix(10.5,0,0,-10.5,241.51399,217.4797)" fill="#231f20"/>
<use xlink:href="#font_5bb_1" transform="matrix(10.5,0,0,-10.5,245.56699,215.98871)" fill="#231f20"/>
<use xlink:href="#font_5bb_7b" transform="matrix(10.5,0,0,-10.5,248.8955,216.0832)" fill="#231f20"/>
<use xlink:href="#font_5bb_80" transform="matrix(10.5,0,0,-10.5,253.57849,216.0832)" fill="#231f20"/>
<use xlink:href="#font_5bb_9e" transform="matrix(10.5,0,0,-10.5,258.99546,216.0832)" fill="#231f20"/>
<use xlink:href="#font_5bb_81" transform="matrix(10.5,0,0,-10.5,264.17195,215.98871)" fill="#231f20"/>
</g>
<g id="Layer-1" data-name="P">
<use xlink:href="#font_5ba_4d" transform="matrix(10.5,0,0,-10.5,50.9816,235.68549)" fill="#231f20"/>
<use xlink:href="#font_5ba_39" transform="matrix(10.5,0,0,-10.5,56.819604,233.48049)" fill="#231f20"/>
<use xlink:href="#font_5ba_48" transform="matrix(10.5,0,0,-10.5,62.132604,233.43849)" fill="#231f20"/>
<use xlink:href="#font_5ba_7" transform="matrix(10.5,0,0,-10.5,66.0071,235.22348)" fill="#231f20"/>
<use xlink:href="#font_5ba_1" transform="matrix(10.5,0,0,-10.5,68.7161,233.38599)" fill="#231f20"/>
</g>
<g id="Layer-1" data-name="P">
<g id="Layer-2" data-name="Span">
</g>
<symbol id="font_5bb_8b">
<path d="M 0 .14 L .67200008 .14 L .68700006 .124 L .70500007 0 L .75600007 0 L .75600007 .186 L .691 .186 L .679 .19600001 L .679 .564 L .696 .58000007 L .75 .58500006 L .75 .62100008 L .53200009 .62100008 L .53200009 .58500006 L .57800009 .58000007 L .595 .564 L .595 .186 L .41700004 .186 L .41700004 .564 L .43400003 .58000007 L .48000006 .58500006 L .48000006 .62100008 L .27 .62100008 L .27 .58500006 L .316 .58000007 L .333 .564 L .333 .186 L .155 .186 L .155 .564 L .172 .58000007 L .21800001 .58500006 L .21800001 .62100008 L 0 .62100008 L 0 .58500006 L .054000006 .58000007 L .071 .564 L .071 .197 L .054000006 .181 L 0 .176 L 0 .14 Z "/>
</symbol>
<use xlink:href="#font_5bb_14" transform="matrix(10.5,0,0,-10.5,72.3969,233.78499)" fill="#231f20"/>
<use xlink:href="#font_5bb_1" transform="matrix(10.5,0,0,-10.5,77.489398,233.38599)" fill="#231f20"/>
<use xlink:href="#font_5bb_60" transform="matrix(10.5,0,0,-10.5,80.4294,231.18099)" fill="#231f20"/>
<use xlink:href="#font_5bb_1" transform="matrix(10.5,0,0,-10.5,90.9294,233.38599)" fill="#231f20"/>
<use xlink:href="#font_5bb_80" transform="matrix(10.5,0,0,-10.5,94.2579,233.48049)" fill="#231f20"/>
<use xlink:href="#font_5bb_8b" transform="matrix(10.5,0,0,-10.5,99.3294,234.85599)" fill="#231f20"/>
<use xlink:href="#font_5bb_80" transform="matrix(10.5,0,0,-10.5,107.90789,233.48049)" fill="#231f20"/>
<use xlink:href="#font_5bb_18" transform="matrix(10.5,0,0,-10.5,113.34689,235.17099)" fill="#231f20"/>
<use xlink:href="#font_5bb_1" transform="matrix(10.5,0,0,-10.5,116.02439,233.38599)" fill="#231f20"/>
<use xlink:href="#font_5bb_7f" transform="matrix(10.5,0,0,-10.5,119.27415,233.38599)" fill="#231f20"/>
<use xlink:href="#font_5bb_7b" transform="matrix(10.5,0,0,-10.5,124.91264,233.48049)" fill="#231f20"/>
<use xlink:href="#font_5bb_80" transform="matrix(10.5,0,0,-10.5,129.59566,233.48049)" fill="#231f20"/>
<use xlink:href="#font_5bb_1" transform="matrix(10.5,0,0,-10.5,134.35216,233.38599)" fill="#231f20"/>
<use xlink:href="#font_5bb_80" transform="matrix(10.5,0,0,-10.5,137.68067,233.48049)" fill="#231f20"/>
<use xlink:href="#font_5bb_8b" transform="matrix(10.5,0,0,-10.5,142.75217,234.85599)" fill="#231f20"/>
<use xlink:href="#font_5bb_80" transform="matrix(10.5,0,0,-10.5,151.33068,233.48049)" fill="#231f20"/>
<use xlink:href="#font_5bb_18" transform="matrix(10.5,0,0,-10.5,156.76967,235.17099)" fill="#231f20"/>
<use xlink:href="#font_5bb_1" transform="matrix(10.5,0,0,-10.5,159.44718,233.38599)" fill="#231f20"/>
<use xlink:href="#font_5bb_83" transform="matrix(10.5,0,0,-10.5,162.37668,235.67499)" fill="#231f20"/>
<use xlink:href="#font_5bb_89" transform="matrix(10.5,0,0,-10.5,167.59519,233.38599)" fill="#231f20"/>
<use xlink:href="#font_5bb_80" transform="matrix(10.5,0,0,-10.5,175.69069,233.48049)" fill="#231f20"/>
</g>
<g id="Layer-1" data-name="P">
<symbol id="font_5ba_4a">
<path d="M 0 .48700003 L 0 .44200004 L .060000004 .43500004 L .22000002 0 L .31000004 0 L .48200003 .43400003 L .54 .44200004 L .54 .48700003 L .35000003 .48700003 L .35000003 .44200004 L .40100003 .43600003 L .40900005 .42200003 L .29500003 .13100001 L .191 .423 L .202 .43600003 L .254 .44200004 L .254 .48700003 L 0 .48700003 Z "/>
</symbol>
<use xlink:href="#font_5ba_4d" transform="matrix(10.5,0,0,-10.5,223.89499,235.68549)" fill="#231f20"/>
<use xlink:href="#font_5ba_43" transform="matrix(10.5,0,0,-10.5,229.733,233.48049)" fill="#231f20"/>
<use xlink:href="#font_5ba_49" transform="matrix(10.5,0,0,-10.5,235.7495,233.48049)" fill="#231f20"/>
<use xlink:href="#font_5ba_46" transform="matrix(10.5,0,0,-10.5,242.0495,233.38599)" fill="#231f20"/>
<use xlink:href="#font_5ba_47" transform="matrix(10.5,0,0,-10.5,246.6485,233.48049)" fill="#231f20"/>
<use xlink:href="#font_5ba_39" transform="matrix(10.5,0,0,-10.5,251.3,233.48049)" fill="#231f20"/>
<use xlink:href="#font_5ba_40" transform="matrix(10.5,0,0,-10.5,256.66554,233.38599)" fill="#231f20"/>
<use xlink:href="#font_5ba_4a" transform="matrix(10.5,0,0,-10.5,259.532,233.38599)" fill="#231f20"/>
<use xlink:href="#font_5ba_39" transform="matrix(10.5,0,0,-10.5,265.37,233.48049)" fill="#231f20"/>
<use xlink:href="#font_5ba_47" transform="matrix(10.5,0,0,-10.5,270.91404,233.48049)" fill="#231f20"/>
<use xlink:href="#font_5ba_7" transform="matrix(10.5,0,0,-10.5,275.50254,235.22348)" fill="#231f20"/>
<use xlink:href="#font_5ba_1" transform="matrix(10.5,0,0,-10.5,278.21156,233.38599)" fill="#231f20"/>
</g>
<g id="Layer-1" data-name="P">
<g id="Layer-2" data-name="Span">
</g>
<use xlink:href="#font_5bb_e" transform="matrix(10.5,0,0,-10.5,282.091,233.38599)" fill="#231f20"/>
<use xlink:href="#font_5bb_15" transform="matrix(10.5,0,0,-10.5,287.1835,233.54349)" fill="#231f20"/>
<use xlink:href="#font_5bb_1" transform="matrix(10.5,0,0,-10.5,292.528,233.38599)" fill="#231f20"/>
<use xlink:href="#font_5bb_60" transform="matrix(10.5,0,0,-10.5,295.46803,231.18099)" fill="#231f20"/>
<use xlink:href="#font_5bb_1" transform="matrix(10.5,0,0,-10.5,305.96803,233.38599)" fill="#231f20"/>
<use xlink:href="#font_5bb_6" transform="matrix(10.5,0,0,-10.5,310.02104,234.87699)" fill="#231f20"/>
<use xlink:href="#font_5bb_7f" transform="matrix(10.5,0,0,-10.5,313.60154,233.38599)" fill="#231f20"/>
<use xlink:href="#font_5bb_87" transform="matrix(10.5,0,0,-10.5,318.95655,233.38599)" fill="#231f20"/>
<use xlink:href="#font_5bb_7" transform="matrix(10.5,0,0,-10.5,326.48506,234.87699)" fill="#231f20"/>
<use xlink:href="#font_5bb_1" transform="matrix(10.5,0,0,-10.5,330.53807,233.38599)" fill="#231f20"/>
<use xlink:href="#font_5bb_6" transform="matrix(10.5,0,0,-10.5,334.59107,234.87699)" fill="#231f20"/>
<use xlink:href="#font_5bb_78" transform="matrix(10.5,0,0,-10.5,338.17158,233.38599)" fill="#231f20"/>
<use xlink:href="#font_5bb_77" transform="matrix(10.5,0,0,-10.5,345.52159,233.38599)" fill="#231f20"/>
<use xlink:href="#font_5bb_71" transform="matrix(10.5,0,0,-10.5,351.83207,233.48049)" fill="#231f20"/>
<use xlink:href="#font_5bb_6a" transform="matrix(10.5,0,0,-10.5,357.4286,233.38599)" fill="#231f20"/>
<use xlink:href="#font_5bb_71" transform="matrix(10.5,0,0,-10.5,362.12208,233.48049)" fill="#231f20"/>
<use xlink:href="#font_5bb_7" transform="matrix(10.5,0,0,-10.5,367.7291,234.87699)" fill="#231f20"/>
<use xlink:href="#font_5bb_1" transform="matrix(10.5,0,0,-10.5,371.7821,233.38599)" fill="#231f20"/>
</g>
<g id="Layer-1" data-name="P">
<use xlink:href="#font_5bb_7b" transform="matrix(10.5,0,0,-10.5,224.3255,246.08049)" fill="#231f20"/>
<use xlink:href="#font_5bb_7e" transform="matrix(10.5,0,0,-10.5,229.06099,246.08049)" fill="#231f20"/>
<use xlink:href="#font_5bb_78" transform="matrix(10.5,0,0,-10.5,234.248,245.986)" fill="#231f20"/>
<use xlink:href="#font_5bb_7a" transform="matrix(10.5,0,0,-10.5,241.598,245.986)" fill="#231f20"/>
<use xlink:href="#font_5bb_18" transform="matrix(10.5,0,0,-10.5,248.2865,247.771)" fill="#231f20"/>
<use xlink:href="#font_5bb_1" transform="matrix(10.5,0,0,-10.5,250.964,245.986)" fill="#231f20"/>
<use xlink:href="#font_5bb_6" transform="matrix(10.5,0,0,-10.5,255.01177,247.47699)" fill="#231f20"/>
<use xlink:href="#font_5bb_7f" transform="matrix(10.5,0,0,-10.5,258.59226,245.986)" fill="#231f20"/>
<use xlink:href="#font_5bb_87" transform="matrix(10.5,0,0,-10.5,263.94728,245.986)" fill="#231f20"/>
<use xlink:href="#font_5bb_7" transform="matrix(10.5,0,0,-10.5,271.47578,247.47699)" fill="#231f20"/>
<use xlink:href="#font_5bb_1" transform="matrix(10.5,0,0,-10.5,275.52879,245.986)" fill="#231f20"/>
<use xlink:href="#font_5bb_7b" transform="matrix(10.5,0,0,-10.5,278.85728,246.08049)" fill="#231f20"/>
<use xlink:href="#font_5bb_80" transform="matrix(10.5,0,0,-10.5,283.54029,246.08049)" fill="#231f20"/>
<use xlink:href="#font_5bb_9e" transform="matrix(10.5,0,0,-10.5,288.95829,246.08049)" fill="#231f20"/>
<use xlink:href="#font_5bb_81" transform="matrix(10.5,0,0,-10.5,294.13478,245.986)" fill="#231f20"/>
</g>
<g id="Layer-1" data-name="P">
<use xlink:href="#font_5ba_4d" transform="matrix(10.5,0,0,-10.5,50.9816,265.6828)" fill="#231f20"/>
<use xlink:href="#font_5ba_43" transform="matrix(10.5,0,0,-10.5,56.819604,263.4778)" fill="#231f20"/>
<use xlink:href="#font_5ba_49" transform="matrix(10.5,0,0,-10.5,62.8361,263.4778)" fill="#231f20"/>
<use xlink:href="#font_5ba_7" transform="matrix(10.5,0,0,-10.5,69.2096,265.2208)" fill="#231f20"/>
<use xlink:href="#font_5ba_1" transform="matrix(10.5,0,0,-10.5,71.9186,263.3833)" fill="#231f20"/>
</g>
<g id="Layer-1" data-name="P">
<g id="Layer-2" data-name="Span">
</g>
<use xlink:href="#font_5bb_e" transform="matrix(10.5,0,0,-10.5,75.7989,263.3833)" fill="#231f20"/>
<use xlink:href="#font_5bb_10" transform="matrix(10.5,0,0,-10.5,80.90189,263.5093)" fill="#231f20"/>
<use xlink:href="#font_5bb_1" transform="matrix(10.5,0,0,-10.5,86.309398,263.3833)" fill="#231f20"/>
<use xlink:href="#font_5bb_60" transform="matrix(10.5,0,0,-10.5,89.2494,261.1783)" fill="#231f20"/>
<use xlink:href="#font_5bb_1" transform="matrix(10.5,0,0,-10.5,99.7494,263.3833)" fill="#231f20"/>
<use xlink:href="#font_5bb_7f" transform="matrix(10.5,0,0,-10.5,103.0044,263.3833)" fill="#231f20"/>
<use xlink:href="#font_5bb_87" transform="matrix(10.5,0,0,-10.5,108.359409,263.3833)" fill="#231f20"/>
</g>
<g id="Layer-1" data-name="P">
<symbol id="font_5bc_2a">
<path d="M 0 0 L .36 0 L .36 .11400001 L .157 .11400001 L .157 .117000009 L .361 .577 L .361 .674 L .02 .674 L .02 .56 L .213 .56 L .213 .55700007 L 0 .07700001 L 0 0 Z "/>
</symbol>
<use xlink:href="#font_5bc_2a" transform="matrix(10,0,0,-10,217.8601,297.4715)" fill="#231f20"/>
</g>
<g id="Layer-1" data-name="P">
<symbol id="font_5ba_4e">
<path d="M 0 0 L .41900004 0 L .41900004 .164 L .351 .164 L .33900003 .072000008 L .324 .056 L .139 .056 L .404 .43400003 L .404 .48700003 L .007999998 .48700003 L .007999998 .335 L .073 .335 L .083000008 .41700004 L .096 .43100003 L .25800003 .43100003 L 0 .062000004 L 0 0 Z "/>
</symbol>
<use xlink:href="#font_5ba_4e" transform="matrix(10.5,0,0,-10.5,51.506605,316.8845)" fill="#231f20"/>
<use xlink:href="#font_5ba_39" transform="matrix(10.5,0,0,-10.5,56.6096,316.979)" fill="#231f20"/>
<use xlink:href="#font_5ba_46" transform="matrix(10.5,0,0,-10.5,61.975099,316.8845)" fill="#231f20"/>
<use xlink:href="#font_5ba_43" transform="matrix(10.5,0,0,-10.5,66.5321,316.979)" fill="#231f20"/>
<use xlink:href="#font_5ba_7" transform="matrix(10.5,0,0,-10.5,72.601108,318.722)" fill="#231f20"/>
<use xlink:href="#font_5ba_1" transform="matrix(10.5,0,0,-10.5,75.310108,316.8845)" fill="#231f20"/>
</g>
<g id="Layer-1" data-name="P">
<g id="Layer-2" data-name="Span">
</g>
<symbol id="font_5bb_f">
<path d="M .099 .080000009 C .19100002 .15200001 .24200002 .193 .307 .257 C .381 .33 .441 .404 .441 .49800004 C .441 .611 .34500004 .683 .23400003 .683 C .109000008 .683 .020999998 .611 .020999998 .541 C .020999998 .49800004 .053999999 .48600004 .076000008 .48600004 C .087000008 .48600004 .105 .48900003 .122 .50100007 L .122 .60800006 C .15 .624 .181 .632 .21200001 .632 C .29400004 .632 .34300003 .578 .34300003 .48900003 C .34300003 .38000003 .27100004 .30400003 .20500002 .23900001 C .15600002 .19100002 .14000002 .179 0 .063 L 0 0 L .463 0 L .463 .164 L .418 .164 L .40000005 .080000009 L .099 .080000009 Z "/>
</symbol>
<symbol id="font_5bb_72">
<path d="M 0 0 L .25300003 0 C .30100004 0 .43500004 .021000002 .43500004 .14500001 C .43500004 .177 .42600004 .21800001 .38400004 .25100003 C .34 .28500004 .282 .29000003 .23200003 .29000003 C .20400001 .29000003 .18200001 .289 .155 .286 L .155 .42400003 L .172 .44000004 L .22600001 .44500003 L .22600001 .48100005 L 0 .48100005 L 0 .44500003 L .054000006 .44000004 L .071 .42400003 L .071 .057000005 L .054000006 .041 L 0 .036000004 L 0 0 M .155 .238 C .178 .24300002 .19900002 .246 .22600001 .246 C .263 .246 .347 .24300002 .347 .143 C .347 .1 .328 .07700001 .31300003 .066 C .303 .059000005 .27800004 .044000005 .22 .044000005 C .19600001 .044000005 .17500001 .046000005 .155 .05 L .155 .238 Z "/>
</symbol>
<use xlink:href="#font_5bb_e" transform="matrix(10.5,0,0,-10.5,79.1903,316.8845)" fill="#231f20"/>
<use xlink:href="#font_5bb_f" transform="matrix(10.5,0,0,-10.5,84.5243,316.8845)" fill="#231f20"/>
<use xlink:href="#font_5bb_1" transform="matrix(10.5,0,0,-10.5,89.921298,316.8845)" fill="#231f20"/>
<use xlink:href="#font_5bb_60" transform="matrix(10.5,0,0,-10.5,92.8613,314.6795)" fill="#231f20"/>
<use xlink:href="#font_5bb_1" transform="matrix(10.5,0,0,-10.5,103.3613,316.8845)" fill="#231f20"/>
<use xlink:href="#font_5bb_77" transform="matrix(10.5,0,0,-10.5,106.6163,316.8845)" fill="#231f20"/>
<use xlink:href="#font_5bb_83" transform="matrix(10.5,0,0,-10.5,112.5278,319.1735)" fill="#231f20"/>
<use xlink:href="#font_5bb_73" transform="matrix(10.5,0,0,-10.5,117.3263,316.979)" fill="#231f20"/>
<use xlink:href="#font_5bb_72" transform="matrix(10.5,0,0,-10.5,123.2693,316.8845)" fill="#231f20"/>
</g>
</g>
<text x="10" y="-10" font-size="13" font-family="Arial" fill="#cccccc">https://urait.ru</text></svg>
