<?xml version="1.0" encoding="UTF-8" standalone="no"?>
<!DOCTYPE svg PUBLIC "-//W3C//DTD SVG 1.1//EN" "http://www.w3.org/Graphics/SVG/1.1/DTD/svg11.dtd">
<svg xmlns="http://www.w3.org/2000/svg" xmlns:xlink="http://www.w3.org/1999/xlink" version="1.1" width="439.37pt" height="674.646pt" viewBox="0 0 439.37 674.646">
<g enable-background="new">
<g id="Layer-1" data-name="P">
<g id="Layer-2" data-name="Span">
</g>
<symbol id="font_620_81">
<path d="M .493 .48100005 L .24600002 .48100005 C .17900002 .48100005 .07 .46600003 .07 .35000003 C .07 .28300003 .120000008 .23600002 .19500001 .23200001 L .19500001 .23 C .15200001 .215 .134 .18400002 .124000009 .165 L .067 .055000005 L .050000006 .043 L 0 .036000004 L 0 0 L .14000002 0 L .14000002 .032 L .19700001 .156 C .21200001 .186 .23000002 .21400002 .272 .21400002 L .338 .21400002 L .338 .057000005 L .321 .041 L .273 .036000004 L .273 0 L .493 0 L .493 .036000004 L .439 .041 L .42200003 .057000005 L .42200003 .42400003 L .439 .44000004 L .493 .44500003 L .493 .48100005 M .338 .25800003 C .321 .256 .304 .254 .278 .254 C .20100002 .254 .15200001 .273 .15200001 .34300003 C .15200001 .43500004 .23100002 .437 .275 .437 C .29500003 .437 .314 .43600003 .338 .432 L .338 .25800003 Z "/>
</symbol>
<symbol id="font_620_9e">
<path d="M .432 .75500008 C .421 .72700008 .389 .72 .363 .716 L .279 .703 C .187 .689 .09500001 .66200008 .044000005 .531 C .015000001 .45600004 0 .35400004 0 .277 C 0 .19700001 .026000005 0 .23200001 0 C .313 0 .366 .035 .397 .067 C .435 .106000009 .466 .16600001 .466 .255 C .466 .38900004 .389 .499 .251 .499 C .15200001 .499 .10000001 .441 .07100001 .38900004 L .069000009 .38900004 C .07700001 .55700007 .15100001 .601 .24700003 .615 L .341 .628 C .375 .633 .447 .647 .466 .75500008 L .432 .75500008 M .24100001 .455 C .349 .455 .372 .31500004 .372 .252 C .372 .20800002 .367 .15100001 .335 .10300001 C .304 .057 .264 .044 .23200001 .044 C .19800002 .044 .15100001 .057 .120000008 .12100001 C .097 .16800002 .09400001 .22000002 .09400001 .25 C .09400001 .29000003 .10900001 .455 .24100001 .455 Z "/>
</symbol>
<symbol id="font_620_73">
<path d="M .11000001 .49000005 L .11000001 .45400004 L .172 .44900004 L .18900001 .43100003 C .187 .374 .179 .296 .167 .23500002 C .147 .13800001 .12200001 .095000009 .09900001 .067 L .036000004 .109000008 C .012000001 .09700001 0 .075 0 .052 C 0 .037 .011000001 0 .055 0 C .095000009 0 .124000009 .023000002 .142 .044 C .163 .068 .192 .11500001 .214 .21400002 C .229 .282 .238 .37100003 .24100001 .44400005 L .35100005 .44400005 L .35100005 .06600001 L .33400003 .05 L .286 .045 L .286 .009000001 L .50600007 .009000001 L .50600007 .045 L .45200003 .05 L .43500004 .06600001 L .43500004 .43300004 L .45200003 .44900004 L .50600007 .45400004 L .50600007 .49000005 L .11000001 .49000005 Z "/>
</symbol>
<symbol id="font_620_71">
<path d="M .23400003 .499 C .072000008 .499 0 .37800003 0 .24900002 C 0 .16700001 .029 .109000008 .063 .072000008 C .091000009 .041 .14400001 0 .23200003 0 C .31300003 0 .36600004 .035 .397 .067 C .43500004 .10700001 .46600003 .16800002 .46600003 .24900002 C .46600003 .38700003 .379 .499 .23400003 .499 M .231 .455 C .25300003 .455 .29400004 .45200003 .328 .409 C .36600004 .36 .372 .291 .372 .24900002 C .372 .20400001 .36600004 .15500002 .335 .109000008 C .30400003 .063 .26400004 .044 .23200003 .044 C .19800002 .044 .15100001 .057 .120000008 .12100001 C .10000001 .16300002 .09400001 .21000001 .09400001 .25 C .09400001 .305 .105000007 .36800004 .136 .409 C .16900002 .45200003 .21000001 .455 .231 .455 Z "/>
</symbol>
<symbol id="font_620_77">
<path d="M 0 0 L .22 0 L .22 .036000004 L .172 .041 L .155 .057000005 L .155 .22800002 L .379 .22800002 L .379 .057000005 L .36200003 .041 L .314 .036000004 L .314 0 L .53400006 0 L .53400006 .036000004 L .48000006 .041 L .46300004 .057000005 L .46300004 .42400003 L .48000006 .44000004 L .53400006 .44500003 L .53400006 .48100005 L .314 .48100005 L .314 .44500003 L .36200003 .44000004 L .379 .42400003 L .379 .27400003 L .155 .27400003 L .155 .42400003 L .172 .44000004 L .22 .44500003 L .22 .48100005 L 0 .48100005 L 0 .44500003 L .054000006 .44000004 L .071 .42400003 L .071 .057000005 L .054000006 .041 L 0 .036000004 L 0 0 Z "/>
</symbol>
<symbol id="font_620_1">
<path d="M 0 0 Z "/>
</symbol>
<symbol id="font_620_60">
<path d="M 0 0 L 1 0 L 1 .06100002 L 0 .06100002 L 0 0 Z "/>
</symbol>
<use xlink:href="#font_620_81" transform="matrix(10.5,0,0,-10.5,50.918603,55.09839)" fill="#231f20"/>
<use xlink:href="#font_620_9e" transform="matrix(10.5,0,0,-10.5,56.861604,55.19289)" fill="#231f20"/>
<use xlink:href="#font_620_73" transform="matrix(10.5,0,0,-10.5,61.933107,55.19289)" fill="#231f20"/>
<use xlink:href="#font_620_71" transform="matrix(10.5,0,0,-10.5,67.9496,55.19289)" fill="#231f20"/>
<use xlink:href="#font_620_77" transform="matrix(10.5,0,0,-10.5,73.546108,55.09839)" fill="#231f20"/>
<use xlink:href="#font_620_81" transform="matrix(10.5,0,0,-10.5,79.3631,55.09839)" fill="#231f20"/>
<use xlink:href="#font_620_1" transform="matrix(10.5,0,0,-10.5,84.8546,55.09839)" fill="#231f20"/>
<use xlink:href="#font_620_60" transform="matrix(10.5,0,0,-10.5,87.7946,52.893388)" fill="#231f20"/>
<use xlink:href="#font_620_1" transform="matrix(10.5,0,0,-10.5,98.2946,55.09839)" fill="#231f20"/>
</g>
<g id="Layer-1" data-name="P">
<symbol id="font_621_35">
<path d="M .317 .009000001 L .49200005 .009000001 L .49200005 .054 L .44000004 .059 L .42700003 .07300001 L .42700003 .33100004 C .42700003 .37800003 .423 .43400003 .38400004 .47000004 C .34600003 .506 .28100003 .508 .252 .508 C .213 .508 .14400001 .504 .086 .47300003 C .028000005 .44200004 .024000004 .404 .024000004 .38900004 C .024000004 .363 .049000004 .35500003 .07000001 .35500003 L .16200002 .35500003 L .16200002 .44900004 C .18100001 .45200003 .19500001 .45400004 .21000001 .45400004 C .3 .45400004 .30400003 .39400003 .30400003 .36 L .30400003 .351 L .30400003 .321 C .268 .31300003 .16800002 .29000003 .118 .272 C .068 .254 0 .22000002 0 .134 C 0 .058000003 .042000005 0 .133 0 C .194 0 .25 .031000004 .30400003 .06600001 L .317 .009000001 M .30400003 .10700001 C .261 .08800001 .236 .07800001 .208 .07800001 C .17400001 .07800001 .134 .09200001 .134 .15200001 C .134 .22600001 .222 .255 .30400003 .27 L .30400003 .10700001 Z "/>
</symbol>
<symbol id="font_621_44">
<path d="M 0 0 L .268 0 L .268 .045 L .20600002 .045 L .19100002 .06300001 L .19100002 .223 C .223 .21900001 .254 .21700001 .27400003 .21700001 C .36 .21700001 .42700003 .24800001 .47000004 .29400004 C .503 .32900004 .537 .388 .537 .48000003 C .537 .65900006 .418 .717 .35000003 .717 C .298 .717 .252 .69600006 .19100002 .65400007 L .19100002 .71400007 L .14600002 .71400007 L 0 .66700008 L 0 .62700006 L .068 .62700006 L .068 .065 L .054000006 .049999998 L 0 .045 L 0 0 M .19100002 .61200007 C .23300001 .63000008 .26200003 .63100007 .272 .63100007 C .319 .63100007 .34800003 .61 .365 .591 C .381 .573 .40300004 .535 .40300004 .463 C .40300004 .34500004 .34100003 .27100004 .252 .27100004 C .22100002 .27100004 .20500002 .27400003 .19100002 .278 L .19100002 .61200007 Z "/>
</symbol>
<symbol id="font_621_40">
<path d="M 0 0 L .26700003 0 L .26700003 .045 L .21000001 .05 L .19500001 .064 L .19500001 .739 L .15100001 .739 L 0 .69100007 L 0 .652 L .072 .652 L .072 .064 L .058000003 .05 L 0 .045 L 0 0 Z "/>
</symbol>
<symbol id="font_621_39">
<path d="M .45400004 .133 C .38000003 .087000008 .32500003 .079 .29000003 .079 C .157 .079 .128 .18100001 .128 .26400004 L .455 .26400004 C .455 .36900003 .432 .508 .24900002 .508 C .163 .508 .10800001 .47400005 .07700001 .44500003 C .030000002 .40000005 0 .33200003 0 .25 C 0 .156 .038000004 .09900001 .067 .069000009 C .10200001 .033 .15900001 0 .24900002 0 C .33800004 0 .41200004 .035 .45400004 .059 L .45400004 .133 M .133 .31700004 C .133 .40500004 .18800001 .45400004 .23700002 .45400004 C .286 .45400004 .32400004 .40700004 .32400004 .32500003 L .32400004 .31700004 L .133 .31700004 Z "/>
</symbol>
<symbol id="font_621_8">
<path d="M 0 .09800002 L 0 0 L .254 0 L .254 .09800002 L 0 .09800002 Z "/>
</symbol>
<symbol id="font_621_48">
<path d="M .065000008 .41900004 L .065000008 .128 C .065000008 .061 .069000009 0 .187 0 C .21200001 0 .28700004 .016 .33600004 .032 L .33600004 .080000009 C .31100003 .07400001 .29200004 .07300001 .272 .07300001 C .229 .07300001 .18800003 .08400001 .18800003 .17 L .18800003 .41900004 L .33600004 .41900004 L .33600004 .47900004 L .18800003 .47900004 L .18800003 .60300007 L .12600002 .60300007 L .074 .499 L 0 .45700003 L 0 .41900004 L .065000008 .41900004 Z "/>
</symbol>
<symbol id="font_621_46">
<path d="M .005000001 0 L .28100003 0 L .28100003 .045 L .21000001 .05 L .19500001 .064 L .19500001 .351 C .214 .36400003 .24500002 .38000003 .27100004 .38000003 C .3 .38000003 .32100005 .35900004 .33100004 .34300003 L .38300003 .34300003 L .39600004 .48100005 C .37400005 .49100004 .35700003 .49800004 .33300004 .49800004 C .30200003 .49800004 .263 .469 .191 .39400003 L .19500001 .49600003 L .147 .49600003 L 0 .44900004 L 0 .409 L .072 .409 L .072 .064 L .058000003 .05 L .005000001 .045 L .005000001 0 Z "/>
</symbol>
<symbol id="font_621_1">
<path d="M 0 0 Z "/>
</symbol>
<use xlink:href="#font_621_35" transform="matrix(10.5,0,0,-10.5,101.61369,55.19289)" fill="#231f20"/>
<use xlink:href="#font_621_44" transform="matrix(10.5,0,0,-10.5,107.136699,57.38739)" fill="#231f20"/>
<use xlink:href="#font_621_44" transform="matrix(10.5,0,0,-10.5,113.331699,57.38739)" fill="#231f20"/>
<use xlink:href="#font_621_40" transform="matrix(10.5,0,0,-10.5,119.53719,55.09839)" fill="#231f20"/>
<use xlink:href="#font_621_39" transform="matrix(10.5,0,0,-10.5,122.855197,55.19289)" fill="#231f20"/>
<use xlink:href="#font_621_8" transform="matrix(10.5,0,0,-10.5,128.3467,53.08239)" fill="#231f20"/>
<use xlink:href="#font_621_48" transform="matrix(10.5,0,0,-10.5,131.59119,55.15089)" fill="#231f20"/>
<use xlink:href="#font_621_46" transform="matrix(10.5,0,0,-10.5,135.3922,55.09839)" fill="#231f20"/>
<use xlink:href="#font_621_39" transform="matrix(10.5,0,0,-10.5,139.9492,55.19289)" fill="#231f20"/>
<use xlink:href="#font_621_39" transform="matrix(10.5,0,0,-10.5,145.4512,55.19289)" fill="#231f20"/>
<use xlink:href="#font_621_1" transform="matrix(10.5,0,0,-10.5,150.5647,55.09839)" fill="#231f20"/>
</g>
<g id="Layer-1" data-name="P">
<g id="Layer-2" data-name="Span">
</g>
<symbol id="font_620_6f">
<path d="M 0 0 L .22 0 L .22 .036000004 L .172 .041 L .155 .057000005 L .155 .089 L .38700003 .33800004 L .38700003 .057000005 L .37 .041 L .32200004 .036000004 L .32200004 0 L .54200008 0 L .54200008 .036000004 L .488 .041 L .47100006 .057000005 L .47100006 .42400003 L .488 .44000004 L .54200008 .44500003 L .54200008 .48100005 L .32200004 .48100005 L .32200004 .44500003 L .37 .44000004 L .38700003 .42400003 L .38700003 .4 L .155 .15100001 L .155 .42400003 L .172 .44000004 L .22 .44500003 L .22 .48100005 L 0 .48100005 L 0 .44500003 L .054000006 .44000004 L .071 .42400003 L .071 .057000005 L .054000006 .041 L 0 .036000004 L 0 0 M .19500001 .693 C .18900001 .703 .17600002 .716 .15200001 .716 C .125 .716 .105000007 .698 .105000007 .66700008 C .105000007 .601 .179 .55600008 .27100004 .55600008 C .363 .55600008 .437 .601 .437 .66700008 C .437 .698 .41700004 .716 .39000003 .716 C .36600004 .716 .35300002 .703 .347 .693 L .347 .615 C .32900004 .60200008 .307 .59400007 .27100004 .59400007 C .23500002 .59400007 .21300002 .60200008 .19500001 .615 L .19500001 .693 Z "/>
</symbol>
<symbol id="font_620_69">
<path d="M 0 .14 L .43800003 .14 L .453 .124 L .47100006 0 L .5220001 0 L .5220001 .186 L .45700003 .186 L .44500003 .19600001 L .44500003 .564 L .462 .58000007 L .51600006 .58500006 L .51600006 .62100008 L .296 .62100008 L .296 .58500006 L .344 .58000007 L .36100004 .564 L .36100004 .186 L .155 .186 L .155 .564 L .172 .58000007 L .22 .58500006 L .22 .62100008 L 0 .62100008 L 0 .58500006 L .054000006 .58000007 L .071 .564 L .071 .197 L .054000006 .181 L 0 .176 L 0 .14 Z "/>
</symbol>
<symbol id="font_620_7f">
<path d="M 0 .48100005 L 0 .44500003 L .054000006 .44000004 L .071 .42400003 L .071 .057000005 L .054000006 .041 L 0 .036000004 L 0 0 L .25300003 0 C .294 0 .344 .004 .38700003 .033 C .432 .063 .44400005 .105000007 .44400005 .13700001 C .44400005 .22100002 .377 .25 .32200004 .25500003 L .32200004 .257 C .377 .27100004 .418 .314 .418 .372 C .418 .43 .386 .48100005 .24800003 .48100005 L 0 .48100005 M .155 .43500004 C .18200001 .441 .20500002 .44300003 .23000002 .44300003 C .277 .44300003 .33600004 .42800004 .33600004 .35700003 C .33600004 .272 .25300003 .268 .21000001 .268 C .18800001 .268 .17400001 .26900003 .155 .27100004 L .155 .43500004 M .155 .22900002 C .178 .23200001 .20400001 .23400001 .231 .23400001 C .25800003 .23400001 .29500003 .23300001 .321 .216 C .35300002 .19500001 .358 .163 .358 .13700001 C .358 .063 .289 .038000004 .231 .038000004 C .202 .038000004 .18100001 .040000004 .155 .046000005 L .155 .22900002 Z "/>
</symbol>
<symbol id="font_620_7b">
<path d="M .388 .10300001 C .358 .083000008 .312 .060000004 .26000003 .060000004 C .09400001 .060000004 .09200001 .22500001 .09200001 .25800003 C .09200001 .314 .106000009 .374 .13900002 .41300003 C .172 .45200003 .21200001 .45900003 .236 .45900003 C .26000003 .45900003 .27600003 .45200003 .286 .446 L .286 .36400003 C .303 .35300002 .32200004 .35000003 .333 .35000003 C .365 .35000003 .38700003 .372 .38700003 .40500004 C .38700003 .44500003 .351 .499 .24200002 .499 C .095 .499 0 .40500004 0 .24900002 C 0 .091000009 .095 0 .22600001 0 C .26000003 0 .312 .0060000007 .388 .051000004 L .388 .10300001 Z "/>
</symbol>
<symbol id="font_620_78">
<path d="M 0 .48100005 L 0 .44500003 L .054000006 .44000004 L .071 .42400003 L .071 .057000005 L .054000006 .041 L 0 .036000004 L 0 0 L .18800001 0 L .18800001 .036000004 L .14 .041 L .12300001 .057000005 L .12300001 .44000004 L .287 0 L .323 0 L .48500005 .44000004 L .48500005 .057000005 L .46800003 .041 L .42000003 .036000004 L .42000003 0 L .64 0 L .64 .036000004 L .5860001 .041 L .569 .057000005 L .569 .42400003 L .5860001 .44000004 L .64 .44500003 L .64 .48100005 L .446 .48100005 L .446 .45700003 L .32200004 .11400001 L .19800002 .45700003 L .19800002 .48100005 L 0 .48100005 Z "/>
</symbol>
<symbol id="font_620_74">
<path d="M .091000009 0 L .349 0 L .349 .036000004 L .279 .041 L .26200003 .057000005 L .26200003 .43500004 L .363 .43500004 L .37800003 .41900004 L .38900004 .335 L .44000004 .335 L .44000004 .48100005 L 0 .48100005 L 0 .335 L .051 .335 L .062 .41900004 L .077 .43500004 L .178 .43500004 L .178 .057000005 L .161 .041 L .091000009 .036000004 L .091000009 0 Z "/>
</symbol>
<symbol id="font_620_68">
<path d="M 0 0 L .22 0 L .22 .036000004 L .172 .041 L .155 .059000005 L .155 .22600001 L .201 .22600001 C .23700002 .22600001 .264 .208 .286 .156 L .34 .032 L .34 0 L .50600007 0 L .50600007 .036000004 L .43800003 .043 L .42100004 .055000005 L .36600004 .16600001 C .34800003 .2 .335 .24000001 .27400003 .254 L .27400003 .256 C .289 .26000003 .321 .273 .342 .323 L .372 .39400003 C .377 .40500004 .379 .41400004 .39000003 .42600004 L .46 .386 C .47800002 .39600004 .488 .41400004 .488 .43500004 C .488 .46400003 .46600003 .49 .425 .49 C .377 .49 .347 .455 .328 .409 L .294 .33100004 C .275 .287 .24100003 .27 .20300001 .27 L .155 .27 L .155 .42400003 L .172 .44000004 L .22 .44500003 L .22 .48100005 L 0 .48100005 L 0 .44500003 L .054000006 .44000004 L .071 .42400003 L .071 .057000005 L .054000006 .041 L 0 .036000004 L 0 0 Z "/>
</symbol>
<symbol id="font_620_83">
<path d="M 0 .69900009 L 0 .66300007 L .061 .656 L .23000002 .222 C .21000001 .171 .18900001 .116000007 .149 .072 L .053 .11000001 C .032 .094000007 .027 .07000001 .027 .056999998 C .027 .026000008 .051 0 .095000009 0 C .14600002 0 .17700002 .032000007 .19700001 .059 C .20700002 .072 .23000002 .105000007 .256 .16800002 L .456 .65400007 L .514 .66300007 L .514 .69900009 L .336 .69900009 L .336 .66300007 L .39000003 .65800008 L .398 .642 L .273 .33100004 L .15300001 .642 L .165 .65800008 L .21800001 .66300007 L .21800001 .69900009 L 0 .69900009 Z "/>
</symbol>
<use xlink:href="#font_620_81" transform="matrix(10.5,0,0,-10.5,223.832,55.09839)" fill="#231f20"/>
<use xlink:href="#font_620_6f" transform="matrix(10.5,0,0,-10.5,229.6385,55.09839)" fill="#231f20"/>
<use xlink:href="#font_620_69" transform="matrix(10.5,0,0,-10.5,235.9595,56.56839)" fill="#231f20"/>
<use xlink:href="#font_620_71" transform="matrix(10.5,0,0,-10.5,242.08101,55.19289)" fill="#231f20"/>
<use xlink:href="#font_620_1" transform="matrix(10.5,0,0,-10.5,247.3625,55.09839)" fill="#231f20"/>
<use xlink:href="#font_620_7f" transform="matrix(10.5,0,0,-10.5,250.61226,55.09839)" fill="#231f20"/>
<use xlink:href="#font_620_7b" transform="matrix(10.5,0,0,-10.5,256.25077,55.19289)" fill="#231f20"/>
<use xlink:href="#font_620_78" transform="matrix(10.5,0,0,-10.5,260.86027,55.09839)" fill="#231f20"/>
<use xlink:href="#font_620_81" transform="matrix(10.5,0,0,-10.5,267.79026,55.09839)" fill="#231f20"/>
<use xlink:href="#font_620_74" transform="matrix(10.5,0,0,-10.5,273.44978,55.09839)" fill="#231f20"/>
<use xlink:href="#font_620_68" transform="matrix(10.5,0,0,-10.5,278.55278,55.09839)" fill="#231f20"/>
<use xlink:href="#font_620_83" transform="matrix(10.5,0,0,-10.5,283.85527,57.38739)" fill="#231f20"/>
<use xlink:href="#font_620_1" transform="matrix(10.5,0,0,-10.5,289.07377,55.09839)" fill="#231f20"/>
<use xlink:href="#font_620_60" transform="matrix(10.5,0,0,-10.5,292.01377,52.893388)" fill="#231f20"/>
<use xlink:href="#font_620_1" transform="matrix(10.5,0,0,-10.5,302.51377,55.09839)" fill="#231f20"/>
</g>
<g id="Layer-1" data-name="P">
<symbol id="font_621_47">
<path d="M .354 .48400004 C .294 .504 .24000001 .508 .206 .508 C .136 .508 .0069999995 .47800002 .0069999995 .36 C .0069999995 .28300003 .06600001 .25100003 .16600001 .20600002 C .24200002 .172 .25100003 .15500002 .25100003 .127 C .25100003 .08200001 .23000002 .054 .162 .054 C .14500001 .054 .117000009 .057 .082 .07400001 L .072000008 .08500001 L .061000006 .171 L 0 .171 L 0 .023000002 C .06600001 .0050000005 .12900001 0 .162 0 C .323 0 .36900003 .08400001 .36900003 .16200002 C .36900003 .18400002 .367 .20400001 .34800003 .22700002 C .33200003 .24600002 .305 .26500003 .229 .30200003 C .14700002 .34300003 .13 .363 .13 .39000003 C .13 .44300003 .17500001 .45400004 .20500002 .45400004 C .22 .45400004 .24200002 .45200003 .272 .43700005 L .284 .42600004 L .294 .351 L .354 .351 L .354 .48400004 Z "/>
</symbol>
<symbol id="font_621_43">
<path d="M .26200003 .508 C .12300001 .508 0 .43500004 0 .252 C 0 .07800001 .11500001 0 .25300003 0 C .363 0 .51000007 .052 .51000007 .254 C .51000007 .35700003 .46600003 .418 .43 .44900004 C .39100004 .48300005 .335 .508 .26200003 .508 M .254 .45400004 C .35400004 .45400004 .372 .30800004 .372 .252 C .372 .18500002 .351 .054 .254 .054 C .16000001 .054 .13800001 .18400002 .13800001 .255 C .13800001 .32700003 .15200001 .36900003 .165 .395 C .17700002 .418 .202 .45400004 .254 .45400004 Z "/>
</symbol>
<symbol id="font_621_3a">
<path d="M .0010000002 0 L .27100004 0 L .27100004 .045 L .20400001 .05 L .18800001 .064 L .18800001 .41400004 L .32200004 .41400004 L .32200004 .47400005 L .18800001 .47400005 L .18800001 .53400006 C .18800001 .625 .20300001 .66300007 .22700002 .694 L .32400004 .60800006 C .35200004 .61600008 .38200004 .634 .38200004 .671 C .38200004 .72300007 .32900004 .74300006 .28800003 .74300006 C .228 .74300006 .18100001 .71400007 .15 .68700006 C .079 .625 .065 .544 .065 .48800005 L .065 .48200003 L 0 .45200003 L 0 .41400004 L .065 .41400004 L .065 .064 L .051 .05 L .0010000002 .045 L .0010000002 0 Z "/>
</symbol>
<symbol id="font_621_3b">
<path d="M .373 .68500009 C .312 .712 .266 .716 .239 .716 C .153 .716 .101 .689 .071 .661 C .045 .63600006 .021000002 .59800007 .021000002 .54 C .021000002 .46100004 .074 .41400004 .14500001 .39200003 C .12000001 .36900003 .09 .34100003 .09 .296 C .09 .287 .092 .266 .10300001 .24700001 C .049000004 .24100001 0 .21100001 0 .139 C 0 .094000007 .02 .055000009 .069000009 .029 C .085 .019999996 .12799999 0 .20700002 0 C .30400003 0 .36400003 .030000002 .389 .045 C .46100004 .088 .47600005 .142 .47600005 .18100001 C .47600005 .22800002 .451 .255 .405 .277 C .384 .287 .345 .301 .257 .31300003 L .18900001 .32200004 C .18800003 .329 .18600002 .33900003 .18600002 .347 C .18600002 .366 .192 .381 .194 .38600005 C .20200002 .38500003 .21200001 .38500003 .22299999 .38500003 C .268 .38500003 .335 .393 .38500003 .43700005 C .43100003 .47800002 .43600003 .527 .43600003 .554 C .43600003 .56500008 .43400003 .594 .41300003 .628 L .521 .628 L .521 .68500009 L .373 .68500009 M .231 .669 C .26 .669 .313 .642 .313 .55 C .313 .53400006 .31100003 .497 .293 .467 C .27400003 .43600003 .24700001 .43 .231 .43 C .17500001 .43 .14900002 .503 .14900002 .551 C .14900002 .582 .16500002 .669 .231 .669 M .24900002 .222 C .31 .21200001 .328 .2 .336 .194 C .35300002 .18 .35700003 .163 .35700003 .148 C .35700003 .096 .30400003 .054000006 .241 .054000006 C .164 .054000006 .123 .107 .123 .15400002 C .123 .192 .14700002 .221 .164 .236 L .24900002 .222 Z "/>
</symbol>
<use xlink:href="#font_621_47" transform="matrix(10.5,0,0,-10.5,305.87513,55.19289)" fill="#231f20"/>
<use xlink:href="#font_621_43" transform="matrix(10.5,0,0,-10.5,310.5266,55.19289)" fill="#231f20"/>
<use xlink:href="#font_621_3a" transform="matrix(10.5,0,0,-10.5,316.5956,55.09839)" fill="#231f20"/>
<use xlink:href="#font_621_48" transform="matrix(10.5,0,0,-10.5,320.3966,55.15089)" fill="#231f20"/>
<use xlink:href="#font_621_1" transform="matrix(10.5,0,0,-10.5,323.94563,55.09839)" fill="#231f20"/>
<use xlink:href="#font_621_39" transform="matrix(10.5,0,0,-10.5,327.2741,55.19289)" fill="#231f20"/>
<use xlink:href="#font_621_3b" transform="matrix(10.5,0,0,-10.5,332.74464,57.37689)" fill="#231f20"/>
<use xlink:href="#font_621_3b" transform="matrix(10.5,0,0,-10.5,338.53013,57.37689)" fill="#231f20"/>
<use xlink:href="#font_621_1" transform="matrix(10.5,0,0,-10.5,343.95863,55.09839)" fill="#231f20"/>
</g>
<g id="Layer-1" data-name="P">
<g id="Layer-2" data-name="Span">
</g>
<symbol id="font_620_80">
<path d="M .411 .11500001 C .33900003 .06600001 .287 .057 .254 .057 C .14 .057 .086 .16300002 .086 .26500003 L .086 .272 L .41000004 .272 C .411 .282 .411 .291 .411 .3 C .411 .46100004 .31 .499 .23200003 .499 C .149 .499 .097 .462 .07000001 .43400003 C .026 .38900004 0 .32200004 0 .24600002 C 0 .10800001 .075 0 .227 0 C .29200004 0 .358 .023000002 .411 .060000004 L .411 .11500001 M .091000009 .314 C .098000008 .38000003 .134 .455 .22 .455 C .279 .455 .30200003 .416 .30800004 .404 C .316 .38900004 .32200004 .35900004 .32200004 .33900003 L .32200004 .314 L .091000009 .314 Z "/>
</symbol>
<use xlink:href="#font_620_81" transform="matrix(10.5,0,0,-10.5,50.918603,72.49567)" fill="#231f20"/>
<use xlink:href="#font_620_7f" transform="matrix(10.5,0,0,-10.5,56.7251,72.49567)" fill="#231f20"/>
<use xlink:href="#font_620_73" transform="matrix(10.5,0,0,-10.5,61.555105,72.590167)" fill="#231f20"/>
<use xlink:href="#font_620_81" transform="matrix(10.5,0,0,-10.5,67.0781,72.49567)" fill="#231f20"/>
<use xlink:href="#font_620_80" transform="matrix(10.5,0,0,-10.5,72.9581,72.590167)" fill="#231f20"/>
<use xlink:href="#font_620_78" transform="matrix(10.5,0,0,-10.5,78.0296,72.49567)" fill="#231f20"/>
<use xlink:href="#font_620_7b" transform="matrix(10.5,0,0,-10.5,85.453098,72.590167)" fill="#231f20"/>
<use xlink:href="#font_620_81" transform="matrix(10.5,0,0,-10.5,89.64259,72.49567)" fill="#231f20"/>
<use xlink:href="#font_620_1" transform="matrix(10.5,0,0,-10.5,95.134098,72.49567)" fill="#231f20"/>
<use xlink:href="#font_620_60" transform="matrix(10.5,0,0,-10.5,98.0741,70.290668)" fill="#231f20"/>
<use xlink:href="#font_620_1" transform="matrix(10.5,0,0,-10.5,108.5741,72.49567)" fill="#231f20"/>
</g>
<g id="Layer-1" data-name="P">
<symbol id="font_621_33">
<path d="M 0 .84000006 L 0 0 L .26900003 0 L .26900003 .054999994 L .11500001 .054999994 L .11500001 .78400006 L .26900003 .78400006 L .26900003 .84000006 L 0 .84000006 Z "/>
</symbol>
<symbol id="font_621_72">
<path d="M .317 .009000001 L .49200005 .009000001 L .49200005 .054 L .44000004 .059 L .42700003 .07300001 L .42700003 .33100004 C .42700003 .37800003 .423 .43400003 .38400004 .47000004 C .34600003 .506 .28100003 .508 .252 .508 C .213 .508 .14400001 .504 .086 .47300003 C .028000005 .44200004 .024000004 .404 .024000004 .38900004 C .024000004 .363 .049000004 .35500003 .07000001 .35500003 L .16200002 .35500003 L .16200002 .44900004 C .18100001 .45200003 .19500001 .45400004 .21000001 .45400004 C .3 .45400004 .30400003 .39400003 .30400003 .36 L .30400003 .351 L .30400003 .321 C .268 .31300003 .16800002 .29000003 .118 .272 C .068 .254 0 .22000002 0 .134 C 0 .058000003 .042000005 0 .133 0 C .194 0 .25 .031000004 .30400003 .06600001 L .317 .009000001 M .30400003 .10700001 C .261 .08800001 .236 .07800001 .208 .07800001 C .17400001 .07800001 .134 .09200001 .134 .15200001 C .134 .22600001 .222 .255 .30400003 .27 L .30400003 .10700001 Z "/>
</symbol>
<symbol id="font_621_15">
<path d="M .07900001 .49600003 C .034999998 .49600003 0 .461 0 .416 C 0 .372 .034999998 .337 .07800001 .337 C .12300001 .337 .15900001 .373 .15900001 .416 C .15900001 .45900003 .12300001 .49600003 .07900001 .49600003 M .07900001 .15900001 C .034999998 .15900001 0 .124000009 0 .079 C 0 .035 .034999998 0 .07800001 0 C .12300001 0 .15900001 .035 .15900001 .079 C .15900001 .12200001 .12200001 .15900001 .07900001 .15900001 Z "/>
</symbol>
<symbol id="font_621_34">
<path d="M .269 .84000006 L 0 .84000006 L 0 .78400006 L .154 .78400006 L .154 .054999994 L 0 .054999994 L 0 0 L .269 0 L .269 .84000006 Z "/>
</symbol>
<use xlink:href="#font_621_35" transform="matrix(10.5,0,0,-10.5,111.8931,72.590167)" fill="#231f20"/>
<use xlink:href="#font_621_46" transform="matrix(10.5,0,0,-10.5,117.4266,72.49567)" fill="#231f20"/>
<use xlink:href="#font_621_39" transform="matrix(10.5,0,0,-10.5,121.9836,72.590167)" fill="#231f20"/>
<use xlink:href="#font_621_1" transform="matrix(10.5,0,0,-10.5,127.0971,72.49567)" fill="#231f20"/>
<use xlink:href="#font_621_33" transform="matrix(10.5,0,0,-10.5,131.46509,73.88167)" fill="#231f20"/>
<use xlink:href="#font_621_72" transform="matrix(10.5,0,0,-10.5,135.0771,72.590167)" fill="#231f20"/>
<use xlink:href="#font_621_15" transform="matrix(10.5,0,0,-10.5,141.3036,72.579669)" fill="#231f20"/>
<use xlink:href="#font_621_34" transform="matrix(10.5,0,0,-10.5,144.3276,73.88167)" fill="#231f20"/>
</g>
<g id="Layer-1" data-name="P">
<g id="Layer-2" data-name="Span">
</g>
<symbol id="font_620_7e">
<path d="M .30600003 .009000001 L .44600005 .009000001 L .44600005 .045 L .39300005 .045 L .37600003 .06600001 L .37600003 .356 C .37600003 .37700004 .37500004 .42800004 .344 .46100004 C .30900003 .49800004 .24800003 .499 .22500003 .499 C .079 .499 .024999999 .43500004 .024999999 .38200004 C .024999999 .358 .044 .356 .056 .356 L .125 .356 L .125 .44000004 C .15 .44900004 .178 .455 .204 .455 C .29700003 .455 .29200004 .38300003 .29200004 .344 L .29200004 .312 C .185 .286 .137 .27 .101 .256 C .053999999 .23700002 0 .20600002 0 .13100001 C 0 .068 .038000004 0 .12799999 0 C .16600001 0 .215 .012 .29200004 .067 L .30600003 .009000001 M .29200004 .10100001 C .22800002 .064 .194 .056 .16800002 .056 C .107 .056 .08800001 .102000009 .08800001 .13900002 C .08800001 .194 .12600002 .21600002 .15799999 .23100002 C .19300002 .24700001 .24900002 .26500003 .29200004 .277 L .29200004 .10100001 Z "/>
</symbol>
<symbol id="font_620_82">
<path d="M 0 0 L .23600002 0 L .23600002 .036 L .172 .04100001 L .155 .056999998 L .155 .224 C .20600002 .215 .237 .215 .24900003 .215 C .325 .215 .38 .24100001 .419 .279 C .455 .314 .49300004 .37800003 .49300004 .47500003 C .49300004 .63500007 .4 .708 .302 .708 C .264 .708 .22100002 .69900009 .155 .64900007 L .155 .70400008 L .11700001 .70400008 L 0 .66800007 L 0 .637 L .071 .637 L .071 .056999998 L .055000009 .04100001 L 0 .036 L 0 0 M .155 .61200007 C .179 .62600007 .22000002 .64400008 .259 .64400008 C .357 .64400008 .403 .56 .403 .463 C .403 .35400004 .34600003 .259 .22900002 .259 C .21400002 .259 .19000001 .261 .155 .27600003 L .155 .61200007 Z "/>
</symbol>
<symbol id="font_620_72">
<path d="M 0 0 L .25300003 0 C .30100004 0 .43500004 .021000002 .43500004 .14500001 C .43500004 .177 .42600004 .21800001 .38400004 .25100003 C .34 .28500004 .282 .29000003 .23200003 .29000003 C .20400001 .29000003 .18200001 .289 .155 .286 L .155 .42400003 L .172 .44000004 L .22600001 .44500003 L .22600001 .48100005 L 0 .48100005 L 0 .44500003 L .054000006 .44000004 L .071 .42400003 L .071 .057000005 L .054000006 .041 L 0 .036000004 L 0 0 M .155 .238 C .178 .24300002 .19900002 .246 .22600001 .246 C .263 .246 .347 .24300002 .347 .143 C .347 .1 .328 .07700001 .31300003 .066 C .303 .059000005 .27800004 .044000005 .22 .044000005 C .19600001 .044000005 .17500001 .046000005 .155 .05 L .155 .238 Z "/>
</symbol>
<use xlink:href="#font_620_81" transform="matrix(10.5,0,0,-10.5,223.832,72.49567)" fill="#231f20"/>
<use xlink:href="#font_620_77" transform="matrix(10.5,0,0,-10.5,229.6385,72.49567)" fill="#231f20"/>
<use xlink:href="#font_620_7f" transform="matrix(10.5,0,0,-10.5,235.8755,72.49567)" fill="#231f20"/>
<use xlink:href="#font_620_7e" transform="matrix(10.5,0,0,-10.5,241.5665,72.590167)" fill="#231f20"/>
<use xlink:href="#font_620_82" transform="matrix(10.5,0,0,-10.5,246.66951,74.78467)" fill="#231f20"/>
<use xlink:href="#font_620_72" transform="matrix(10.5,0,0,-10.5,252.54952,72.49567)" fill="#231f20"/>
<use xlink:href="#font_620_1" transform="matrix(10.5,0,0,-10.5,257.4845,72.49567)" fill="#231f20"/>
<use xlink:href="#font_620_60" transform="matrix(10.5,0,0,-10.5,260.4245,70.290668)" fill="#231f20"/>
<use xlink:href="#font_620_1" transform="matrix(10.5,0,0,-10.5,270.9245,72.49567)" fill="#231f20"/>
</g>
<g id="Layer-1" data-name="P">
<symbol id="font_621_22">
<path d="M .24400002 .61500009 L .24400002 .273 C .24400002 .15 .22800002 .059 .123 .059 L .11000001 .059 L .096 .072000008 L .073 .204 L 0 .204 L 0 .024 C .067 .0029999996 .11900001 0 .14700002 0 C .19400002 0 .26700003 .006 .31700004 .062 C .37100003 .12200001 .37600003 .21800001 .37600003 .27400003 L .37600003 .61500009 L .39200003 .62900009 L .45200003 .63400009 L .45200003 .683 L .158 .683 L .158 .63400009 L .22800002 .62900009 L .24400002 .61500009 Z "/>
</symbol>
<symbol id="font_621_42">
<path d="M .0030000006 0 L .24900002 0 L .24900002 .045 L .20500002 .05 L .19100002 .064 L .19100002 .39400003 C .24900002 .411 .277 .41200004 .286 .41200004 C .35200004 .41200004 .37600003 .36 .37600003 .3 L .37600003 .064 L .36200003 .05 L .31800003 .045 L .31800003 0 L .564 0 L .564 .045 L .512 .05 L .499 .064 L .499 .33200003 C .499 .37100003 .49100007 .499 .367 .499 C .31100003 .499 .24300003 .467 .19100002 .437 L .19100002 .49600003 L .143 .49600003 L 0 .44900004 L 0 .409 L .068 .409 L .068 .064 L .054 .05 L .0030000006 .045 L .0030000006 0 Z "/>
</symbol>
<symbol id="font_621_49">
<path d="M .14000002 .508 L 0 .46000005 L 0 .42100004 L .065000008 .42100004 L .065000008 .171 C .065000008 .11000001 .083000008 0 .19800002 0 C .26600004 0 .32400004 .035 .36900003 .064 L .36900003 .009000001 L .557 .009000001 L .557 .054 L .506 .059 L .492 .07300001 L .492 .508 L .44600005 .508 L .30400003 .46000005 L .30400003 .42100004 L .36900003 .42100004 L .36900003 .102000009 C .33800004 .09200001 .30400003 .08600001 .28000004 .08600001 C .25800003 .08600001 .23000002 .08900001 .21000001 .113000009 C .18900001 .13800001 .18800003 .17600002 .18800003 .19800002 L .18800003 .508 L .14000002 .508 Z "/>
</symbol>
<symbol id="font_621_4d">
<path d="M 0 .70600005 L 0 .661 L .060000004 .653 L .238 .20700002 C .21700001 .157 .19500001 .11400001 .16 .08500001 L .07300001 .14500001 C .052 .135 .021000002 .113000009 .021000002 .075 C .021000002 .023000002 .075 0 .105000007 0 C .131 0 .17 .009000003 .214 .05600001 C .245 .09 .27400003 .13700001 .293 .18400002 L .48600004 .653 L .54 .661 L .54 .70600005 L .34800003 .70600005 L .34800003 .661 L .40100003 .656 L .41000004 .64100006 L .30100004 .35900004 L .193 .642 L .20300001 .656 L .254 .661 L .254 .70600005 L 0 .70600005 Z "/>
</symbol>
<use xlink:href="#font_621_22" transform="matrix(10.5,0,0,-10.5,273.9812,72.621669)" fill="#231f20"/>
<use xlink:href="#font_621_35" transform="matrix(10.5,0,0,-10.5,279.1367,72.590167)" fill="#231f20"/>
<use xlink:href="#font_621_42" transform="matrix(10.5,0,0,-10.5,284.71223,72.49567)" fill="#231f20"/>
<use xlink:href="#font_621_49" transform="matrix(10.5,0,0,-10.5,291.02275,72.590167)" fill="#231f20"/>
<use xlink:href="#font_621_35" transform="matrix(10.5,0,0,-10.5,297.45924,72.590167)" fill="#231f20"/>
<use xlink:href="#font_621_46" transform="matrix(10.5,0,0,-10.5,302.99278,72.49567)" fill="#231f20"/>
<use xlink:href="#font_621_4d" transform="matrix(10.5,0,0,-10.5,307.5172,74.795169)" fill="#231f20"/>
<use xlink:href="#font_621_1" transform="matrix(10.5,0,0,-10.5,312.9667,72.49567)" fill="#231f20"/>
</g>
<g id="Layer-1" data-name="P">
<symbol id="font_620_35">
<path d="M 0 .84000006 L 0 0 L .237 0 L .237 .041999997 L .078999999 .041999997 L .078999999 .79700008 L .237 .79700008 L .237 .84000006 L 0 .84000006 Z "/>
</symbol>
<symbol id="font_620_54">
<path d="M 0 .19000006 L .146 0 L .19600001 0 L .09900001 .19000006 L 0 .19000006 Z "/>
</symbol>
<use xlink:href="#font_620_35" transform="matrix(10.5,0,0,-10.5,317.3622,73.88167)" fill="#231f20"/>
<use xlink:href="#font_620_54" transform="matrix(10.5,0,0,-10.5,321.41523,66.762668)" fill="#231f20"/>
</g>
<g id="Layer-1" data-name="P">
<symbol id="font_622_776">
<path d="M .77734377 .64501956 L .59765627 .41357423 C .6425781 .4054362 .680013 .3852539 .70996096 .35302735 C .7438151 .31591798 .7607422 .269694 .7607422 .21435547 C .7607422 .15413411 .7451172 .10432943 .7138672 .064941409 C .679362 .021647135 .63183596 0 .57128909 0 C .52213546 0 .48014323 .018880209 .4453125 .056640626 C .41471354 .08984375 .39420573 .13216146 .38378907 .18359375 L .39794923 .19042969 C .4308268 .11425781 .47688804 .076171878 .5361328 .076171878 C .58463546 .076171878 .6217448 .0921224 .64746096 .12402344 C .6702474 .15234375 .6816406 .1899414 .6816406 .2368164 C .6816406 .3367513 .6196289 .38671876 .49560548 .38671876 L .49560548 .40429688 L .6713867 .62890627 L .49560548 .62890627 C .47021485 .62890627 .4539388 .6282552 .44677735 .6269531 C .42985026 .6233724 .41748048 .6142578 .40966798 .5996094 C .3995768 .5810547 .39453126 .5608724 .39453126 .5390625 L .39453126 .3930664 C .39453126 .32177735 .3997396 .28173829 .41015626 .27294923 C .4156901 .26839195 .421875 .26611329 .42871095 .26611329 C .4375 .26611329 .44921876 .26888023 .4638672 .27441407 L .46923829 .25732423 L .33642579 .20214844 L .31396485 .20214844 L .31396485 .26611329 C .27327476 .22347005 .22949219 .20214844 .18261719 .20214844 C .12760417 .20214844 .08268229 .22542317 .047851564 .27197267 C .015950522 .31429038 0 .36393229 0 .42089845 C 0 .48632813 .01936849 .5442708 .05810547 .59472659 C .100097659 .64941409 .15283203 .6767578 .2163086 .6767578 C .25569663 .6767578 .2882487 .6642253 .31396485 .63916018 L .31396485 .7216797 C .31396485 .7923177 .30891929 .83170577 .29882813 .83984377 C .29361979 .8440755 .28710938 .8461914 .27929688 .8461914 C .27083335 .8461914 .25960288 .8435872 .24560547 .8383789 L .23925781 .85546877 L .3725586 .91015627 L .39453126 .91015627 L .39453126 .66308596 L .77734377 .66308596 L .77734377 .64501956 M .31396485 .30029298 L .31396485 .5307617 C .30973307 .57958987 .29101563 .61360678 .2578125 .6328125 C .24186199 .64192709 .22607422 .6464844 .21044922 .6464844 C .18180339 .6464844 .15625 .6336263 .13378906 .60791018 C .104166667 .57405599 .08935547 .52457687 .08935547 .45947267 C .08935547 .40966798 .09977213 .3655599 .12060547 .32714845 C .1459961 .2796224 .18180339 .25585938 .22802735 .25585938 C .25764976 .25585938 .28629557 .27067057 .31396485 .30029298 Z "/>
</symbol>
<use xlink:href="#font_622_776" transform="matrix(10.5,0,0,-10.5,322.93025,74.76178)" fill="#231f20"/>
</g>
<g id="Layer-1" data-name="P">
<symbol id="font_620_61">
<path d="M .12300001 .356 L .12300001 .44000004 C .149 .45100004 .16800002 .455 .19300002 .455 C .25800003 .455 .281 .42600004 .281 .344 L .281 .312 C .165 .282 .14100002 .275 .098000008 .257 C .029000003 .22800002 0 .18900001 0 .127 C 0 .051000004 .049000008 .0020000004 .12400001 .0020000004 C .17900002 .0020000004 .22900002 .022 .3 .07300001 C .35500003 .023000002 .41 0 .47700004 0 C .535 0 .58300009 .018000002 .63900008 .060000004 L .63900008 .11500001 C .59200009 .076000008 .56000009 .063 .50900009 .063 C .45000003 .063 .40600003 .08200001 .359 .128 L .359 .26700003 L .6380001 .26700003 C .63900008 .28300003 .63900008 .29500003 .63900008 .303 C .63900008 .42700003 .57900008 .499 .47600005 .499 C .42200003 .499 .384 .48200003 .343 .44000004 C .321 .48100005 .282 .499 .21500002 .499 C .10100001 .499 .022999999 .45200003 .022999999 .38400004 C .022999999 .36400003 .031 .356 .053 .356 L .12300001 .356 M .281 .10100001 C .22700002 .068 .19300002 .056 .157 .056 C .11400001 .056 .08400001 .08900001 .08400001 .13800001 C .08400001 .18100001 .10800001 .21200001 .158 .23500002 C .18500002 .252 .20100002 .24700001 .281 .277 L .281 .10100001 M .359 .30600003 C .363 .409 .397 .455 .46 .455 C .521 .455 .549 .41300003 .549 .32200004 L .549 .30600003 L .359 .30600003 Z "/>
</symbol>
<symbol id="font_620_44">
<path d="M 0 0 L .22 0 L .22 .036000004 L .172 .041 L .155 .057000005 L .155 .39200003 C .202 .416 .23900002 .42400003 .273 .42400003 C .36100004 .42400003 .36900003 .365 .36900003 .32200004 L .36900003 .057000005 L .35200004 .041 L .30400003 .036000004 L .30400003 0 L .52400007 0 L .52400007 .036000004 L .47 .041 L .453 .057000005 L .453 .33900003 C .453 .47800002 .358 .49 .32000003 .49 C .26200003 .49 .18200001 .446 .155 .43100003 L .155 .48600004 L .117 .48600004 L 0 .45000003 L 0 .41900004 L .071 .41900004 L .071 .057000005 L .054000006 .041 L 0 .036000004 L 0 0 Z "/>
</symbol>
<symbol id="font_620_40">
<path d="M .186 .637 L .186 .202 C .186 .08 .172 .066 .134 .047000007 L .037 .106000009 C .013999999 .097 0 .07800001 0 .05600001 C 0 .049999998 0 0 .069 0 C .117 0 .156 .020999998 .16600001 .026999996 C .24700001 .074 .27 .132 .27 .30200003 L .27 .70400008 L .23200003 .70400008 L .115 .66800007 L .115 .637 L .186 .637 M .16600001 .86800006 C .16600001 .836 .192 .81 .224 .81 C .256 .81 .282 .836 .282 .86800006 C .282 .90000006 .256 .926 .224 .926 C .192 .926 .16600001 .90000006 .16600001 .86800006 Z "/>
</symbol>
<symbol id="font_620_4b">
<path d="M .117000009 .499 L 0 .46300004 L 0 .432 L .071 .432 L .071 .15200001 C .071 .11800001 .076000008 .071 .108 .037 C .136 .007 .171 0 .20300001 0 C .25700004 0 .31900005 .028 .36900003 .065000008 L .36900003 .009000001 L .518 .009000001 L .518 .045 L .47100003 .05 L .45300005 .06600001 L .45300005 .499 L .41500003 .499 L .298 .46300004 L .298 .432 L .36900003 .432 L .36900003 .09300001 C .314 .067 .27300004 .064 .25200004 .064 C .231 .064 .20000002 .067 .18 .08800001 C .157 .11100001 .155 .14800002 .155 .16900002 L .155 .499 L .117000009 .499 Z "/>
</symbol>
<symbol id="font_620_98">
<path d="M .008000001 .38400004 C .086 .439 .14500001 .44200004 .165 .44200004 C .251 .44200004 .319 .37500004 .328 .263 L .0029999987 .263 C .0009999983 .23200001 0 .21800001 0 .20700002 C 0 .09600001 .063 0 .18300002 0 C .26600004 0 .31700004 .037 .34500004 .065000008 C .389 .11000001 .41500003 .17700002 .41500003 .25300003 C .41500003 .36200003 .36 .499 .192 .499 C .127 .499 .061000006 .47500003 .008000001 .439 L .008000001 .38400004 M .328 .22100002 C .32600004 .142 .29300005 .044 .19500001 .044 C .16700001 .044 .089 .059 .089 .18 C .089 .19600001 .09 .21300002 .091000009 .22100002 L .328 .22100002 Z "/>
</symbol>
<symbol id="font_620_48">
<path d="M .0010000002 0 L .243 0 L .243 .036000004 L .17300001 .041 L .156 .057000005 L .156 .34300003 C .18800001 .381 .22300002 .416 .266 .416 C .289 .416 .305 .40500004 .31500004 .39200003 L .347 .39200003 L .347 .47800002 C .33400003 .48400004 .31300003 .49100004 .284 .49100004 C .25500003 .49100004 .22300002 .46300004 .155 .39200003 L .155 .48600004 L .117 .48600004 L 0 .45000003 L 0 .41900004 L .072000008 .41900004 L .072000008 .057000005 L .055 .041 L .0010000002 .036000004 L .0010000002 0 Z "/>
</symbol>
<symbol id="font_620_3f">
<path d="M .117000009 .48600004 L 0 .45000003 L 0 .41900004 L .071 .41900004 L .071 .057000005 L .054000006 .041 L 0 .036000004 L 0 0 L .22600001 0 L .22600001 .036000004 L .17200002 .041 L .155 .057000005 L .155 .48600004 L .117000009 .48600004 M .061000006 .65000006 C .061000006 .61800006 .087000008 .592 .11900001 .592 C .151 .592 .17700002 .61800006 .17700002 .65000006 C .17700002 .68200007 .151 .708 .11900001 .708 C .087000008 .708 .061000006 .68200007 .061000006 .65000006 Z "/>
</symbol>
<symbol id="font_620_36">
<path d="M .237 .84000006 L 0 .84000006 L 0 .79700008 L .158 .79700008 L .158 .041999997 L 0 .041999997 L 0 0 L .237 0 L .237 .84000006 Z "/>
</symbol>
<use xlink:href="#font_620_61" transform="matrix(10.5,0,0,-10.5,331.9027,72.590167)" fill="#231f20"/>
<use xlink:href="#font_620_44" transform="matrix(10.5,0,0,-10.5,339.3787,72.49567)" fill="#231f20"/>
<use xlink:href="#font_620_40" transform="matrix(10.5,0,0,-10.5,344.2297,74.78467)" fill="#231f20"/>
<use xlink:href="#font_620_4b" transform="matrix(10.5,0,0,-10.5,348.11473,72.590167)" fill="#231f20"/>
<use xlink:href="#font_620_98" transform="matrix(10.5,0,0,-10.5,354.2467,72.590167)" fill="#231f20"/>
<use xlink:href="#font_620_48" transform="matrix(10.5,0,0,-10.5,359.3077,72.49567)" fill="#231f20"/>
<use xlink:href="#font_620_3f" transform="matrix(10.5,0,0,-10.5,363.53816,72.49567)" fill="#231f20"/>
<use xlink:href="#font_620_36" transform="matrix(10.5,0,0,-10.5,366.59367,73.88167)" fill="#231f20"/>
<use xlink:href="#font_620_1" transform="matrix(10.5,0,0,-10.5,370.54167,72.49567)" fill="#231f20"/>
</g>
<g id="Layer-1" data-name="P">
<g id="Layer-2" data-name="Span">
</g>
<use xlink:href="#font_620_81" transform="matrix(10.5,0,0,-10.5,50.918603,89.89288)" fill="#231f20"/>
<use xlink:href="#font_620_7f" transform="matrix(10.5,0,0,-10.5,56.7251,89.89288)" fill="#231f20"/>
<use xlink:href="#font_620_73" transform="matrix(10.5,0,0,-10.5,61.555105,89.98738)" fill="#231f20"/>
<use xlink:href="#font_620_81" transform="matrix(10.5,0,0,-10.5,67.0781,89.89288)" fill="#231f20"/>
<use xlink:href="#font_620_80" transform="matrix(10.5,0,0,-10.5,72.9581,89.98738)" fill="#231f20"/>
<use xlink:href="#font_620_74" transform="matrix(10.5,0,0,-10.5,77.8826,89.89288)" fill="#231f20"/>
<use xlink:href="#font_620_80" transform="matrix(10.5,0,0,-10.5,83.0591,89.98738)" fill="#231f20"/>
<use xlink:href="#font_620_7b" transform="matrix(10.5,0,0,-10.5,88.204097,89.98738)" fill="#231f20"/>
<use xlink:href="#font_620_72" transform="matrix(10.5,0,0,-10.5,92.8136,89.89288)" fill="#231f20"/>
<use xlink:href="#font_620_1" transform="matrix(10.5,0,0,-10.5,97.7486,89.89288)" fill="#231f20"/>
<use xlink:href="#font_620_60" transform="matrix(10.5,0,0,-10.5,100.6886,87.68788)" fill="#231f20"/>
<use xlink:href="#font_620_1" transform="matrix(10.5,0,0,-10.5,111.1886,89.89288)" fill="#231f20"/>
</g>
<g id="Layer-1" data-name="P">
<use xlink:href="#font_621_35" transform="matrix(10.5,0,0,-10.5,114.5075,89.98738)" fill="#231f20"/>
<use xlink:href="#font_621_46" transform="matrix(10.5,0,0,-10.5,120.041,89.89288)" fill="#231f20"/>
<use xlink:href="#font_621_39" transform="matrix(10.5,0,0,-10.5,124.598,89.98738)" fill="#231f20"/>
<use xlink:href="#font_621_1" transform="matrix(10.5,0,0,-10.5,129.7115,89.89288)" fill="#231f20"/>
<use xlink:href="#font_621_33" transform="matrix(10.5,0,0,-10.5,134.0795,91.278888)" fill="#231f20"/>
<use xlink:href="#font_621_72" transform="matrix(10.5,0,0,-10.5,137.69152,89.98738)" fill="#231f20"/>
<use xlink:href="#font_621_15" transform="matrix(10.5,0,0,-10.5,143.91802,89.97688)" fill="#231f20"/>
<use xlink:href="#font_621_34" transform="matrix(10.5,0,0,-10.5,146.94202,91.278888)" fill="#231f20"/>
<use xlink:href="#font_621_1" transform="matrix(10.5,0,0,-10.5,151.19452,89.89288)" fill="#231f20"/>
</g>
<g id="Layer-1" data-name="P">
<g id="Layer-2" data-name="Span">
</g>
<symbol id="font_620_8b">
<path d="M 0 .14 L .67200008 .14 L .68700006 .124 L .70500007 0 L .75600007 0 L .75600007 .186 L .691 .186 L .679 .19600001 L .679 .564 L .696 .58000007 L .75 .58500006 L .75 .62100008 L .53200009 .62100008 L .53200009 .58500006 L .57800009 .58000007 L .595 .564 L .595 .186 L .41700004 .186 L .41700004 .564 L .43400003 .58000007 L .48000006 .58500006 L .48000006 .62100008 L .27 .62100008 L .27 .58500006 L .316 .58000007 L .333 .564 L .333 .186 L .155 .186 L .155 .564 L .172 .58000007 L .21800001 .58500006 L .21800001 .62100008 L 0 .62100008 L 0 .58500006 L .054000006 .58000007 L .071 .564 L .071 .197 L .054000006 .181 L 0 .176 L 0 .14 Z "/>
</symbol>
<symbol id="font_620_7a">
<path d="M 0 0 L .22 0 L .22 .036000004 L .172 .041 L .155 .057000005 L .155 .089 L .38700003 .33800004 L .38700003 .057000005 L .37 .041 L .32200004 .036000004 L .32200004 0 L .54200008 0 L .54200008 .036000004 L .488 .041 L .47100006 .057000005 L .47100006 .42400003 L .488 .44000004 L .54200008 .44500003 L .54200008 .48100005 L .32200004 .48100005 L .32200004 .44500003 L .37 .44000004 L .38700003 .42400003 L .38700003 .4 L .155 .15100001 L .155 .42400003 L .172 .44000004 L .22 .44500003 L .22 .48100005 L 0 .48100005 L 0 .44500003 L .054000006 .44000004 L .071 .42400003 L .071 .057000005 L .054000006 .041 L 0 .036000004 L 0 0 Z "/>
</symbol>
<use xlink:href="#font_620_81" transform="matrix(10.5,0,0,-10.5,223.832,89.89288)" fill="#231f20"/>
<use xlink:href="#font_620_8b" transform="matrix(10.5,0,0,-10.5,229.6385,91.362888)" fill="#231f20"/>
<use xlink:href="#font_620_7a" transform="matrix(10.5,0,0,-10.5,238.14351,89.89288)" fill="#231f20"/>
<use xlink:href="#font_620_68" transform="matrix(10.5,0,0,-10.5,244.46451,89.89288)" fill="#231f20"/>
<use xlink:href="#font_620_1" transform="matrix(10.5,0,0,-10.5,249.77751,89.89288)" fill="#231f20"/>
<use xlink:href="#font_620_60" transform="matrix(10.5,0,0,-10.5,252.7175,87.68788)" fill="#231f20"/>
<use xlink:href="#font_620_1" transform="matrix(10.5,0,0,-10.5,263.2175,89.89288)" fill="#231f20"/>
</g>
<g id="Layer-1" data-name="P">
<symbol id="font_621_37">
<path d="M .42900003 .125 C .40700004 .11000001 .351 .07800001 .291 .07800001 C .245 .07800001 .208 .09300001 .18 .128 C .165 .14700002 .13800001 .18900001 .13800001 .26900003 C .13800001 .31500004 .16000001 .45700003 .26700003 .45700003 C .275 .45700003 .28300003 .45600004 .29200004 .45400004 L .29200004 .34800003 C .316 .33200003 .335 .32900004 .35000003 .32900004 C .39200003 .32900004 .423 .356 .423 .39800004 C .423 .41300003 .41900004 .446 .38300003 .47300003 C .35000003 .49800004 .303 .508 .259 .508 C .164 .508 .105000007 .46600003 .07700001 .439 C .030000002 .39400003 0 .328 0 .24600002 C 0 .165 .030000002 .10300001 .07000001 .064 C .10100001 .034 .156 0 .24100003 0 C .26700003 0 .344 .0030000006 .42900003 .054 L .42900003 .125 Z "/>
</symbol>
<use xlink:href="#font_621_37" transform="matrix(10.5,0,0,-10.5,266.5369,89.98738)" fill="#231f20"/>
<use xlink:href="#font_621_35" transform="matrix(10.5,0,0,-10.5,271.5559,89.98738)" fill="#231f20"/>
<use xlink:href="#font_621_47" transform="matrix(10.5,0,0,-10.5,277.26795,89.98738)" fill="#231f20"/>
<use xlink:href="#font_621_39" transform="matrix(10.5,0,0,-10.5,281.91944,89.98738)" fill="#231f20"/>
<use xlink:href="#font_621_1" transform="matrix(10.5,0,0,-10.5,287.03297,89.89288)" fill="#231f20"/>
</g>
<g id="Layer-1" data-name="P">
<symbol id="font_620_41">
<path d="M .005999999 0 L .22600001 0 L .22600001 .036000004 L .17900002 .041 L .16100002 .057000005 L .16100002 .22700002 L .21800003 .22700002 L .35400004 .033 L .35400004 0 L .51000007 0 L .51000007 .038000004 L .44600005 .043 L .26900003 .291 L .40600003 .43600003 L .47000004 .44400005 L .47000004 .48100005 L .28000004 .48100005 L .28000004 .44400005 L .32500003 .44000004 L .33200003 .42600004 L .17900002 .25500003 L .16100002 .25500003 L .16100002 .73600009 L .123 .73600009 L 0 .70000007 L 0 .669 L .077 .669 L .077 .057000005 L .060000004 .041 L .005999999 .036000004 L .005999999 0 Z "/>
</symbol>
<symbol id="font_620_3b">
<path d="M .411 .11500001 C .33900003 .06600001 .287 .057 .254 .057 C .14 .057 .086 .16300002 .086 .26500003 L .086 .272 L .41000004 .272 C .411 .282 .411 .291 .411 .3 C .411 .46100004 .31 .499 .23200003 .499 C .149 .499 .097 .462 .07000001 .43400003 C .026 .38900004 0 .32200004 0 .24600002 C 0 .10800001 .075 0 .227 0 C .29200004 0 .358 .023000002 .411 .060000004 L .411 .11500001 M .091000009 .314 C .098000008 .38000003 .134 .455 .22 .455 C .279 .455 .30200003 .416 .30800004 .404 C .316 .38900004 .32200004 .35900004 .32200004 .33900003 L .32200004 .314 L .091000009 .314 Z "/>
</symbol>
<symbol id="font_620_49">
<path d="M .30300004 .47800002 C .277 .48800005 .24100003 .499 .18600002 .499 C .136 .499 .009 .48300005 .009 .35900004 C .009 .337 .013 .31300003 .031999999 .29000003 C .04 .28000004 .062 .25800003 .127 .22800002 C .17300001 .20700002 .24000001 .18500002 .24000001 .124000009 C .24000001 .07800001 .21000001 .044 .14200002 .044 C .106 .044 .077 .057 .060000004 .06600001 L .048 .15100001 L 0 .15100001 L 0 .021000002 C .030000002 .010000001 .07 0 .125 0 C .204 0 .31800003 .026 .31800003 .15 C .31800003 .22500001 .26900003 .25100003 .17900002 .29200004 C .122 .31700004 .08900001 .34300003 .08900001 .386 C .08900001 .44300003 .13300002 .455 .17300001 .455 C .18600002 .455 .21400002 .45300005 .24600002 .43600003 L .25500003 .365 L .30300004 .365 L .30300004 .47800002 Z "/>
</symbol>
<use xlink:href="#font_620_35" transform="matrix(10.5,0,0,-10.5,291.4277,91.278888)" fill="#231f20"/>
<use xlink:href="#font_620_41" transform="matrix(10.5,0,0,-10.5,294.5882,89.89288)" fill="#231f20"/>
<use xlink:href="#font_620_3b" transform="matrix(10.5,0,0,-10.5,300.07969,89.98738)" fill="#231f20"/>
<use xlink:href="#font_620_3f" transform="matrix(10.5,0,0,-10.5,305.19319,89.89288)" fill="#231f20"/>
<use xlink:href="#font_620_49" transform="matrix(10.5,0,0,-10.5,308.2172,89.98738)" fill="#231f20"/>
<use xlink:href="#font_620_36" transform="matrix(10.5,0,0,-10.5,312.4487,91.278888)" fill="#231f20"/>
</g>
</g>
<text x="10" y="-10" font-size="13" font-family="Arial" fill="#cccccc">https://urait.ru</text></svg>
