<?xml version="1.0" encoding="UTF-8" standalone="no"?>
<!DOCTYPE svg PUBLIC "-//W3C//DTD SVG 1.1//EN" "http://www.w3.org/Graphics/SVG/1.1/DTD/svg11.dtd">
<svg xmlns="http://www.w3.org/2000/svg" xmlns:xlink="http://www.w3.org/1999/xlink" version="1.1" width="439.37pt" height="674.646pt" viewBox="0 0 439.37 674.646">
<g enable-background="new">
<path transform="matrix(1,0,0,-1,140.315,252.5546)" stroke-width="1.144" stroke-linecap="butt" stroke-miterlimit="10" stroke-linejoin="miter" fill="none" stroke="#231f20" d="M 0 0 L 158.74 0 "/>
<path transform="matrix(1,0,0,-1,140.315,255.9826)" stroke-width="2.288" stroke-linecap="butt" stroke-miterlimit="10" stroke-linejoin="miter" fill="none" stroke="#231f20" d="M 0 0 L 158.74 0 "/>
<path transform="matrix(1,0,0,-1,140.315,259.41059)" stroke-width="1.144" stroke-linecap="butt" stroke-miterlimit="10" stroke-linejoin="miter" fill="none" stroke="#231f20" d="M 0 0 L 158.74 0 "/>
<g id="Layer-1" data-name="P">
<symbol id="font_625_62">
<path d="M 0 0 L .13100001 0 L .13100001 .25100003 C .13900002 .25100003 .14800002 .25100003 .157 .25100003 C .21100003 .25100003 .279 .27100004 .321 .31500004 C .35600005 .35300002 .37800003 .404 .37800003 .47700004 C .37800003 .53400006 .36 .59000006 .32000003 .625 C .27600003 .666 .215 .67700007 .13700001 .67700007 C .08700001 .67700007 .037000006 .67200008 0 .66400006 L 0 0 M .13100001 .56600007 C .13900002 .569 .15100001 .57100006 .16300002 .57100006 C .224 .57100006 .24800003 .52500006 .24800003 .46600003 C .24800003 .40300004 .21800003 .356 .15200001 .356 C .14400001 .356 .13700001 .356 .13100001 .358 L .13100001 .56600007 Z "/>
</symbol>
<symbol id="font_625_5a">
<path d="M .36400003 .008 C .358 .041 .35600005 .08100001 .35600005 .120000008 L .35600005 .302 C .35600005 .401 .33200003 .505 .183 .505 C .115 .505 .058000007 .484 .031 .468 L .055 .38 C .08400001 .398 .116000007 .408 .155 .408 C .201 .408 .224 .38 .224 .342 L .224 .331 C .113 .33 0 .277 0 .149 C 0 .062000004 .055 0 .12900001 0 C .17200002 0 .21000001 .018000002 .23700002 .056 L .23900002 .056 L .24600002 .008 L .36400003 .008 M .22800002 .16100002 C .22800002 .15300001 .227 .14500001 .22500003 .13800001 C .21600002 .109000008 .192 .09600001 .171 .09600001 C .151 .09600001 .124000009 .11400001 .124000009 .163 C .124000009 .231 .18400002 .24500002 .22800002 .246 L .22800002 .16100002 Z "/>
</symbol>
<symbol id="font_625_4b">
<path d="M .072000008 .21800001 L .11400001 .21800001 C .162 .21800001 .207 .2 .207 .15400002 C .207 .124000009 .18200001 .094000007 .117 .094000007 C .08400001 .094000007 .045 .105000007 .022 .11500001 L 0 .028 C .035 .011 .081 0 .132 0 C .242 0 .34200005 .049000004 .34200005 .149 C .34200005 .21300002 .29300005 .259 .223 .269 L .223 .271 C .28300003 .285 .32400004 .323 .32400004 .381 C .32400004 .45000003 .27000005 .505 .162 .505 C .102000009 .505 .05 .492 .0150000019 .472 L .035 .391 C .060000004 .404 .093 .415 .12100001 .415 C .16700001 .415 .19100002 .393 .19100002 .361 C .19100002 .325 .16100002 .304 .113000009 .304 L .072000008 .304 L .072000008 .21800001 Z "/>
</symbol>
<symbol id="font_625_4f">
<path d="M .09200001 .624 L .09200001 .491 C .09200001 .43700005 .087000008 .38200004 .076000008 .33100004 C .069000009 .296 .057 .25800003 .04 .231 L 0 .229 L .005 0 L .10300001 0 L .11000001 .135 L .34700004 .135 L .35300002 0 L .45200003 0 L .45700003 .229 L .41200004 .231 L .41200004 .624 L .09200001 .624 M .207 .523 L .28300003 .523 L .28300003 .23400001 L .165 .23400001 C .18 .26500003 .18900001 .298 .19500001 .333 C .20300001 .38200004 .207 .43400003 .207 .482 L .207 .523 Z "/>
</symbol>
<symbol id="font_625_5c">
<path d="M .358 .20400001 C .361 .21800001 .36200003 .237 .36200003 .272 C .36200003 .42000006 .301 .503 .19600001 .503 C .08500001 .503 0 .40500004 0 .24100001 C 0 .088 .07300001 0 .20600002 0 C .256 0 .307 .009 .341 .022 L .323 .116000007 C .3 .108 .267 .1 .23 .1 C .172 .1 .128 .128 .126 .20400001 L .358 .20400001 M .127 .29600004 C .128 .34500004 .14500001 .40800003 .18800001 .40800003 C .22700002 .40800003 .24300002 .35900004 .24300002 .29600004 L .127 .29600004 Z "/>
</symbol>
<symbol id="font_625_4a">
<path d="M .066 .497 L .066 .285 C .066 .231 .062000004 .171 .044000005 .13900002 C .035 .124000009 .024 .11100001 0 .105000007 L .021000002 0 C .042000005 0 .067 .006 .08800001 .016 C .17500001 .056 .18800001 .158 .18800001 .289 L .18800001 .392 L .261 .392 L .261 .008 L .39200003 .008 L .39200003 .497 L .066 .497 Z "/>
</symbol>
<symbol id="font_625_4d">
<path d="M 0 0 Z "/>
</symbol>
<symbol id="font_625_1b">
<path d="M 0 .674 L 0 0 L .13100001 0 L .13100001 .674 L 0 .674 Z "/>
</symbol>
<use xlink:href="#font_625_62" transform="matrix(35,0,0,-35,160.6277,133.96692)" fill="#231f20"/>
<use xlink:href="#font_625_5a" transform="matrix(35,0,0,-35,174.62769,134.24692)" fill="#231f20"/>
<use xlink:href="#font_625_4b" transform="matrix(35,0,0,-35,189.1527,134.24692)" fill="#231f20"/>
<use xlink:href="#font_625_4f" transform="matrix(35,0,0,-35,202.2427,138.69193)" fill="#231f20"/>
<use xlink:href="#font_625_5c" transform="matrix(35,0,0,-35,219.6027,134.17693)" fill="#231f20"/>
<use xlink:href="#font_625_4a" transform="matrix(35,0,0,-35,233.25272,134.24692)" fill="#231f20"/>
<use xlink:href="#font_625_4d" transform="matrix(35,0,0,-35,248.58272,133.96692)" fill="#231f20"/>
<use xlink:href="#font_625_1b" transform="matrix(35,0,0,-35,257.29075,133.96692)" fill="#231f20"/>
<use xlink:href="#font_625_1b" transform="matrix(35,0,0,-35,265.97074,133.96692)" fill="#231f20"/>
</g>
<g id="Layer-1" data-name="P">
<symbol id="font_625_6">
<path d="M .076000008 0 C .122 0 .153 .034 .153 .087000008 C .153 .141 .11900001 .17400001 .077 .17400001 C .037 .17400001 0 .13700001 0 .087000008 C 0 .034 .035000005 0 .076000008 0 Z "/>
</symbol>
<symbol id="font_625_1">
<path d="M 0 0 Z "/>
</symbol>
<use xlink:href="#font_625_6" transform="matrix(35,0,0,-35,274.29789,134.24692)" fill="#ffffff"/>
<use xlink:href="#font_625_1" transform="matrix(35,0,0,-35,280.7729,133.96692)" fill="#ffffff"/>
</g>
<g id="Layer-1" data-name="P">
<use xlink:href="#font_625_1" transform="matrix(35,0,0,-35,287.4503,133.96692)" fill="#ffffff"/>
</g>
<g id="Layer-1" data-name="P">
<symbol id="font_625_61">
<path d="M 0 .674 L 0 0 L .12100001 0 L .22000003 .257 C .24200002 .31300003 .272 .39400003 .28700004 .455 L .289 .455 C .286 .38700003 .28100003 .287 .28100003 .15200001 L .28100003 0 L .39600004 0 L .39600004 .674 L .277 .674 L .17800002 .41300003 C .158 .36100004 .12400001 .273 .105000007 .215 L .103000018 .215 C .10800001 .28500004 .11600001 .40100003 .11600001 .52500006 L .11600001 .674 L 0 .674 Z "/>
</symbol>
<symbol id="font_625_71">
<path d="M 0 .674 L 0 0 L .13100001 0 L .13100001 .282 L .268 .282 L .268 0 L .39900003 0 L .39900003 .674 L .268 .674 L .268 .404 L .13100001 .404 L .13100001 .674 L 0 .674 Z "/>
</symbol>
<symbol id="font_625_82">
<path d="M .214 .722 L .214 .671 C .109000008 .65500006 0 .561 0 .363 C 0 .15900001 .091000009 .073 .213 .055 L .213 0 L .329 0 L .329 .055 C .44900004 .072 .54200008 .15900001 .54200008 .366 C .54200008 .56 .45000003 .65500006 .329 .671 L .329 .722 L .214 .722 M .214 .15100001 C .17300001 .16000001 .131 .22200002 .131 .361 C .131 .51000007 .17400001 .564 .214 .57600006 L .214 .15100001 M .328 .57600006 C .36600004 .56700006 .411 .518 .411 .365 C .411 .21400002 .372 .16000001 .328 .15100001 L .328 .57600006 Z "/>
</symbol>
<symbol id="font_625_66">
<path d="M .11900001 0 L .25000004 0 L .25000004 .55300006 L .37000004 .55300006 L .37000004 .674 L 0 .674 L 0 .55300006 L .11900001 .55300006 L .11900001 0 Z "/>
</symbol>
<symbol id="font_625_64">
<path d="M 0 .007 C .030000005 .0030000003 .07200001 0 .12200001 0 C .23500002 0 .30300004 .024000003 .34300003 .068 C .37500004 .101 .39300005 .14400001 .39300005 .2 C .39300005 .27400003 .351 .33900003 .27300004 .361 L .27300004 .365 C .34000004 .39400003 .37100003 .45200003 .37100003 .512 C .37100003 .559 .35600005 .60400006 .32000003 .634 C .27300004 .674 .21200001 .68200007 .14900002 .68200007 C .09200001 .68200007 .040000004 .67800006 0 .669 L 0 .007 M .13100001 .58000007 C .13900002 .583 .15100001 .58400008 .165 .58400008 C .21900001 .58400008 .24200002 .546 .24200002 .497 C .24200002 .442 .206 .402 .15900001 .402 L .13100001 .402 L .13100001 .58000007 M .13100001 .305 L .15900001 .305 C .21100003 .30400003 .25700004 .269 .25700004 .202 C .25700004 .133 .21300003 .101 .16000001 .101 C .14800002 .101 .13900002 .101 .13100001 .10300001 L .13100001 .305 Z "/>
</symbol>
<use xlink:href="#font_625_61" transform="matrix(35,0,0,-35,142.0916,175.96689)" fill="#231f20"/>
<use xlink:href="#font_625_71" transform="matrix(35,0,0,-35,160.0466,175.96689)" fill="#231f20"/>
<use xlink:href="#font_625_82" transform="matrix(35,0,0,-35,176.9166,176.80689)" fill="#231f20"/>
<use xlink:href="#font_625_61" transform="matrix(35,0,0,-35,198.7916,175.96689)" fill="#231f20"/>
<use xlink:href="#font_625_71" transform="matrix(35,0,0,-35,216.7466,175.96689)" fill="#231f20"/>
<use xlink:href="#font_625_61" transform="matrix(35,0,0,-35,234.7716,175.96689)" fill="#231f20"/>
<use xlink:href="#font_625_66" transform="matrix(35,0,0,-35,251.11661,175.96689)" fill="#231f20"/>
<use xlink:href="#font_625_61" transform="matrix(35,0,0,-35,266.4816,175.96689)" fill="#231f20"/>
<use xlink:href="#font_625_64" transform="matrix(35,0,0,-35,284.43659,176.14189)" fill="#231f20"/>
<use xlink:href="#font_625_1" transform="matrix(35,0,0,-35,299.31159,175.96689)" fill="#231f20"/>
</g>
<g id="Layer-1" data-name="P">
<symbol id="font_625_59">
<path d="M .44900004 0 L .56600007 0 L .52500006 .674 L .38700003 .674 L .33400003 .43 C .316 .34500004 .30100004 .26900003 .291 .194 L .28900004 .194 C .277 .27 .26000003 .34500004 .24100003 .43 L .187 .674 L .049000004 .674 L 0 0 L .11300001 0 L .124000009 .23400001 C .12800002 .30100004 .132 .386 .134 .45900003 L .137 .45900003 C .14700002 .386 .16500002 .30200003 .178 .24800001 L .23400003 .011000001 L .32700003 .011000001 L .38500003 .252 C .39800004 .30400003 .41600005 .38700003 .42800004 .45900003 L .43100003 .45900003 C .42900003 .38700003 .43400003 .3 .43700005 .23600002 L .44900004 0 Z "/>
</symbol>
<symbol id="font_625_44">
<path d="M .222 .69000008 C .07300001 .69000008 0 .531 0 .347 C 0 .16200002 .060000004 0 .213 0 C .34100003 0 .43100003 .10300001 .43100003 .357 C .43100003 .51100006 .38500003 .69000008 .222 .69000008 M .21700001 .57600006 C .27600003 .57600006 .294 .469 .294 .351 C .294 .21400002 .273 .11400001 .21800001 .11400001 C .165 .11400001 .136 .19200002 .136 .345 C .136 .49 .165 .57600006 .21700001 .57600006 Z "/>
</symbol>
<symbol id="font_625_6f">
<path d="M .113000009 .82100006 L .113000009 .651 C .113000009 .572 .10700001 .49300004 .094000007 .416 C .083000008 .361 .069000009 .31 .048 .259 L 0 .257 L .005 0 L .105000007 0 L .11000001 .147 L .40300004 .147 L .40800003 0 L .507 0 L .513 .257 L .46000005 .259 L .46000005 .82100006 L .113000009 .82100006 M .23300001 .707 L .33 .707 L .33 .261 L .183 .261 C .19700001 .302 .209 .35400004 .21700001 .402 C .228 .47400005 .23300001 .55200007 .23300001 .629 L .23300001 .707 Z "/>
</symbol>
<symbol id="font_625_65">
<path d="M .27800004 .15400002 L .30700005 0 L .43400005 0 L .30300004 .674 L .14600002 .674 L 0 0 L .127 0 L .157 .15400002 L .27800004 .15400002 M .17 .256 L .19500001 .39600004 C .202 .43500004 .21200001 .505 .21900001 .55 L .222 .55 C .22800002 .505 .237 .43800003 .244 .397 L .26600004 .256 L .17 .256 Z "/>
</symbol>
<symbol id="font_625_74">
<path d="M .09300001 .68200007 L .09300001 .378 C .09300001 .24700001 .08400001 .17500001 .045 .135 C .033 .123 .016 .11500001 0 .11100001 L .028 0 C .061 0 .09300001 .013 .11800001 .033 C .20300001 .09900001 .21300002 .23500002 .21300002 .39000003 L .21300002 .568 L .31300003 .568 L .31300003 .008 L .44400005 .008 L .44400005 .68200007 L .09300001 .68200007 Z "/>
</symbol>
<symbol id="font_625_7d">
<path d="M 0 .679 L 0 .007 C .030000005 .0030000003 .07200001 0 .12200001 0 C .21900001 0 .291 .024000003 .33800004 .072000008 C .37300004 .109000008 .39300005 .158 .39300005 .22500001 C .39300005 .354 .31100003 .43100003 .18300002 .43100003 C .15600002 .43100003 .14100002 .43 .13000001 .428 L .13000001 .679 L 0 .679 M .13100001 .323 C .13900002 .32500003 .15 .326 .16100002 .326 C .224 .326 .25700004 .278 .25700004 .21700001 C .25700004 .156 .22300002 .105000007 .15600002 .105000007 C .14800002 .105000007 .14000002 .105000007 .13100001 .10700001 L .13100001 .323 Z "/>
</symbol>
<symbol id="font_625_69">
<path d="M 0 .679 L 0 .007 C .030000005 .0030000003 .07200001 0 .11400001 0 C .20900002 0 .282 .024000003 .328 .072000008 C .36300005 .109000008 .38400004 .16 .38400004 .228 C .38400004 .351 .29900003 .43100003 .17900002 .43100003 C .16400002 .43100003 .14600002 .43 .13000001 .42700003 L .13000001 .679 L 0 .679 M .13100001 .323 C .13900002 .32500003 .15 .326 .15900001 .326 C .21300003 .326 .24800003 .28 .24800003 .215 C .24800003 .155 .21000001 .105000007 .15500002 .105000007 C .14800002 .105000007 .14000002 .105000007 .13100001 .10700001 L .13100001 .323 M .43300004 .679 L .43300004 .0050000005 L .565 .0050000005 L .565 .679 L .43300004 .679 Z "/>
</symbol>
<symbol id="font_625_77">
<path d="M .28500004 .40500004 L .13100001 .40500004 L .13100001 .56 L .293 .56 L .293 .674 L 0 .674 L 0 0 L .305 0 L .305 .11400001 L .13100001 .11400001 L .13100001 .296 L .28500004 .296 L .28500004 .40500004 Z "/>
</symbol>
<symbol id="font_625_73">
<path d="M 0 .674 L 0 0 L .13100001 0 L .13100001 .56 L .31100003 .56 L .31100003 .674 L 0 .674 Z "/>
</symbol>
<use xlink:href="#font_625_61" transform="matrix(35,0,0,-35,66.2012,217.96689)" fill="#231f20"/>
<use xlink:href="#font_625_4d" transform="matrix(35,0,0,-35,82.126209,217.96689)" fill="#231f20"/>
<use xlink:href="#font_625_59" transform="matrix(35,0,0,-35,89.959209,217.96689)" fill="#231f20"/>
<use xlink:href="#font_625_44" transform="matrix(35,0,0,-35,111.834209,218.24689)" fill="#231f20"/>
<use xlink:href="#font_625_6f" transform="matrix(35,0,0,-35,127.30421,223.1119)" fill="#231f20"/>
<use xlink:href="#font_625_65" transform="matrix(35,0,0,-35,146.3092,217.96689)" fill="#231f20"/>
<use xlink:href="#font_625_74" transform="matrix(35,0,0,-35,162.3392,218.24689)" fill="#231f20"/>
<use xlink:href="#font_625_7d" transform="matrix(35,0,0,-35,181.93921,218.14189)" fill="#231f20"/>
<use xlink:href="#font_625_71" transform="matrix(35,0,0,-35,198.56421,217.96689)" fill="#231f20"/>
<use xlink:href="#font_625_69" transform="matrix(35,0,0,-35,216.5892,218.14189)" fill="#231f20"/>
<use xlink:href="#font_625_77" transform="matrix(35,0,0,-35,240.42421,217.96689)" fill="#231f20"/>
<use xlink:href="#font_625_1" transform="matrix(35,0,0,-35,252.1842,217.96689)" fill="#231f20"/>
<use xlink:href="#font_625_73" transform="matrix(35,0,0,-35,260.8992,217.96689)" fill="#231f20"/>
<use xlink:href="#font_625_74" transform="matrix(35,0,0,-35,271.3642,218.24689)" fill="#231f20"/>
<use xlink:href="#font_625_65" transform="matrix(35,0,0,-35,289.2142,217.96689)" fill="#231f20"/>
<use xlink:href="#font_625_73" transform="matrix(35,0,0,-35,306.9942,217.96689)" fill="#231f20"/>
<use xlink:href="#font_625_44" transform="matrix(35,0,0,-35,318.4042,218.24689)" fill="#231f20"/>
<use xlink:href="#font_625_74" transform="matrix(35,0,0,-35,333.8042,218.24689)" fill="#231f20"/>
<use xlink:href="#font_625_69" transform="matrix(35,0,0,-35,353.4042,218.14189)" fill="#231f20"/>
</g>
</g>
<text x="10" y="-10" font-size="13" font-family="Arial" fill="#cccccc">https://urait.ru</text></svg>
