<?xml version="1.0" encoding="UTF-8" standalone="no"?>
<!DOCTYPE svg PUBLIC "-//W3C//DTD SVG 1.1//EN" "http://www.w3.org/Graphics/SVG/1.1/DTD/svg11.dtd">
<svg xmlns="http://www.w3.org/2000/svg" xmlns:xlink="http://www.w3.org/1999/xlink" version="1.1" width="439.37pt" height="674.646pt" viewBox="0 0 439.37 674.646">
<g enable-background="new">
<g id="Layer-1" data-name="P">
<g id="Layer-2" data-name="Span">
</g>
<g id="Layer-2" data-name="Span">
</g>
<g id="Layer-2" data-name="Span">
</g>
<symbol id="font_7bb_31">
<path d="M 0 .671 L 0 .62200006 L .064 .61200007 L .256 .264 L .256 .069000009 L .24000003 .055000005 L .17200002 .049000004 L .17200002 0 L .47200004 0 L .47200004 .049000004 L .404 .055000005 L .388 .069000009 L .388 .28800003 L .578 .611 L .637 .62200006 L .637 .671 L .42000003 .671 L .42000003 .623 L .48000003 .61200007 L .48800005 .596 L .34500004 .351 L .20800002 .605 L .21700002 .61700007 L .27300004 .62200006 L .27300004 .671 L 0 .671 Z "/>
</symbol>
<symbol id="font_7bb_43">
<path d="M .26200003 .508 C .12300001 .508 0 .43500004 0 .252 C 0 .07800001 .11500001 0 .25300003 0 C .363 0 .51000007 .052 .51000007 .254 C .51000007 .35700003 .46600003 .418 .43 .44900004 C .39100004 .48300005 .335 .508 .26200003 .508 M .254 .45400004 C .35400004 .45400004 .372 .30800004 .372 .252 C .372 .18500002 .351 .054 .254 .054 C .16000001 .054 .13800001 .18400002 .13800001 .255 C .13800001 .32700003 .15200001 .36900003 .165 .395 C .17700002 .418 .202 .45400004 .254 .45400004 Z "/>
</symbol>
<symbol id="font_7bb_49">
<path d="M .14000002 .508 L 0 .46000005 L 0 .42100004 L .065000008 .42100004 L .065000008 .171 C .065000008 .11000001 .083000008 0 .19800002 0 C .26600004 0 .32400004 .035 .36900003 .064 L .36900003 .009000001 L .557 .009000001 L .557 .054 L .506 .059 L .492 .07300001 L .492 .508 L .44600005 .508 L .30400003 .46000005 L .30400003 .42100004 L .36900003 .42100004 L .36900003 .102000009 C .33800004 .09200001 .30400003 .08600001 .28000004 .08600001 C .25800003 .08600001 .23000002 .08900001 .21000001 .113000009 C .18900001 .13800001 .18800003 .17600002 .18800003 .19800002 L .18800003 .508 L .14000002 .508 Z "/>
</symbol>
<symbol id="font_7bb_1">
<path d="M 0 0 Z "/>
</symbol>
<symbol id="font_7bb_41">
<path d="M .18800001 .49600003 L .14 .49600003 L 0 .44900004 L 0 .409 L .065 .409 L .065 .064 L .051 .05 L 0 .045 L 0 0 L .246 0 L .246 .045 L .202 .05 L .18800001 .064 L .18800001 .39400003 C .20400001 .4 .24000003 .41200004 .27400003 .41200004 C .32400004 .41200004 .36100004 .38200004 .36100004 .30900003 L .36100004 .064 L .34700004 .05 L .30300004 .045 L .30300004 0 L .542 0 L .542 .045 L .49800007 .05 L .48400007 .064 L .48400007 .39200003 C .527 .411 .56 .41200004 .574 .41200004 C .63600006 .41200004 .662 .367 .662 .303 L .662 .064 L .648 .05 L .60400006 .045 L .60400006 0 L .85 0 L .85 .045 L .79800006 .05 L .785 .064 L .785 .33200003 C .785 .386 .76600006 .499 .653 .499 C .605 .499 .536 .46800003 .469 .43 C .45000006 .46300004 .41300006 .499 .35300002 .499 C .30600003 .499 .24700003 .47300003 .18800001 .437 L .18800001 .49600003 Z "/>
</symbol>
<symbol id="font_7bb_35">
<path d="M .317 .009000001 L .49200005 .009000001 L .49200005 .054 L .44000004 .059 L .42700003 .07300001 L .42700003 .33100004 C .42700003 .37800003 .423 .43400003 .38400004 .47000004 C .34600003 .506 .28100003 .508 .252 .508 C .213 .508 .14400001 .504 .086 .47300003 C .028000005 .44200004 .024000004 .404 .024000004 .38900004 C .024000004 .363 .049000004 .35500003 .07000001 .35500003 L .16200002 .35500003 L .16200002 .44900004 C .18100001 .45200003 .19500001 .45400004 .21000001 .45400004 C .3 .45400004 .30400003 .39400003 .30400003 .36 L .30400003 .351 L .30400003 .321 C .268 .31300003 .16800002 .29000003 .118 .272 C .068 .254 0 .22000002 0 .134 C 0 .058000003 .042000005 0 .133 0 C .194 0 .25 .031000004 .30400003 .06600001 L .317 .009000001 M .30400003 .10700001 C .261 .08800001 .236 .07800001 .208 .07800001 C .17400001 .07800001 .134 .09200001 .134 .15200001 C .134 .22600001 .222 .255 .30400003 .27 L .30400003 .10700001 Z "/>
</symbol>
<symbol id="font_7bb_4d">
<path d="M 0 .70600005 L 0 .661 L .060000004 .653 L .238 .20700002 C .21700001 .157 .19500001 .11400001 .16 .08500001 L .07300001 .14500001 C .052 .135 .021000002 .113000009 .021000002 .075 C .021000002 .023000002 .075 0 .105000007 0 C .131 0 .17 .009000003 .214 .05600001 C .245 .09 .27400003 .13700001 .293 .18400002 L .48600004 .653 L .54 .661 L .54 .70600005 L .34800003 .70600005 L .34800003 .661 L .40100003 .656 L .41000004 .64100006 L .30100004 .35900004 L .193 .642 L .20300001 .656 L .254 .661 L .254 .70600005 L 0 .70600005 Z "/>
</symbol>
<symbol id="font_7bb_3c">
<path d="M .147 .739 L 0 .69200006 L 0 .65300008 L .072 .65300008 L .072 .064 L .058000003 .05 L .007000001 .045 L .007000001 0 L .25300003 0 L .25300003 .045 L .21000001 .05 L .19500001 .064 L .19500001 .39400003 C .21300002 .4 .25400005 .41200004 .29100005 .41200004 C .35500003 .41200004 .38100005 .36100004 .38100005 .303 L .38100005 .064 L .36700005 .05 L .323 .045 L .323 0 L .56900009 0 L .56900009 .045 L .517 .05 L .504 .064 L .504 .33200003 C .504 .462 .43700005 .499 .37200005 .499 C .31400005 .499 .25900004 .47200004 .19500001 .437 L .19500001 .739 L .147 .739 Z "/>
</symbol>
<symbol id="font_7bb_4a">
<path d="M 0 .48700003 L 0 .44200004 L .060000004 .43500004 L .22000002 0 L .31000004 0 L .48200003 .43400003 L .54 .44200004 L .54 .48700003 L .35000003 .48700003 L .35000003 .44200004 L .40100003 .43600003 L .40900005 .42200003 L .29500003 .13100001 L .191 .423 L .202 .43600003 L .254 .44200004 L .254 .48700003 L 0 .48700003 Z "/>
</symbol>
<symbol id="font_7bb_39">
<path d="M .45400004 .133 C .38000003 .087000008 .32500003 .079 .29000003 .079 C .157 .079 .128 .18100001 .128 .26400004 L .455 .26400004 C .455 .36900003 .432 .508 .24900002 .508 C .163 .508 .10800001 .47400005 .07700001 .44500003 C .030000002 .40000005 0 .33200003 0 .25 C 0 .156 .038000004 .09900001 .067 .069000009 C .10200001 .033 .15900001 0 .24900002 0 C .33800004 0 .41200004 .035 .45400004 .059 L .45400004 .133 M .133 .31700004 C .133 .40500004 .18800001 .45400004 .23700002 .45400004 C .286 .45400004 .32400004 .40700004 .32400004 .32500003 L .32400004 .31700004 L .133 .31700004 Z "/>
</symbol>
<symbol id="font_7bb_3d">
<path d="M .060000007 .64900007 C .060000007 .60800006 .09300001 .57500007 .134 .57500007 C .17500001 .57500007 .20800002 .60800006 .20800002 .64900007 C .20800002 .69000008 .17500001 .72300007 .134 .72300007 C .09300001 .72300007 .060000007 .69000008 .060000007 .64900007 M .14400001 .49600003 L .0020000004 .44900004 L .0020000004 .409 L .069000009 .409 L .069000009 .064 L .055000005 .05 L 0 .045 L 0 0 L .26400004 0 L .26400004 .045 L .20700002 .05 L .19200002 .064 L .19200002 .49600003 L .14400001 .49600003 Z "/>
</symbol>
<symbol id="font_7bb_48">
<path d="M .065000008 .41900004 L .065000008 .128 C .065000008 .061 .069000009 0 .187 0 C .21200001 0 .28700004 .016 .33600004 .032 L .33600004 .080000009 C .31100003 .07400001 .29200004 .07300001 .272 .07300001 C .229 .07300001 .18800003 .08400001 .18800003 .17 L .18800003 .41900004 L .33600004 .41900004 L .33600004 .47900004 L .18800003 .47900004 L .18800003 .60300007 L .12600002 .60300007 L .074 .499 L 0 .45700003 L 0 .41900004 L .065000008 .41900004 Z "/>
</symbol>
<symbol id="font_7bb_3a">
<path d="M .0010000002 0 L .27100004 0 L .27100004 .045 L .20400001 .05 L .18800001 .064 L .18800001 .41400004 L .32200004 .41400004 L .32200004 .47400005 L .18800001 .47400005 L .18800001 .53400006 C .18800001 .625 .20300001 .66300007 .22700002 .694 L .32400004 .60800006 C .35200004 .61600008 .38200004 .634 .38200004 .671 C .38200004 .72300007 .32900004 .74300006 .28800003 .74300006 C .228 .74300006 .18100001 .71400007 .15 .68700006 C .079 .625 .065 .544 .065 .48800005 L .065 .48200003 L 0 .45200003 L 0 .41400004 L .065 .41400004 L .065 .064 L .051 .05 L .0010000002 .045 L .0010000002 0 Z "/>
</symbol>
<symbol id="font_7bb_46">
<path d="M .005000001 0 L .28100003 0 L .28100003 .045 L .21000001 .05 L .19500001 .064 L .19500001 .351 C .214 .36400003 .24500002 .38000003 .27100004 .38000003 C .3 .38000003 .32100005 .35900004 .33100004 .34300003 L .38300003 .34300003 L .39600004 .48100005 C .37400005 .49100004 .35700003 .49800004 .33300004 .49800004 C .30200003 .49800004 .263 .469 .191 .39400003 L .19500001 .49600003 L .147 .49600003 L 0 .44900004 L 0 .409 L .072 .409 L .072 .064 L .058000003 .05 L .005000001 .045 L .005000001 0 Z "/>
</symbol>
<symbol id="font_7bb_10">
<path d="M .040999999 .68 L .040999999 .33400003 C .087 .344 .121999997 .34800003 .162 .34800003 C .271 .34800003 .337 .29400004 .337 .20400001 C .337 .11900001 .275 .058000003 .18900001 .058000003 C .17400001 .058000003 .163 .059 .146 .063 L .112 .17600002 C .098000008 .18100001 .087 .18300002 .072 .18300002 C .029999998 .18300002 0 .15500002 0 .11600001 C 0 .05 .081 0 .187 0 C .352 0 .46900005 .09600001 .46900005 .23100002 C .46900005 .35000003 .38000003 .42900003 .24700001 .42900003 C .206 .42900003 .175 .42300005 .121999997 .40700004 L .121999997 .57600006 L .43400003 .57600006 L .43400003 .68 L .040999999 .68 Z "/>
</symbol>
<symbol id="font_7bb_38">
<path d="M .35200004 .661 L .35200004 .499 C .323 .504 .289 .508 .26200003 .508 C .13900002 .508 0 .441 0 .24000001 C 0 .08900001 .09200001 0 .194 0 C .25300003 0 .30600003 .031000004 .35200004 .065000008 L .35200004 .009000001 L .54 .009000001 L .54 .054 L .48900003 .059 L .47500003 .07300001 L .47500003 .748 L .42700003 .748 L .279 .70100006 L .279 .661 L .35200004 .661 M .35200004 .10400001 C .312 .08800001 .286 .08500001 .272 .08500001 C .16000001 .08500001 .134 .17800002 .134 .261 C .134 .36 .171 .45400004 .27800004 .45400004 C .30200003 .45400004 .319 .448 .35200004 .43800003 L .35200004 .10400001 Z "/>
</symbol>
<symbol id="font_7bb_40">
<path d="M 0 0 L .26700003 0 L .26700003 .045 L .21000001 .05 L .19500001 .064 L .19500001 .739 L .15100001 .739 L 0 .69100007 L 0 .652 L .072 .652 L .072 .064 L .058000003 .05 L 0 .045 L 0 0 Z "/>
</symbol>
<symbol id="font_7bb_47">
<path d="M .354 .48400004 C .294 .504 .24000001 .508 .206 .508 C .136 .508 .0069999995 .47800002 .0069999995 .36 C .0069999995 .28300003 .06600001 .25100003 .16600001 .20600002 C .24200002 .172 .25100003 .15500002 .25100003 .127 C .25100003 .08200001 .23000002 .054 .162 .054 C .14500001 .054 .117000009 .057 .082 .07400001 L .072000008 .08500001 L .061000006 .171 L 0 .171 L 0 .023000002 C .06600001 .0050000005 .12900001 0 .162 0 C .323 0 .36900003 .08400001 .36900003 .16200002 C .36900003 .18400002 .367 .20400001 .34800003 .22700002 C .33200003 .24600002 .305 .26500003 .229 .30200003 C .14700002 .34300003 .13 .363 .13 .39000003 C .13 .44300003 .17500001 .45400004 .20500002 .45400004 C .22 .45400004 .24200002 .45200003 .272 .43700005 L .284 .42600004 L .294 .351 L .354 .351 L .354 .48400004 Z "/>
</symbol>
<symbol id="font_7bb_9">
<path d="M .079 .15900001 C .034999998 .15900001 0 .124000009 0 .079 C 0 .035 .034999998 0 .078 0 C .123 0 .15900001 .035 .15900001 .079 C .15900001 .12200001 .122 .15900001 .079 .15900001 Z "/>
</symbol>
<use xlink:href="#font_7bb_31" transform="matrix(10.5,0,0,-10.5,50.9081,55.09839)" fill="#231f20"/>
<use xlink:href="#font_7bb_43" transform="matrix(10.5,0,0,-10.5,57.145105,55.19289)" fill="#231f20"/>
<use xlink:href="#font_7bb_49" transform="matrix(10.5,0,0,-10.5,63.161603,55.19289)" fill="#231f20"/>
<use xlink:href="#font_7bb_1" transform="matrix(10.5,0,0,-10.5,69.2096,55.09839)" fill="#231f20"/>
<use xlink:href="#font_7bb_41" transform="matrix(10.5,0,0,-10.5,72.475109,55.09839)" fill="#231f20"/>
<use xlink:href="#font_7bb_35" transform="matrix(10.5,0,0,-10.5,81.9041,55.19289)" fill="#231f20"/>
<use xlink:href="#font_7bb_4d" transform="matrix(10.5,0,0,-10.5,87.0281,57.39789)" fill="#231f20"/>
<use xlink:href="#font_7bb_1" transform="matrix(10.5,0,0,-10.5,92.4776,55.09839)" fill="#231f20"/>
<use xlink:href="#font_7bb_3c" transform="matrix(10.5,0,0,-10.5,95.6696,55.09839)" fill="#231f20"/>
<use xlink:href="#font_7bb_35" transform="matrix(10.5,0,0,-10.5,102.1481,55.19289)" fill="#231f20"/>
<use xlink:href="#font_7bb_4a" transform="matrix(10.5,0,0,-10.5,107.3666,55.09839)" fill="#231f20"/>
<use xlink:href="#font_7bb_39" transform="matrix(10.5,0,0,-10.5,113.2046,55.19289)" fill="#231f20"/>
<use xlink:href="#font_7bb_1" transform="matrix(10.5,0,0,-10.5,118.3181,55.09839)" fill="#231f20"/>
<use xlink:href="#font_7bb_3d" transform="matrix(10.5,0,0,-10.5,121.5521,55.09839)" fill="#231f20"/>
<use xlink:href="#font_7bb_48" transform="matrix(10.5,0,0,-10.5,124.649608,55.15089)" fill="#231f20"/>
<use xlink:href="#font_7bb_1" transform="matrix(10.5,0,0,-10.5,128.19861,55.09839)" fill="#231f20"/>
<use xlink:href="#font_7bb_3a" transform="matrix(10.5,0,0,-10.5,131.46411,55.09839)" fill="#231f20"/>
<use xlink:href="#font_7bb_43" transform="matrix(10.5,0,0,-10.5,135.11812,55.19289)" fill="#231f20"/>
<use xlink:href="#font_7bb_46" transform="matrix(10.5,0,0,-10.5,141.11362,55.09839)" fill="#231f20"/>
<use xlink:href="#font_7bb_1" transform="matrix(10.5,0,0,-10.5,145.28212,55.09839)" fill="#231f20"/>
<use xlink:href="#font_7bb_10" transform="matrix(10.5,0,0,-10.5,148.79438,55.19289)" fill="#231f20"/>
<use xlink:href="#font_7bb_1" transform="matrix(10.5,0,0,-10.5,154.31737,55.09839)" fill="#231f20"/>
<use xlink:href="#font_7bb_38" transform="matrix(10.5,0,0,-10.5,157.64588,55.19289)" fill="#231f20"/>
<use xlink:href="#font_7bb_43" transform="matrix(10.5,0,0,-10.5,163.90387,55.19289)" fill="#231f20"/>
<use xlink:href="#font_7bb_40" transform="matrix(10.5,0,0,-10.5,169.89937,55.09839)" fill="#231f20"/>
<use xlink:href="#font_7bb_40" transform="matrix(10.5,0,0,-10.5,173.08087,55.09839)" fill="#231f20"/>
<use xlink:href="#font_7bb_35" transform="matrix(10.5,0,0,-10.5,176.39888,55.19289)" fill="#231f20"/>
<use xlink:href="#font_7bb_46" transform="matrix(10.5,0,0,-10.5,181.93238,55.09839)" fill="#231f20"/>
<use xlink:href="#font_7bb_47" transform="matrix(10.5,0,0,-10.5,186.53137,55.19289)" fill="#231f20"/>
<use xlink:href="#font_7bb_9" transform="matrix(10.5,0,0,-10.5,191.47687,55.18239)" fill="#231f20"/>
<use xlink:href="#font_7bb_1" transform="matrix(10.5,0,0,-10.5,193.82888,55.09839)" fill="#231f20"/>
</g>
<g id="Layer-1" data-name="P">
<symbol id="font_7bc_60">
<path d="M 0 0 L 1 0 L 1 .06100002 L 0 .06100002 L 0 0 Z "/>
</symbol>
<use xlink:href="#font_7bc_60" transform="matrix(10.5,0,0,-10.5,196.7418,52.893388)" fill="#231f20"/>
</g>
<g id="Layer-1" data-name="P">
<g id="Layer-2" data-name="Span">
</g>
<g id="Layer-2" data-name="Span">
</g>
<g id="Layer-2" data-name="Span">
</g>
<symbol id="font_7bc_88">
<path d="M 0 .671 L 0 .63000008 L .057000005 .625 L .07400001 .611 L .07400001 .060000004 L .057000005 .046000005 L 0 .041 L 0 0 L .26400004 0 C .316 0 .40200005 .006 .46100004 .053000004 C .51600006 .096 .526 .149 .526 .192 C .526 .24700001 .50900009 .294 .46200005 .324 C .42500005 .347 .37100003 .35500003 .33900003 .356 L .33900003 .358 C .36800004 .365 .41200004 .381 .43800003 .404 C .47500003 .43500004 .48400004 .47400005 .48400004 .513 C .48400004 .565 .46600003 .611 .41100005 .64100006 C .36900003 .66400006 .30400003 .671 .25500003 .671 L 0 .671 M .164 .624 C .169 .624 .19800002 .62700006 .22600001 .62700006 C .29200004 .62700006 .38600005 .60700008 .38600005 .503 C .38600005 .43300004 .34300003 .36600004 .201 .36600004 C .18900001 .36600004 .17700002 .36600004 .164 .367 L .164 .624 M .164 .317 C .185 .319 .23300001 .323 .261 .323 C .28900004 .323 .351 .321 .38900004 .287 C .42200003 .257 .42600004 .21700001 .42600004 .19000001 C .42600004 .051000004 .30500005 .046000005 .23700002 .046000005 C .213 .046000005 .19 .047000003 .164 .05 L .164 .317 Z "/>
</symbol>
<symbol id="font_7bc_87">
<path d="M 0 0 L .243 0 C .291 0 .425 .021000002 .425 .14500001 C .425 .26500003 .30900003 .29000003 .22600001 .29000003 C .2 .29000003 .18 .289 .155 .286 L .155 .42400003 L .172 .44000004 L .22600001 .44500003 L .22600001 .48100005 L 0 .48100005 L 0 .44500003 L .054000006 .44000004 L .071 .42400003 L .071 .057000005 L .054000006 .041 L 0 .036000004 L 0 0 M .155 .238 C .17600002 .24400002 .19500001 .246 .21900001 .246 C .25800003 .246 .34100003 .24300002 .34100003 .143 C .34100003 .042000005 .24700001 .044000005 .21400002 .044000005 C .193 .044000005 .17300001 .046000005 .155 .05 L .155 .238 M .43 .44500003 L .484 .44000004 L .50100007 .42400003 L .50100007 .057000005 L .484 .041 L .43 .036000004 L .43 0 L .656 0 L .656 .036000004 L .602 .041 L .58500006 .057000005 L .58500006 .42400003 L .602 .44000004 L .656 .44500003 L .656 .48100005 L .43 .48100005 L .43 .44500003 Z "/>
</symbol>
<symbol id="font_7bc_1">
<path d="M 0 0 Z "/>
</symbol>
<symbol id="font_7bc_78">
<path d="M 0 .48100005 L 0 .44500003 L .054000006 .44000004 L .071 .42400003 L .071 .057000005 L .054000006 .041 L 0 .036000004 L 0 0 L .18800001 0 L .18800001 .036000004 L .14 .041 L .12300001 .057000005 L .12300001 .44000004 L .287 0 L .323 0 L .48500005 .44000004 L .48500005 .057000005 L .46800003 .041 L .42000003 .036000004 L .42000003 0 L .64 0 L .64 .036000004 L .5860001 .041 L .569 .057000005 L .569 .42400003 L .5860001 .44000004 L .64 .44500003 L .64 .48100005 L .446 .48100005 L .446 .45700003 L .32200004 .11400001 L .19800002 .45700003 L .19800002 .48100005 L 0 .48100005 Z "/>
</symbol>
<symbol id="font_7bc_71">
<path d="M .23400003 .499 C .072000008 .499 0 .37800003 0 .24900002 C 0 .16700001 .029 .109000008 .063 .072000008 C .091000009 .041 .14400001 0 .23200003 0 C .31300003 0 .36600004 .035 .397 .067 C .43500004 .10700001 .46600003 .16800002 .46600003 .24900002 C .46600003 .38700003 .379 .499 .23400003 .499 M .231 .455 C .25300003 .455 .29400004 .45200003 .328 .409 C .36600004 .36 .372 .291 .372 .24900002 C .372 .20400001 .36600004 .15500002 .335 .109000008 C .30400003 .063 .26400004 .044 .23200003 .044 C .19800002 .044 .15100001 .057 .120000008 .12100001 C .10000001 .16300002 .09400001 .21000001 .09400001 .25 C .09400001 .305 .105000007 .36800004 .136 .409 C .16900002 .45200003 .21000001 .455 .231 .455 Z "/>
</symbol>
<symbol id="font_7bc_89">
<path d="M .26200003 .48100005 L .26200003 .44500003 L .312 .44000004 L .32900004 .42400003 L .32900004 .27 L .29500003 .27 C .24900002 .27 .22000002 .298 .20700002 .33200003 L .178 .40800003 C .165 .44000004 .143 .49 .087000008 .49 C .054 .49 .024 .47000004 .024 .43500004 C .024 .42200003 .029000001 .39800004 .052 .386 L .120000008 .42600004 C .13000001 .41300003 .132 .40600003 .136 .39400003 L .163 .323 C .17 .303 .185 .266 .23200001 .256 L .23200001 .254 C .19800002 .25 .158 .22600001 .126 .15900001 L .07700001 .055000005 L .060000004 .043 L 0 .036000004 L 0 0 L .148 0 L .148 .032 L .19700001 .147 C .21300002 .18400002 .23500002 .22600001 .28300003 .22600001 L .32900004 .22600001 L .32900004 .057000005 L .312 .041 L .26200003 .036000004 L .26200003 0 L .47200004 0 L .47200004 .036000004 L .42200003 .041 L .40500004 .057000005 L .40500004 .22600001 L .45100004 .22600001 C .499 .22600001 .521 .18400002 .537 .147 L .586 .032 L .586 0 L .734 0 L .734 .036000004 L .674 .043 L .657 .055000005 L .60800006 .15900001 C .57600006 .22600001 .536 .25 .50200006 .254 L .50200006 .256 C .549 .266 .564 .303 .57100006 .323 L .59800007 .39400003 C .60200008 .40600003 .60400006 .41300003 .614 .42600004 L .68200007 .386 C .70500007 .39800004 .71000006 .42200003 .71000006 .43500004 C .71000006 .47000004 .68 .49 .647 .49 C .591 .49 .569 .44000004 .55600008 .40800003 L .527 .33200003 C .514 .298 .485 .27 .439 .27 L .40500004 .27 L .40500004 .42400003 L .42200003 .44000004 L .47200004 .44500003 L .47200004 .48100005 L .26200003 .48100005 Z "/>
</symbol>
<symbol id="font_7bc_80">
<path d="M .411 .11500001 C .33900003 .06600001 .287 .057 .254 .057 C .14 .057 .086 .16300002 .086 .26500003 L .086 .272 L .41000004 .272 C .411 .282 .411 .291 .411 .3 C .411 .46100004 .31 .499 .23200003 .499 C .149 .499 .097 .462 .07000001 .43400003 C .026 .38900004 0 .32200004 0 .24600002 C 0 .10800001 .075 0 .227 0 C .29200004 0 .358 .023000002 .411 .060000004 L .411 .11500001 M .091000009 .314 C .098000008 .38000003 .134 .455 .22 .455 C .279 .455 .30200003 .416 .30800004 .404 C .316 .38900004 .32200004 .35900004 .32200004 .33900003 L .32200004 .314 L .091000009 .314 Z "/>
</symbol>
<symbol id="font_7bc_74">
<path d="M .091000009 0 L .349 0 L .349 .036000004 L .279 .041 L .26200003 .057000005 L .26200003 .43500004 L .363 .43500004 L .37800003 .41900004 L .38900004 .335 L .44000004 .335 L .44000004 .48100005 L 0 .48100005 L 0 .335 L .051 .335 L .062 .41900004 L .077 .43500004 L .178 .43500004 L .178 .057000005 L .161 .041 L .091000009 .036000004 L .091000009 0 Z "/>
</symbol>
<symbol id="font_7bc_68">
<path d="M 0 0 L .22 0 L .22 .036000004 L .172 .041 L .155 .059000005 L .155 .22600001 L .201 .22600001 C .23700002 .22600001 .264 .208 .286 .156 L .34 .032 L .34 0 L .50600007 0 L .50600007 .036000004 L .43800003 .043 L .42100004 .055000005 L .36600004 .16600001 C .34800003 .2 .335 .24000001 .27400003 .254 L .27400003 .256 C .289 .26000003 .321 .273 .342 .323 L .372 .39400003 C .377 .40500004 .379 .41400004 .39000003 .42600004 L .46 .386 C .47800002 .39600004 .488 .41400004 .488 .43500004 C .488 .46400003 .46600003 .49 .425 .49 C .377 .49 .347 .455 .328 .409 L .294 .33100004 C .275 .287 .24100003 .27 .20300001 .27 L .155 .27 L .155 .42400003 L .172 .44000004 L .22 .44500003 L .22 .48100005 L 0 .48100005 L 0 .44500003 L .054000006 .44000004 L .071 .42400003 L .071 .057000005 L .054000006 .041 L 0 .036000004 L 0 0 Z "/>
</symbol>
<symbol id="font_7bc_83">
<path d="M 0 .69900009 L 0 .66300007 L .061 .656 L .23000002 .222 C .21000001 .171 .18900001 .116000007 .149 .072 L .053 .11000001 C .032 .094000007 .027 .07000001 .027 .056999998 C .027 .026000008 .051 0 .095000009 0 C .14600002 0 .17700002 .032000007 .19700001 .059 C .20700002 .072 .23000002 .105000007 .256 .16800002 L .456 .65400007 L .514 .66300007 L .514 .69900009 L .336 .69900009 L .336 .66300007 L .39000003 .65800008 L .398 .642 L .273 .33100004 L .15300001 .642 L .165 .65800008 L .21800001 .66300007 L .21800001 .69900009 L 0 .69900009 Z "/>
</symbol>
<symbol id="font_7bc_93">
<path d="M 0 0 L .22 0 L .22 .036000004 L .172 .041 L .155 .057000005 L .155 .43500004 L .36100004 .43500004 L .36100004 .057000005 L .344 .041 L .296 .036000004 L .296 0 L .51600006 0 L .51600006 .036000004 L .462 .041 L .44500003 .057000005 L .44500003 .42400003 L .462 .44000004 L .51600006 .44500003 L .51600006 .48100005 L 0 .48100005 L 0 .44500003 L .054000006 .44000004 L .071 .42400003 L .071 .057000005 L .054000006 .041 L 0 .036000004 L 0 0 Z "/>
</symbol>
<symbol id="font_7bc_7a">
<path d="M 0 0 L .22 0 L .22 .036000004 L .172 .041 L .155 .057000005 L .155 .089 L .38700003 .33800004 L .38700003 .057000005 L .37 .041 L .32200004 .036000004 L .32200004 0 L .54200008 0 L .54200008 .036000004 L .488 .041 L .47100006 .057000005 L .47100006 .42400003 L .488 .44000004 L .54200008 .44500003 L .54200008 .48100005 L .32200004 .48100005 L .32200004 .44500003 L .37 .44000004 L .38700003 .42400003 L .38700003 .4 L .155 .15100001 L .155 .42400003 L .172 .44000004 L .22 .44500003 L .22 .48100005 L 0 .48100005 L 0 .44500003 L .054000006 .44000004 L .071 .42400003 L .071 .057000005 L .054000006 .041 L 0 .036000004 L 0 0 Z "/>
</symbol>
<symbol id="font_7bc_72">
<path d="M 0 0 L .25300003 0 C .30100004 0 .43500004 .021000002 .43500004 .14500001 C .43500004 .177 .42600004 .21800001 .38400004 .25100003 C .34 .28500004 .282 .29000003 .23200003 .29000003 C .20400001 .29000003 .18200001 .289 .155 .286 L .155 .42400003 L .172 .44000004 L .22600001 .44500003 L .22600001 .48100005 L 0 .48100005 L 0 .44500003 L .054000006 .44000004 L .071 .42400003 L .071 .057000005 L .054000006 .041 L 0 .036000004 L 0 0 M .155 .238 C .178 .24300002 .19900002 .246 .22600001 .246 C .263 .246 .347 .24300002 .347 .143 C .347 .1 .328 .07700001 .31300003 .066 C .303 .059000005 .27800004 .044000005 .22 .044000005 C .19600001 .044000005 .17500001 .046000005 .155 .05 L .155 .238 Z "/>
</symbol>
<symbol id="font_7bc_8e">
<path d="M .105000007 .28300003 L .105000007 .23500002 L .31100003 .23500002 L .31100003 .22900002 C .31100003 .11600001 .256 .044 .15900001 .044 C .133 .044 .09900001 .049000004 .062000008 .06600001 L .048 .15100001 L 0 .15100001 L 0 .021000002 C .068 .0010000002 .13000001 0 .155 0 C .21000001 0 .273 .012 .32700003 .064 C .374 .109000008 .40500004 .17700002 .40500004 .259 C .40500004 .448 .259 .499 .165 .499 C .087000008 .499 .034 .485 .010000002 .47800002 L .010000002 .365 L .058000007 .365 L .069000009 .43600003 C .105000007 .45200003 .13900002 .455 .15900001 .455 C .26900003 .455 .307 .372 .31100003 .28300003 L .105000007 .28300003 Z "/>
</symbol>
<symbol id="font_7bc_79">
<path d="M .10800001 .23100002 C .11500001 .23200001 .148 .23500002 .16700001 .23500002 C .19500001 .23500002 .27400003 .23200001 .27400003 .143 C .27400003 .067 .215 .044 .155 .044 C .13100001 .044 .097 .048 .062000008 .06600001 L .048 .15100001 L 0 .15100001 L 0 .021000002 C .033 .012 .08800001 0 .157 0 C .24200002 0 .36600004 .024 .36600004 .14500001 C .36600004 .23700002 .291 .261 .24100003 .26500003 L .24100003 .26700003 C .303 .28100003 .344 .326 .344 .379 C .344 .49100004 .231 .499 .16600001 .499 C .13900002 .499 .091000009 .49700005 .02 .47800002 L .02 .365 L .068 .365 L .079 .43600003 C .10900001 .45000003 .13800001 .455 .163 .455 C .193 .455 .25800003 .44700004 .25800003 .36900003 C .25800003 .28500004 .19000001 .279 .15400002 .279 C .13700001 .279 .12200001 .28000004 .10800001 .282 L .10800001 .23100002 Z "/>
</symbol>
<symbol id="font_7bc_7e">
<path d="M .30600003 .009000001 L .44600005 .009000001 L .44600005 .045 L .39300005 .045 L .37600003 .06600001 L .37600003 .356 C .37600003 .37700004 .37500004 .42800004 .344 .46100004 C .30900003 .49800004 .24800003 .499 .22500003 .499 C .079 .499 .024999999 .43500004 .024999999 .38200004 C .024999999 .358 .044 .356 .056 .356 L .125 .356 L .125 .44000004 C .15 .44900004 .178 .455 .204 .455 C .29700003 .455 .29200004 .38300003 .29200004 .344 L .29200004 .312 C .185 .286 .137 .27 .101 .256 C .053999999 .23700002 0 .20600002 0 .13100001 C 0 .068 .038000004 0 .12799999 0 C .16600001 0 .215 .012 .29200004 .067 L .30600003 .009000001 M .29200004 .10100001 C .22800002 .064 .194 .056 .16800002 .056 C .107 .056 .08800001 .102000009 .08800001 .13900002 C .08800001 .194 .12600002 .21600002 .15799999 .23100002 C .19300002 .24700001 .24900002 .26500003 .29200004 .277 L .29200004 .10100001 Z "/>
</symbol>
<symbol id="font_7bc_12">
<path d="M .051000004 .683 L .051000004 .35300002 C .091000009 .358 .11600001 .359 .14100002 .359 C .22500001 .359 .34600003 .336 .34600003 .212 C .34600003 .098000008 .264 .047 .19200002 .047 C .15600002 .047 .13200002 .057000005 .12200001 .061000006 L .082 .147 C .07700001 .148 .069000009 .15 .059000005 .15 C .018000003 .15 0 .12200001 0 .097 C 0 .009 .16000001 0 .17700002 0 C .271 0 .331 .033 .365 .064 C .411 .105000007 .43800003 .164 .43800003 .231 C .43800003 .37600003 .319 .421 .22100003 .421 C .19700001 .421 .15700002 .418 .113000009 .405 L .113000009 .6050001 L .409 .6050001 L .409 .683 L .051000004 .683 Z "/>
</symbol>
<symbol id="font_7bc_75">
<path d="M .114 .62100008 L .114 .58500006 L .17600002 .58000007 L .19300002 .56200006 C .17500001 .45200003 .13200002 .30900003 .050000006 .186 L 0 .186 L 0 0 L .051000004 0 L .069000009 .124 L .084 .14 L .416 .14 L .43100003 .124 L .449 0 L .5 0 L .5 .186 L .435 .186 L .423 .19600001 L .423 .564 L .44 .58000007 L .49400003 .58500006 L .49400003 .62100008 L .114 .62100008 M .108 .186 C .17500001 .30400003 .22400002 .459 .24500002 .57500007 L .33900003 .57500007 L .33900003 .186 L .108 .186 Z "/>
</symbol>
<symbol id="font_7bc_73">
<path d="M .11000001 .49000005 L .11000001 .45400004 L .172 .44900004 L .18900001 .43100003 C .187 .374 .179 .296 .167 .23500002 C .147 .13800001 .12200001 .095000009 .09900001 .067 L .036000004 .109000008 C .012000001 .09700001 0 .075 0 .052 C 0 .037 .011000001 0 .055 0 C .095000009 0 .124000009 .023000002 .142 .044 C .163 .068 .192 .11500001 .214 .21400002 C .229 .282 .238 .37100003 .24100001 .44400005 L .35100005 .44400005 L .35100005 .06600001 L .33400003 .05 L .286 .045 L .286 .009000001 L .50600007 .009000001 L .50600007 .045 L .45200003 .05 L .43500004 .06600001 L .43500004 .43300004 L .45200003 .44900004 L .50600007 .45400004 L .50600007 .49000005 L .11000001 .49000005 Z "/>
</symbol>
<use xlink:href="#font_7bc_88" transform="matrix(10.5,0,0,-10.5,223.8783,55.066774)" fill="#231f20"/>
<use xlink:href="#font_7bc_87" transform="matrix(10.5,0,0,-10.5,230.1888,55.066774)" fill="#231f20"/>
<use xlink:href="#font_7bc_1" transform="matrix(10.5,0,0,-10.5,237.3918,55.066774)" fill="#231f20"/>
<use xlink:href="#font_7bc_78" transform="matrix(10.5,0,0,-10.5,240.6468,55.066774)" fill="#231f20"/>
<use xlink:href="#font_7bc_71" transform="matrix(10.5,0,0,-10.5,248.07032,55.161275)" fill="#231f20"/>
<use xlink:href="#font_7bc_89" transform="matrix(10.5,0,0,-10.5,253.3518,55.066774)" fill="#231f20"/>
<use xlink:href="#font_7bc_80" transform="matrix(10.5,0,0,-10.5,261.4473,55.161275)" fill="#231f20"/>
<use xlink:href="#font_7bc_74" transform="matrix(10.5,0,0,-10.5,266.3718,55.066774)" fill="#231f20"/>
<use xlink:href="#font_7bc_80" transform="matrix(10.5,0,0,-10.5,271.54829,55.161275)" fill="#231f20"/>
<use xlink:href="#font_7bc_1" transform="matrix(10.5,0,0,-10.5,276.30479,55.066774)" fill="#231f20"/>
<use xlink:href="#font_7bc_68" transform="matrix(10.5,0,0,-10.5,279.55979,55.066774)" fill="#231f20"/>
<use xlink:href="#font_7bc_83" transform="matrix(10.5,0,0,-10.5,284.86228,57.355775)" fill="#231f20"/>
<use xlink:href="#font_7bc_93" transform="matrix(10.5,0,0,-10.5,290.39579,55.066774)" fill="#231f20"/>
<use xlink:href="#font_7bc_7a" transform="matrix(10.5,0,0,-10.5,296.4438,55.066774)" fill="#231f20"/>
<use xlink:href="#font_7bc_74" transform="matrix(10.5,0,0,-10.5,302.6178,55.066774)" fill="#231f20"/>
<use xlink:href="#font_7bc_72" transform="matrix(10.5,0,0,-10.5,307.7208,55.066774)" fill="#231f20"/>
<use xlink:href="#font_7bc_1" transform="matrix(10.5,0,0,-10.5,312.6558,55.066774)" fill="#231f20"/>
<use xlink:href="#font_7bc_8e" transform="matrix(10.5,0,0,-10.5,315.90556,55.161275)" fill="#231f20"/>
<use xlink:href="#font_7bc_74" transform="matrix(10.5,0,0,-10.5,320.71455,55.066774)" fill="#231f20"/>
<use xlink:href="#font_7bc_71" transform="matrix(10.5,0,0,-10.5,325.89103,55.161275)" fill="#231f20"/>
<use xlink:href="#font_7bc_1" transform="matrix(10.5,0,0,-10.5,331.17256,55.066774)" fill="#231f20"/>
<use xlink:href="#font_7bc_79" transform="matrix(10.5,0,0,-10.5,334.42756,55.161275)" fill="#231f20"/>
<use xlink:href="#font_7bc_7e" transform="matrix(10.5,0,0,-10.5,339.2355,55.161275)" fill="#231f20"/>
<use xlink:href="#font_7bc_1" transform="matrix(10.5,0,0,-10.5,344.10749,55.066774)" fill="#231f20"/>
<use xlink:href="#font_7bc_12" transform="matrix(10.5,0,0,-10.5,347.57249,55.192773)" fill="#231f20"/>
<use xlink:href="#font_7bc_1" transform="matrix(10.5,0,0,-10.5,352.8855,55.066774)" fill="#231f20"/>
<use xlink:href="#font_7bc_75" transform="matrix(10.5,0,0,-10.5,355.7205,56.536775)" fill="#231f20"/>
<use xlink:href="#font_7bc_71" transform="matrix(10.5,0,0,-10.5,361.611,55.161275)" fill="#231f20"/>
<use xlink:href="#font_7bc_73" transform="matrix(10.5,0,0,-10.5,366.68254,55.161275)" fill="#231f20"/>
</g>
<g id="Layer-1" data-name="P">
<symbol id="font_7bc_a">
<path d="M 0 .067 L 0 0 L .22500001 0 L .22500001 .067 L 0 .067 Z "/>
</symbol>
<use xlink:href="#font_7bc_a" transform="matrix(10.5,0,0,-10.5,372.7817,52.893274)" fill="#231f20"/>
</g>
<g id="Layer-1" data-name="P">
<symbol id="font_7bc_82">
<path d="M 0 0 L .23600002 0 L .23600002 .036 L .172 .04100001 L .155 .056999998 L .155 .224 C .20600002 .215 .237 .215 .24900003 .215 C .325 .215 .38 .24100001 .419 .279 C .455 .314 .49300004 .37800003 .49300004 .47500003 C .49300004 .63500007 .4 .708 .302 .708 C .264 .708 .22100002 .69900009 .155 .64900007 L .155 .70400008 L .11700001 .70400008 L 0 .66800007 L 0 .637 L .071 .637 L .071 .056999998 L .055000009 .04100001 L 0 .036 L 0 0 M .155 .61200007 C .179 .62600007 .22000002 .64400008 .259 .64400008 C .357 .64400008 .403 .56 .403 .463 C .403 .35400004 .34600003 .259 .22900002 .259 C .21400002 .259 .19000001 .261 .155 .27600003 L .155 .61200007 Z "/>
</symbol>
<symbol id="font_7bc_7f">
<path d="M 0 .48100005 L 0 .44500003 L .054000006 .44000004 L .071 .42400003 L .071 .057000005 L .054000006 .041 L 0 .036000004 L 0 0 L .25300003 0 C .294 0 .344 .004 .38700003 .033 C .432 .063 .44400005 .105000007 .44400005 .13700001 C .44400005 .22100002 .377 .25 .32200004 .25500003 L .32200004 .257 C .377 .27100004 .418 .314 .418 .372 C .418 .43 .386 .48100005 .24800003 .48100005 L 0 .48100005 M .155 .43500004 C .18200001 .441 .20500002 .44300003 .23000002 .44300003 C .277 .44300003 .33600004 .42800004 .33600004 .35700003 C .33600004 .272 .25300003 .268 .21000001 .268 C .18800001 .268 .17400001 .26900003 .155 .27100004 L .155 .43500004 M .155 .22900002 C .178 .23200001 .20400001 .23400001 .231 .23400001 C .25800003 .23400001 .29500003 .23300001 .321 .216 C .35300002 .19500001 .358 .163 .358 .13700001 C .358 .063 .289 .038000004 .231 .038000004 C .202 .038000004 .18100001 .040000004 .155 .046000005 L .155 .22900002 Z "/>
</symbol>
<symbol id="font_7bc_b">
<path d="M 0 .064 C 0 .030000002 .030000002 0 .063999999 0 C .098000008 0 .128 .030000002 .128 .064 C .128 .098000008 .098000008 .128 .063999999 .128 C .030000002 .128 0 .098000008 0 .064 Z "/>
</symbol>
<use xlink:href="#font_7bc_73" transform="matrix(10.5,0,0,-10.5,223.3218,67.76137)" fill="#231f20"/>
<use xlink:href="#font_7bc_7e" transform="matrix(10.5,0,0,-10.5,229.3908,67.76137)" fill="#231f20"/>
<use xlink:href="#font_7bc_82" transform="matrix(10.5,0,0,-10.5,234.4938,69.95587)" fill="#231f20"/>
<use xlink:href="#font_7bc_71" transform="matrix(10.5,0,0,-10.5,240.44731,67.76137)" fill="#231f20"/>
<use xlink:href="#font_7bc_7f" transform="matrix(10.5,0,0,-10.5,246.04381,67.66687)" fill="#231f20"/>
<use xlink:href="#font_7bc_b" transform="matrix(10.5,0,0,-10.5,251.8818,67.76137)" fill="#231f20"/>
</g>
<g id="Layer-1" data-name="P">
<g id="Layer-2" data-name="Span">
</g>
<symbol id="font_7bb_42">
<path d="M .0030000006 0 L .24900002 0 L .24900002 .045 L .20500002 .05 L .19100002 .064 L .19100002 .39400003 C .24900002 .411 .277 .41200004 .286 .41200004 C .35200004 .41200004 .37600003 .36 .37600003 .3 L .37600003 .064 L .36200003 .05 L .31800003 .045 L .31800003 0 L .564 0 L .564 .045 L .512 .05 L .499 .064 L .499 .33200003 C .499 .37100003 .49100007 .499 .367 .499 C .31100003 .499 .24300003 .467 .19100002 .437 L .19100002 .49600003 L .143 .49600003 L 0 .44900004 L 0 .409 L .068 .409 L .068 .064 L .054 .05 L .0030000006 .045 L .0030000006 0 Z "/>
</symbol>
<symbol id="font_7bb_4b">
<path d="M 0 .48700003 L 0 .44200004 L .060000004 .43500004 L .18900001 0 L .289 0 L .408 .35900004 L .519 0 L .62 0 L .75600007 .43400003 L .81200006 .44200004 L .81200006 .48700003 L .623 .48700003 L .623 .44200004 L .676 .43500004 L .683 .42100004 L .595 .132 L .486 .48700003 L .386 .48700003 L .269 .132 L .18800001 .42000003 L .19900002 .43400003 L .24800001 .44200004 L .24800001 .48700003 L 0 .48700003 Z "/>
</symbol>
<use xlink:href="#font_7bb_31" transform="matrix(10.5,0,0,-10.5,50.9081,85.06409)" fill="#231f20"/>
<use xlink:href="#font_7bb_43" transform="matrix(10.5,0,0,-10.5,57.145105,85.158588)" fill="#231f20"/>
<use xlink:href="#font_7bb_49" transform="matrix(10.5,0,0,-10.5,63.161603,85.158588)" fill="#231f20"/>
<use xlink:href="#font_7bb_1" transform="matrix(10.5,0,0,-10.5,69.2096,85.06409)" fill="#231f20"/>
<use xlink:href="#font_7bb_41" transform="matrix(10.5,0,0,-10.5,72.475109,85.06409)" fill="#231f20"/>
<use xlink:href="#font_7bb_35" transform="matrix(10.5,0,0,-10.5,81.9041,85.158588)" fill="#231f20"/>
<use xlink:href="#font_7bb_4d" transform="matrix(10.5,0,0,-10.5,87.0281,87.36359)" fill="#231f20"/>
<use xlink:href="#font_7bb_1" transform="matrix(10.5,0,0,-10.5,92.4776,85.06409)" fill="#231f20"/>
<use xlink:href="#font_7bb_3c" transform="matrix(10.5,0,0,-10.5,95.6696,85.06409)" fill="#231f20"/>
<use xlink:href="#font_7bb_35" transform="matrix(10.5,0,0,-10.5,102.1481,85.158588)" fill="#231f20"/>
<use xlink:href="#font_7bb_4a" transform="matrix(10.5,0,0,-10.5,107.3666,85.06409)" fill="#231f20"/>
<use xlink:href="#font_7bb_39" transform="matrix(10.5,0,0,-10.5,113.2046,85.158588)" fill="#231f20"/>
<use xlink:href="#font_7bb_1" transform="matrix(10.5,0,0,-10.5,118.3181,85.06409)" fill="#231f20"/>
<use xlink:href="#font_7bb_48" transform="matrix(10.5,0,0,-10.5,121.4576,85.116588)" fill="#231f20"/>
<use xlink:href="#font_7bb_43" transform="matrix(10.5,0,0,-10.5,125.395099,85.158588)" fill="#231f20"/>
<use xlink:href="#font_7bb_1" transform="matrix(10.5,0,0,-10.5,131.1386,85.06409)" fill="#231f20"/>
<use xlink:href="#font_7bb_35" transform="matrix(10.5,0,0,-10.5,134.4671,85.158588)" fill="#231f20"/>
<use xlink:href="#font_7bb_42" transform="matrix(10.5,0,0,-10.5,140.0426,85.06409)" fill="#231f20"/>
<use xlink:href="#font_7bb_47" transform="matrix(10.5,0,0,-10.5,146.51059,85.158588)" fill="#231f20"/>
<use xlink:href="#font_7bb_4b" transform="matrix(10.5,0,0,-10.5,150.76309,85.06409)" fill="#231f20"/>
<use xlink:href="#font_7bb_39" transform="matrix(10.5,0,0,-10.5,159.41509,85.158588)" fill="#231f20"/>
<use xlink:href="#font_7bb_46" transform="matrix(10.5,0,0,-10.5,164.78058,85.06409)" fill="#231f20"/>
<use xlink:href="#font_7bb_1" transform="matrix(10.5,0,0,-10.5,168.94908,85.06409)" fill="#231f20"/>
</g>
<g id="Layer-1" data-name="P">
<g id="Layer-2" data-name="Span">
</g>
<g id="Layer-2" data-name="Span">
</g>
<symbol id="font_7bb_1d">
<path d="M 0 0 L .538 0 L .538 .179 L .47000007 .179 L .45300005 .07300001 L .44000004 .057000005 L .208 .057000005 L .208 .317 L .33800004 .317 L .35200004 .303 L .36200003 .231 L .42100004 .231 L .42100004 .46300004 L .36200003 .46300004 L .35200004 .39100004 L .33800004 .377 L .208 .377 L .208 .614 L .40700004 .614 L .42000006 .601 L .43500004 .513 L .505 .513 L .505 .671 L 0 .671 L 0 .62200006 L .060000004 .61700007 L .076000008 .60300007 L .076000008 .07 L .060000004 .054 L 0 .049000004 L 0 0 Z "/>
</symbol>
<symbol id="font_7bb_3b">
<path d="M .373 .68500009 C .312 .712 .266 .716 .239 .716 C .153 .716 .101 .689 .071 .661 C .045 .63600006 .021000002 .59800007 .021000002 .54 C .021000002 .46100004 .074 .41400004 .14500001 .39200003 C .12000001 .36900003 .09 .34100003 .09 .296 C .09 .287 .092 .266 .10300001 .24700001 C .049000004 .24100001 0 .21100001 0 .139 C 0 .094000007 .02 .055000009 .069000009 .029 C .085 .019999996 .12799999 0 .20700002 0 C .30400003 0 .36400003 .030000002 .389 .045 C .46100004 .088 .47600005 .142 .47600005 .18100001 C .47600005 .22800002 .451 .255 .405 .277 C .384 .287 .345 .301 .257 .31300003 L .18900001 .32200004 C .18800003 .329 .18600002 .33900003 .18600002 .347 C .18600002 .366 .192 .381 .194 .38600005 C .20200002 .38500003 .21200001 .38500003 .22299999 .38500003 C .268 .38500003 .335 .393 .38500003 .43700005 C .43100003 .47800002 .43600003 .527 .43600003 .554 C .43600003 .56500008 .43400003 .594 .41300003 .628 L .521 .628 L .521 .68500009 L .373 .68500009 M .231 .669 C .26 .669 .313 .642 .313 .55 C .313 .53400006 .31100003 .497 .293 .467 C .27400003 .43600003 .24700001 .43 .231 .43 C .17500001 .43 .14900002 .503 .14900002 .551 C .14900002 .582 .16500002 .669 .231 .669 M .24900002 .222 C .31 .21200001 .328 .2 .336 .194 C .35300002 .18 .35700003 .163 .35700003 .148 C .35700003 .096 .30400003 .054000006 .241 .054000006 C .164 .054000006 .123 .107 .123 .15400002 C .123 .192 .14700002 .221 .164 .236 L .24900002 .222 Z "/>
</symbol>
<use xlink:href="#font_7bb_3d" transform="matrix(10.5,0,0,-10.5,51.3176,97.66412)" fill="#231f20"/>
<use xlink:href="#font_7bb_42" transform="matrix(10.5,0,0,-10.5,54.5096,97.66412)" fill="#231f20"/>
<use xlink:href="#font_7bb_1" transform="matrix(10.5,0,0,-10.5,60.547105,97.66412)" fill="#231f20"/>
<use xlink:href="#font_7bb_1d" transform="matrix(10.5,0,0,-10.5,63.812604,97.66412)" fill="#231f20"/>
<use xlink:href="#font_7bb_42" transform="matrix(10.5,0,0,-10.5,70.0706,97.66412)" fill="#231f20"/>
<use xlink:href="#font_7bb_3b" transform="matrix(10.5,0,0,-10.5,76.4651,99.94263)" fill="#231f20"/>
<use xlink:href="#font_7bb_40" transform="matrix(10.5,0,0,-10.5,82.1456,97.66412)" fill="#231f20"/>
<use xlink:href="#font_7bb_3d" transform="matrix(10.5,0,0,-10.5,85.3691,97.66412)" fill="#231f20"/>
<use xlink:href="#font_7bb_47" transform="matrix(10.5,0,0,-10.5,88.6976,97.75862)" fill="#231f20"/>
<use xlink:href="#font_7bb_3c" transform="matrix(10.5,0,0,-10.5,93.2126,97.66412)" fill="#231f20"/>
<use xlink:href="#font_7bb_9" transform="matrix(10.5,0,0,-10.5,99.98511,97.74812)" fill="#231f20"/>
<use xlink:href="#font_7bb_1" transform="matrix(10.5,0,0,-10.5,102.337108,97.66412)" fill="#231f20"/>
</g>
<g id="Layer-1" data-name="P">
<use xlink:href="#font_7bc_60" transform="matrix(10.5,0,0,-10.5,105.2675,95.45912)" fill="#231f20"/>
</g>
<g id="Layer-1" data-name="P">
<symbol id="font_7bc_9">
<path d="M 0 0 C .098000008 .0119999949 .169 .087 .169 .182 C .169 .223 .15 .27600003 .091000009 .27600003 C .06400001 .27600003 .030000005 .263 .030000005 .218 C .030000005 .199 .037000006 .186 .046 .177 L .11 .177 L .11 .16600001 C .11 .12799999 .095 .045999998 0 .033999996 L 0 0 Z "/>
</symbol>
<symbol id="font_7bc_77">
<path d="M 0 0 L .22 0 L .22 .036000004 L .172 .041 L .155 .057000005 L .155 .22800002 L .379 .22800002 L .379 .057000005 L .36200003 .041 L .314 .036000004 L .314 0 L .53400006 0 L .53400006 .036000004 L .48000006 .041 L .46300004 .057000005 L .46300004 .42400003 L .48000006 .44000004 L .53400006 .44500003 L .53400006 .48100005 L .314 .48100005 L .314 .44500003 L .36200003 .44000004 L .379 .42400003 L .379 .27400003 L .155 .27400003 L .155 .42400003 L .172 .44000004 L .22 .44500003 L .22 .48100005 L 0 .48100005 L 0 .44500003 L .054000006 .44000004 L .071 .42400003 L .071 .057000005 L .054000006 .041 L 0 .036000004 L 0 0 Z "/>
</symbol>
<symbol id="font_7bc_7b">
<path d="M .388 .10300001 C .358 .083000008 .312 .060000004 .26000003 .060000004 C .09400001 .060000004 .09200001 .22500001 .09200001 .25800003 C .09200001 .314 .106000009 .374 .13900002 .41300003 C .172 .45200003 .21200001 .45900003 .236 .45900003 C .26000003 .45900003 .27600003 .45200003 .286 .446 L .286 .36400003 C .303 .35300002 .32200004 .35000003 .333 .35000003 C .365 .35000003 .38700003 .372 .38700003 .40500004 C .38700003 .44500003 .351 .499 .24200002 .499 C .095 .499 0 .40500004 0 .24900002 C 0 .091000009 .095 0 .22600001 0 C .26000003 0 .312 .0060000007 .388 .051000004 L .388 .10300001 Z "/>
</symbol>
<symbol id="font_7bc_81">
<path d="M .493 .48100005 L .24600002 .48100005 C .17900002 .48100005 .07 .46600003 .07 .35000003 C .07 .28300003 .120000008 .23600002 .19500001 .23200001 L .19500001 .23 C .15200001 .215 .134 .18400002 .124000009 .165 L .067 .055000005 L .050000006 .043 L 0 .036000004 L 0 0 L .14000002 0 L .14000002 .032 L .19700001 .156 C .21200001 .186 .23000002 .21400002 .272 .21400002 L .338 .21400002 L .338 .057000005 L .321 .041 L .273 .036000004 L .273 0 L .493 0 L .493 .036000004 L .439 .041 L .42200003 .057000005 L .42200003 .42400003 L .439 .44000004 L .493 .44500003 L .493 .48100005 M .338 .25800003 C .321 .256 .304 .254 .278 .254 C .20100002 .254 .15200001 .273 .15200001 .34300003 C .15200001 .43500004 .23100002 .437 .275 .437 C .29500003 .437 .314 .43600003 .338 .432 L .338 .25800003 Z "/>
</symbol>
<use xlink:href="#font_7bc_88" transform="matrix(10.5,0,0,-10.5,223.8783,85.03247)" fill="#231f20"/>
<use xlink:href="#font_7bc_7e" transform="matrix(10.5,0,0,-10.5,230.31479,85.12697)" fill="#231f20"/>
<use xlink:href="#font_7bc_78" transform="matrix(10.5,0,0,-10.5,235.5018,85.03247)" fill="#231f20"/>
<use xlink:href="#font_7bc_9" transform="matrix(10.5,0,0,-10.5,242.9463,86.817478)" fill="#231f20"/>
<use xlink:href="#font_7bc_1" transform="matrix(10.5,0,0,-10.5,245.45581,85.03247)" fill="#231f20"/>
<use xlink:href="#font_7bc_7f" transform="matrix(10.5,0,0,-10.5,248.71082,85.03247)" fill="#231f20"/>
<use xlink:href="#font_7bc_71" transform="matrix(10.5,0,0,-10.5,254.34827,85.12697)" fill="#231f20"/>
<use xlink:href="#font_7bc_79" transform="matrix(10.5,0,0,-10.5,259.94477,85.12697)" fill="#231f20"/>
<use xlink:href="#font_7bc_78" transform="matrix(10.5,0,0,-10.5,264.41777,85.03247)" fill="#231f20"/>
<use xlink:href="#font_7bc_71" transform="matrix(10.5,0,0,-10.5,271.84126,85.12697)" fill="#231f20"/>
<use xlink:href="#font_7bc_89" transform="matrix(10.5,0,0,-10.5,277.12278,85.03247)" fill="#231f20"/>
<use xlink:href="#font_7bc_77" transform="matrix(10.5,0,0,-10.5,285.14479,85.03247)" fill="#231f20"/>
<use xlink:href="#font_7bc_71" transform="matrix(10.5,0,0,-10.5,291.45527,85.12697)" fill="#231f20"/>
<use xlink:href="#font_7bc_9" transform="matrix(10.5,0,0,-10.5,297.14628,86.817478)" fill="#231f20"/>
<use xlink:href="#font_7bc_1" transform="matrix(10.5,0,0,-10.5,299.6558,85.03247)" fill="#231f20"/>
<use xlink:href="#font_7bc_93" transform="matrix(10.5,0,0,-10.5,302.9108,85.03247)" fill="#231f20"/>
<use xlink:href="#font_7bc_82" transform="matrix(10.5,0,0,-10.5,308.8748,87.32147)" fill="#231f20"/>
<use xlink:href="#font_7bc_7a" transform="matrix(10.5,0,0,-10.5,314.7548,85.03247)" fill="#231f20"/>
<use xlink:href="#font_7bc_75" transform="matrix(10.5,0,0,-10.5,320.6558,86.50247)" fill="#231f20"/>
<use xlink:href="#font_7bc_80" transform="matrix(10.5,0,0,-10.5,326.5463,85.12697)" fill="#231f20"/>
<use xlink:href="#font_7bc_74" transform="matrix(10.5,0,0,-10.5,331.4708,85.03247)" fill="#231f20"/>
<use xlink:href="#font_7bc_7b" transform="matrix(10.5,0,0,-10.5,336.64729,85.12697)" fill="#231f20"/>
<use xlink:href="#font_7bc_81" transform="matrix(10.5,0,0,-10.5,340.8368,85.03247)" fill="#231f20"/>
<use xlink:href="#font_7bc_1" transform="matrix(10.5,0,0,-10.5,346.3283,85.03247)" fill="#231f20"/>
<use xlink:href="#font_7bc_93" transform="matrix(10.5,0,0,-10.5,349.5833,85.03247)" fill="#231f20"/>
<use xlink:href="#font_7bc_71" transform="matrix(10.5,0,0,-10.5,355.7048,85.12697)" fill="#231f20"/>
<use xlink:href="#font_7bc_a" transform="matrix(10.5,0,0,-10.5,361.47984,82.85897)" fill="#231f20"/>
</g>
<g id="Layer-1" data-name="P">
<symbol id="font_7bc_6a">
<path d="M 0 0 L .24200002 0 L .24200002 .036000004 L .172 .041 L .155 .057000005 L .155 .43500004 L .314 .43500004 L .32900004 .41900004 L .34300003 .316 L .39400003 .316 L .39400003 .48100005 L 0 .48100005 L 0 .44500003 L .054000006 .44000004 L .071 .42400003 L .071 .057000005 L .054000006 .041 L 0 .036000004 L 0 0 Z "/>
</symbol>
<symbol id="font_7bc_6f">
<path d="M 0 0 L .22 0 L .22 .036000004 L .172 .041 L .155 .057000005 L .155 .089 L .38700003 .33800004 L .38700003 .057000005 L .37 .041 L .32200004 .036000004 L .32200004 0 L .54200008 0 L .54200008 .036000004 L .488 .041 L .47100006 .057000005 L .47100006 .42400003 L .488 .44000004 L .54200008 .44500003 L .54200008 .48100005 L .32200004 .48100005 L .32200004 .44500003 L .37 .44000004 L .38700003 .42400003 L .38700003 .4 L .155 .15100001 L .155 .42400003 L .172 .44000004 L .22 .44500003 L .22 .48100005 L 0 .48100005 L 0 .44500003 L .054000006 .44000004 L .071 .42400003 L .071 .057000005 L .054000006 .041 L 0 .036000004 L 0 0 M .19500001 .693 C .18900001 .703 .17600002 .716 .15200001 .716 C .125 .716 .105000007 .698 .105000007 .66700008 C .105000007 .601 .179 .55600008 .27100004 .55600008 C .363 .55600008 .437 .601 .437 .66700008 C .437 .698 .41700004 .716 .39000003 .716 C .36600004 .716 .35300002 .703 .347 .693 L .347 .615 C .32900004 .60200008 .307 .59400007 .27100004 .59400007 C .23500002 .59400007 .21300002 .60200008 .19500001 .615 L .19500001 .693 Z "/>
</symbol>
<use xlink:href="#font_7bc_7e" transform="matrix(10.5,0,0,-10.5,223.9728,97.727069)" fill="#231f20"/>
<use xlink:href="#font_7bc_77" transform="matrix(10.5,0,0,-10.5,229.1598,97.63257)" fill="#231f20"/>
<use xlink:href="#font_7bc_6a" transform="matrix(10.5,0,0,-10.5,235.3968,97.63257)" fill="#231f20"/>
<use xlink:href="#font_7bc_73" transform="matrix(10.5,0,0,-10.5,239.17679,97.727069)" fill="#231f20"/>
<use xlink:href="#font_7bc_7a" transform="matrix(10.5,0,0,-10.5,245.1198,97.63257)" fill="#231f20"/>
<use xlink:href="#font_7bc_6f" transform="matrix(10.5,0,0,-10.5,251.4408,97.63257)" fill="#231f20"/>
<use xlink:href="#font_7bc_7b" transform="matrix(10.5,0,0,-10.5,257.8353,97.727069)" fill="#231f20"/>
<use xlink:href="#font_7bc_68" transform="matrix(10.5,0,0,-10.5,262.44483,97.63257)" fill="#231f20"/>
<use xlink:href="#font_7bc_7a" transform="matrix(10.5,0,0,-10.5,268.0728,97.63257)" fill="#231f20"/>
<use xlink:href="#font_7bc_b" transform="matrix(10.5,0,0,-10.5,274.87684,97.727069)" fill="#231f20"/>
</g>
<g id="Layer-1" data-name="P">
<g id="Layer-2" data-name="Span">
</g>
<g id="Layer-2" data-name="Span">
</g>
<symbol id="font_7bb_3f">
<path d="M .007000001 0 L .25900004 0 L .25900004 .045 L .209 .05 L .19500001 .062000004 L .19500001 .22600001 L .244 .22600001 L .36 .039 L .36 0 L .55200007 0 L .55200007 .045 L .49300004 .045 L .33400003 .307 L .44800005 .43500004 L .513 .44300003 L .513 .48700003 L .30900003 .48700003 L .30900003 .44300003 L .35300002 .43800003 L .36 .42700003 L .21700001 .259 L .19500001 .259 L .19500001 .739 L .15100001 .739 L 0 .69200006 L 0 .65300008 L .072 .65300008 L .072 .064 L .058000003 .05 L .007000001 .045 L .007000001 0 Z "/>
</symbol>
<use xlink:href="#font_7bb_31" transform="matrix(10.5,0,0,-10.5,50.9081,115.06128)" fill="#231f20"/>
<use xlink:href="#font_7bb_43" transform="matrix(10.5,0,0,-10.5,57.145105,115.15578)" fill="#231f20"/>
<use xlink:href="#font_7bb_49" transform="matrix(10.5,0,0,-10.5,63.161603,115.15578)" fill="#231f20"/>
<use xlink:href="#font_7bb_1" transform="matrix(10.5,0,0,-10.5,69.2096,115.06128)" fill="#231f20"/>
<use xlink:href="#font_7bb_41" transform="matrix(10.5,0,0,-10.5,72.475109,115.06128)" fill="#231f20"/>
<use xlink:href="#font_7bb_35" transform="matrix(10.5,0,0,-10.5,81.9041,115.15578)" fill="#231f20"/>
<use xlink:href="#font_7bb_4d" transform="matrix(10.5,0,0,-10.5,87.0281,117.36078)" fill="#231f20"/>
<use xlink:href="#font_7bb_1" transform="matrix(10.5,0,0,-10.5,92.4776,115.06128)" fill="#231f20"/>
<use xlink:href="#font_7bb_48" transform="matrix(10.5,0,0,-10.5,95.6171,115.11378)" fill="#231f20"/>
<use xlink:href="#font_7bb_35" transform="matrix(10.5,0,0,-10.5,99.7016,115.15578)" fill="#231f20"/>
<use xlink:href="#font_7bb_3f" transform="matrix(10.5,0,0,-10.5,105.2351,115.06128)" fill="#231f20"/>
<use xlink:href="#font_7bb_39" transform="matrix(10.5,0,0,-10.5,111.2306,115.15578)" fill="#231f20"/>
<use xlink:href="#font_7bb_1" transform="matrix(10.5,0,0,-10.5,116.3441,115.06128)" fill="#231f20"/>
<use xlink:href="#font_7bb_3d" transform="matrix(10.5,0,0,-10.5,119.57285,115.06128)" fill="#231f20"/>
<use xlink:href="#font_7bb_48" transform="matrix(10.5,0,0,-10.5,122.67036,115.11378)" fill="#231f20"/>
<use xlink:href="#font_7bb_1" transform="matrix(10.5,0,0,-10.5,126.21935,115.06128)" fill="#231f20"/>
<use xlink:href="#font_7bb_3a" transform="matrix(10.5,0,0,-10.5,129.48485,115.06128)" fill="#231f20"/>
<use xlink:href="#font_7bb_46" transform="matrix(10.5,0,0,-10.5,133.00235,115.06128)" fill="#231f20"/>
<use xlink:href="#font_7bb_43" transform="matrix(10.5,0,0,-10.5,137.55936,115.15578)" fill="#231f20"/>
<use xlink:href="#font_7bb_41" transform="matrix(10.5,0,0,-10.5,143.62836,115.06128)" fill="#231f20"/>
<use xlink:href="#font_7bb_1" transform="matrix(10.5,0,0,-10.5,152.66886,115.06128)" fill="#231f20"/>
<use xlink:href="#font_7bb_41" transform="matrix(10.5,0,0,-10.5,155.93436,115.06128)" fill="#231f20"/>
<use xlink:href="#font_7bb_39" transform="matrix(10.5,0,0,-10.5,165.36336,115.15578)" fill="#231f20"/>
<use xlink:href="#font_7bb_9" transform="matrix(10.5,0,0,-10.5,171.15935,115.14528)" fill="#231f20"/>
<use xlink:href="#font_7bb_1" transform="matrix(10.5,0,0,-10.5,173.51136,115.06128)" fill="#231f20"/>
</g>
<g id="Layer-1" data-name="P">
<use xlink:href="#font_7bc_60" transform="matrix(10.5,0,0,-10.5,176.4292,112.85628)" fill="#231f20"/>
</g>
<g id="Layer-1" data-name="P">
<symbol id="font_7bc_a6">
<path d="M .0010000002 0 L .21200001 0 L .21200001 .041 L .15100001 .049000004 L .133 .068 L .133 .614 L .36100004 0 L .404 0 L .64100006 .624 L .64100006 .060000004 L .63100007 .046000005 L .56500008 .041 L .56500008 0 L .80500009 0 L .80500009 .041 L .74300006 .046000005 L .73100009 .060000004 L .73100009 .611 L .74300006 .625 L .80500009 .63000008 L .80500009 .671 L .59000006 .671 L .59000006 .64000007 L .4 .142 L .21200001 .64400008 L .21200001 .671 L 0 .671 L 0 .63000008 L .066 .625 L .079 .611 L .079 .068 L .061000006 .049000004 L .0010000002 .041 L .0010000002 0 Z "/>
</symbol>
<use xlink:href="#font_7bc_a6" transform="matrix(10.5,0,0,-10.5,223.8468,115.029788)" fill="#231f20"/>
<use xlink:href="#font_7bc_71" transform="matrix(10.5,0,0,-10.5,233.0343,115.12428)" fill="#231f20"/>
<use xlink:href="#font_7bc_89" transform="matrix(10.5,0,0,-10.5,238.3158,115.029788)" fill="#231f20"/>
<use xlink:href="#font_7bc_80" transform="matrix(10.5,0,0,-10.5,246.4113,115.12428)" fill="#231f20"/>
<use xlink:href="#font_7bc_74" transform="matrix(10.5,0,0,-10.5,251.3358,115.029788)" fill="#231f20"/>
<use xlink:href="#font_7bc_80" transform="matrix(10.5,0,0,-10.5,256.5123,115.12428)" fill="#231f20"/>
<use xlink:href="#font_7bc_1" transform="matrix(10.5,0,0,-10.5,261.2688,115.029788)" fill="#231f20"/>
<use xlink:href="#font_7bc_78" transform="matrix(10.5,0,0,-10.5,264.51856,115.029788)" fill="#231f20"/>
<use xlink:href="#font_7bc_77" transform="matrix(10.5,0,0,-10.5,271.86857,115.029788)" fill="#231f20"/>
<use xlink:href="#font_7bc_80" transform="matrix(10.5,0,0,-10.5,278.17906,115.12428)" fill="#231f20"/>
<use xlink:href="#font_7bc_1" transform="matrix(10.5,0,0,-10.5,282.93556,115.029788)" fill="#231f20"/>
<use xlink:href="#font_7bc_93" transform="matrix(10.5,0,0,-10.5,286.19056,115.029788)" fill="#231f20"/>
<use xlink:href="#font_7bc_71" transform="matrix(10.5,0,0,-10.5,292.31205,115.12428)" fill="#231f20"/>
<use xlink:href="#font_7bc_7f" transform="matrix(10.5,0,0,-10.5,297.90858,115.029788)" fill="#231f20"/>
<use xlink:href="#font_7bc_80" transform="matrix(10.5,0,0,-10.5,303.54707,115.12428)" fill="#231f20"/>
<use xlink:href="#font_7bc_82" transform="matrix(10.5,0,0,-10.5,308.53456,117.31879)" fill="#231f20"/>
<use xlink:href="#font_7bc_7a" transform="matrix(10.5,0,0,-10.5,314.41456,115.029788)" fill="#231f20"/>
<use xlink:href="#font_7bc_74" transform="matrix(10.5,0,0,-10.5,320.58857,115.029788)" fill="#231f20"/>
<use xlink:href="#font_7bc_72" transform="matrix(10.5,0,0,-10.5,325.69157,115.029788)" fill="#231f20"/>
<use xlink:href="#font_7bc_b" transform="matrix(10.5,0,0,-10.5,331.42457,115.12428)" fill="#231f20"/>
</g>
<g id="Layer-1" data-name="P">
<g id="Layer-2" data-name="Span">
</g>
<g id="Layer-2" data-name="Span">
</g>
<use xlink:href="#font_7bb_31" transform="matrix(10.5,0,0,-10.5,50.9081,132.45868)" fill="#231f20"/>
<use xlink:href="#font_7bb_43" transform="matrix(10.5,0,0,-10.5,57.145105,132.55318)" fill="#231f20"/>
<use xlink:href="#font_7bb_49" transform="matrix(10.5,0,0,-10.5,63.161603,132.55318)" fill="#231f20"/>
<use xlink:href="#font_7bb_1" transform="matrix(10.5,0,0,-10.5,69.2096,132.45868)" fill="#231f20"/>
<use xlink:href="#font_7bb_41" transform="matrix(10.5,0,0,-10.5,72.475109,132.45868)" fill="#231f20"/>
<use xlink:href="#font_7bb_35" transform="matrix(10.5,0,0,-10.5,81.9041,132.55318)" fill="#231f20"/>
<use xlink:href="#font_7bb_4d" transform="matrix(10.5,0,0,-10.5,87.0281,134.75818)" fill="#231f20"/>
<use xlink:href="#font_7bb_1" transform="matrix(10.5,0,0,-10.5,92.4776,132.45868)" fill="#231f20"/>
<use xlink:href="#font_7bb_48" transform="matrix(10.5,0,0,-10.5,95.6171,132.51119)" fill="#231f20"/>
<use xlink:href="#font_7bb_35" transform="matrix(10.5,0,0,-10.5,99.7016,132.55318)" fill="#231f20"/>
<use xlink:href="#font_7bb_3f" transform="matrix(10.5,0,0,-10.5,105.2351,132.45868)" fill="#231f20"/>
<use xlink:href="#font_7bb_39" transform="matrix(10.5,0,0,-10.5,111.2306,132.55318)" fill="#231f20"/>
<use xlink:href="#font_7bb_1" transform="matrix(10.5,0,0,-10.5,116.3441,132.45868)" fill="#231f20"/>
<use xlink:href="#font_7bb_41" transform="matrix(10.5,0,0,-10.5,119.604358,132.45868)" fill="#231f20"/>
<use xlink:href="#font_7bb_4d" transform="matrix(10.5,0,0,-10.5,128.60285,134.75818)" fill="#231f20"/>
<use xlink:href="#font_7bb_1" transform="matrix(10.5,0,0,-10.5,134.05236,132.45868)" fill="#231f20"/>
<use xlink:href="#font_7bb_4b" transform="matrix(10.5,0,0,-10.5,136.98186,132.45868)" fill="#231f20"/>
<use xlink:href="#font_7bb_43" transform="matrix(10.5,0,0,-10.5,145.62335,132.55318)" fill="#231f20"/>
<use xlink:href="#font_7bb_46" transform="matrix(10.5,0,0,-10.5,151.61885,132.45868)" fill="#231f20"/>
<use xlink:href="#font_7bb_38" transform="matrix(10.5,0,0,-10.5,156.17586,132.55318)" fill="#231f20"/>
<use xlink:href="#font_7bb_1" transform="matrix(10.5,0,0,-10.5,162.04535,132.45868)" fill="#231f20"/>
<use xlink:href="#font_7bb_3a" transform="matrix(10.5,0,0,-10.5,165.31085,132.45868)" fill="#231f20"/>
<use xlink:href="#font_7bb_43" transform="matrix(10.5,0,0,-10.5,168.96486,132.55318)" fill="#231f20"/>
<use xlink:href="#font_7bb_46" transform="matrix(10.5,0,0,-10.5,174.96036,132.45868)" fill="#231f20"/>
<use xlink:href="#font_7bb_1" transform="matrix(10.5,0,0,-10.5,179.12886,132.45868)" fill="#231f20"/>
<use xlink:href="#font_7bb_3d" transform="matrix(10.5,0,0,-10.5,182.35762,132.45868)" fill="#231f20"/>
<use xlink:href="#font_7bb_48" transform="matrix(10.5,0,0,-10.5,185.45511,132.51119)" fill="#231f20"/>
<use xlink:href="#font_7bb_9" transform="matrix(10.5,0,0,-10.5,189.68662,132.54268)" fill="#231f20"/>
<use xlink:href="#font_7bb_1" transform="matrix(10.5,0,0,-10.5,192.03862,132.45868)" fill="#231f20"/>
</g>
<g id="Layer-1" data-name="P">
<use xlink:href="#font_7bc_60" transform="matrix(10.5,0,0,-10.5,194.9573,130.25368)" fill="#231f20"/>
</g>
<g id="Layer-1" data-name="P">
<use xlink:href="#font_7bc_a6" transform="matrix(10.5,0,0,-10.5,223.8468,132.42713)" fill="#231f20"/>
<use xlink:href="#font_7bc_71" transform="matrix(10.5,0,0,-10.5,233.0343,132.52162)" fill="#231f20"/>
<use xlink:href="#font_7bc_89" transform="matrix(10.5,0,0,-10.5,238.3158,132.42713)" fill="#231f20"/>
<use xlink:href="#font_7bc_80" transform="matrix(10.5,0,0,-10.5,246.4113,132.52162)" fill="#231f20"/>
<use xlink:href="#font_7bc_74" transform="matrix(10.5,0,0,-10.5,251.3358,132.42713)" fill="#231f20"/>
<use xlink:href="#font_7bc_80" transform="matrix(10.5,0,0,-10.5,256.5123,132.52162)" fill="#231f20"/>
<use xlink:href="#font_7bc_1" transform="matrix(10.5,0,0,-10.5,261.2688,132.42713)" fill="#231f20"/>
<use xlink:href="#font_7bc_78" transform="matrix(10.5,0,0,-10.5,264.51856,132.42713)" fill="#231f20"/>
<use xlink:href="#font_7bc_77" transform="matrix(10.5,0,0,-10.5,271.86857,132.42713)" fill="#231f20"/>
<use xlink:href="#font_7bc_80" transform="matrix(10.5,0,0,-10.5,278.17906,132.52162)" fill="#231f20"/>
<use xlink:href="#font_7bc_1" transform="matrix(10.5,0,0,-10.5,282.93556,132.42713)" fill="#231f20"/>
<use xlink:href="#font_7bc_93" transform="matrix(10.5,0,0,-10.5,286.19056,132.42713)" fill="#231f20"/>
<use xlink:href="#font_7bc_71" transform="matrix(10.5,0,0,-10.5,292.31205,132.52162)" fill="#231f20"/>
<use xlink:href="#font_7bc_7f" transform="matrix(10.5,0,0,-10.5,297.90858,132.42713)" fill="#231f20"/>
<use xlink:href="#font_7bc_80" transform="matrix(10.5,0,0,-10.5,303.54707,132.52162)" fill="#231f20"/>
<use xlink:href="#font_7bc_82" transform="matrix(10.5,0,0,-10.5,308.53456,134.71613)" fill="#231f20"/>
<use xlink:href="#font_7bc_7a" transform="matrix(10.5,0,0,-10.5,314.41456,132.42713)" fill="#231f20"/>
<use xlink:href="#font_7bc_74" transform="matrix(10.5,0,0,-10.5,320.58857,132.42713)" fill="#231f20"/>
<use xlink:href="#font_7bc_72" transform="matrix(10.5,0,0,-10.5,325.69157,132.42713)" fill="#231f20"/>
<use xlink:href="#font_7bc_b" transform="matrix(10.5,0,0,-10.5,331.42457,132.52162)" fill="#231f20"/>
</g>
<g id="Layer-1" data-name="P">
<symbol id="font_7bb_36">
<path d="M .147 .739 L 0 .69200006 L 0 .65300008 L .072 .65300008 L .072 0 L .18200001 0 C .296 0 .397 0 .47500003 .091000009 C .512 .134 .537 .19700001 .537 .27100004 C .537 .395 .47100003 .499 .338 .499 C .284 .499 .22800002 .47300003 .19500001 .453 L .19500001 .739 L .147 .739 M .19500001 .41200004 C .229 .41900004 .24600002 .42100004 .26000003 .42100004 C .388 .42100004 .40300004 .286 .40300004 .24100001 C .40300004 .148 .367 .10700001 .35700003 .097 C .337 .07700001 .29700003 .053000004 .224 .053000004 C .215 .053000004 .20500002 .053000004 .19500001 .054 L .19500001 .41200004 Z "/>
</symbol>
<use xlink:href="#font_7bb_31" transform="matrix(10.5,0,0,-10.5,50.9081,149.8559)" fill="#231f20"/>
<use xlink:href="#font_7bb_43" transform="matrix(10.5,0,0,-10.5,57.145105,149.9504)" fill="#231f20"/>
<use xlink:href="#font_7bb_49" transform="matrix(10.5,0,0,-10.5,63.161603,149.9504)" fill="#231f20"/>
<use xlink:href="#font_7bb_1" transform="matrix(10.5,0,0,-10.5,69.2096,149.8559)" fill="#231f20"/>
<use xlink:href="#font_7bb_41" transform="matrix(10.5,0,0,-10.5,72.475109,149.8559)" fill="#231f20"/>
<use xlink:href="#font_7bb_35" transform="matrix(10.5,0,0,-10.5,81.9041,149.9504)" fill="#231f20"/>
<use xlink:href="#font_7bb_4d" transform="matrix(10.5,0,0,-10.5,87.0281,152.1554)" fill="#231f20"/>
<use xlink:href="#font_7bb_1" transform="matrix(10.5,0,0,-10.5,92.4776,149.8559)" fill="#231f20"/>
<use xlink:href="#font_7bb_48" transform="matrix(10.5,0,0,-10.5,95.6171,149.9084)" fill="#231f20"/>
<use xlink:href="#font_7bb_35" transform="matrix(10.5,0,0,-10.5,99.7016,149.9504)" fill="#231f20"/>
<use xlink:href="#font_7bb_3f" transform="matrix(10.5,0,0,-10.5,105.2351,149.8559)" fill="#231f20"/>
<use xlink:href="#font_7bb_39" transform="matrix(10.5,0,0,-10.5,111.2306,149.9504)" fill="#231f20"/>
<use xlink:href="#font_7bb_1" transform="matrix(10.5,0,0,-10.5,116.3441,149.8559)" fill="#231f20"/>
<use xlink:href="#font_7bb_48" transform="matrix(10.5,0,0,-10.5,119.478359,149.9084)" fill="#231f20"/>
<use xlink:href="#font_7bb_3c" transform="matrix(10.5,0,0,-10.5,123.48935,149.8559)" fill="#231f20"/>
<use xlink:href="#font_7bb_39" transform="matrix(10.5,0,0,-10.5,129.96785,149.9504)" fill="#231f20"/>
<use xlink:href="#font_7bb_1" transform="matrix(10.5,0,0,-10.5,135.08135,149.8559)" fill="#231f20"/>
<use xlink:href="#font_7bb_36" transform="matrix(10.5,0,0,-10.5,138.11585,149.8559)" fill="#231f20"/>
<use xlink:href="#font_7bb_43" transform="matrix(10.5,0,0,-10.5,144.45786,149.9504)" fill="#231f20"/>
<use xlink:href="#font_7bb_43" transform="matrix(10.5,0,0,-10.5,150.58986,149.9504)" fill="#231f20"/>
<use xlink:href="#font_7bb_3f" transform="matrix(10.5,0,0,-10.5,156.58536,149.8559)" fill="#231f20"/>
<use xlink:href="#font_7bb_1" transform="matrix(10.5,0,0,-10.5,162.19235,149.8559)" fill="#231f20"/>
<use xlink:href="#font_7bb_3a" transform="matrix(10.5,0,0,-10.5,165.45786,149.8559)" fill="#231f20"/>
<use xlink:href="#font_7bb_43" transform="matrix(10.5,0,0,-10.5,169.11186,149.9504)" fill="#231f20"/>
<use xlink:href="#font_7bb_46" transform="matrix(10.5,0,0,-10.5,175.10736,149.8559)" fill="#231f20"/>
<use xlink:href="#font_7bb_1" transform="matrix(10.5,0,0,-10.5,179.27587,149.8559)" fill="#231f20"/>
<use xlink:href="#font_7bb_4d" transform="matrix(10.5,0,0,-10.5,182.17386,152.1554)" fill="#231f20"/>
<use xlink:href="#font_7bb_43" transform="matrix(10.5,0,0,-10.5,188.01187,149.9504)" fill="#231f20"/>
<use xlink:href="#font_7bb_49" transform="matrix(10.5,0,0,-10.5,194.02837,149.9504)" fill="#231f20"/>
<use xlink:href="#font_7bb_46" transform="matrix(10.5,0,0,-10.5,200.32837,149.8559)" fill="#231f20"/>
<use xlink:href="#font_7bb_1" transform="matrix(10.5,0,0,-10.5,204.49687,149.8559)" fill="#231f20"/>
</g>
<g id="Layer-1" data-name="P">
<g id="Layer-2" data-name="Span">
</g>
<use xlink:href="#font_7bb_4a" transform="matrix(10.5,0,0,-10.5,50.9606,162.45587)" fill="#231f20"/>
<use xlink:href="#font_7bb_39" transform="matrix(10.5,0,0,-10.5,56.798604,162.55037)" fill="#231f20"/>
<use xlink:href="#font_7bb_46" transform="matrix(10.5,0,0,-10.5,62.1641,162.45587)" fill="#231f20"/>
<use xlink:href="#font_7bb_4d" transform="matrix(10.5,0,0,-10.5,66.689609,164.75537)" fill="#231f20"/>
<use xlink:href="#font_7bb_1" transform="matrix(10.5,0,0,-10.5,72.13911,162.45587)" fill="#231f20"/>
<use xlink:href="#font_7bb_43" transform="matrix(10.5,0,0,-10.5,75.467609,162.55037)" fill="#231f20"/>
<use xlink:href="#font_7bb_4b" transform="matrix(10.5,0,0,-10.5,81.012668,162.45587)" fill="#231f20"/>
<use xlink:href="#font_7bb_42" transform="matrix(10.5,0,0,-10.5,89.706668,162.45587)" fill="#231f20"/>
<use xlink:href="#font_7bb_9" transform="matrix(10.5,0,0,-10.5,96.42667,162.53987)" fill="#231f20"/>
<use xlink:href="#font_7bb_1" transform="matrix(10.5,0,0,-10.5,98.77866,162.45587)" fill="#231f20"/>
</g>
<g id="Layer-1" data-name="P">
<use xlink:href="#font_7bc_60" transform="matrix(10.5,0,0,-10.5,101.7082,160.25087)" fill="#231f20"/>
</g>
<g id="Layer-1" data-name="P">
<use xlink:href="#font_7bc_a6" transform="matrix(10.5,0,0,-10.5,223.8468,149.82428)" fill="#231f20"/>
<use xlink:href="#font_7bc_71" transform="matrix(10.5,0,0,-10.5,233.0343,149.91878)" fill="#231f20"/>
<use xlink:href="#font_7bc_89" transform="matrix(10.5,0,0,-10.5,238.3158,149.82428)" fill="#231f20"/>
<use xlink:href="#font_7bc_80" transform="matrix(10.5,0,0,-10.5,246.4113,149.91878)" fill="#231f20"/>
<use xlink:href="#font_7bc_74" transform="matrix(10.5,0,0,-10.5,251.3358,149.82428)" fill="#231f20"/>
<use xlink:href="#font_7bc_80" transform="matrix(10.5,0,0,-10.5,256.5123,149.91878)" fill="#231f20"/>
<use xlink:href="#font_7bc_1" transform="matrix(10.5,0,0,-10.5,261.2688,149.82428)" fill="#231f20"/>
<use xlink:href="#font_7bc_7f" transform="matrix(10.5,0,0,-10.5,264.51856,149.82428)" fill="#231f20"/>
<use xlink:href="#font_7bc_79" transform="matrix(10.5,0,0,-10.5,269.87358,149.91878)" fill="#231f20"/>
<use xlink:href="#font_7bc_81" transform="matrix(10.5,0,0,-10.5,273.92655,149.82428)" fill="#231f20"/>
<use xlink:href="#font_7bc_74" transform="matrix(10.5,0,0,-10.5,279.58607,149.82428)" fill="#231f20"/>
<use xlink:href="#font_7bc_72" transform="matrix(10.5,0,0,-10.5,284.68907,149.82428)" fill="#231f20"/>
<use xlink:href="#font_7bc_1" transform="matrix(10.5,0,0,-10.5,289.62406,149.82428)" fill="#231f20"/>
<use xlink:href="#font_7bc_8e" transform="matrix(10.5,0,0,-10.5,292.87907,149.91878)" fill="#231f20"/>
<use xlink:href="#font_7bc_74" transform="matrix(10.5,0,0,-10.5,297.68806,149.82428)" fill="#231f20"/>
<use xlink:href="#font_7bc_83" transform="matrix(10.5,0,0,-10.5,302.46556,152.11328)" fill="#231f20"/>
<use xlink:href="#font_7bc_1" transform="matrix(10.5,0,0,-10.5,307.68406,149.82428)" fill="#231f20"/>
<use xlink:href="#font_7bc_68" transform="matrix(10.5,0,0,-10.5,310.93907,149.82428)" fill="#231f20"/>
<use xlink:href="#font_7bc_77" transform="matrix(10.5,0,0,-10.5,316.56706,149.82428)" fill="#231f20"/>
<use xlink:href="#font_7bc_7a" transform="matrix(10.5,0,0,-10.5,322.80406,149.82428)" fill="#231f20"/>
<use xlink:href="#font_7bc_6a" transform="matrix(10.5,0,0,-10.5,329.12507,149.82428)" fill="#231f20"/>
<use xlink:href="#font_7bc_83" transform="matrix(10.5,0,0,-10.5,333.41957,152.11328)" fill="#231f20"/>
<use xlink:href="#font_7bc_1" transform="matrix(10.5,0,0,-10.5,338.63807,149.82428)" fill="#231f20"/>
<use xlink:href="#font_7bc_77" transform="matrix(10.5,0,0,-10.5,341.88783,149.82428)" fill="#231f20"/>
<use xlink:href="#font_7bc_7e" transform="matrix(10.5,0,0,-10.5,348.25083,149.91878)" fill="#231f20"/>
<use xlink:href="#font_7bc_7b" transform="matrix(10.5,0,0,-10.5,353.5113,149.91878)" fill="#231f20"/>
<use xlink:href="#font_7bc_71" transform="matrix(10.5,0,0,-10.5,358.1943,149.91878)" fill="#231f20"/>
</g>
<g id="Layer-1" data-name="P">
<use xlink:href="#font_7bc_a" transform="matrix(10.5,0,0,-10.5,363.9601,147.65079)" fill="#231f20"/>
</g>
<g id="Layer-1" data-name="P">
<use xlink:href="#font_7bc_7f" transform="matrix(10.5,0,0,-10.5,223.8468,162.42438)" fill="#231f20"/>
<use xlink:href="#font_7bc_7b" transform="matrix(10.5,0,0,-10.5,229.4853,162.51888)" fill="#231f20"/>
<use xlink:href="#font_7bc_80" transform="matrix(10.5,0,0,-10.5,234.1683,162.51888)" fill="#231f20"/>
<use xlink:href="#font_7bc_78" transform="matrix(10.5,0,0,-10.5,239.2398,162.42438)" fill="#231f20"/>
<use xlink:href="#font_7bc_b" transform="matrix(10.5,0,0,-10.5,247.07282,162.51888)" fill="#231f20"/>
</g>
<g id="Layer-1" data-name="P">
<use xlink:href="#font_7bb_31" transform="matrix(10.5,0,0,-10.5,50.9081,179.85321)" fill="#231f20"/>
<use xlink:href="#font_7bb_43" transform="matrix(10.5,0,0,-10.5,57.145105,179.94771)" fill="#231f20"/>
<use xlink:href="#font_7bb_49" transform="matrix(10.5,0,0,-10.5,63.161603,179.94771)" fill="#231f20"/>
<use xlink:href="#font_7bb_1" transform="matrix(10.5,0,0,-10.5,69.2096,179.85321)" fill="#231f20"/>
<use xlink:href="#font_7bb_41" transform="matrix(10.5,0,0,-10.5,72.475109,179.85321)" fill="#231f20"/>
<use xlink:href="#font_7bb_35" transform="matrix(10.5,0,0,-10.5,81.9041,179.94771)" fill="#231f20"/>
<use xlink:href="#font_7bb_4d" transform="matrix(10.5,0,0,-10.5,87.0281,182.15271)" fill="#231f20"/>
<use xlink:href="#font_7bb_1" transform="matrix(10.5,0,0,-10.5,92.4776,179.85321)" fill="#231f20"/>
<use xlink:href="#font_7bb_48" transform="matrix(10.5,0,0,-10.5,95.6171,179.90572)" fill="#231f20"/>
<use xlink:href="#font_7bb_3c" transform="matrix(10.5,0,0,-10.5,99.6281,179.85321)" fill="#231f20"/>
<use xlink:href="#font_7bb_35" transform="matrix(10.5,0,0,-10.5,106.1066,179.94771)" fill="#231f20"/>
<use xlink:href="#font_7bb_42" transform="matrix(10.5,0,0,-10.5,111.6821,179.85321)" fill="#231f20"/>
<use xlink:href="#font_7bb_3f" transform="matrix(10.5,0,0,-10.5,117.971599,179.85321)" fill="#231f20"/>
<use xlink:href="#font_7bb_1" transform="matrix(10.5,0,0,-10.5,123.5786,179.85321)" fill="#231f20"/>
<use xlink:href="#font_7bb_4d" transform="matrix(10.5,0,0,-10.5,126.4766,182.15271)" fill="#231f20"/>
<use xlink:href="#font_7bb_43" transform="matrix(10.5,0,0,-10.5,132.3146,179.94771)" fill="#231f20"/>
<use xlink:href="#font_7bb_49" transform="matrix(10.5,0,0,-10.5,138.3311,179.94771)" fill="#231f20"/>
<use xlink:href="#font_7bb_46" transform="matrix(10.5,0,0,-10.5,144.6311,179.85321)" fill="#231f20"/>
<use xlink:href="#font_7bb_47" transform="matrix(10.5,0,0,-10.5,149.2301,179.94771)" fill="#231f20"/>
<use xlink:href="#font_7bb_39" transform="matrix(10.5,0,0,-10.5,153.8816,179.94771)" fill="#231f20"/>
<use xlink:href="#font_7bb_40" transform="matrix(10.5,0,0,-10.5,159.2471,179.85321)" fill="#231f20"/>
<use xlink:href="#font_7bb_3a" transform="matrix(10.5,0,0,-10.5,162.5021,179.85321)" fill="#231f20"/>
<use xlink:href="#font_7bb_1" transform="matrix(10.5,0,0,-10.5,165.76761,179.85321)" fill="#231f20"/>
<use xlink:href="#font_7bb_3a" transform="matrix(10.5,0,0,-10.5,169.02787,179.85321)" fill="#231f20"/>
<use xlink:href="#font_7bb_43" transform="matrix(10.5,0,0,-10.5,172.68187,179.94771)" fill="#231f20"/>
<use xlink:href="#font_7bb_46" transform="matrix(10.5,0,0,-10.5,178.67737,179.85321)" fill="#231f20"/>
<use xlink:href="#font_7bb_1" transform="matrix(10.5,0,0,-10.5,182.84587,179.85321)" fill="#231f20"/>
</g>
<g id="Layer-1" data-name="P">
<g id="Layer-2" data-name="Span">
</g>
<use xlink:href="#font_7bb_48" transform="matrix(10.5,0,0,-10.5,51.223104,192.50582)" fill="#231f20"/>
<use xlink:href="#font_7bb_3c" transform="matrix(10.5,0,0,-10.5,55.2341,192.45331)" fill="#231f20"/>
<use xlink:href="#font_7bb_35" transform="matrix(10.5,0,0,-10.5,61.7126,192.5478)" fill="#231f20"/>
<use xlink:href="#font_7bb_48" transform="matrix(10.5,0,0,-10.5,67.1936,192.50582)" fill="#231f20"/>
<use xlink:href="#font_7bb_9" transform="matrix(10.5,0,0,-10.5,71.4251,192.53731)" fill="#231f20"/>
<use xlink:href="#font_7bb_1" transform="matrix(10.5,0,0,-10.5,73.7771,192.45331)" fill="#231f20"/>
</g>
<g id="Layer-1" data-name="P">
<use xlink:href="#font_7bc_60" transform="matrix(10.5,0,0,-10.5,76.7122,190.2483)" fill="#231f20"/>
</g>
<g id="Layer-1" data-name="P">
<g id="Layer-2" data-name="Span">
</g>
<g id="Layer-2" data-name="Span">
</g>
<use xlink:href="#font_7bc_88" transform="matrix(10.5,0,0,-10.5,223.8783,179.82169)" fill="#231f20"/>
<use xlink:href="#font_7bc_87" transform="matrix(10.5,0,0,-10.5,230.1888,179.82169)" fill="#231f20"/>
<use xlink:href="#font_7bc_1" transform="matrix(10.5,0,0,-10.5,237.3918,179.82169)" fill="#231f20"/>
<use xlink:href="#font_7bc_7b" transform="matrix(10.5,0,0,-10.5,240.7203,179.91619)" fill="#231f20"/>
<use xlink:href="#font_7bc_7e" transform="matrix(10.5,0,0,-10.5,245.4558,179.91619)" fill="#231f20"/>
<use xlink:href="#font_7bc_78" transform="matrix(10.5,0,0,-10.5,250.6428,179.82169)" fill="#231f20"/>
<use xlink:href="#font_7bc_7a" transform="matrix(10.5,0,0,-10.5,257.9928,179.82169)" fill="#231f20"/>
<use xlink:href="#font_7bc_1" transform="matrix(10.5,0,0,-10.5,263.9988,179.82169)" fill="#231f20"/>
<use xlink:href="#font_7bc_7f" transform="matrix(10.5,0,0,-10.5,267.24858,179.82169)" fill="#231f20"/>
<use xlink:href="#font_7bc_1" transform="matrix(10.5,0,0,-10.5,272.28858,179.82169)" fill="#231f20"/>
<use xlink:href="#font_7bc_8e" transform="matrix(10.5,0,0,-10.5,275.54359,179.91619)" fill="#231f20"/>
<use xlink:href="#font_7bc_74" transform="matrix(10.5,0,0,-10.5,280.35258,179.82169)" fill="#231f20"/>
<use xlink:href="#font_7bc_71" transform="matrix(10.5,0,0,-10.5,285.52906,179.91619)" fill="#231f20"/>
<use xlink:href="#font_7bc_78" transform="matrix(10.5,0,0,-10.5,291.12559,179.82169)" fill="#231f20"/>
<use xlink:href="#font_7bc_1" transform="matrix(10.5,0,0,-10.5,298.16059,179.82169)" fill="#231f20"/>
<use xlink:href="#font_7bc_7f" transform="matrix(10.5,0,0,-10.5,301.4156,179.82169)" fill="#231f20"/>
<use xlink:href="#font_7bc_7a" transform="matrix(10.5,0,0,-10.5,306.7706,179.82169)" fill="#231f20"/>
<use xlink:href="#font_7bc_77" transform="matrix(10.5,0,0,-10.5,313.0916,179.82169)" fill="#231f20"/>
<use xlink:href="#font_7bc_71" transform="matrix(10.5,0,0,-10.5,319.4021,179.91619)" fill="#231f20"/>
<use xlink:href="#font_7bc_7f" transform="matrix(10.5,0,0,-10.5,324.99864,179.82169)" fill="#231f20"/>
<use xlink:href="#font_7bc_7e" transform="matrix(10.5,0,0,-10.5,330.68965,179.91619)" fill="#231f20"/>
<use xlink:href="#font_7bc_74" transform="matrix(10.5,0,0,-10.5,335.7296,179.82169)" fill="#231f20"/>
<use xlink:href="#font_7bc_87" transform="matrix(10.5,0,0,-10.5,340.8326,179.82169)" fill="#231f20"/>
<use xlink:href="#font_7bc_b" transform="matrix(10.5,0,0,-10.5,348.83363,179.91619)" fill="#231f20"/>
</g>
<g id="Layer-1" data-name="P">
<g id="Layer-2" data-name="Span">
</g>
<g id="Layer-2" data-name="Span">
</g>
<use xlink:href="#font_7bb_31" transform="matrix(10.5,0,0,-10.5,50.9081,209.8505)" fill="#231f20"/>
<use xlink:href="#font_7bb_43" transform="matrix(10.5,0,0,-10.5,57.145105,209.94499)" fill="#231f20"/>
<use xlink:href="#font_7bb_49" transform="matrix(10.5,0,0,-10.5,63.161603,209.94499)" fill="#231f20"/>
<use xlink:href="#font_7bb_1" transform="matrix(10.5,0,0,-10.5,69.2096,209.8505)" fill="#231f20"/>
<use xlink:href="#font_7bb_41" transform="matrix(10.5,0,0,-10.5,72.475109,209.8505)" fill="#231f20"/>
<use xlink:href="#font_7bb_35" transform="matrix(10.5,0,0,-10.5,81.9041,209.94499)" fill="#231f20"/>
<use xlink:href="#font_7bb_4d" transform="matrix(10.5,0,0,-10.5,87.0281,212.15)" fill="#231f20"/>
<use xlink:href="#font_7bb_1" transform="matrix(10.5,0,0,-10.5,92.4776,209.8505)" fill="#231f20"/>
<use xlink:href="#font_7bb_4b" transform="matrix(10.5,0,0,-10.5,95.407108,209.8505)" fill="#231f20"/>
<use xlink:href="#font_7bb_39" transform="matrix(10.5,0,0,-10.5,104.059108,209.94499)" fill="#231f20"/>
<use xlink:href="#font_7bb_40" transform="matrix(10.5,0,0,-10.5,109.42461,209.8505)" fill="#231f20"/>
<use xlink:href="#font_7bb_40" transform="matrix(10.5,0,0,-10.5,112.60611,209.8505)" fill="#231f20"/>
<use xlink:href="#font_7bb_1" transform="matrix(10.5,0,0,-10.5,115.535617,209.8505)" fill="#231f20"/>
<use xlink:href="#font_7bb_40" transform="matrix(10.5,0,0,-10.5,118.72237,209.8505)" fill="#231f20"/>
<use xlink:href="#font_7bb_39" transform="matrix(10.5,0,0,-10.5,122.04037,209.94499)" fill="#231f20"/>
<use xlink:href="#font_7bb_48" transform="matrix(10.5,0,0,-10.5,127.35337,209.903)" fill="#231f20"/>
<use xlink:href="#font_7bb_1" transform="matrix(10.5,0,0,-10.5,130.90238,209.8505)" fill="#231f20"/>
<use xlink:href="#font_7bb_3d" transform="matrix(10.5,0,0,-10.5,134.13639,209.8505)" fill="#231f20"/>
<use xlink:href="#font_7bb_48" transform="matrix(10.5,0,0,-10.5,137.23387,209.903)" fill="#231f20"/>
<use xlink:href="#font_7bb_1" transform="matrix(10.5,0,0,-10.5,140.78289,209.8505)" fill="#231f20"/>
<use xlink:href="#font_7bb_35" transform="matrix(10.5,0,0,-10.5,144.11139,209.94499)" fill="#231f20"/>
<use xlink:href="#font_7bb_40" transform="matrix(10.5,0,0,-10.5,149.64488,209.8505)" fill="#231f20"/>
<use xlink:href="#font_7bb_43" transform="matrix(10.5,0,0,-10.5,152.96289,209.94499)" fill="#231f20"/>
<use xlink:href="#font_7bb_42" transform="matrix(10.5,0,0,-10.5,159.0004,209.8505)" fill="#231f20"/>
<use xlink:href="#font_7bb_39" transform="matrix(10.5,0,0,-10.5,165.42639,209.94499)" fill="#231f20"/>
<use xlink:href="#font_7bb_9" transform="matrix(10.5,0,0,-10.5,171.22238,209.9345)" fill="#231f20"/>
<use xlink:href="#font_7bb_1" transform="matrix(10.5,0,0,-10.5,173.57439,209.8505)" fill="#231f20"/>
</g>
<g id="Layer-1" data-name="P">
<use xlink:href="#font_7bc_60" transform="matrix(10.5,0,0,-10.5,176.4922,207.6455)" fill="#231f20"/>
</g>
<g id="Layer-1" data-name="P">
<g id="Layer-2" data-name="Span">
</g>
<g id="Layer-2" data-name="Span">
</g>
<symbol id="font_7bc_91">
<path d="M 0 .671 L 0 .63000008 L .057000005 .625 L .07400001 .611 L .07400001 .060000004 L .057000005 .046000005 L 0 .041 L 0 0 L .24300003 0 L .24300003 .041 L .18100003 .046000005 L .164 .060000004 L .164 .32900004 L .508 .32900004 L .508 .060000004 L .49100007 .046000005 L .42900003 .041 L .42900003 0 L .67200008 0 L .67200008 .041 L .615 .046000005 L .59800007 .060000004 L .59800007 .611 L .615 .625 L .67200008 .63000008 L .67200008 .671 L .42900003 .671 L .42900003 .63000008 L .49100007 .625 L .508 .611 L .508 .37500004 L .164 .37500004 L .164 .611 L .18100003 .625 L .24300003 .63000008 L .24300003 .671 L 0 .671 Z "/>
</symbol>
<symbol id="font_7bc_9e">
<path d="M .432 .75500008 C .421 .72700008 .389 .72 .363 .716 L .279 .703 C .187 .689 .09500001 .66200008 .044000005 .531 C .015000001 .45600004 0 .35400004 0 .277 C 0 .19700001 .026000005 0 .23200001 0 C .313 0 .366 .035 .397 .067 C .435 .106000009 .466 .16600001 .466 .255 C .466 .38900004 .389 .499 .251 .499 C .15200001 .499 .10000001 .441 .07100001 .38900004 L .069000009 .38900004 C .07700001 .55700007 .15100001 .601 .24700003 .615 L .341 .628 C .375 .633 .447 .647 .466 .75500008 L .432 .75500008 M .24100001 .455 C .349 .455 .372 .31500004 .372 .252 C .372 .20800002 .367 .15100001 .335 .10300001 C .304 .057 .264 .044 .23200001 .044 C .19800002 .044 .15100001 .057 .120000008 .12100001 C .097 .16800002 .09400001 .22000002 .09400001 .25 C .09400001 .29000003 .10900001 .455 .24100001 .455 Z "/>
</symbol>
<use xlink:href="#font_7bc_91" transform="matrix(10.5,0,0,-10.5,223.8783,209.81891)" fill="#231f20"/>
<use xlink:href="#font_7bc_80" transform="matrix(10.5,0,0,-10.5,231.6693,209.9134)" fill="#231f20"/>
<use xlink:href="#font_7bc_1" transform="matrix(10.5,0,0,-10.5,236.4258,209.81891)" fill="#231f20"/>
<use xlink:href="#font_7bc_9e" transform="matrix(10.5,0,0,-10.5,239.8173,209.9134)" fill="#231f20"/>
<use xlink:href="#font_7bc_80" transform="matrix(10.5,0,0,-10.5,245.4873,209.9134)" fill="#231f20"/>
<use xlink:href="#font_7bc_7b" transform="matrix(10.5,0,0,-10.5,250.63231,209.9134)" fill="#231f20"/>
<use xlink:href="#font_7bc_93" transform="matrix(10.5,0,0,-10.5,255.2418,209.81891)" fill="#231f20"/>
<use xlink:href="#font_7bc_71" transform="matrix(10.5,0,0,-10.5,261.36329,209.9134)" fill="#231f20"/>
<use xlink:href="#font_7bc_68" transform="matrix(10.5,0,0,-10.5,266.9598,209.81891)" fill="#231f20"/>
<use xlink:href="#font_7bc_71" transform="matrix(10.5,0,0,-10.5,272.6613,209.9134)" fill="#231f20"/>
<use xlink:href="#font_7bc_6f" transform="matrix(10.5,0,0,-10.5,278.2578,209.81891)" fill="#231f20"/>
<use xlink:href="#font_7bc_74" transform="matrix(10.5,0,0,-10.5,284.43183,209.81891)" fill="#231f20"/>
<use xlink:href="#font_7bc_80" transform="matrix(10.5,0,0,-10.5,289.6083,209.9134)" fill="#231f20"/>
<use xlink:href="#font_7bc_7b" transform="matrix(10.5,0,0,-10.5,294.7533,209.9134)" fill="#231f20"/>
<use xlink:href="#font_7bc_72" transform="matrix(10.5,0,0,-10.5,299.36283,209.81891)" fill="#231f20"/>
<use xlink:href="#font_7bc_9" transform="matrix(10.5,0,0,-10.5,304.7073,211.60391)" fill="#231f20"/>
<use xlink:href="#font_7bc_1" transform="matrix(10.5,0,0,-10.5,307.21684,209.81891)" fill="#231f20"/>
<use xlink:href="#font_7bc_7f" transform="matrix(10.5,0,0,-10.5,310.47184,209.81891)" fill="#231f20"/>
<use xlink:href="#font_7bc_7b" transform="matrix(10.5,0,0,-10.5,316.10929,209.9134)" fill="#231f20"/>
<use xlink:href="#font_7bc_80" transform="matrix(10.5,0,0,-10.5,320.7923,209.9134)" fill="#231f20"/>
<use xlink:href="#font_7bc_1" transform="matrix(10.5,0,0,-10.5,325.5488,209.81891)" fill="#231f20"/>
<use xlink:href="#font_7bc_7f" transform="matrix(10.5,0,0,-10.5,328.8038,209.81891)" fill="#231f20"/>
<use xlink:href="#font_7bc_1" transform="matrix(10.5,0,0,-10.5,333.8438,209.81891)" fill="#231f20"/>
<use xlink:href="#font_7bc_93" transform="matrix(10.5,0,0,-10.5,337.09883,209.81891)" fill="#231f20"/>
<use xlink:href="#font_7bc_71" transform="matrix(10.5,0,0,-10.5,343.2203,209.9134)" fill="#231f20"/>
<use xlink:href="#font_7bc_82" transform="matrix(10.5,0,0,-10.5,348.73283,212.10791)" fill="#231f20"/>
<use xlink:href="#font_7bc_81" transform="matrix(10.5,0,0,-10.5,354.1928,209.81891)" fill="#231f20"/>
<use xlink:href="#font_7bc_75" transform="matrix(10.5,0,0,-10.5,359.5793,211.28891)" fill="#231f20"/>
<use xlink:href="#font_7bc_68" transform="matrix(10.5,0,0,-10.5,365.39634,209.81891)" fill="#231f20"/>
<use xlink:href="#font_7bc_80" transform="matrix(10.5,0,0,-10.5,371.0978,209.9134)" fill="#231f20"/>
<use xlink:href="#font_7bc_b" transform="matrix(10.5,0,0,-10.5,376.6523,209.9134)" fill="#231f20"/>
</g>
<g id="Layer-1" data-name="P">
<g id="Layer-2" data-name="Span">
</g>
<use xlink:href="#font_7bb_31" transform="matrix(10.5,0,0,-10.5,50.9081,227.2478)" fill="#231f20"/>
<use xlink:href="#font_7bb_43" transform="matrix(10.5,0,0,-10.5,57.145105,227.3423)" fill="#231f20"/>
<use xlink:href="#font_7bb_49" transform="matrix(10.5,0,0,-10.5,63.161603,227.3423)" fill="#231f20"/>
<use xlink:href="#font_7bb_1" transform="matrix(10.5,0,0,-10.5,69.2096,227.2478)" fill="#231f20"/>
<use xlink:href="#font_7bb_41" transform="matrix(10.5,0,0,-10.5,72.475109,227.2478)" fill="#231f20"/>
<use xlink:href="#font_7bb_49" transform="matrix(10.5,0,0,-10.5,81.788608,227.3423)" fill="#231f20"/>
<use xlink:href="#font_7bb_47" transform="matrix(10.5,0,0,-10.5,88.2671,227.3423)" fill="#231f20"/>
<use xlink:href="#font_7bb_48" transform="matrix(10.5,0,0,-10.5,92.72961,227.30031)" fill="#231f20"/>
<use xlink:href="#font_7bb_1" transform="matrix(10.5,0,0,-10.5,96.2786,227.2478)" fill="#231f20"/>
<use xlink:href="#font_7bb_47" transform="matrix(10.5,0,0,-10.5,99.64385,227.3423)" fill="#231f20"/>
<use xlink:href="#font_7bb_3c" transform="matrix(10.5,0,0,-10.5,104.15886,227.2478)" fill="#231f20"/>
<use xlink:href="#font_7bb_43" transform="matrix(10.5,0,0,-10.5,110.63736,227.3423)" fill="#231f20"/>
<use xlink:href="#font_7bb_4b" transform="matrix(10.5,0,0,-10.5,116.181369,227.2478)" fill="#231f20"/>
<use xlink:href="#font_7bb_1" transform="matrix(10.5,0,0,-10.5,124.58137,227.2478)" fill="#231f20"/>
<use xlink:href="#font_7bb_41" transform="matrix(10.5,0,0,-10.5,127.84687,227.2478)" fill="#231f20"/>
<use xlink:href="#font_7bb_39" transform="matrix(10.5,0,0,-10.5,137.27588,227.3423)" fill="#231f20"/>
<use xlink:href="#font_7bb_1" transform="matrix(10.5,0,0,-10.5,142.38938,227.2478)" fill="#231f20"/>
<use xlink:href="#font_7bb_4d" transform="matrix(10.5,0,0,-10.5,145.28737,229.5473)" fill="#231f20"/>
<use xlink:href="#font_7bb_43" transform="matrix(10.5,0,0,-10.5,151.12538,227.3423)" fill="#231f20"/>
<use xlink:href="#font_7bb_49" transform="matrix(10.5,0,0,-10.5,157.14188,227.3423)" fill="#231f20"/>
<use xlink:href="#font_7bb_46" transform="matrix(10.5,0,0,-10.5,163.44188,227.2478)" fill="#231f20"/>
<use xlink:href="#font_7bb_1" transform="matrix(10.5,0,0,-10.5,167.61038,227.2478)" fill="#231f20"/>
<use xlink:href="#font_7bb_36" transform="matrix(10.5,0,0,-10.5,170.63964,227.2478)" fill="#231f20"/>
<use xlink:href="#font_7bb_43" transform="matrix(10.5,0,0,-10.5,176.98165,227.3423)" fill="#231f20"/>
<use xlink:href="#font_7bb_43" transform="matrix(10.5,0,0,-10.5,183.11365,227.3423)" fill="#231f20"/>
<use xlink:href="#font_7bb_3f" transform="matrix(10.5,0,0,-10.5,189.10915,227.2478)" fill="#231f20"/>
<use xlink:href="#font_7bb_47" transform="matrix(10.5,0,0,-10.5,195.40914,227.3423)" fill="#231f20"/>
<use xlink:href="#font_7bb_9" transform="matrix(10.5,0,0,-10.5,200.35463,227.3318)" fill="#231f20"/>
</g>
<g id="Layer-1" data-name="P">
<g id="Layer-2" data-name="Span">
</g>
<symbol id="font_7bc_8d">
<path d="M 0 0 L .75 0 L .75 .036000004 L .696 .041 L .679 .057000005 L .679 .42400003 L .696 .44000004 L .75 .44500003 L .75 .48100005 L .53200009 .48100005 L .53200009 .44500003 L .57800009 .44000004 L .595 .42400003 L .595 .046000005 L .41700004 .046000005 L .41700004 .42400003 L .43400003 .44000004 L .48000006 .44500003 L .48000006 .48100005 L .27 .48100005 L .27 .44500003 L .316 .44000004 L .333 .42400003 L .333 .046000005 L .155 .046000005 L .155 .42400003 L .172 .44000004 L .21800001 .44500003 L .21800001 .48100005 L 0 .48100005 L 0 .44500003 L .054000006 .44000004 L .071 .42400003 L .071 .057000005 L .054000006 .041 L 0 .036000004 L 0 0 Z "/>
</symbol>
<use xlink:href="#font_7bc_88" transform="matrix(10.5,0,0,-10.5,223.8783,227.21631)" fill="#231f20"/>
<use xlink:href="#font_7bc_87" transform="matrix(10.5,0,0,-10.5,230.1888,227.21631)" fill="#231f20"/>
<use xlink:href="#font_7bc_1" transform="matrix(10.5,0,0,-10.5,237.3918,227.21631)" fill="#231f20"/>
<use xlink:href="#font_7bc_75" transform="matrix(10.5,0,0,-10.5,240.2268,228.68631)" fill="#231f20"/>
<use xlink:href="#font_7bc_71" transform="matrix(10.5,0,0,-10.5,246.11731,227.3108)" fill="#231f20"/>
<use xlink:href="#font_7bc_73" transform="matrix(10.5,0,0,-10.5,251.1888,227.3108)" fill="#231f20"/>
<use xlink:href="#font_7bc_89" transform="matrix(10.5,0,0,-10.5,256.8168,227.21631)" fill="#231f20"/>
<use xlink:href="#font_7bc_77" transform="matrix(10.5,0,0,-10.5,264.8388,227.21631)" fill="#231f20"/>
<use xlink:href="#font_7bc_87" transform="matrix(10.5,0,0,-10.5,271.0758,227.21631)" fill="#231f20"/>
<use xlink:href="#font_7bc_1" transform="matrix(10.5,0,0,-10.5,278.2788,227.21631)" fill="#231f20"/>
<use xlink:href="#font_7bc_93" transform="matrix(10.5,0,0,-10.5,281.5338,227.21631)" fill="#231f20"/>
<use xlink:href="#font_7bc_71" transform="matrix(10.5,0,0,-10.5,287.6553,227.3108)" fill="#231f20"/>
<use xlink:href="#font_7bc_68" transform="matrix(10.5,0,0,-10.5,293.25184,227.21631)" fill="#231f20"/>
<use xlink:href="#font_7bc_7e" transform="matrix(10.5,0,0,-10.5,299.00584,227.3108)" fill="#231f20"/>
<use xlink:href="#font_7bc_79" transform="matrix(10.5,0,0,-10.5,304.1928,227.3108)" fill="#231f20"/>
<use xlink:href="#font_7bc_7e" transform="matrix(10.5,0,0,-10.5,309.0018,227.3108)" fill="#231f20"/>
<use xlink:href="#font_7bc_74" transform="matrix(10.5,0,0,-10.5,314.04179,227.21631)" fill="#231f20"/>
<use xlink:href="#font_7bc_72" transform="matrix(10.5,0,0,-10.5,319.14479,227.21631)" fill="#231f20"/>
<use xlink:href="#font_7bc_1" transform="matrix(10.5,0,0,-10.5,324.07978,227.21631)" fill="#231f20"/>
<use xlink:href="#font_7bc_78" transform="matrix(10.5,0,0,-10.5,327.32954,227.21631)" fill="#231f20"/>
<use xlink:href="#font_7bc_77" transform="matrix(10.5,0,0,-10.5,334.67955,227.21631)" fill="#231f20"/>
<use xlink:href="#font_7bc_80" transform="matrix(10.5,0,0,-10.5,340.99003,227.3108)" fill="#231f20"/>
<use xlink:href="#font_7bc_1" transform="matrix(10.5,0,0,-10.5,345.74653,227.21631)" fill="#231f20"/>
<use xlink:href="#font_7bc_7f" transform="matrix(10.5,0,0,-10.5,349.00154,227.21631)" fill="#231f20"/>
<use xlink:href="#font_7bc_7e" transform="matrix(10.5,0,0,-10.5,354.69255,227.3108)" fill="#231f20"/>
<use xlink:href="#font_7bc_8d" transform="matrix(10.5,0,0,-10.5,359.87953,227.21631)" fill="#231f20"/>
<use xlink:href="#font_7bc_7a" transform="matrix(10.5,0,0,-10.5,368.38453,227.21631)" fill="#231f20"/>
<use xlink:href="#font_7bc_1" transform="matrix(10.5,0,0,-10.5,374.39054,227.21631)" fill="#231f20"/>
</g>
<g id="Layer-1" data-name="P">
<use xlink:href="#font_7bc_68" transform="matrix(10.5,0,0,-10.5,223.8468,239.81629)" fill="#231f20"/>
<use xlink:href="#font_7bc_77" transform="matrix(10.5,0,0,-10.5,229.47481,239.81629)" fill="#231f20"/>
<use xlink:href="#font_7bc_7a" transform="matrix(10.5,0,0,-10.5,235.7118,239.81629)" fill="#231f20"/>
<use xlink:href="#font_7bc_6a" transform="matrix(10.5,0,0,-10.5,242.0328,239.81629)" fill="#231f20"/>
<use xlink:href="#font_7bc_7a" transform="matrix(10.5,0,0,-10.5,246.6528,239.81629)" fill="#231f20"/>
<use xlink:href="#font_7bc_b" transform="matrix(10.5,0,0,-10.5,253.4568,239.91078)" fill="#231f20"/>
</g>
<g id="Layer-1" data-name="P">
<g id="Layer-2" data-name="Span">
</g>
<g id="Layer-2" data-name="Span">
</g>
<g id="Layer-2" data-name="Span">
</g>
<use xlink:href="#font_7bb_31" transform="matrix(10.5,0,0,-10.5,50.9081,257.2135)" fill="#231f20"/>
<use xlink:href="#font_7bb_43" transform="matrix(10.5,0,0,-10.5,57.145105,257.308)" fill="#231f20"/>
<use xlink:href="#font_7bb_49" transform="matrix(10.5,0,0,-10.5,63.161603,257.308)" fill="#231f20"/>
<use xlink:href="#font_7bb_1" transform="matrix(10.5,0,0,-10.5,69.2096,257.2135)" fill="#231f20"/>
<use xlink:href="#font_7bb_43" transform="matrix(10.5,0,0,-10.5,72.5381,257.308)" fill="#231f20"/>
<use xlink:href="#font_7bb_49" transform="matrix(10.5,0,0,-10.5,78.55461,257.308)" fill="#231f20"/>
<use xlink:href="#font_7bb_3b" transform="matrix(10.5,0,0,-10.5,84.95961,259.492)" fill="#231f20"/>
<use xlink:href="#font_7bb_3c" transform="matrix(10.5,0,0,-10.5,90.64011,257.2135)" fill="#231f20"/>
<use xlink:href="#font_7bb_48" transform="matrix(10.5,0,0,-10.5,96.92961,257.266)" fill="#231f20"/>
<use xlink:href="#font_7bb_1" transform="matrix(10.5,0,0,-10.5,100.47861,257.2135)" fill="#231f20"/>
<use xlink:href="#font_7bb_48" transform="matrix(10.5,0,0,-10.5,103.61286,257.266)" fill="#231f20"/>
<use xlink:href="#font_7bb_43" transform="matrix(10.5,0,0,-10.5,107.550357,257.308)" fill="#231f20"/>
<use xlink:href="#font_7bb_1" transform="matrix(10.5,0,0,-10.5,113.29386,257.2135)" fill="#231f20"/>
<use xlink:href="#font_7bb_47" transform="matrix(10.5,0,0,-10.5,116.66436,257.308)" fill="#231f20"/>
<use xlink:href="#font_7bb_39" transform="matrix(10.5,0,0,-10.5,121.315868,257.308)" fill="#231f20"/>
<use xlink:href="#font_7bb_39" transform="matrix(10.5,0,0,-10.5,126.81786,257.308)" fill="#231f20"/>
<use xlink:href="#font_7bb_1" transform="matrix(10.5,0,0,-10.5,131.93137,257.2135)" fill="#231f20"/>
<use xlink:href="#font_7bb_41" transform="matrix(10.5,0,0,-10.5,135.19687,257.2135)" fill="#231f20"/>
<use xlink:href="#font_7bb_43" transform="matrix(10.5,0,0,-10.5,144.62587,257.308)" fill="#231f20"/>
<use xlink:href="#font_7bb_46" transform="matrix(10.5,0,0,-10.5,150.62137,257.2135)" fill="#231f20"/>
<use xlink:href="#font_7bb_39" transform="matrix(10.5,0,0,-10.5,155.17838,257.308)" fill="#231f20"/>
<use xlink:href="#font_7bb_1" transform="matrix(10.5,0,0,-10.5,160.29187,257.2135)" fill="#231f20"/>
<use xlink:href="#font_7bb_43" transform="matrix(10.5,0,0,-10.5,163.61513,257.308)" fill="#231f20"/>
<use xlink:href="#font_7bb_3a" transform="matrix(10.5,0,0,-10.5,169.68413,257.2135)" fill="#231f20"/>
<use xlink:href="#font_7bb_1" transform="matrix(10.5,0,0,-10.5,172.94963,257.2135)" fill="#231f20"/>
<use xlink:href="#font_7bb_3c" transform="matrix(10.5,0,0,-10.5,176.14163,257.2135)" fill="#231f20"/>
<use xlink:href="#font_7bb_3d" transform="matrix(10.5,0,0,-10.5,182.52564,257.2135)" fill="#231f20"/>
<use xlink:href="#font_7bb_41" transform="matrix(10.5,0,0,-10.5,185.74913,257.2135)" fill="#231f20"/>
<use xlink:href="#font_7bb_9" transform="matrix(10.5,0,0,-10.5,195.47212,257.29753)" fill="#231f20"/>
<use xlink:href="#font_7bb_1" transform="matrix(10.5,0,0,-10.5,197.82413,257.2135)" fill="#231f20"/>
</g>
<g id="Layer-1" data-name="P">
<use xlink:href="#font_7bc_60" transform="matrix(10.5,0,0,-10.5,200.7423,255.0085)" fill="#231f20"/>
</g>
<g id="Layer-1" data-name="P">
<g id="Layer-2" data-name="Span">
</g>
<symbol id="font_7bc_66">
<path d="M 0 .48100005 L 0 .44500003 L .048 .44000004 L .065000008 .42400003 L .065000008 .317 C .065000008 .289 .069 .25300003 .09900001 .22500001 C .106000009 .21800001 .14000002 .19000001 .21100001 .19000001 C .24900002 .19000001 .3 .201 .33900003 .21400002 L .33900003 .057000005 L .32200004 .041 L .268 .036000004 L .268 0 L .49400006 0 L .49400006 .036000004 L .44000004 .041 L .42300005 .057000005 L .42300005 .42400003 L .44000004 .44000004 L .49400006 .44500003 L .49400006 .48100005 L .27400003 .48100005 L .27400003 .44500003 L .32200004 .44000004 L .33900003 .42400003 L .33900003 .25800003 C .30600003 .246 .26500003 .23600002 .23500002 .23600002 C .158 .23600002 .14900002 .29000003 .14900002 .321 L .14900002 .42400003 L .16600001 .44000004 L .21400002 .44500003 L .21400002 .48100005 L 0 .48100005 Z "/>
</symbol>
<symbol id="font_7bc_8b">
<path d="M 0 .14 L .67200008 .14 L .68700006 .124 L .70500007 0 L .75600007 0 L .75600007 .186 L .691 .186 L .679 .19600001 L .679 .564 L .696 .58000007 L .75 .58500006 L .75 .62100008 L .53200009 .62100008 L .53200009 .58500006 L .57800009 .58000007 L .595 .564 L .595 .186 L .41700004 .186 L .41700004 .564 L .43400003 .58000007 L .48000006 .58500006 L .48000006 .62100008 L .27 .62100008 L .27 .58500006 L .316 .58000007 L .333 .564 L .333 .186 L .155 .186 L .155 .564 L .172 .58000007 L .21800001 .58500006 L .21800001 .62100008 L 0 .62100008 L 0 .58500006 L .054000006 .58000007 L .071 .564 L .071 .197 L .054000006 .181 L 0 .176 L 0 .14 Z "/>
</symbol>
<use xlink:href="#font_7bc_88" transform="matrix(10.5,0,0,-10.5,223.8783,257.1819)" fill="#231f20"/>
<use xlink:href="#font_7bc_7e" transform="matrix(10.5,0,0,-10.5,230.31479,257.2764)" fill="#231f20"/>
<use xlink:href="#font_7bc_78" transform="matrix(10.5,0,0,-10.5,235.5018,257.1819)" fill="#231f20"/>
<use xlink:href="#font_7bc_1" transform="matrix(10.5,0,0,-10.5,242.5368,257.1819)" fill="#231f20"/>
<use xlink:href="#font_7bc_7b" transform="matrix(10.5,0,0,-10.5,245.86531,257.2764)" fill="#231f20"/>
<use xlink:href="#font_7bc_73" transform="matrix(10.5,0,0,-10.5,250.1598,257.2764)" fill="#231f20"/>
<use xlink:href="#font_7bc_80" transform="matrix(10.5,0,0,-10.5,256.1763,257.2764)" fill="#231f20"/>
<use xlink:href="#font_7bc_75" transform="matrix(10.5,0,0,-10.5,260.8278,258.6519)" fill="#231f20"/>
<use xlink:href="#font_7bc_83" transform="matrix(10.5,0,0,-10.5,266.3193,259.4709)" fill="#231f20"/>
<use xlink:href="#font_7bc_80" transform="matrix(10.5,0,0,-10.5,271.9263,257.2764)" fill="#231f20"/>
<use xlink:href="#font_7bc_74" transform="matrix(10.5,0,0,-10.5,276.8508,257.1819)" fill="#231f20"/>
<use xlink:href="#font_7bc_1" transform="matrix(10.5,0,0,-10.5,281.6388,257.1819)" fill="#231f20"/>
<use xlink:href="#font_7bc_66" transform="matrix(10.5,0,0,-10.5,284.7048,257.1819)" fill="#231f20"/>
<use xlink:href="#font_7bc_7e" transform="matrix(10.5,0,0,-10.5,290.6478,257.2764)" fill="#231f20"/>
<use xlink:href="#font_7bc_8b" transform="matrix(10.5,0,0,-10.5,295.83479,258.6519)" fill="#231f20"/>
<use xlink:href="#font_7bc_80" transform="matrix(10.5,0,0,-10.5,304.41328,257.2764)" fill="#231f20"/>
<use xlink:href="#font_7bc_1" transform="matrix(10.5,0,0,-10.5,309.16978,257.1819)" fill="#231f20"/>
<use xlink:href="#font_7bc_7b" transform="matrix(10.5,0,0,-10.5,312.493,257.2764)" fill="#231f20"/>
<use xlink:href="#font_7bc_1" transform="matrix(10.5,0,0,-10.5,316.78755,257.1819)" fill="#231f20"/>
<use xlink:href="#font_7bc_77" transform="matrix(10.5,0,0,-10.5,320.04255,257.1819)" fill="#231f20"/>
<use xlink:href="#font_7bc_7a" transform="matrix(10.5,0,0,-10.5,326.27955,257.1819)" fill="#231f20"/>
<use xlink:href="#font_7bc_78" transform="matrix(10.5,0,0,-10.5,332.60057,257.1819)" fill="#231f20"/>
<use xlink:href="#font_7bc_1" transform="matrix(10.5,0,0,-10.5,339.63557,257.1819)" fill="#231f20"/>
<use xlink:href="#font_7bc_7f" transform="matrix(10.5,0,0,-10.5,342.89057,257.1819)" fill="#231f20"/>
<use xlink:href="#font_7bc_7b" transform="matrix(10.5,0,0,-10.5,348.52906,257.2764)" fill="#231f20"/>
<use xlink:href="#font_7bc_74" transform="matrix(10.5,0,0,-10.5,353.20054,257.1819)" fill="#231f20"/>
<use xlink:href="#font_7bc_82" transform="matrix(10.5,0,0,-10.5,358.2195,259.4709)" fill="#231f20"/>
<use xlink:href="#font_7bc_80" transform="matrix(10.5,0,0,-10.5,364.173,257.2764)" fill="#231f20"/>
</g>
<g id="Layer-1" data-name="P">
<use xlink:href="#font_7bc_a" transform="matrix(10.5,0,0,-10.5,369.4052,255.00839)" fill="#231f20"/>
</g>
<g id="Layer-1" data-name="P">
<use xlink:href="#font_7bc_66" transform="matrix(10.5,0,0,-10.5,223.6578,269.78199)" fill="#231f20"/>
<use xlink:href="#font_7bc_7e" transform="matrix(10.5,0,0,-10.5,229.6008,269.8765)" fill="#231f20"/>
<use xlink:href="#font_7bc_74" transform="matrix(10.5,0,0,-10.5,234.64081,269.78199)" fill="#231f20"/>
<use xlink:href="#font_7bc_72" transform="matrix(10.5,0,0,-10.5,239.7438,269.78199)" fill="#231f20"/>
<use xlink:href="#font_7bc_7b" transform="matrix(10.5,0,0,-10.5,245.0673,269.8765)" fill="#231f20"/>
<use xlink:href="#font_7bc_81" transform="matrix(10.5,0,0,-10.5,249.2568,269.78199)" fill="#231f20"/>
<use xlink:href="#font_7bc_b" transform="matrix(10.5,0,0,-10.5,255.54631,269.8765)" fill="#231f20"/>
</g>
</g>
<text x="10" y="-10" font-size="13" font-family="Arial" fill="#cccccc">https://urait.ru</text></svg>
