<?xml version="1.0" encoding="UTF-8" standalone="no"?>
<!DOCTYPE svg PUBLIC "-//W3C//DTD SVG 1.1//EN" "http://www.w3.org/Graphics/SVG/1.1/DTD/svg11.dtd">
<svg xmlns="http://www.w3.org/2000/svg" xmlns:xlink="http://www.w3.org/1999/xlink" version="1.1" width="439.37pt" height="674.646pt" viewBox="0 0 439.37 674.646">
<g enable-background="new">
<g id="Layer-1" data-name="P">
<g id="Layer-2" data-name="Span">
</g>
<symbol id="font_831_31">
<path d="M 0 .671 L 0 .62200006 L .064 .61200007 L .256 .264 L .256 .069000009 L .24000003 .055000005 L .17200002 .049000004 L .17200002 0 L .47200004 0 L .47200004 .049000004 L .404 .055000005 L .388 .069000009 L .388 .28800003 L .578 .611 L .637 .62200006 L .637 .671 L .42000003 .671 L .42000003 .623 L .48000003 .61200007 L .48800005 .596 L .34500004 .351 L .20800002 .605 L .21700002 .61700007 L .27300004 .62200006 L .27300004 .671 L 0 .671 Z "/>
</symbol>
<symbol id="font_831_43">
<path d="M .26200003 .508 C .12300001 .508 0 .43500004 0 .252 C 0 .07800001 .11500001 0 .25300003 0 C .363 0 .51000007 .052 .51000007 .254 C .51000007 .35700003 .46600003 .418 .43 .44900004 C .39100004 .48300005 .335 .508 .26200003 .508 M .254 .45400004 C .35400004 .45400004 .372 .30800004 .372 .252 C .372 .18500002 .351 .054 .254 .054 C .16000001 .054 .13800001 .18400002 .13800001 .255 C .13800001 .32700003 .15200001 .36900003 .165 .395 C .17700002 .418 .202 .45400004 .254 .45400004 Z "/>
</symbol>
<symbol id="font_831_49">
<path d="M .14000002 .508 L 0 .46000005 L 0 .42100004 L .065000008 .42100004 L .065000008 .171 C .065000008 .11000001 .083000008 0 .19800002 0 C .26600004 0 .32400004 .035 .36900003 .064 L .36900003 .009000001 L .557 .009000001 L .557 .054 L .506 .059 L .492 .07300001 L .492 .508 L .44600005 .508 L .30400003 .46000005 L .30400003 .42100004 L .36900003 .42100004 L .36900003 .102000009 C .33800004 .09200001 .30400003 .08600001 .28000004 .08600001 C .25800003 .08600001 .23000002 .08900001 .21000001 .113000009 C .18900001 .13800001 .18800003 .17600002 .18800003 .19800002 L .18800003 .508 L .14000002 .508 Z "/>
</symbol>
<symbol id="font_831_1">
<path d="M 0 0 Z "/>
</symbol>
<symbol id="font_831_37">
<path d="M .42900003 .125 C .40700004 .11000001 .351 .07800001 .291 .07800001 C .245 .07800001 .208 .09300001 .18 .128 C .165 .14700002 .13800001 .18900001 .13800001 .26900003 C .13800001 .31500004 .16000001 .45700003 .26700003 .45700003 C .275 .45700003 .28300003 .45600004 .29200004 .45400004 L .29200004 .34800003 C .316 .33200003 .335 .32900004 .35000003 .32900004 C .39200003 .32900004 .423 .356 .423 .39800004 C .423 .41300003 .41900004 .446 .38300003 .47300003 C .35000003 .49800004 .303 .508 .259 .508 C .164 .508 .105000007 .46600003 .07700001 .439 C .030000002 .39400003 0 .328 0 .24600002 C 0 .165 .030000002 .10300001 .07000001 .064 C .10100001 .034 .156 0 .24100003 0 C .26700003 0 .344 .0030000006 .42900003 .054 L .42900003 .125 Z "/>
</symbol>
<symbol id="font_831_35">
<path d="M .317 .009000001 L .49200005 .009000001 L .49200005 .054 L .44000004 .059 L .42700003 .07300001 L .42700003 .33100004 C .42700003 .37800003 .423 .43400003 .38400004 .47000004 C .34600003 .506 .28100003 .508 .252 .508 C .213 .508 .14400001 .504 .086 .47300003 C .028000005 .44200004 .024000004 .404 .024000004 .38900004 C .024000004 .363 .049000004 .35500003 .07000001 .35500003 L .16200002 .35500003 L .16200002 .44900004 C .18100001 .45200003 .19500001 .45400004 .21000001 .45400004 C .3 .45400004 .30400003 .39400003 .30400003 .36 L .30400003 .351 L .30400003 .321 C .268 .31300003 .16800002 .29000003 .118 .272 C .068 .254 0 .22000002 0 .134 C 0 .058000003 .042000005 0 .133 0 C .194 0 .25 .031000004 .30400003 .06600001 L .317 .009000001 M .30400003 .10700001 C .261 .08800001 .236 .07800001 .208 .07800001 C .17400001 .07800001 .134 .09200001 .134 .15200001 C .134 .22600001 .222 .255 .30400003 .27 L .30400003 .10700001 Z "/>
</symbol>
<symbol id="font_831_42">
<path d="M .0030000006 0 L .24900002 0 L .24900002 .045 L .20500002 .05 L .19100002 .064 L .19100002 .39400003 C .24900002 .411 .277 .41200004 .286 .41200004 C .35200004 .41200004 .37600003 .36 .37600003 .3 L .37600003 .064 L .36200003 .05 L .31800003 .045 L .31800003 0 L .564 0 L .564 .045 L .512 .05 L .499 .064 L .499 .33200003 C .499 .37100003 .49100007 .499 .367 .499 C .31100003 .499 .24300003 .467 .19100002 .437 L .19100002 .49600003 L .143 .49600003 L 0 .44900004 L 0 .409 L .068 .409 L .068 .064 L .054 .05 L .0030000006 .045 L .0030000006 0 Z "/>
</symbol>
<symbol id="font_831_3b">
<path d="M .373 .68500009 C .312 .712 .266 .716 .239 .716 C .153 .716 .101 .689 .071 .661 C .045 .63600006 .021000002 .59800007 .021000002 .54 C .021000002 .46100004 .074 .41400004 .14500001 .39200003 C .12000001 .36900003 .09 .34100003 .09 .296 C .09 .287 .092 .266 .10300001 .24700001 C .049000004 .24100001 0 .21100001 0 .139 C 0 .094000007 .02 .055000009 .069000009 .029 C .085 .019999996 .12799999 0 .20700002 0 C .30400003 0 .36400003 .030000002 .389 .045 C .46100004 .088 .47600005 .142 .47600005 .18100001 C .47600005 .22800002 .451 .255 .405 .277 C .384 .287 .345 .301 .257 .31300003 L .18900001 .32200004 C .18800003 .329 .18600002 .33900003 .18600002 .347 C .18600002 .366 .192 .381 .194 .38600005 C .20200002 .38500003 .21200001 .38500003 .22299999 .38500003 C .268 .38500003 .335 .393 .38500003 .43700005 C .43100003 .47800002 .43600003 .527 .43600003 .554 C .43600003 .56500008 .43400003 .594 .41300003 .628 L .521 .628 L .521 .68500009 L .373 .68500009 M .231 .669 C .26 .669 .313 .642 .313 .55 C .313 .53400006 .31100003 .497 .293 .467 C .27400003 .43600003 .24700001 .43 .231 .43 C .17500001 .43 .14900002 .503 .14900002 .551 C .14900002 .582 .16500002 .669 .231 .669 M .24900002 .222 C .31 .21200001 .328 .2 .336 .194 C .35300002 .18 .35700003 .163 .35700003 .148 C .35700003 .096 .30400003 .054000006 .241 .054000006 C .164 .054000006 .123 .107 .123 .15400002 C .123 .192 .14700002 .221 .164 .236 L .24900002 .222 Z "/>
</symbol>
<symbol id="font_831_39">
<path d="M .45400004 .133 C .38000003 .087000008 .32500003 .079 .29000003 .079 C .157 .079 .128 .18100001 .128 .26400004 L .455 .26400004 C .455 .36900003 .432 .508 .24900002 .508 C .163 .508 .10800001 .47400005 .07700001 .44500003 C .030000002 .40000005 0 .33200003 0 .25 C 0 .156 .038000004 .09900001 .067 .069000009 C .10200001 .033 .15900001 0 .24900002 0 C .33800004 0 .41200004 .035 .45400004 .059 L .45400004 .133 M .133 .31700004 C .133 .40500004 .18800001 .45400004 .23700002 .45400004 C .286 .45400004 .32400004 .40700004 .32400004 .32500003 L .32400004 .31700004 L .133 .31700004 Z "/>
</symbol>
<symbol id="font_831_48">
<path d="M .065000008 .41900004 L .065000008 .128 C .065000008 .061 .069000009 0 .187 0 C .21200001 0 .28700004 .016 .33600004 .032 L .33600004 .080000009 C .31100003 .07400001 .29200004 .07300001 .272 .07300001 C .229 .07300001 .18800003 .08400001 .18800003 .17 L .18800003 .41900004 L .33600004 .41900004 L .33600004 .47900004 L .18800003 .47900004 L .18800003 .60300007 L .12600002 .60300007 L .074 .499 L 0 .45700003 L 0 .41900004 L .065000008 .41900004 Z "/>
</symbol>
<symbol id="font_831_38">
<path d="M .35200004 .661 L .35200004 .499 C .323 .504 .289 .508 .26200003 .508 C .13900002 .508 0 .441 0 .24000001 C 0 .08900001 .09200001 0 .194 0 C .25300003 0 .30600003 .031000004 .35200004 .065000008 L .35200004 .009000001 L .54 .009000001 L .54 .054 L .48900003 .059 L .47500003 .07300001 L .47500003 .748 L .42700003 .748 L .279 .70100006 L .279 .661 L .35200004 .661 M .35200004 .10400001 C .312 .08800001 .286 .08500001 .272 .08500001 C .16000001 .08500001 .134 .17800002 .134 .261 C .134 .36 .171 .45400004 .27800004 .45400004 C .30200003 .45400004 .319 .448 .35200004 .43800003 L .35200004 .10400001 Z "/>
</symbol>
<use xlink:href="#font_831_31" transform="matrix(10.5,0,0,-10.5,50.9081,55.09839)" fill="#231f20"/>
<use xlink:href="#font_831_43" transform="matrix(10.5,0,0,-10.5,57.145105,55.19289)" fill="#231f20"/>
<use xlink:href="#font_831_49" transform="matrix(10.5,0,0,-10.5,63.161603,55.19289)" fill="#231f20"/>
<use xlink:href="#font_831_1" transform="matrix(10.5,0,0,-10.5,69.2096,55.09839)" fill="#231f20"/>
<use xlink:href="#font_831_37" transform="matrix(10.5,0,0,-10.5,72.5381,55.19289)" fill="#231f20"/>
<use xlink:href="#font_831_35" transform="matrix(10.5,0,0,-10.5,77.5571,55.19289)" fill="#231f20"/>
<use xlink:href="#font_831_42" transform="matrix(10.5,0,0,-10.5,83.1326,55.09839)" fill="#231f20"/>
<use xlink:href="#font_831_1" transform="matrix(10.5,0,0,-10.5,89.1701,55.09839)" fill="#231f20"/>
<use xlink:href="#font_831_3b" transform="matrix(10.5,0,0,-10.5,92.4671,57.37689)" fill="#231f20"/>
<use xlink:href="#font_831_39" transform="matrix(10.5,0,0,-10.5,98.284099,55.19289)" fill="#231f20"/>
<use xlink:href="#font_831_48" transform="matrix(10.5,0,0,-10.5,103.5971,55.15089)" fill="#231f20"/>
<use xlink:href="#font_831_1" transform="matrix(10.5,0,0,-10.5,107.146099,55.09839)" fill="#231f20"/>
<use xlink:href="#font_831_35" transform="matrix(10.5,0,0,-10.5,110.469348,55.19289)" fill="#231f20"/>
<use xlink:href="#font_831_1" transform="matrix(10.5,0,0,-10.5,115.75085,55.09839)" fill="#231f20"/>
<use xlink:href="#font_831_3b" transform="matrix(10.5,0,0,-10.5,119.04785,57.37689)" fill="#231f20"/>
<use xlink:href="#font_831_43" transform="matrix(10.5,0,0,-10.5,124.864849,55.19289)" fill="#231f20"/>
<use xlink:href="#font_831_43" transform="matrix(10.5,0,0,-10.5,130.99686,55.19289)" fill="#231f20"/>
<use xlink:href="#font_831_38" transform="matrix(10.5,0,0,-10.5,137.12886,55.19289)" fill="#231f20"/>
<use xlink:href="#font_831_1" transform="matrix(10.5,0,0,-10.5,142.99835,55.09839)" fill="#231f20"/>
</g>
<g id="Layer-1" data-name="P">
<symbol id="font_831_3d">
<path d="M .060000007 .64900007 C .060000007 .60800006 .09300001 .57500007 .134 .57500007 C .17500001 .57500007 .20800002 .60800006 .20800002 .64900007 C .20800002 .69000008 .17500001 .72300007 .134 .72300007 C .09300001 .72300007 .060000007 .69000008 .060000007 .64900007 M .14400001 .49600003 L .0020000004 .44900004 L .0020000004 .409 L .069000009 .409 L .069000009 .064 L .055000005 .05 L 0 .045 L 0 0 L .26400004 0 L .26400004 .045 L .20700002 .05 L .19200002 .064 L .19200002 .49600003 L .14400001 .49600003 Z "/>
</symbol>
<symbol id="font_831_46">
<path d="M .005000001 0 L .28100003 0 L .28100003 .045 L .21000001 .05 L .19500001 .064 L .19500001 .351 C .214 .36400003 .24500002 .38000003 .27100004 .38000003 C .3 .38000003 .32100005 .35900004 .33100004 .34300003 L .38300003 .34300003 L .39600004 .48100005 C .37400005 .49100004 .35700003 .49800004 .33300004 .49800004 C .30200003 .49800004 .263 .469 .191 .39400003 L .19500001 .49600003 L .147 .49600003 L 0 .44900004 L 0 .409 L .072 .409 L .072 .064 L .058000003 .05 L .005000001 .045 L .005000001 0 Z "/>
</symbol>
<symbol id="font_831_3c">
<path d="M .147 .739 L 0 .69200006 L 0 .65300008 L .072 .65300008 L .072 .064 L .058000003 .05 L .007000001 .045 L .007000001 0 L .25300003 0 L .25300003 .045 L .21000001 .05 L .19500001 .064 L .19500001 .39400003 C .21300002 .4 .25400005 .41200004 .29100005 .41200004 C .35500003 .41200004 .38100005 .36100004 .38100005 .303 L .38100005 .064 L .36700005 .05 L .323 .045 L .323 0 L .56900009 0 L .56900009 .045 L .517 .05 L .504 .064 L .504 .33200003 C .504 .462 .43700005 .499 .37200005 .499 C .31400005 .499 .25900004 .47200004 .19500001 .437 L .19500001 .739 L .147 .739 Z "/>
</symbol>
<symbol id="font_831_9">
<path d="M .079 .15900001 C .034999998 .15900001 0 .124000009 0 .079 C 0 .035 .034999998 0 .078 0 C .123 0 .15900001 .035 .15900001 .079 C .15900001 .12200001 .122 .15900001 .079 .15900001 Z "/>
</symbol>
<use xlink:href="#font_831_38" transform="matrix(10.5,0,0,-10.5,51.4121,67.79292)" fill="#231f20"/>
<use xlink:href="#font_831_3d" transform="matrix(10.5,0,0,-10.5,57.5756,67.698429)" fill="#231f20"/>
<use xlink:href="#font_831_42" transform="matrix(10.5,0,0,-10.5,60.7676,67.698429)" fill="#231f20"/>
<use xlink:href="#font_831_42" transform="matrix(10.5,0,0,-10.5,67.0991,67.698429)" fill="#231f20"/>
<use xlink:href="#font_831_39" transform="matrix(10.5,0,0,-10.5,73.52509,67.79292)" fill="#231f20"/>
<use xlink:href="#font_831_46" transform="matrix(10.5,0,0,-10.5,78.890598,67.698429)" fill="#231f20"/>
<use xlink:href="#font_831_1" transform="matrix(10.5,0,0,-10.5,83.0591,67.698429)" fill="#231f20"/>
<use xlink:href="#font_831_3c" transform="matrix(10.5,0,0,-10.5,86.24585,67.698429)" fill="#231f20"/>
<use xlink:href="#font_831_39" transform="matrix(10.5,0,0,-10.5,92.72435,67.79292)" fill="#231f20"/>
<use xlink:href="#font_831_46" transform="matrix(10.5,0,0,-10.5,98.08985,67.698429)" fill="#231f20"/>
<use xlink:href="#font_831_39" transform="matrix(10.5,0,0,-10.5,102.64685,67.79292)" fill="#231f20"/>
<use xlink:href="#font_831_9" transform="matrix(10.5,0,0,-10.5,108.442859,67.782428)" fill="#231f20"/>
<use xlink:href="#font_831_1" transform="matrix(10.5,0,0,-10.5,110.79485,67.698429)" fill="#231f20"/>
</g>
<g id="Layer-1" data-name="P">
<symbol id="font_832_60">
<path d="M 0 0 L 1 0 L 1 .06100002 L 0 .06100002 L 0 0 Z "/>
</symbol>
<use xlink:href="#font_832_60" transform="matrix(10.5,0,0,-10.5,113.7302,65.49342)" fill="#231f20"/>
</g>
<g id="Layer-1" data-name="P">
<symbol id="font_832_94">
<path d="M .02 .512 L .076000008 .512 L .087 .60700008 L .102 .6240001 C .136 .63900008 .169 .64500007 .20300001 .64500007 C .26900003 .64500007 .34300003 .61300006 .34300003 .517 C .34300003 .479 .33100004 .444 .29600004 .416 C .26000003 .38700003 .217 .38300003 .177 .38300003 C .154 .38300003 .128 .38500003 .121999997 .38500003 L .121999997 .32500003 C .152 .33400003 .177 .337 .208 .337 C .263 .337 .37500004 .32700003 .37500004 .19600001 C .37500004 .10400001 .29400004 .050000006 .18800001 .050000006 C .14 .050000006 .111 .060000004 .08400001 .076000008 L .07100001 .093 L .055999999 .208 L 0 .208 L 0 .032 C .09 .0019999995 .169 0 .193 0 C .25200004 0 .34000004 .013 .397 .053000004 C .45300005 .09200001 .47500006 .146 .47500006 .209 C .47500006 .298 .40100003 .365 .3 .37 L .3 .372 C .39200003 .396 .44100005 .462 .44100005 .52700009 C .44100005 .67100009 .31200005 .69500008 .202 .69500008 C .16700001 .69500008 .104 .6930001 .02 .66700008 L .02 .512 Z "/>
</symbol>
<symbol id="font_832_75">
<path d="M .114 .62100008 L .114 .58500006 L .17600002 .58000007 L .19300002 .56200006 C .17500001 .45200003 .13200002 .30900003 .050000006 .186 L 0 .186 L 0 0 L .051000004 0 L .069000009 .124 L .084 .14 L .416 .14 L .43100003 .124 L .449 0 L .5 0 L .5 .186 L .435 .186 L .423 .19600001 L .423 .564 L .44 .58000007 L .49400003 .58500006 L .49400003 .62100008 L .114 .62100008 M .108 .186 C .17500001 .30400003 .22400002 .459 .24500002 .57500007 L .33900003 .57500007 L .33900003 .186 L .108 .186 Z "/>
</symbol>
<symbol id="font_832_80">
<path d="M .411 .11500001 C .33900003 .06600001 .287 .057 .254 .057 C .14 .057 .086 .16300002 .086 .26500003 L .086 .272 L .41000004 .272 C .411 .282 .411 .291 .411 .3 C .411 .46100004 .31 .499 .23200003 .499 C .149 .499 .097 .462 .07000001 .43400003 C .026 .38900004 0 .32200004 0 .24600002 C 0 .10800001 .075 0 .227 0 C .29200004 0 .358 .023000002 .411 .060000004 L .411 .11500001 M .091000009 .314 C .098000008 .38000003 .134 .455 .22 .455 C .279 .455 .30200003 .416 .30800004 .404 C .316 .38900004 .32200004 .35900004 .32200004 .33900003 L .32200004 .314 L .091000009 .314 Z "/>
</symbol>
<symbol id="font_832_7b">
<path d="M .388 .10300001 C .358 .083000008 .312 .060000004 .26000003 .060000004 C .09400001 .060000004 .09200001 .22500001 .09200001 .25800003 C .09200001 .314 .106000009 .374 .13900002 .41300003 C .172 .45200003 .21200001 .45900003 .236 .45900003 C .26000003 .45900003 .27600003 .45200003 .286 .446 L .286 .36400003 C .303 .35300002 .32200004 .35000003 .333 .35000003 C .365 .35000003 .38700003 .372 .38700003 .40500004 C .38700003 .44500003 .351 .499 .24200002 .499 C .095 .499 0 .40500004 0 .24900002 C 0 .091000009 .095 0 .22600001 0 C .26000003 0 .312 .0060000007 .388 .051000004 L .388 .10300001 Z "/>
</symbol>
<symbol id="font_832_72">
<path d="M 0 0 L .25300003 0 C .30100004 0 .43500004 .021000002 .43500004 .14500001 C .43500004 .177 .42600004 .21800001 .38400004 .25100003 C .34 .28500004 .282 .29000003 .23200003 .29000003 C .20400001 .29000003 .18200001 .289 .155 .286 L .155 .42400003 L .172 .44000004 L .22600001 .44500003 L .22600001 .48100005 L 0 .48100005 L 0 .44500003 L .054000006 .44000004 L .071 .42400003 L .071 .057000005 L .054000006 .041 L 0 .036000004 L 0 0 M .155 .238 C .178 .24300002 .19900002 .246 .22600001 .246 C .263 .246 .347 .24300002 .347 .143 C .347 .1 .328 .07700001 .31300003 .066 C .303 .059000005 .27800004 .044000005 .22 .044000005 C .19600001 .044000005 .17500001 .046000005 .155 .05 L .155 .238 Z "/>
</symbol>
<symbol id="font_832_1">
<path d="M 0 0 Z "/>
</symbol>
<symbol id="font_832_78">
<path d="M 0 .48100005 L 0 .44500003 L .054000006 .44000004 L .071 .42400003 L .071 .057000005 L .054000006 .041 L 0 .036000004 L 0 0 L .18800001 0 L .18800001 .036000004 L .14 .041 L .12300001 .057000005 L .12300001 .44000004 L .287 0 L .323 0 L .48500005 .44000004 L .48500005 .057000005 L .46800003 .041 L .42000003 .036000004 L .42000003 0 L .64 0 L .64 .036000004 L .5860001 .041 L .569 .057000005 L .569 .42400003 L .5860001 .44000004 L .64 .44500003 L .64 .48100005 L .446 .48100005 L .446 .45700003 L .32200004 .11400001 L .19800002 .45700003 L .19800002 .48100005 L 0 .48100005 Z "/>
</symbol>
<symbol id="font_832_71">
<path d="M .23400003 .499 C .072000008 .499 0 .37800003 0 .24900002 C 0 .16700001 .029 .109000008 .063 .072000008 C .091000009 .041 .14400001 0 .23200003 0 C .31300003 0 .36600004 .035 .397 .067 C .43500004 .10700001 .46600003 .16800002 .46600003 .24900002 C .46600003 .38700003 .379 .499 .23400003 .499 M .231 .455 C .25300003 .455 .29400004 .45200003 .328 .409 C .36600004 .36 .372 .291 .372 .24900002 C .372 .20400001 .36600004 .15500002 .335 .109000008 C .30400003 .063 .26400004 .044 .23200003 .044 C .19800002 .044 .15100001 .057 .120000008 .12100001 C .10000001 .16300002 .09400001 .21000001 .09400001 .25 C .09400001 .305 .105000007 .36800004 .136 .409 C .16900002 .45200003 .21000001 .455 .231 .455 Z "/>
</symbol>
<symbol id="font_832_89">
<path d="M .26200003 .48100005 L .26200003 .44500003 L .312 .44000004 L .32900004 .42400003 L .32900004 .27 L .29500003 .27 C .24900002 .27 .22000002 .298 .20700002 .33200003 L .178 .40800003 C .165 .44000004 .143 .49 .087000008 .49 C .054 .49 .024 .47000004 .024 .43500004 C .024 .42200003 .029000001 .39800004 .052 .386 L .120000008 .42600004 C .13000001 .41300003 .132 .40600003 .136 .39400003 L .163 .323 C .17 .303 .185 .266 .23200001 .256 L .23200001 .254 C .19800002 .25 .158 .22600001 .126 .15900001 L .07700001 .055000005 L .060000004 .043 L 0 .036000004 L 0 0 L .148 0 L .148 .032 L .19700001 .147 C .21300002 .18400002 .23500002 .22600001 .28300003 .22600001 L .32900004 .22600001 L .32900004 .057000005 L .312 .041 L .26200003 .036000004 L .26200003 0 L .47200004 0 L .47200004 .036000004 L .42200003 .041 L .40500004 .057000005 L .40500004 .22600001 L .45100004 .22600001 C .499 .22600001 .521 .18400002 .537 .147 L .586 .032 L .586 0 L .734 0 L .734 .036000004 L .674 .043 L .657 .055000005 L .60800006 .15900001 C .57600006 .22600001 .536 .25 .50200006 .254 L .50200006 .256 C .549 .266 .564 .303 .57100006 .323 L .59800007 .39400003 C .60200008 .40600003 .60400006 .41300003 .614 .42600004 L .68200007 .386 C .70500007 .39800004 .71000006 .42200003 .71000006 .43500004 C .71000006 .47000004 .68 .49 .647 .49 C .591 .49 .569 .44000004 .55600008 .40800003 L .527 .33200003 C .514 .298 .485 .27 .439 .27 L .40500004 .27 L .40500004 .42400003 L .42200003 .44000004 L .47200004 .44500003 L .47200004 .48100005 L .26200003 .48100005 Z "/>
</symbol>
<symbol id="font_832_77">
<path d="M 0 0 L .22 0 L .22 .036000004 L .172 .041 L .155 .057000005 L .155 .22800002 L .379 .22800002 L .379 .057000005 L .36200003 .041 L .314 .036000004 L .314 0 L .53400006 0 L .53400006 .036000004 L .48000006 .041 L .46300004 .057000005 L .46300004 .42400003 L .48000006 .44000004 L .53400006 .44500003 L .53400006 .48100005 L .314 .48100005 L .314 .44500003 L .36200003 .44000004 L .379 .42400003 L .379 .27400003 L .155 .27400003 L .155 .42400003 L .172 .44000004 L .22 .44500003 L .22 .48100005 L 0 .48100005 L 0 .44500003 L .054000006 .44000004 L .071 .42400003 L .071 .057000005 L .054000006 .041 L 0 .036000004 L 0 0 Z "/>
</symbol>
<symbol id="font_832_85">
<path d="M .006000001 .48100005 L .006000001 .44500003 L .067 .43300004 L .20100002 .238 L .057000005 .045 L 0 .037 L 0 0 L .18900001 0 L .18900001 .037 L .13200002 .044000005 L .12700002 .056 L .22900002 .201 L .32200004 .052 L .31700004 .044000005 L .275 .037 L .275 0 L .488 0 L .488 .037 L .42800004 .045 L .28100003 .259 L .41300003 .43400003 L .46900005 .44500003 L .46900005 .48100005 L .28900004 .48100005 L .28900004 .44500003 L .337 .43800003 L .34500004 .425 L .254 .29700003 L .17000002 .42800004 L .17500001 .43800003 L .22100002 .44500003 L .22100002 .48100005 L .006000001 .48100005 Z "/>
</symbol>
<symbol id="font_832_82">
<path d="M 0 0 L .23600002 0 L .23600002 .036 L .172 .04100001 L .155 .056999998 L .155 .224 C .20600002 .215 .237 .215 .24900003 .215 C .325 .215 .38 .24100001 .419 .279 C .455 .314 .49300004 .37800003 .49300004 .47500003 C .49300004 .63500007 .4 .708 .302 .708 C .264 .708 .22100002 .69900009 .155 .64900007 L .155 .70400008 L .11700001 .70400008 L 0 .66800007 L 0 .637 L .071 .637 L .071 .056999998 L .055000009 .04100001 L 0 .036 L 0 0 M .155 .61200007 C .179 .62600007 .22000002 .64400008 .259 .64400008 C .357 .64400008 .403 .56 .403 .463 C .403 .35400004 .34600003 .259 .22900002 .259 C .21400002 .259 .19000001 .261 .155 .27600003 L .155 .61200007 Z "/>
</symbol>
<symbol id="font_832_8d">
<path d="M 0 0 L .75 0 L .75 .036000004 L .696 .041 L .679 .057000005 L .679 .42400003 L .696 .44000004 L .75 .44500003 L .75 .48100005 L .53200009 .48100005 L .53200009 .44500003 L .57800009 .44000004 L .595 .42400003 L .595 .046000005 L .41700004 .046000005 L .41700004 .42400003 L .43400003 .44000004 L .48000006 .44500003 L .48000006 .48100005 L .27 .48100005 L .27 .44500003 L .316 .44000004 L .333 .42400003 L .333 .046000005 L .155 .046000005 L .155 .42400003 L .172 .44000004 L .21800001 .44500003 L .21800001 .48100005 L 0 .48100005 L 0 .44500003 L .054000006 .44000004 L .071 .42400003 L .071 .057000005 L .054000006 .041 L 0 .036000004 L 0 0 Z "/>
</symbol>
<symbol id="font_832_93">
<path d="M 0 0 L .22 0 L .22 .036000004 L .172 .041 L .155 .057000005 L .155 .43500004 L .36100004 .43500004 L .36100004 .057000005 L .344 .041 L .296 .036000004 L .296 0 L .51600006 0 L .51600006 .036000004 L .462 .041 L .44500003 .057000005 L .44500003 .42400003 L .462 .44000004 L .51600006 .44500003 L .51600006 .48100005 L 0 .48100005 L 0 .44500003 L .054000006 .44000004 L .071 .42400003 L .071 .057000005 L .054000006 .041 L 0 .036000004 L 0 0 Z "/>
</symbol>
<symbol id="font_832_9e">
<path d="M .432 .75500008 C .421 .72700008 .389 .72 .363 .716 L .279 .703 C .187 .689 .09500001 .66200008 .044000005 .531 C .015000001 .45600004 0 .35400004 0 .277 C 0 .19700001 .026000005 0 .23200001 0 C .313 0 .366 .035 .397 .067 C .435 .106000009 .466 .16600001 .466 .255 C .466 .38900004 .389 .499 .251 .499 C .15200001 .499 .10000001 .441 .07100001 .38900004 L .069000009 .38900004 C .07700001 .55700007 .15100001 .601 .24700003 .615 L .341 .628 C .375 .633 .447 .647 .466 .75500008 L .432 .75500008 M .24100001 .455 C .349 .455 .372 .31500004 .372 .252 C .372 .20800002 .367 .15100001 .335 .10300001 C .304 .057 .264 .044 .23200001 .044 C .19800002 .044 .15100001 .057 .120000008 .12100001 C .097 .16800002 .09400001 .22000002 .09400001 .25 C .09400001 .29000003 .10900001 .455 .24100001 .455 Z "/>
</symbol>
<symbol id="font_832_7e">
<path d="M .30600003 .009000001 L .44600005 .009000001 L .44600005 .045 L .39300005 .045 L .37600003 .06600001 L .37600003 .356 C .37600003 .37700004 .37500004 .42800004 .344 .46100004 C .30900003 .49800004 .24800003 .499 .22500003 .499 C .079 .499 .024999999 .43500004 .024999999 .38200004 C .024999999 .358 .044 .356 .056 .356 L .125 .356 L .125 .44000004 C .15 .44900004 .178 .455 .204 .455 C .29700003 .455 .29200004 .38300003 .29200004 .344 L .29200004 .312 C .185 .286 .137 .27 .101 .256 C .053999999 .23700002 0 .20600002 0 .13100001 C 0 .068 .038000004 0 .12799999 0 C .16600001 0 .215 .012 .29200004 .067 L .30600003 .009000001 M .29200004 .10100001 C .22800002 .064 .194 .056 .16800002 .056 C .107 .056 .08800001 .102000009 .08800001 .13900002 C .08800001 .194 .12600002 .21600002 .15799999 .23100002 C .19300002 .24700001 .24900002 .26500003 .29200004 .277 L .29200004 .10100001 Z "/>
</symbol>
<symbol id="font_832_74">
<path d="M .091000009 0 L .349 0 L .349 .036000004 L .279 .041 L .26200003 .057000005 L .26200003 .43500004 L .363 .43500004 L .37800003 .41900004 L .38900004 .335 L .44000004 .335 L .44000004 .48100005 L 0 .48100005 L 0 .335 L .051 .335 L .062 .41900004 L .077 .43500004 L .178 .43500004 L .178 .057000005 L .161 .041 L .091000009 .036000004 L .091000009 0 Z "/>
</symbol>
<use xlink:href="#font_832_94" transform="matrix(10.5,0,0,-10.5,166.2468,55.192773)" fill="#231f20"/>
<use xlink:href="#font_832_75" transform="matrix(10.5,0,0,-10.5,171.6018,56.536775)" fill="#231f20"/>
<use xlink:href="#font_832_80" transform="matrix(10.5,0,0,-10.5,177.49231,55.161275)" fill="#231f20"/>
<use xlink:href="#font_832_7b" transform="matrix(10.5,0,0,-10.5,182.63732,55.161275)" fill="#231f20"/>
<use xlink:href="#font_832_72" transform="matrix(10.5,0,0,-10.5,187.24681,55.066774)" fill="#231f20"/>
<use xlink:href="#font_832_1" transform="matrix(10.5,0,0,-10.5,192.18181,55.066774)" fill="#231f20"/>
<use xlink:href="#font_832_78" transform="matrix(10.5,0,0,-10.5,195.43682,55.066774)" fill="#231f20"/>
<use xlink:href="#font_832_71" transform="matrix(10.5,0,0,-10.5,202.86032,55.161275)" fill="#231f20"/>
<use xlink:href="#font_832_89" transform="matrix(10.5,0,0,-10.5,208.14182,55.066774)" fill="#231f20"/>
<use xlink:href="#font_832_77" transform="matrix(10.5,0,0,-10.5,216.16382,55.066774)" fill="#231f20"/>
<use xlink:href="#font_832_71" transform="matrix(10.5,0,0,-10.5,222.47432,55.161275)" fill="#231f20"/>
<use xlink:href="#font_832_1" transform="matrix(10.5,0,0,-10.5,227.75582,55.066774)" fill="#231f20"/>
<use xlink:href="#font_832_85" transform="matrix(10.5,0,0,-10.5,230.82183,55.066774)" fill="#231f20"/>
<use xlink:href="#font_832_71" transform="matrix(10.5,0,0,-10.5,236.16632,55.161275)" fill="#231f20"/>
<use xlink:href="#font_832_82" transform="matrix(10.5,0,0,-10.5,241.67882,57.355775)" fill="#231f20"/>
<use xlink:href="#font_832_71" transform="matrix(10.5,0,0,-10.5,247.63233,55.161275)" fill="#231f20"/>
<use xlink:href="#font_832_8d" transform="matrix(10.5,0,0,-10.5,253.22882,55.066774)" fill="#231f20"/>
<use xlink:href="#font_832_71" transform="matrix(10.5,0,0,-10.5,261.8073,55.161275)" fill="#231f20"/>
<use xlink:href="#font_832_1" transform="matrix(10.5,0,0,-10.5,267.08885,55.066774)" fill="#231f20"/>
<use xlink:href="#font_832_93" transform="matrix(10.5,0,0,-10.5,270.34385,55.066774)" fill="#231f20"/>
<use xlink:href="#font_832_71" transform="matrix(10.5,0,0,-10.5,276.46534,55.161275)" fill="#231f20"/>
<use xlink:href="#font_832_71" transform="matrix(10.5,0,0,-10.5,282.13536,55.161275)" fill="#231f20"/>
<use xlink:href="#font_832_9e" transform="matrix(10.5,0,0,-10.5,287.86839,55.161275)" fill="#231f20"/>
<use xlink:href="#font_832_80" transform="matrix(10.5,0,0,-10.5,293.53837,55.161275)" fill="#231f20"/>
<use xlink:href="#font_832_75" transform="matrix(10.5,0,0,-10.5,298.18986,56.536775)" fill="#231f20"/>
<use xlink:href="#font_832_7e" transform="matrix(10.5,0,0,-10.5,304.13288,55.161275)" fill="#231f20"/>
<use xlink:href="#font_832_74" transform="matrix(10.5,0,0,-10.5,309.17286,55.066774)" fill="#231f20"/>
<use xlink:href="#font_832_72" transform="matrix(10.5,0,0,-10.5,314.27586,55.066774)" fill="#231f20"/>
</g>
<g id="Layer-1" data-name="P">
<use xlink:href="#font_831_31" transform="matrix(10.5,0,0,-10.5,50.9081,85.09558)" fill="#231f20"/>
<use xlink:href="#font_831_43" transform="matrix(10.5,0,0,-10.5,57.145105,85.19008)" fill="#231f20"/>
<use xlink:href="#font_831_49" transform="matrix(10.5,0,0,-10.5,63.161603,85.19008)" fill="#231f20"/>
<use xlink:href="#font_831_1" transform="matrix(10.5,0,0,-10.5,69.2096,85.09558)" fill="#231f20"/>
<use xlink:href="#font_831_37" transform="matrix(10.5,0,0,-10.5,72.5381,85.19008)" fill="#231f20"/>
<use xlink:href="#font_831_35" transform="matrix(10.5,0,0,-10.5,77.5571,85.19008)" fill="#231f20"/>
<use xlink:href="#font_831_42" transform="matrix(10.5,0,0,-10.5,83.1326,85.09558)" fill="#231f20"/>
<use xlink:href="#font_831_1" transform="matrix(10.5,0,0,-10.5,89.1701,85.09558)" fill="#231f20"/>
<use xlink:href="#font_831_3b" transform="matrix(10.5,0,0,-10.5,92.4671,87.374088)" fill="#231f20"/>
<use xlink:href="#font_831_39" transform="matrix(10.5,0,0,-10.5,98.284099,85.19008)" fill="#231f20"/>
<use xlink:href="#font_831_48" transform="matrix(10.5,0,0,-10.5,103.5971,85.14808)" fill="#231f20"/>
<use xlink:href="#font_831_1" transform="matrix(10.5,0,0,-10.5,107.146099,85.09558)" fill="#231f20"/>
</g>
<g id="Layer-1" data-name="P">
<g id="Layer-2" data-name="Span">
</g>
<symbol id="font_831_4d">
<path d="M 0 .70600005 L 0 .661 L .060000004 .653 L .238 .20700002 C .21700001 .157 .19500001 .11400001 .16 .08500001 L .07300001 .14500001 C .052 .135 .021000002 .113000009 .021000002 .075 C .021000002 .023000002 .075 0 .105000007 0 C .131 0 .17 .009000003 .214 .05600001 C .245 .09 .27400003 .13700001 .293 .18400002 L .48600004 .653 L .54 .661 L .54 .70600005 L .34800003 .70600005 L .34800003 .661 L .40100003 .656 L .41000004 .64100006 L .30100004 .35900004 L .193 .642 L .20300001 .656 L .254 .661 L .254 .70600005 L 0 .70600005 Z "/>
</symbol>
<symbol id="font_831_4b">
<path d="M 0 .48700003 L 0 .44200004 L .060000004 .43500004 L .18900001 0 L .289 0 L .408 .35900004 L .519 0 L .62 0 L .75600007 .43400003 L .81200006 .44200004 L .81200006 .48700003 L .623 .48700003 L .623 .44200004 L .676 .43500004 L .683 .42100004 L .595 .132 L .486 .48700003 L .386 .48700003 L .269 .132 L .18800001 .42000003 L .19900002 .43400003 L .24800001 .44200004 L .24800001 .48700003 L 0 .48700003 Z "/>
</symbol>
<use xlink:href="#font_831_3d" transform="matrix(10.5,0,0,-10.5,51.3176,97.69568)" fill="#231f20"/>
<use xlink:href="#font_831_48" transform="matrix(10.5,0,0,-10.5,54.415105,97.74818)" fill="#231f20"/>
<use xlink:href="#font_831_1" transform="matrix(10.5,0,0,-10.5,57.964105,97.69568)" fill="#231f20"/>
<use xlink:href="#font_831_35" transform="matrix(10.5,0,0,-10.5,61.292604,97.79018)" fill="#231f20"/>
<use xlink:href="#font_831_42" transform="matrix(10.5,0,0,-10.5,66.8681,97.69568)" fill="#231f20"/>
<use xlink:href="#font_831_4d" transform="matrix(10.5,0,0,-10.5,72.8636,99.99518)" fill="#231f20"/>
<use xlink:href="#font_831_4b" transform="matrix(10.5,0,0,-10.5,78.302608,97.69568)" fill="#231f20"/>
<use xlink:href="#font_831_3c" transform="matrix(10.5,0,0,-10.5,86.954608,97.69568)" fill="#231f20"/>
<use xlink:href="#font_831_39" transform="matrix(10.5,0,0,-10.5,93.433109,97.79018)" fill="#231f20"/>
<use xlink:href="#font_831_46" transform="matrix(10.5,0,0,-10.5,98.79861,97.69568)" fill="#231f20"/>
<use xlink:href="#font_831_39" transform="matrix(10.5,0,0,-10.5,103.355609,97.79018)" fill="#231f20"/>
<use xlink:href="#font_831_9" transform="matrix(10.5,0,0,-10.5,109.15161,97.77968)" fill="#231f20"/>
<use xlink:href="#font_831_1" transform="matrix(10.5,0,0,-10.5,111.50361,97.69568)" fill="#231f20"/>
</g>
<g id="Layer-1" data-name="P">
<use xlink:href="#font_832_60" transform="matrix(10.5,0,0,-10.5,114.4338,95.49068)" fill="#231f20"/>
</g>
<g id="Layer-1" data-name="P">
<g id="Layer-2" data-name="Span">
</g>
<symbol id="font_832_88">
<path d="M 0 .671 L 0 .63000008 L .057000005 .625 L .07400001 .611 L .07400001 .060000004 L .057000005 .046000005 L 0 .041 L 0 0 L .26400004 0 C .316 0 .40200005 .006 .46100004 .053000004 C .51600006 .096 .526 .149 .526 .192 C .526 .24700001 .50900009 .294 .46200005 .324 C .42500005 .347 .37100003 .35500003 .33900003 .356 L .33900003 .358 C .36800004 .365 .41200004 .381 .43800003 .404 C .47500003 .43500004 .48400004 .47400005 .48400004 .513 C .48400004 .565 .46600003 .611 .41100005 .64100006 C .36900003 .66400006 .30400003 .671 .25500003 .671 L 0 .671 M .164 .624 C .169 .624 .19800002 .62700006 .22600001 .62700006 C .29200004 .62700006 .38600005 .60700008 .38600005 .503 C .38600005 .43300004 .34300003 .36600004 .201 .36600004 C .18900001 .36600004 .17700002 .36600004 .164 .367 L .164 .624 M .164 .317 C .185 .319 .23300001 .323 .261 .323 C .28900004 .323 .351 .321 .38900004 .287 C .42200003 .257 .42600004 .21700001 .42600004 .19000001 C .42600004 .051000004 .30500005 .046000005 .23700002 .046000005 C .213 .046000005 .19 .047000003 .164 .05 L .164 .317 Z "/>
</symbol>
<symbol id="font_832_87">
<path d="M 0 0 L .243 0 C .291 0 .425 .021000002 .425 .14500001 C .425 .26500003 .30900003 .29000003 .22600001 .29000003 C .2 .29000003 .18 .289 .155 .286 L .155 .42400003 L .172 .44000004 L .22600001 .44500003 L .22600001 .48100005 L 0 .48100005 L 0 .44500003 L .054000006 .44000004 L .071 .42400003 L .071 .057000005 L .054000006 .041 L 0 .036000004 L 0 0 M .155 .238 C .17600002 .24400002 .19500001 .246 .21900001 .246 C .25800003 .246 .34100003 .24300002 .34100003 .143 C .34100003 .042000005 .24700001 .044000005 .21400002 .044000005 C .193 .044000005 .17300001 .046000005 .155 .05 L .155 .238 M .43 .44500003 L .484 .44000004 L .50100007 .42400003 L .50100007 .057000005 L .484 .041 L .43 .036000004 L .43 0 L .656 0 L .656 .036000004 L .602 .041 L .58500006 .057000005 L .58500006 .42400003 L .602 .44000004 L .656 .44500003 L .656 .48100005 L .43 .48100005 L .43 .44500003 Z "/>
</symbol>
<symbol id="font_832_7f">
<path d="M 0 .48100005 L 0 .44500003 L .054000006 .44000004 L .071 .42400003 L .071 .057000005 L .054000006 .041 L 0 .036000004 L 0 0 L .25300003 0 C .294 0 .344 .004 .38700003 .033 C .432 .063 .44400005 .105000007 .44400005 .13700001 C .44400005 .22100002 .377 .25 .32200004 .25500003 L .32200004 .257 C .377 .27100004 .418 .314 .418 .372 C .418 .43 .386 .48100005 .24800003 .48100005 L 0 .48100005 M .155 .43500004 C .18200001 .441 .20500002 .44300003 .23000002 .44300003 C .277 .44300003 .33600004 .42800004 .33600004 .35700003 C .33600004 .272 .25300003 .268 .21000001 .268 C .18800001 .268 .17400001 .26900003 .155 .27100004 L .155 .43500004 M .155 .22900002 C .178 .23200001 .20400001 .23400001 .231 .23400001 C .25800003 .23400001 .29500003 .23300001 .321 .216 C .35300002 .19500001 .358 .163 .358 .13700001 C .358 .063 .289 .038000004 .231 .038000004 C .202 .038000004 .18100001 .040000004 .155 .046000005 L .155 .22900002 Z "/>
</symbol>
<symbol id="font_832_8a">
<path d="M .155 .28300003 L .155 .43300004 L .172 .44900004 L .22 .45400004 L .22 .49000005 L 0 .49000005 L 0 .45400004 L .054000006 .44900004 L .071 .43300004 L .071 .06600001 L .054000006 .05 L 0 .045 L 0 .009000001 L .22 .009000001 L .22 .045 L .172 .05 L .155 .06600001 L .155 .23700002 L .26900003 .23700002 C .27100004 .10300001 .35200004 0 .493 0 C .62100008 0 .725 .09600001 .725 .24900002 C .725 .32500003 .697 .39100004 .65400007 .43500004 C .625 .46400003 .57500007 .499 .49500004 .499 C .363 .499 .28 .402 .26900003 .28300003 L .155 .28300003 M .492 .455 C .526 .455 .564 .43800003 .58800008 .40800003 C .59800007 .39600004 .63100007 .351 .63100007 .24900002 C .63100007 .19500001 .61100009 .044 .493 .044 C .47100006 .044 .41700004 .05 .38300003 .11900001 C .36 .16600001 .35700003 .21900001 .35700003 .25 C .35700003 .35200004 .39600004 .455 .492 .455 Z "/>
</symbol>
<symbol id="font_832_83">
<path d="M 0 .69900009 L 0 .66300007 L .061 .656 L .23000002 .222 C .21000001 .171 .18900001 .116000007 .149 .072 L .053 .11000001 C .032 .094000007 .027 .07000001 .027 .056999998 C .027 .026000008 .051 0 .095000009 0 C .14600002 0 .17700002 .032000007 .19700001 .059 C .20700002 .072 .23000002 .105000007 .256 .16800002 L .456 .65400007 L .514 .66300007 L .514 .69900009 L .336 .69900009 L .336 .66300007 L .39000003 .65800008 L .398 .642 L .273 .33100004 L .15300001 .642 L .165 .65800008 L .21800001 .66300007 L .21800001 .69900009 L 0 .69900009 Z "/>
</symbol>
<symbol id="font_832_8e">
<path d="M .105000007 .28300003 L .105000007 .23500002 L .31100003 .23500002 L .31100003 .22900002 C .31100003 .11600001 .256 .044 .15900001 .044 C .133 .044 .09900001 .049000004 .062000008 .06600001 L .048 .15100001 L 0 .15100001 L 0 .021000002 C .068 .0010000002 .13000001 0 .155 0 C .21000001 0 .273 .012 .32700003 .064 C .374 .109000008 .40500004 .17700002 .40500004 .259 C .40500004 .448 .259 .499 .165 .499 C .087000008 .499 .034 .485 .010000002 .47800002 L .010000002 .365 L .058000007 .365 L .069000009 .43600003 C .105000007 .45200003 .13900002 .455 .15900001 .455 C .26900003 .455 .307 .372 .31100003 .28300003 L .105000007 .28300003 Z "/>
</symbol>
<symbol id="font_832_b">
<path d="M 0 .064 C 0 .030000002 .030000002 0 .063999999 0 C .098000008 0 .128 .030000002 .128 .064 C .128 .098000008 .098000008 .128 .063999999 .128 C .030000002 .128 0 .098000008 0 .064 Z "/>
</symbol>
<use xlink:href="#font_832_88" transform="matrix(10.5,0,0,-10.5,166.1733,85.06409)" fill="#231f20"/>
<use xlink:href="#font_832_87" transform="matrix(10.5,0,0,-10.5,172.4838,85.06409)" fill="#231f20"/>
<use xlink:href="#font_832_1" transform="matrix(10.5,0,0,-10.5,179.6868,85.06409)" fill="#231f20"/>
<use xlink:href="#font_832_78" transform="matrix(10.5,0,0,-10.5,182.9418,85.06409)" fill="#231f20"/>
<use xlink:href="#font_832_71" transform="matrix(10.5,0,0,-10.5,190.36531,85.158588)" fill="#231f20"/>
<use xlink:href="#font_832_89" transform="matrix(10.5,0,0,-10.5,195.6468,85.06409)" fill="#231f20"/>
<use xlink:href="#font_832_80" transform="matrix(10.5,0,0,-10.5,203.74231,85.158588)" fill="#231f20"/>
<use xlink:href="#font_832_74" transform="matrix(10.5,0,0,-10.5,208.66681,85.06409)" fill="#231f20"/>
<use xlink:href="#font_832_80" transform="matrix(10.5,0,0,-10.5,213.8433,85.158588)" fill="#231f20"/>
<use xlink:href="#font_832_1" transform="matrix(10.5,0,0,-10.5,218.59981,85.06409)" fill="#231f20"/>
<use xlink:href="#font_832_7f" transform="matrix(10.5,0,0,-10.5,221.85482,85.06409)" fill="#231f20"/>
<use xlink:href="#font_832_7b" transform="matrix(10.5,0,0,-10.5,227.49332,85.158588)" fill="#231f20"/>
<use xlink:href="#font_832_8a" transform="matrix(10.5,0,0,-10.5,232.10282,85.158588)" fill="#231f20"/>
<use xlink:href="#font_832_75" transform="matrix(10.5,0,0,-10.5,239.7888,86.53409)" fill="#231f20"/>
<use xlink:href="#font_832_83" transform="matrix(10.5,0,0,-10.5,245.2803,87.35309)" fill="#231f20"/>
<use xlink:href="#font_832_1" transform="matrix(10.5,0,0,-10.5,250.49881,85.06409)" fill="#231f20"/>
<use xlink:href="#font_832_8e" transform="matrix(10.5,0,0,-10.5,253.74857,85.158588)" fill="#231f20"/>
<use xlink:href="#font_832_74" transform="matrix(10.5,0,0,-10.5,258.55757,85.06409)" fill="#231f20"/>
<use xlink:href="#font_832_71" transform="matrix(10.5,0,0,-10.5,263.73405,85.158588)" fill="#231f20"/>
<use xlink:href="#font_832_1" transform="matrix(10.5,0,0,-10.5,269.01557,85.06409)" fill="#231f20"/>
<use xlink:href="#font_832_75" transform="matrix(10.5,0,0,-10.5,271.85057,86.53409)" fill="#231f20"/>
<use xlink:href="#font_832_71" transform="matrix(10.5,0,0,-10.5,277.74107,85.158588)" fill="#231f20"/>
<use xlink:href="#font_832_7b" transform="matrix(10.5,0,0,-10.5,283.41108,85.158588)" fill="#231f20"/>
<use xlink:href="#font_832_74" transform="matrix(10.5,0,0,-10.5,288.0836,85.06409)" fill="#231f20"/>
<use xlink:href="#font_832_7e" transform="matrix(10.5,0,0,-10.5,293.3126,85.158588)" fill="#231f20"/>
<use xlink:href="#font_832_74" transform="matrix(10.5,0,0,-10.5,298.35258,85.06409)" fill="#231f20"/>
<use xlink:href="#font_832_72" transform="matrix(10.5,0,0,-10.5,303.45558,85.06409)" fill="#231f20"/>
<use xlink:href="#font_832_b" transform="matrix(10.5,0,0,-10.5,309.18858,85.158588)" fill="#231f20"/>
</g>
<g id="Layer-1" data-name="P">
<g id="Layer-2" data-name="Span">
</g>
<g id="Layer-2" data-name="Span">
</g>
<use xlink:href="#font_831_31" transform="matrix(10.5,0,0,-10.5,50.9081,115.09302)" fill="#231f20"/>
<use xlink:href="#font_831_43" transform="matrix(10.5,0,0,-10.5,57.145105,115.187519)" fill="#231f20"/>
<use xlink:href="#font_831_49" transform="matrix(10.5,0,0,-10.5,63.161603,115.187519)" fill="#231f20"/>
<use xlink:href="#font_831_1" transform="matrix(10.5,0,0,-10.5,69.2096,115.09302)" fill="#231f20"/>
<use xlink:href="#font_831_37" transform="matrix(10.5,0,0,-10.5,72.5381,115.187519)" fill="#231f20"/>
<use xlink:href="#font_831_35" transform="matrix(10.5,0,0,-10.5,77.5571,115.187519)" fill="#231f20"/>
<use xlink:href="#font_831_42" transform="matrix(10.5,0,0,-10.5,83.1326,115.09302)" fill="#231f20"/>
<use xlink:href="#font_831_1" transform="matrix(10.5,0,0,-10.5,89.1701,115.09302)" fill="#231f20"/>
<use xlink:href="#font_831_3b" transform="matrix(10.5,0,0,-10.5,92.4671,117.37152)" fill="#231f20"/>
<use xlink:href="#font_831_39" transform="matrix(10.5,0,0,-10.5,98.284099,115.187519)" fill="#231f20"/>
<use xlink:href="#font_831_48" transform="matrix(10.5,0,0,-10.5,103.5971,115.145519)" fill="#231f20"/>
<use xlink:href="#font_831_1" transform="matrix(10.5,0,0,-10.5,107.146099,115.09302)" fill="#231f20"/>
<use xlink:href="#font_831_3d" transform="matrix(10.5,0,0,-10.5,110.37485,115.09302)" fill="#231f20"/>
<use xlink:href="#font_831_48" transform="matrix(10.5,0,0,-10.5,113.47235,115.145519)" fill="#231f20"/>
<use xlink:href="#font_831_1" transform="matrix(10.5,0,0,-10.5,117.02135,115.09302)" fill="#231f20"/>
<use xlink:href="#font_831_3d" transform="matrix(10.5,0,0,-10.5,120.25535,115.09302)" fill="#231f20"/>
<use xlink:href="#font_831_42" transform="matrix(10.5,0,0,-10.5,123.44735,115.09302)" fill="#231f20"/>
<use xlink:href="#font_831_1" transform="matrix(10.5,0,0,-10.5,129.48485,115.09302)" fill="#231f20"/>
<use xlink:href="#font_831_35" transform="matrix(10.5,0,0,-10.5,132.7976,115.187519)" fill="#231f20"/>
<use xlink:href="#font_831_42" transform="matrix(10.5,0,0,-10.5,138.37311,115.09302)" fill="#231f20"/>
<use xlink:href="#font_831_4d" transform="matrix(10.5,0,0,-10.5,144.36859,117.39252)" fill="#231f20"/>
<use xlink:href="#font_831_1" transform="matrix(10.5,0,0,-10.5,149.8181,115.09302)" fill="#231f20"/>
</g>
<g id="Layer-1" data-name="P">
<symbol id="font_831_47">
<path d="M .354 .48400004 C .294 .504 .24000001 .508 .206 .508 C .136 .508 .0069999995 .47800002 .0069999995 .36 C .0069999995 .28300003 .06600001 .25100003 .16600001 .20600002 C .24200002 .172 .25100003 .15500002 .25100003 .127 C .25100003 .08200001 .23000002 .054 .162 .054 C .14500001 .054 .117000009 .057 .082 .07400001 L .072000008 .08500001 L .061000006 .171 L 0 .171 L 0 .023000002 C .06600001 .0050000005 .12900001 0 .162 0 C .323 0 .36900003 .08400001 .36900003 .16200002 C .36900003 .18400002 .367 .20400001 .34800003 .22700002 C .33200003 .24600002 .305 .26500003 .229 .30200003 C .14700002 .34300003 .13 .363 .13 .39000003 C .13 .44300003 .17500001 .45400004 .20500002 .45400004 C .22 .45400004 .24200002 .45200003 .272 .43700005 L .284 .42600004 L .294 .351 L .354 .351 L .354 .48400004 Z "/>
</symbol>
<symbol id="font_831_44">
<path d="M 0 0 L .268 0 L .268 .045 L .20600002 .045 L .19100002 .06300001 L .19100002 .223 C .223 .21900001 .254 .21700001 .27400003 .21700001 C .36 .21700001 .42700003 .24800001 .47000004 .29400004 C .503 .32900004 .537 .388 .537 .48000003 C .537 .65900006 .418 .717 .35000003 .717 C .298 .717 .252 .69600006 .19100002 .65400007 L .19100002 .71400007 L .14600002 .71400007 L 0 .66700008 L 0 .62700006 L .068 .62700006 L .068 .065 L .054000006 .049999998 L 0 .045 L 0 0 M .19100002 .61200007 C .23300001 .63000008 .26200003 .63100007 .272 .63100007 C .319 .63100007 .34800003 .61 .365 .591 C .381 .573 .40300004 .535 .40300004 .463 C .40300004 .34500004 .34100003 .27100004 .252 .27100004 C .22100002 .27100004 .20500002 .27400003 .19100002 .278 L .19100002 .61200007 Z "/>
</symbol>
<use xlink:href="#font_831_47" transform="matrix(10.5,0,0,-10.5,51.4541,127.78749)" fill="#231f20"/>
<use xlink:href="#font_831_3c" transform="matrix(10.5,0,0,-10.5,55.9691,127.69299)" fill="#231f20"/>
<use xlink:href="#font_831_43" transform="matrix(10.5,0,0,-10.5,62.4476,127.78749)" fill="#231f20"/>
<use xlink:href="#font_831_44" transform="matrix(10.5,0,0,-10.5,68.4326,129.982)" fill="#231f20"/>
<use xlink:href="#font_831_9" transform="matrix(10.5,0,0,-10.5,75.0686,127.77699)" fill="#231f20"/>
<use xlink:href="#font_831_1" transform="matrix(10.5,0,0,-10.5,77.4206,127.69299)" fill="#231f20"/>
</g>
<g id="Layer-1" data-name="P">
<use xlink:href="#font_832_60" transform="matrix(10.5,0,0,-10.5,80.3558,125.48799)" fill="#231f20"/>
</g>
<g id="Layer-1" data-name="P">
<g id="Layer-2" data-name="Span">
</g>
<symbol id="font_832_8f">
<path d="M 0 .193 L 0 .035000005 C .091000009 .0029999996 .164 0 .206 0 C .38200004 0 .549 .106000009 .549 .34800003 C .549 .47500003 .497 .563 .44200004 .61200007 C .386 .66200008 .30100004 .69500008 .194 .69500008 C .142 .69500008 .076000008 .68700006 .0059999974 .6610001 L .0059999974 .507 L .062000004 .507 L .07700001 .59800007 L .09 .61600008 C .120000008 .63100007 .15500002 .6420001 .201 .6420001 C .37300004 .6420001 .43800003 .51500007 .44400005 .38000003 L .15400002 .38000003 L .15400002 .33400003 L .44400005 .33400003 C .44400005 .26700003 .423 .186 .38200004 .133 C .333 .069000009 .27 .053000004 .19600001 .053000004 C .15300001 .053000004 .12400001 .057000005 .09400001 .066 L .07800001 .082 L .055999999 .193 L 0 .193 Z "/>
</symbol>
<symbol id="font_832_73">
<path d="M .11000001 .49000005 L .11000001 .45400004 L .172 .44900004 L .18900001 .43100003 C .187 .374 .179 .296 .167 .23500002 C .147 .13800001 .12200001 .095000009 .09900001 .067 L .036000004 .109000008 C .012000001 .09700001 0 .075 0 .052 C 0 .037 .011000001 0 .055 0 C .095000009 0 .124000009 .023000002 .142 .044 C .163 .068 .192 .11500001 .214 .21400002 C .229 .282 .238 .37100003 .24100001 .44400005 L .35100005 .44400005 L .35100005 .06600001 L .33400003 .05 L .286 .045 L .286 .009000001 L .50600007 .009000001 L .50600007 .045 L .45200003 .05 L .43500004 .06600001 L .43500004 .43300004 L .45200003 .44900004 L .50600007 .45400004 L .50600007 .49000005 L .11000001 .49000005 Z "/>
</symbol>
<symbol id="font_832_6a">
<path d="M 0 0 L .24200002 0 L .24200002 .036000004 L .172 .041 L .155 .057000005 L .155 .43500004 L .314 .43500004 L .32900004 .41900004 L .34300003 .316 L .39400003 .316 L .39400003 .48100005 L 0 .48100005 L 0 .44500003 L .054000006 .44000004 L .071 .42400003 L .071 .057000005 L .054000006 .041 L 0 .036000004 L 0 0 Z "/>
</symbol>
<symbol id="font_832_79">
<path d="M .10800001 .23100002 C .11500001 .23200001 .148 .23500002 .16700001 .23500002 C .19500001 .23500002 .27400003 .23200001 .27400003 .143 C .27400003 .067 .215 .044 .155 .044 C .13100001 .044 .097 .048 .062000008 .06600001 L .048 .15100001 L 0 .15100001 L 0 .021000002 C .033 .012 .08800001 0 .157 0 C .24200002 0 .36600004 .024 .36600004 .14500001 C .36600004 .23700002 .291 .261 .24100003 .26500003 L .24100003 .26700003 C .303 .28100003 .344 .326 .344 .379 C .344 .49100004 .231 .499 .16600001 .499 C .13900002 .499 .091000009 .49700005 .02 .47800002 L .02 .365 L .068 .365 L .079 .43600003 C .10900001 .45000003 .13800001 .455 .163 .455 C .193 .455 .25800003 .44700004 .25800003 .36900003 C .25800003 .28500004 .19000001 .279 .15400002 .279 C .13700001 .279 .12200001 .28000004 .10800001 .282 L .10800001 .23100002 Z "/>
</symbol>
<symbol id="font_832_7a">
<path d="M 0 0 L .22 0 L .22 .036000004 L .172 .041 L .155 .057000005 L .155 .089 L .38700003 .33800004 L .38700003 .057000005 L .37 .041 L .32200004 .036000004 L .32200004 0 L .54200008 0 L .54200008 .036000004 L .488 .041 L .47100006 .057000005 L .47100006 .42400003 L .488 .44000004 L .54200008 .44500003 L .54200008 .48100005 L .32200004 .48100005 L .32200004 .44500003 L .37 .44000004 L .38700003 .42400003 L .38700003 .4 L .155 .15100001 L .155 .42400003 L .172 .44000004 L .22 .44500003 L .22 .48100005 L 0 .48100005 L 0 .44500003 L .054000006 .44000004 L .071 .42400003 L .071 .057000005 L .054000006 .041 L 0 .036000004 L 0 0 Z "/>
</symbol>
<use xlink:href="#font_832_8f" transform="matrix(10.5,0,0,-10.5,166.2888,115.1874)" fill="#231f20"/>
<use xlink:href="#font_832_74" transform="matrix(10.5,0,0,-10.5,172.67279,115.0614)" fill="#231f20"/>
<use xlink:href="#font_832_71" transform="matrix(10.5,0,0,-10.5,177.84929,115.1559)" fill="#231f20"/>
<use xlink:href="#font_832_1" transform="matrix(10.5,0,0,-10.5,183.13079,115.0614)" fill="#231f20"/>
<use xlink:href="#font_832_78" transform="matrix(10.5,0,0,-10.5,186.38579,115.0614)" fill="#231f20"/>
<use xlink:href="#font_832_71" transform="matrix(10.5,0,0,-10.5,193.8093,115.1559)" fill="#231f20"/>
<use xlink:href="#font_832_89" transform="matrix(10.5,0,0,-10.5,199.09079,115.0614)" fill="#231f20"/>
<use xlink:href="#font_832_77" transform="matrix(10.5,0,0,-10.5,207.1128,115.0614)" fill="#231f20"/>
<use xlink:href="#font_832_71" transform="matrix(10.5,0,0,-10.5,213.4233,115.1559)" fill="#231f20"/>
<use xlink:href="#font_832_1" transform="matrix(10.5,0,0,-10.5,218.70479,115.0614)" fill="#231f20"/>
<use xlink:href="#font_832_75" transform="matrix(10.5,0,0,-10.5,221.5398,116.5314)" fill="#231f20"/>
<use xlink:href="#font_832_71" transform="matrix(10.5,0,0,-10.5,227.4303,115.1559)" fill="#231f20"/>
<use xlink:href="#font_832_7b" transform="matrix(10.5,0,0,-10.5,233.1003,115.1559)" fill="#231f20"/>
<use xlink:href="#font_832_74" transform="matrix(10.5,0,0,-10.5,237.7728,115.0614)" fill="#231f20"/>
<use xlink:href="#font_832_7e" transform="matrix(10.5,0,0,-10.5,243.00179,115.1559)" fill="#231f20"/>
<use xlink:href="#font_832_74" transform="matrix(10.5,0,0,-10.5,248.0418,115.0614)" fill="#231f20"/>
<use xlink:href="#font_832_72" transform="matrix(10.5,0,0,-10.5,253.14479,115.0614)" fill="#231f20"/>
<use xlink:href="#font_832_1" transform="matrix(10.5,0,0,-10.5,258.07978,115.0614)" fill="#231f20"/>
<use xlink:href="#font_832_7f" transform="matrix(10.5,0,0,-10.5,261.32954,115.0614)" fill="#231f20"/>
<use xlink:href="#font_832_1" transform="matrix(10.5,0,0,-10.5,266.36955,115.0614)" fill="#231f20"/>
<use xlink:href="#font_832_73" transform="matrix(10.5,0,0,-10.5,269.09956,115.1559)" fill="#231f20"/>
<use xlink:href="#font_832_8a" transform="matrix(10.5,0,0,-10.5,275.04255,115.1559)" fill="#231f20"/>
<use xlink:href="#font_832_9e" transform="matrix(10.5,0,0,-10.5,283.49507,115.1559)" fill="#231f20"/>
<use xlink:href="#font_832_71" transform="matrix(10.5,0,0,-10.5,289.16505,115.1559)" fill="#231f20"/>
<use xlink:href="#font_832_78" transform="matrix(10.5,0,0,-10.5,294.76158,115.0614)" fill="#231f20"/>
<use xlink:href="#font_832_1" transform="matrix(10.5,0,0,-10.5,301.79658,115.0614)" fill="#231f20"/>
<use xlink:href="#font_832_78" transform="matrix(10.5,0,0,-10.5,305.05158,115.0614)" fill="#231f20"/>
<use xlink:href="#font_832_7e" transform="matrix(10.5,0,0,-10.5,312.5276,115.1559)" fill="#231f20"/>
<use xlink:href="#font_832_6a" transform="matrix(10.5,0,0,-10.5,317.71458,115.0614)" fill="#231f20"/>
<use xlink:href="#font_832_7e" transform="matrix(10.5,0,0,-10.5,322.46058,115.1559)" fill="#231f20"/>
<use xlink:href="#font_832_79" transform="matrix(10.5,0,0,-10.5,327.64756,115.1559)" fill="#231f20"/>
<use xlink:href="#font_832_7a" transform="matrix(10.5,0,0,-10.5,332.12055,115.0614)" fill="#231f20"/>
<use xlink:href="#font_832_77" transform="matrix(10.5,0,0,-10.5,338.44157,115.0614)" fill="#231f20"/>
<use xlink:href="#font_832_80" transform="matrix(10.5,0,0,-10.5,344.75205,115.1559)" fill="#231f20"/>
<use xlink:href="#font_832_b" transform="matrix(10.5,0,0,-10.5,350.30656,115.1559)" fill="#231f20"/>
</g>
<g id="Layer-1" data-name="P">
<symbol id="font_831_4a">
<path d="M 0 .48700003 L 0 .44200004 L .060000004 .43500004 L .22000002 0 L .31000004 0 L .48200003 .43400003 L .54 .44200004 L .54 .48700003 L .35000003 .48700003 L .35000003 .44200004 L .40100003 .43600003 L .40900005 .42200003 L .29500003 .13100001 L .191 .423 L .202 .43600003 L .254 .44200004 L .254 .48700003 L 0 .48700003 Z "/>
</symbol>
<symbol id="font_831_40">
<path d="M 0 0 L .26700003 0 L .26700003 .045 L .21000001 .05 L .19500001 .064 L .19500001 .739 L .15100001 .739 L 0 .69100007 L 0 .652 L .072 .652 L .072 .064 L .058000003 .05 L 0 .045 L 0 0 Z "/>
</symbol>
<use xlink:href="#font_831_31" transform="matrix(10.5,0,0,-10.5,50.9081,145.09021)" fill="#231f20"/>
<use xlink:href="#font_831_43" transform="matrix(10.5,0,0,-10.5,57.145105,145.18471)" fill="#231f20"/>
<use xlink:href="#font_831_49" transform="matrix(10.5,0,0,-10.5,63.161603,145.18471)" fill="#231f20"/>
<use xlink:href="#font_831_1" transform="matrix(10.5,0,0,-10.5,69.2096,145.09021)" fill="#231f20"/>
<use xlink:href="#font_831_42" transform="matrix(10.5,0,0,-10.5,72.4436,145.09021)" fill="#231f20"/>
<use xlink:href="#font_831_39" transform="matrix(10.5,0,0,-10.5,78.8696,145.18471)" fill="#231f20"/>
<use xlink:href="#font_831_4a" transform="matrix(10.5,0,0,-10.5,83.9201,145.09021)" fill="#231f20"/>
<use xlink:href="#font_831_39" transform="matrix(10.5,0,0,-10.5,89.758098,145.18471)" fill="#231f20"/>
<use xlink:href="#font_831_46" transform="matrix(10.5,0,0,-10.5,95.1236,145.09021)" fill="#231f20"/>
<use xlink:href="#font_831_1" transform="matrix(10.5,0,0,-10.5,99.2921,145.09021)" fill="#231f20"/>
<use xlink:href="#font_831_37" transform="matrix(10.5,0,0,-10.5,102.6206,145.18471)" fill="#231f20"/>
<use xlink:href="#font_831_35" transform="matrix(10.5,0,0,-10.5,107.639598,145.18471)" fill="#231f20"/>
<use xlink:href="#font_831_42" transform="matrix(10.5,0,0,-10.5,113.215099,145.09021)" fill="#231f20"/>
<use xlink:href="#font_831_1" transform="matrix(10.5,0,0,-10.5,119.252597,145.09021)" fill="#231f20"/>
<use xlink:href="#font_831_48" transform="matrix(10.5,0,0,-10.5,122.3921,145.14272)" fill="#231f20"/>
<use xlink:href="#font_831_39" transform="matrix(10.5,0,0,-10.5,126.32959,145.18471)" fill="#231f20"/>
<use xlink:href="#font_831_40" transform="matrix(10.5,0,0,-10.5,131.6951,145.09021)" fill="#231f20"/>
<use xlink:href="#font_831_40" transform="matrix(10.5,0,0,-10.5,134.8766,145.09021)" fill="#231f20"/>
<use xlink:href="#font_831_9" transform="matrix(10.5,0,0,-10.5,138.4886,145.17421)" fill="#231f20"/>
<use xlink:href="#font_831_1" transform="matrix(10.5,0,0,-10.5,140.8406,145.09021)" fill="#231f20"/>
</g>
<g id="Layer-1" data-name="P">
<use xlink:href="#font_832_60" transform="matrix(10.5,0,0,-10.5,143.7618,142.88521)" fill="#231f20"/>
</g>
<g id="Layer-1" data-name="P">
<g id="Layer-2" data-name="Span">
</g>
<symbol id="font_832_91">
<path d="M 0 .671 L 0 .63000008 L .057000005 .625 L .07400001 .611 L .07400001 .060000004 L .057000005 .046000005 L 0 .041 L 0 0 L .24300003 0 L .24300003 .041 L .18100003 .046000005 L .164 .060000004 L .164 .32900004 L .508 .32900004 L .508 .060000004 L .49100007 .046000005 L .42900003 .041 L .42900003 0 L .67200008 0 L .67200008 .041 L .615 .046000005 L .59800007 .060000004 L .59800007 .611 L .615 .625 L .67200008 .63000008 L .67200008 .671 L .42900003 .671 L .42900003 .63000008 L .49100007 .625 L .508 .611 L .508 .37500004 L .164 .37500004 L .164 .611 L .18100003 .625 L .24300003 .63000008 L .24300003 .671 L 0 .671 Z "/>
</symbol>
<symbol id="font_832_68">
<path d="M 0 0 L .22 0 L .22 .036000004 L .172 .041 L .155 .059000005 L .155 .22600001 L .201 .22600001 C .23700002 .22600001 .264 .208 .286 .156 L .34 .032 L .34 0 L .50600007 0 L .50600007 .036000004 L .43800003 .043 L .42100004 .055000005 L .36600004 .16600001 C .34800003 .2 .335 .24000001 .27400003 .254 L .27400003 .256 C .289 .26000003 .321 .273 .342 .323 L .372 .39400003 C .377 .40500004 .379 .41400004 .39000003 .42600004 L .46 .386 C .47800002 .39600004 .488 .41400004 .488 .43500004 C .488 .46400003 .46600003 .49 .425 .49 C .377 .49 .347 .455 .328 .409 L .294 .33100004 C .275 .287 .24100003 .27 .20300001 .27 L .155 .27 L .155 .42400003 L .172 .44000004 L .22 .44500003 L .22 .48100005 L 0 .48100005 L 0 .44500003 L .054000006 .44000004 L .071 .42400003 L .071 .057000005 L .054000006 .041 L 0 .036000004 L 0 0 Z "/>
</symbol>
<symbol id="font_832_6">
<path d="M .28 .8600001 C .09900001 .836 0 .6840001 0 .42900003 C 0 .176 .102 .019000002 .28 0 L .28 .042000005 C .14500001 .069 .08500001 .186 .08500001 .42700006 C .08500001 .67300006 .144 .79 .28 .8180001 L .28 .8600001 Z "/>
</symbol>
<symbol id="font_832_66">
<path d="M 0 .48100005 L 0 .44500003 L .048 .44000004 L .065000008 .42400003 L .065000008 .317 C .065000008 .289 .069 .25300003 .09900001 .22500001 C .106000009 .21800001 .14000002 .19000001 .21100001 .19000001 C .24900002 .19000001 .3 .201 .33900003 .21400002 L .33900003 .057000005 L .32200004 .041 L .268 .036000004 L .268 0 L .49400006 0 L .49400006 .036000004 L .44000004 .041 L .42300005 .057000005 L .42300005 .42400003 L .44000004 .44000004 L .49400006 .44500003 L .49400006 .48100005 L .27400003 .48100005 L .27400003 .44500003 L .32200004 .44000004 L .33900003 .42400003 L .33900003 .25800003 C .30600003 .246 .26500003 .23600002 .23500002 .23600002 C .158 .23600002 .14900002 .29000003 .14900002 .321 L .14900002 .42400003 L .16600001 .44000004 L .21400002 .44500003 L .21400002 .48100005 L 0 .48100005 Z "/>
</symbol>
<symbol id="font_832_7">
<path d="M 0 .8180001 C .13700001 .79 .19500001 .67300006 .19500001 .42800004 C .19500001 .186 .135 .069 0 .042000005 L 0 0 C .178 .019999996 .28000004 .176 .28000004 .42900003 C .28000004 .6840001 .18100001 .836 0 .8600001 L 0 .8180001 Z "/>
</symbol>
<symbol id="font_832_9">
<path d="M 0 0 C .098000008 .0119999949 .169 .087 .169 .182 C .169 .223 .15 .27600003 .091000009 .27600003 C .06400001 .27600003 .030000005 .263 .030000005 .218 C .030000005 .199 .037000006 .186 .046 .177 L .11 .177 L .11 .16600001 C .11 .12799999 .095 .045999998 0 .033999996 L 0 0 Z "/>
</symbol>
<use xlink:href="#font_832_91" transform="matrix(10.5,0,0,-10.5,166.1733,145.05872)" fill="#231f20"/>
<use xlink:href="#font_832_7a" transform="matrix(10.5,0,0,-10.5,173.89081,145.05872)" fill="#231f20"/>
<use xlink:href="#font_832_68" transform="matrix(10.5,0,0,-10.5,180.2118,145.05872)" fill="#231f20"/>
<use xlink:href="#font_832_71" transform="matrix(10.5,0,0,-10.5,185.91332,145.15322)" fill="#231f20"/>
<use xlink:href="#font_832_6a" transform="matrix(10.5,0,0,-10.5,191.50981,145.05872)" fill="#231f20"/>
<use xlink:href="#font_832_75" transform="matrix(10.5,0,0,-10.5,195.4998,146.52872)" fill="#231f20"/>
<use xlink:href="#font_832_7e" transform="matrix(10.5,0,0,-10.5,201.4428,145.15322)" fill="#231f20"/>
<use xlink:href="#font_832_1" transform="matrix(10.5,0,0,-10.5,206.3148,145.05872)" fill="#231f20"/>
<use xlink:href="#font_832_77" transform="matrix(10.5,0,0,-10.5,209.56456,145.05872)" fill="#231f20"/>
<use xlink:href="#font_832_80" transform="matrix(10.5,0,0,-10.5,215.87506,145.15322)" fill="#231f20"/>
<use xlink:href="#font_832_1" transform="matrix(10.5,0,0,-10.5,220.63156,145.05872)" fill="#231f20"/>
<use xlink:href="#font_832_79" transform="matrix(10.5,0,0,-10.5,223.88657,145.15322)" fill="#231f20"/>
<use xlink:href="#font_832_77" transform="matrix(10.5,0,0,-10.5,228.35958,145.05872)" fill="#231f20"/>
<use xlink:href="#font_832_7e" transform="matrix(10.5,0,0,-10.5,234.72257,145.15322)" fill="#231f20"/>
<use xlink:href="#font_832_80" transform="matrix(10.5,0,0,-10.5,239.98308,145.15322)" fill="#231f20"/>
<use xlink:href="#font_832_8d" transform="matrix(10.5,0,0,-10.5,245.05458,145.05872)" fill="#231f20"/>
<use xlink:href="#font_832_72" transform="matrix(10.5,0,0,-10.5,253.55959,145.05872)" fill="#231f20"/>
<use xlink:href="#font_832_1" transform="matrix(10.5,0,0,-10.5,258.49458,145.05872)" fill="#231f20"/>
<use xlink:href="#font_832_6" transform="matrix(10.5,0,0,-10.5,262.54759,146.54972)" fill="#231f20"/>
<use xlink:href="#font_832_66" transform="matrix(10.5,0,0,-10.5,265.9391,145.05872)" fill="#231f20"/>
<use xlink:href="#font_832_74" transform="matrix(10.5,0,0,-10.5,271.60908,145.05872)" fill="#231f20"/>
<use xlink:href="#font_832_71" transform="matrix(10.5,0,0,-10.5,276.78556,145.15322)" fill="#231f20"/>
<use xlink:href="#font_832_1" transform="matrix(10.5,0,0,-10.5,282.06709,145.05872)" fill="#231f20"/>
<use xlink:href="#font_832_9e" transform="matrix(10.5,0,0,-10.5,285.4586,145.15322)" fill="#231f20"/>
<use xlink:href="#font_832_83" transform="matrix(10.5,0,0,-10.5,290.5196,147.34772)" fill="#231f20"/>
<use xlink:href="#font_832_75" transform="matrix(10.5,0,0,-10.5,295.6331,146.52872)" fill="#231f20"/>
<use xlink:href="#font_832_80" transform="matrix(10.5,0,0,-10.5,301.5236,145.15322)" fill="#231f20"/>
<use xlink:href="#font_832_74" transform="matrix(10.5,0,0,-10.5,306.4481,145.05872)" fill="#231f20"/>
<use xlink:href="#font_832_7" transform="matrix(10.5,0,0,-10.5,311.56159,146.54972)" fill="#231f20"/>
<use xlink:href="#font_832_b" transform="matrix(10.5,0,0,-10.5,316.4126,145.15322)" fill="#231f20"/>
<use xlink:href="#font_832_9" transform="matrix(10.5,0,0,-10.5,318.96409,146.84372)" fill="#231f20"/>
<use xlink:href="#font_832_1" transform="matrix(10.5,0,0,-10.5,321.4736,145.05872)" fill="#231f20"/>
<use xlink:href="#font_832_94" transform="matrix(10.5,0,0,-10.5,324.82838,145.18473)" fill="#231f20"/>
<use xlink:href="#font_832_7e" transform="matrix(10.5,0,0,-10.5,330.72938,145.15322)" fill="#231f20"/>
<use xlink:href="#font_832_82" transform="matrix(10.5,0,0,-10.5,335.83235,147.34772)" fill="#231f20"/>
<use xlink:href="#font_832_7e" transform="matrix(10.5,0,0,-10.5,341.83836,145.15322)" fill="#231f20"/>
<use xlink:href="#font_832_77" transform="matrix(10.5,0,0,-10.5,347.02534,145.05872)" fill="#231f20"/>
<use xlink:href="#font_832_80" transform="matrix(10.5,0,0,-10.5,353.33583,145.15322)" fill="#231f20"/>
<use xlink:href="#font_832_80" transform="matrix(10.5,0,0,-10.5,358.4808,145.15322)" fill="#231f20"/>
<use xlink:href="#font_832_1" transform="matrix(10.5,0,0,-10.5,363.2373,145.05872)" fill="#231f20"/>
</g>
<g id="Layer-1" data-name="P">
<g id="Layer-2" data-name="Span">
</g>
<symbol id="font_832_81">
<path d="M .493 .48100005 L .24600002 .48100005 C .17900002 .48100005 .07 .46600003 .07 .35000003 C .07 .28300003 .120000008 .23600002 .19500001 .23200001 L .19500001 .23 C .15200001 .215 .134 .18400002 .124000009 .165 L .067 .055000005 L .050000006 .043 L 0 .036000004 L 0 0 L .14000002 0 L .14000002 .032 L .19700001 .156 C .21200001 .186 .23000002 .21400002 .272 .21400002 L .338 .21400002 L .338 .057000005 L .321 .041 L .273 .036000004 L .273 0 L .493 0 L .493 .036000004 L .439 .041 L .42200003 .057000005 L .42200003 .42400003 L .439 .44000004 L .493 .44500003 L .493 .48100005 M .338 .25800003 C .321 .256 .304 .254 .278 .254 C .20100002 .254 .15200001 .273 .15200001 .34300003 C .15200001 .43500004 .23100002 .437 .275 .437 C .29500003 .437 .314 .43600003 .338 .432 L .338 .25800003 Z "/>
</symbol>
<symbol id="font_832_84">
<path d="M 0 .671 L 0 .63000008 L .057000005 .625 L .07400001 .611 L .07400001 .060000004 L .057000005 .046000005 L 0 .041 L 0 0 L .24300003 0 L .24300003 .041 L .18100003 .046000005 L .164 .060000004 L .164 .324 L .22600001 .324 C .30200003 .324 .337 .27600003 .36400003 .20500002 L .43100003 .030000002 L .43100003 0 L .62100008 0 L .62100008 .041 L .55200007 .046000005 L .52500006 .063 L .46600003 .19500001 C .43900005 .256 .42200003 .28 .41000004 .294 C .39000003 .317 .35700003 .34 .314 .34800003 L .314 .35000003 C .34100003 .36 .37800003 .38300003 .40600003 .446 L .44900004 .54200008 C .46000005 .56600007 .46400003 .58100005 .485 .60800006 L .55700007 .564 C .577 .573 .591 .59300008 .591 .61800006 C .591 .65800008 .56200006 .679 .522 .679 C .45400004 .679 .42100004 .61200007 .39400003 .55300006 L .351 .45700003 C .344 .441 .32700003 .40600003 .3 .386 C .277 .36800004 .25200004 .36600004 .23700002 .36600004 L .164 .36600004 L .164 .611 L .18100003 .625 L .24300003 .63000008 L .24300003 .671 L 0 .671 Z "/>
</symbol>
<use xlink:href="#font_832_77" transform="matrix(10.5,0,0,-10.5,166.1418,157.65869)" fill="#231f20"/>
<use xlink:href="#font_832_7a" transform="matrix(10.5,0,0,-10.5,172.3788,157.65869)" fill="#231f20"/>
<use xlink:href="#font_832_68" transform="matrix(10.5,0,0,-10.5,178.6998,157.65869)" fill="#231f20"/>
<use xlink:href="#font_832_71" transform="matrix(10.5,0,0,-10.5,184.4013,157.75319)" fill="#231f20"/>
<use xlink:href="#font_832_6a" transform="matrix(10.5,0,0,-10.5,189.9978,157.65869)" fill="#231f20"/>
<use xlink:href="#font_832_75" transform="matrix(10.5,0,0,-10.5,193.9878,159.1287)" fill="#231f20"/>
<use xlink:href="#font_832_7e" transform="matrix(10.5,0,0,-10.5,199.93079,157.75319)" fill="#231f20"/>
<use xlink:href="#font_832_1" transform="matrix(10.5,0,0,-10.5,204.8028,157.65869)" fill="#231f20"/>
<use xlink:href="#font_832_77" transform="matrix(10.5,0,0,-10.5,208.05255,157.65869)" fill="#231f20"/>
<use xlink:href="#font_832_80" transform="matrix(10.5,0,0,-10.5,214.36305,157.75319)" fill="#231f20"/>
<use xlink:href="#font_832_1" transform="matrix(10.5,0,0,-10.5,219.11956,157.65869)" fill="#231f20"/>
<use xlink:href="#font_832_83" transform="matrix(10.5,0,0,-10.5,222.04906,159.9477)" fill="#231f20"/>
<use xlink:href="#font_832_6a" transform="matrix(10.5,0,0,-10.5,227.58255,157.65869)" fill="#231f20"/>
<use xlink:href="#font_832_7e" transform="matrix(10.5,0,0,-10.5,232.32854,157.75319)" fill="#231f20"/>
<use xlink:href="#font_832_75" transform="matrix(10.5,0,0,-10.5,237.30556,159.1287)" fill="#231f20"/>
<use xlink:href="#font_832_7e" transform="matrix(10.5,0,0,-10.5,243.24855,157.75319)" fill="#231f20"/>
<use xlink:href="#font_832_80" transform="matrix(10.5,0,0,-10.5,248.50907,157.75319)" fill="#231f20"/>
<use xlink:href="#font_832_8d" transform="matrix(10.5,0,0,-10.5,253.58057,157.65869)" fill="#231f20"/>
<use xlink:href="#font_832_72" transform="matrix(10.5,0,0,-10.5,262.08558,157.65869)" fill="#231f20"/>
<use xlink:href="#font_832_b" transform="matrix(10.5,0,0,-10.5,267.81858,157.75319)" fill="#231f20"/>
<use xlink:href="#font_832_1" transform="matrix(10.5,0,0,-10.5,269.96058,157.65869)" fill="#231f20"/>
<use xlink:href="#font_832_88" transform="matrix(10.5,0,0,-10.5,273.24183,157.65869)" fill="#231f20"/>
<use xlink:href="#font_832_7b" transform="matrix(10.5,0,0,-10.5,279.62583,157.75319)" fill="#231f20"/>
<use xlink:href="#font_832_81" transform="matrix(10.5,0,0,-10.5,283.81535,157.65869)" fill="#231f20"/>
<use xlink:href="#font_832_68" transform="matrix(10.5,0,0,-10.5,289.62187,157.65869)" fill="#231f20"/>
<use xlink:href="#font_832_71" transform="matrix(10.5,0,0,-10.5,295.32334,157.75319)" fill="#231f20"/>
<use xlink:href="#font_832_80" transform="matrix(10.5,0,0,-10.5,300.99336,157.75319)" fill="#231f20"/>
<use xlink:href="#font_832_1" transform="matrix(10.5,0,0,-10.5,305.74986,157.65869)" fill="#231f20"/>
<use xlink:href="#font_832_9e" transform="matrix(10.5,0,0,-10.5,309.14137,157.75319)" fill="#231f20"/>
<use xlink:href="#font_832_87" transform="matrix(10.5,0,0,-10.5,314.73786,157.65869)" fill="#231f20"/>
<use xlink:href="#font_832_7f" transform="matrix(10.5,0,0,-10.5,322.25587,157.65869)" fill="#231f20"/>
<use xlink:href="#font_832_7e" transform="matrix(10.5,0,0,-10.5,327.94688,157.75319)" fill="#231f20"/>
<use xlink:href="#font_832_80" transform="matrix(10.5,0,0,-10.5,333.20735,157.75319)" fill="#231f20"/>
<use xlink:href="#font_832_74" transform="matrix(10.5,0,0,-10.5,338.13185,157.65869)" fill="#231f20"/>
<use xlink:href="#font_832_b" transform="matrix(10.5,0,0,-10.5,343.19285,157.75319)" fill="#231f20"/>
<use xlink:href="#font_832_9" transform="matrix(10.5,0,0,-10.5,345.74433,159.4437)" fill="#231f20"/>
<use xlink:href="#font_832_1" transform="matrix(10.5,0,0,-10.5,348.25386,157.65869)" fill="#231f20"/>
<use xlink:href="#font_832_84" transform="matrix(10.5,0,0,-10.5,351.54035,157.65869)" fill="#231f20"/>
<use xlink:href="#font_832_7e" transform="matrix(10.5,0,0,-10.5,358.55436,157.75319)" fill="#231f20"/>
<use xlink:href="#font_832_68" transform="matrix(10.5,0,0,-10.5,363.74134,157.65869)" fill="#231f20"/>
<use xlink:href="#font_832_1" transform="matrix(10.5,0,0,-10.5,369.05433,157.65869)" fill="#231f20"/>
</g>
<g id="Layer-1" data-name="P">
<symbol id="font_832_86">
<path d="M 0 .671 L 0 .63000008 L .057000005 .625 L .07400001 .611 L .07400001 .060000004 L .057000005 .046000005 L 0 .041 L 0 0 L .24300003 0 L .24300003 .041 L .18100003 .046000005 L .164 .060000004 L .164 .625 L .48800005 .625 L .48800005 .060000004 L .47100003 .046000005 L .40900005 .041 L .40900005 0 L .65200009 0 L .65200009 .041 L .595 .046000005 L .578 .060000004 L .578 .611 L .595 .625 L .65200009 .63000008 L .65200009 .671 L 0 .671 Z "/>
</symbol>
<use xlink:href="#font_832_79" transform="matrix(10.5,0,0,-10.5,166.1418,170.3532)" fill="#231f20"/>
<use xlink:href="#font_832_77" transform="matrix(10.5,0,0,-10.5,170.6148,170.2587)" fill="#231f20"/>
<use xlink:href="#font_832_7e" transform="matrix(10.5,0,0,-10.5,176.9778,170.3532)" fill="#231f20"/>
<use xlink:href="#font_832_74" transform="matrix(10.5,0,0,-10.5,182.0178,170.2587)" fill="#231f20"/>
<use xlink:href="#font_832_72" transform="matrix(10.5,0,0,-10.5,187.1208,170.2587)" fill="#231f20"/>
<use xlink:href="#font_832_b" transform="matrix(10.5,0,0,-10.5,192.8538,170.3532)" fill="#231f20"/>
<use xlink:href="#font_832_9" transform="matrix(10.5,0,0,-10.5,195.4053,172.0437)" fill="#231f20"/>
<use xlink:href="#font_832_1" transform="matrix(10.5,0,0,-10.5,197.91481,170.2587)" fill="#231f20"/>
<use xlink:href="#font_832_86" transform="matrix(10.5,0,0,-10.5,201.20131,170.2587)" fill="#231f20"/>
<use xlink:href="#font_832_71" transform="matrix(10.5,0,0,-10.5,208.78232,170.3532)" fill="#231f20"/>
<use xlink:href="#font_832_66" transform="matrix(10.5,0,0,-10.5,214.18982,170.2587)" fill="#231f20"/>
<use xlink:href="#font_832_80" transform="matrix(10.5,0,0,-10.5,220.08032,170.3532)" fill="#231f20"/>
<use xlink:href="#font_832_78" transform="matrix(10.5,0,0,-10.5,225.15183,170.2587)" fill="#231f20"/>
<use xlink:href="#font_832_1" transform="matrix(10.5,0,0,-10.5,232.18683,170.2587)" fill="#231f20"/>
<use xlink:href="#font_832_79" transform="matrix(10.5,0,0,-10.5,235.44184,170.3532)" fill="#231f20"/>
<use xlink:href="#font_832_77" transform="matrix(10.5,0,0,-10.5,239.91484,170.2587)" fill="#231f20"/>
<use xlink:href="#font_832_7e" transform="matrix(10.5,0,0,-10.5,246.27783,170.3532)" fill="#231f20"/>
<use xlink:href="#font_832_74" transform="matrix(10.5,0,0,-10.5,251.31784,170.2587)" fill="#231f20"/>
<use xlink:href="#font_832_72" transform="matrix(10.5,0,0,-10.5,256.42085,170.2587)" fill="#231f20"/>
<use xlink:href="#font_832_b" transform="matrix(10.5,0,0,-10.5,262.15385,170.3532)" fill="#231f20"/>
</g>
</g>
<text x="10" y="-10" font-size="13" font-family="Arial" fill="#cccccc">https://urait.ru</text></svg>
