<?xml version="1.0" encoding="UTF-8" standalone="no"?>
<!DOCTYPE svg PUBLIC "-//W3C//DTD SVG 1.1//EN" "http://www.w3.org/Graphics/SVG/1.1/DTD/svg11.dtd">
<svg xmlns="http://www.w3.org/2000/svg" xmlns:xlink="http://www.w3.org/1999/xlink" version="1.1" width="439.37pt" height="674.646pt" viewBox="0 0 439.37 674.646">
<g enable-background="new">
<g id="Layer-1" data-name="P">
<g id="Layer-2" data-name="Span">
</g>
<g id="Layer-2" data-name="Span">
</g>
<g id="Layer-2" data-name="Span">
</g>
<symbol id="font_83b_11">
<path d="M .34100003 .71500006 L 0 .297 L 0 .23200001 L .322 .23200001 L .322 0 L .4 0 L .4 .23200001 L .512 .23200001 L .512 .297 L .4 .297 L .4 .71500006 L .34100003 .71500006 M .322 .606 L .322 .297 L .075 .297 L .322 .606 Z "/>
</symbol>
<symbol id="font_83b_7">
<path d="M 0 .8180001 C .13700001 .79 .19500001 .67300006 .19500001 .42800004 C .19500001 .186 .135 .069 0 .042000005 L 0 0 C .178 .019999996 .28000004 .176 .28000004 .42900003 C .28000004 .6840001 .18100001 .836 0 .8600001 L 0 .8180001 Z "/>
</symbol>
<symbol id="font_83b_1">
<path d="M 0 0 Z "/>
</symbol>
<symbol id="font_83b_95">
<path d="M 0 .671 L 0 .51500007 L .055 .51500007 L .069 .61 L .083000008 .625 L .236 .625 L .236 .060000004 L .21900001 .046000005 L .15200001 .041 L .15200001 0 L .41000004 0 L .41000004 .041 L .34300003 .046000005 L .326 .060000004 L .326 .625 L .47900004 .625 L .493 .61 L .507 .51500007 L .56200006 .51500007 L .56200006 .671 L 0 .671 Z "/>
</symbol>
<symbol id="font_83b_87">
<path d="M 0 0 L .243 0 C .291 0 .425 .021000002 .425 .14500001 C .425 .26500003 .30900003 .29000003 .22600001 .29000003 C .2 .29000003 .18 .289 .155 .286 L .155 .42400003 L .172 .44000004 L .22600001 .44500003 L .22600001 .48100005 L 0 .48100005 L 0 .44500003 L .054000006 .44000004 L .071 .42400003 L .071 .057000005 L .054000006 .041 L 0 .036000004 L 0 0 M .155 .238 C .17600002 .24400002 .19500001 .246 .21900001 .246 C .25800003 .246 .34100003 .24300002 .34100003 .143 C .34100003 .042000005 .24700001 .044000005 .21400002 .044000005 C .193 .044000005 .17300001 .046000005 .155 .05 L .155 .238 M .43 .44500003 L .484 .44000004 L .50100007 .42400003 L .50100007 .057000005 L .484 .041 L .43 .036000004 L .43 0 L .656 0 L .656 .036000004 L .602 .041 L .58500006 .057000005 L .58500006 .42400003 L .602 .44000004 L .656 .44500003 L .656 .48100005 L .43 .48100005 L .43 .44500003 Z "/>
</symbol>
<symbol id="font_83b_93">
<path d="M 0 0 L .22 0 L .22 .036000004 L .172 .041 L .155 .057000005 L .155 .43500004 L .36100004 .43500004 L .36100004 .057000005 L .344 .041 L .296 .036000004 L .296 0 L .51600006 0 L .51600006 .036000004 L .462 .041 L .44500003 .057000005 L .44500003 .42400003 L .462 .44000004 L .51600006 .44500003 L .51600006 .48100005 L 0 .48100005 L 0 .44500003 L .054000006 .44000004 L .071 .42400003 L .071 .057000005 L .054000006 .041 L 0 .036000004 L 0 0 Z "/>
</symbol>
<symbol id="font_83b_73">
<path d="M .11000001 .49000005 L .11000001 .45400004 L .172 .44900004 L .18900001 .43100003 C .187 .374 .179 .296 .167 .23500002 C .147 .13800001 .12200001 .095000009 .09900001 .067 L .036000004 .109000008 C .012000001 .09700001 0 .075 0 .052 C 0 .037 .011000001 0 .055 0 C .095000009 0 .124000009 .023000002 .142 .044 C .163 .068 .192 .11500001 .214 .21400002 C .229 .282 .238 .37100003 .24100001 .44400005 L .35100005 .44400005 L .35100005 .06600001 L .33400003 .05 L .286 .045 L .286 .009000001 L .50600007 .009000001 L .50600007 .045 L .45200003 .05 L .43500004 .06600001 L .43500004 .43300004 L .45200003 .44900004 L .50600007 .45400004 L .50600007 .49000005 L .11000001 .49000005 Z "/>
</symbol>
<symbol id="font_83b_71">
<path d="M .23400003 .499 C .072000008 .499 0 .37800003 0 .24900002 C 0 .16700001 .029 .109000008 .063 .072000008 C .091000009 .041 .14400001 0 .23200003 0 C .31300003 0 .36600004 .035 .397 .067 C .43500004 .10700001 .46600003 .16800002 .46600003 .24900002 C .46600003 .38700003 .379 .499 .23400003 .499 M .231 .455 C .25300003 .455 .29400004 .45200003 .328 .409 C .36600004 .36 .372 .291 .372 .24900002 C .372 .20400001 .36600004 .15500002 .335 .109000008 C .30400003 .063 .26400004 .044 .23200003 .044 C .19800002 .044 .15100001 .057 .120000008 .12100001 C .10000001 .16300002 .09400001 .21000001 .09400001 .25 C .09400001 .305 .105000007 .36800004 .136 .409 C .16900002 .45200003 .21000001 .455 .231 .455 Z "/>
</symbol>
<symbol id="font_83b_85">
<path d="M .006000001 .48100005 L .006000001 .44500003 L .067 .43300004 L .20100002 .238 L .057000005 .045 L 0 .037 L 0 0 L .18900001 0 L .18900001 .037 L .13200002 .044000005 L .12700002 .056 L .22900002 .201 L .32200004 .052 L .31700004 .044000005 L .275 .037 L .275 0 L .488 0 L .488 .037 L .42800004 .045 L .28100003 .259 L .41300003 .43400003 L .46900005 .44500003 L .46900005 .48100005 L .28900004 .48100005 L .28900004 .44500003 L .337 .43800003 L .34500004 .425 L .254 .29700003 L .17000002 .42800004 L .17500001 .43800003 L .22100002 .44500003 L .22100002 .48100005 L .006000001 .48100005 Z "/>
</symbol>
<symbol id="font_83b_7b">
<path d="M .388 .10300001 C .358 .083000008 .312 .060000004 .26000003 .060000004 C .09400001 .060000004 .09200001 .22500001 .09200001 .25800003 C .09200001 .314 .106000009 .374 .13900002 .41300003 C .172 .45200003 .21200001 .45900003 .236 .45900003 C .26000003 .45900003 .27600003 .45200003 .286 .446 L .286 .36400003 C .303 .35300002 .32200004 .35000003 .333 .35000003 C .365 .35000003 .38700003 .372 .38700003 .40500004 C .38700003 .44500003 .351 .499 .24200002 .499 C .095 .499 0 .40500004 0 .24900002 C 0 .091000009 .095 0 .22600001 0 C .26000003 0 .312 .0060000007 .388 .051000004 L .388 .10300001 Z "/>
</symbol>
<symbol id="font_83b_80">
<path d="M .411 .11500001 C .33900003 .06600001 .287 .057 .254 .057 C .14 .057 .086 .16300002 .086 .26500003 L .086 .272 L .41000004 .272 C .411 .282 .411 .291 .411 .3 C .411 .46100004 .31 .499 .23200003 .499 C .149 .499 .097 .462 .07000001 .43400003 C .026 .38900004 0 .32200004 0 .24600002 C 0 .10800001 .075 0 .227 0 C .29200004 0 .358 .023000002 .411 .060000004 L .411 .11500001 M .091000009 .314 C .098000008 .38000003 .134 .455 .22 .455 C .279 .455 .30200003 .416 .30800004 .404 C .316 .38900004 .32200004 .35900004 .32200004 .33900003 L .32200004 .314 L .091000009 .314 Z "/>
</symbol>
<symbol id="font_83b_9e">
<path d="M .432 .75500008 C .421 .72700008 .389 .72 .363 .716 L .279 .703 C .187 .689 .09500001 .66200008 .044000005 .531 C .015000001 .45600004 0 .35400004 0 .277 C 0 .19700001 .026000005 0 .23200001 0 C .313 0 .366 .035 .397 .067 C .435 .106000009 .466 .16600001 .466 .255 C .466 .38900004 .389 .499 .251 .499 C .15200001 .499 .10000001 .441 .07100001 .38900004 L .069000009 .38900004 C .07700001 .55700007 .15100001 .601 .24700003 .615 L .341 .628 C .375 .633 .447 .647 .466 .75500008 L .432 .75500008 M .24100001 .455 C .349 .455 .372 .31500004 .372 .252 C .372 .20800002 .367 .15100001 .335 .10300001 C .304 .057 .264 .044 .23200001 .044 C .19800002 .044 .15100001 .057 .120000008 .12100001 C .097 .16800002 .09400001 .22000002 .09400001 .25 C .09400001 .29000003 .10900001 .455 .24100001 .455 Z "/>
</symbol>
<symbol id="font_83b_81">
<path d="M .493 .48100005 L .24600002 .48100005 C .17900002 .48100005 .07 .46600003 .07 .35000003 C .07 .28300003 .120000008 .23600002 .19500001 .23200001 L .19500001 .23 C .15200001 .215 .134 .18400002 .124000009 .165 L .067 .055000005 L .050000006 .043 L 0 .036000004 L 0 0 L .14000002 0 L .14000002 .032 L .19700001 .156 C .21200001 .186 .23000002 .21400002 .272 .21400002 L .338 .21400002 L .338 .057000005 L .321 .041 L .273 .036000004 L .273 0 L .493 0 L .493 .036000004 L .439 .041 L .42200003 .057000005 L .42200003 .42400003 L .439 .44000004 L .493 .44500003 L .493 .48100005 M .338 .25800003 C .321 .256 .304 .254 .278 .254 C .20100002 .254 .15200001 .273 .15200001 .34300003 C .15200001 .43500004 .23100002 .437 .275 .437 C .29500003 .437 .314 .43600003 .338 .432 L .338 .25800003 Z "/>
</symbol>
<symbol id="font_83b_66">
<path d="M 0 .48100005 L 0 .44500003 L .048 .44000004 L .065000008 .42400003 L .065000008 .317 C .065000008 .289 .069 .25300003 .09900001 .22500001 C .106000009 .21800001 .14000002 .19000001 .21100001 .19000001 C .24900002 .19000001 .3 .201 .33900003 .21400002 L .33900003 .057000005 L .32200004 .041 L .268 .036000004 L .268 0 L .49400006 0 L .49400006 .036000004 L .44000004 .041 L .42300005 .057000005 L .42300005 .42400003 L .44000004 .44000004 L .49400006 .44500003 L .49400006 .48100005 L .27400003 .48100005 L .27400003 .44500003 L .32200004 .44000004 L .33900003 .42400003 L .33900003 .25800003 C .30600003 .246 .26500003 .23600002 .23500002 .23600002 C .158 .23600002 .14900002 .29000003 .14900002 .321 L .14900002 .42400003 L .16600001 .44000004 L .21400002 .44500003 L .21400002 .48100005 L 0 .48100005 Z "/>
</symbol>
<symbol id="font_83b_83">
<path d="M 0 .69900009 L 0 .66300007 L .061 .656 L .23000002 .222 C .21000001 .171 .18900001 .116000007 .149 .072 L .053 .11000001 C .032 .094000007 .027 .07000001 .027 .056999998 C .027 .026000008 .051 0 .095000009 0 C .14600002 0 .17700002 .032000007 .19700001 .059 C .20700002 .072 .23000002 .105000007 .256 .16800002 L .456 .65400007 L .514 .66300007 L .514 .69900009 L .336 .69900009 L .336 .66300007 L .39000003 .65800008 L .398 .642 L .273 .33100004 L .15300001 .642 L .165 .65800008 L .21800001 .66300007 L .21800001 .69900009 L 0 .69900009 Z "/>
</symbol>
<symbol id="font_83b_7f">
<path d="M 0 .48100005 L 0 .44500003 L .054000006 .44000004 L .071 .42400003 L .071 .057000005 L .054000006 .041 L 0 .036000004 L 0 0 L .25300003 0 C .294 0 .344 .004 .38700003 .033 C .432 .063 .44400005 .105000007 .44400005 .13700001 C .44400005 .22100002 .377 .25 .32200004 .25500003 L .32200004 .257 C .377 .27100004 .418 .314 .418 .372 C .418 .43 .386 .48100005 .24800003 .48100005 L 0 .48100005 M .155 .43500004 C .18200001 .441 .20500002 .44300003 .23000002 .44300003 C .277 .44300003 .33600004 .42800004 .33600004 .35700003 C .33600004 .272 .25300003 .268 .21000001 .268 C .18800001 .268 .17400001 .26900003 .155 .27100004 L .155 .43500004 M .155 .22900002 C .178 .23200001 .20400001 .23400001 .231 .23400001 C .25800003 .23400001 .29500003 .23300001 .321 .216 C .35300002 .19500001 .358 .163 .358 .13700001 C .358 .063 .289 .038000004 .231 .038000004 C .202 .038000004 .18100001 .040000004 .155 .046000005 L .155 .22900002 Z "/>
</symbol>
<symbol id="font_83b_74">
<path d="M .091000009 0 L .349 0 L .349 .036000004 L .279 .041 L .26200003 .057000005 L .26200003 .43500004 L .363 .43500004 L .37800003 .41900004 L .38900004 .335 L .44000004 .335 L .44000004 .48100005 L 0 .48100005 L 0 .335 L .051 .335 L .062 .41900004 L .077 .43500004 L .178 .43500004 L .178 .057000005 L .161 .041 L .091000009 .036000004 L .091000009 0 Z "/>
</symbol>
<symbol id="font_83b_8d">
<path d="M 0 0 L .75 0 L .75 .036000004 L .696 .041 L .679 .057000005 L .679 .42400003 L .696 .44000004 L .75 .44500003 L .75 .48100005 L .53200009 .48100005 L .53200009 .44500003 L .57800009 .44000004 L .595 .42400003 L .595 .046000005 L .41700004 .046000005 L .41700004 .42400003 L .43400003 .44000004 L .48000006 .44500003 L .48000006 .48100005 L .27 .48100005 L .27 .44500003 L .316 .44000004 L .333 .42400003 L .333 .046000005 L .155 .046000005 L .155 .42400003 L .172 .44000004 L .21800001 .44500003 L .21800001 .48100005 L 0 .48100005 L 0 .44500003 L .054000006 .44000004 L .071 .42400003 L .071 .057000005 L .054000006 .041 L 0 .036000004 L 0 0 Z "/>
</symbol>
<symbol id="font_83b_72">
<path d="M 0 0 L .25300003 0 C .30100004 0 .43500004 .021000002 .43500004 .14500001 C .43500004 .177 .42600004 .21800001 .38400004 .25100003 C .34 .28500004 .282 .29000003 .23200003 .29000003 C .20400001 .29000003 .18200001 .289 .155 .286 L .155 .42400003 L .172 .44000004 L .22600001 .44500003 L .22600001 .48100005 L 0 .48100005 L 0 .44500003 L .054000006 .44000004 L .071 .42400003 L .071 .057000005 L .054000006 .041 L 0 .036000004 L 0 0 M .155 .238 C .178 .24300002 .19900002 .246 .22600001 .246 C .263 .246 .347 .24300002 .347 .143 C .347 .1 .328 .07700001 .31300003 .066 C .303 .059000005 .27800004 .044000005 .22 .044000005 C .19600001 .044000005 .17500001 .046000005 .155 .05 L .155 .238 Z "/>
</symbol>
<symbol id="font_83b_1a">
<path d="M .172 .29700003 C .27 .34000004 .35500003 .40600003 .35500003 .512 C .35500003 .62200006 .282 .69200006 .15 .69200006 C .038 .69200006 0 .63000008 0 .597 C 0 .55300006 .037000006 .546 .061 .546 C .069000009 .546 .075 .54700008 .077999997 .54700008 L .119 .646 C .193 .646 .263 .61800006 .263 .507 C .263 .46400003 .252 .425 .22 .39000003 C .18200001 .34800003 .125 .328 .119 .326 L .119 .18 L .172 .18 L .172 .29700003 M .088 .058000003 C .088 .026 .11400001 0 .146 0 C .178 0 .204 .026 .204 .058000003 C .204 .09 .178 .11600001 .146 .11600001 C .11400001 .11600001 .088 .09 .088 .058000003 Z "/>
</symbol>
<symbol id="font_83b_75">
<path d="M .114 .62100008 L .114 .58500006 L .17600002 .58000007 L .19300002 .56200006 C .17500001 .45200003 .13200002 .30900003 .050000006 .186 L 0 .186 L 0 0 L .051000004 0 L .069000009 .124 L .084 .14 L .416 .14 L .43100003 .124 L .449 0 L .5 0 L .5 .186 L .435 .186 L .423 .19600001 L .423 .564 L .44 .58000007 L .49400003 .58500006 L .49400003 .62100008 L .114 .62100008 M .108 .186 C .17500001 .30400003 .22400002 .459 .24500002 .57500007 L .33900003 .57500007 L .33900003 .186 L .108 .186 Z "/>
</symbol>
<symbol id="font_83b_6f">
<path d="M 0 0 L .22 0 L .22 .036000004 L .172 .041 L .155 .057000005 L .155 .089 L .38700003 .33800004 L .38700003 .057000005 L .37 .041 L .32200004 .036000004 L .32200004 0 L .54200008 0 L .54200008 .036000004 L .488 .041 L .47100006 .057000005 L .47100006 .42400003 L .488 .44000004 L .54200008 .44500003 L .54200008 .48100005 L .32200004 .48100005 L .32200004 .44500003 L .37 .44000004 L .38700003 .42400003 L .38700003 .4 L .155 .15100001 L .155 .42400003 L .172 .44000004 L .22 .44500003 L .22 .48100005 L 0 .48100005 L 0 .44500003 L .054000006 .44000004 L .071 .42400003 L .071 .057000005 L .054000006 .041 L 0 .036000004 L 0 0 M .19500001 .693 C .18900001 .703 .17600002 .716 .15200001 .716 C .125 .716 .105000007 .698 .105000007 .66700008 C .105000007 .601 .179 .55600008 .27100004 .55600008 C .363 .55600008 .437 .601 .437 .66700008 C .437 .698 .41700004 .716 .39000003 .716 C .36600004 .716 .35300002 .703 .347 .693 L .347 .615 C .32900004 .60200008 .307 .59400007 .27100004 .59400007 C .23500002 .59400007 .21300002 .60200008 .19500001 .615 L .19500001 .693 Z "/>
</symbol>
<symbol id="font_83b_7a">
<path d="M 0 0 L .22 0 L .22 .036000004 L .172 .041 L .155 .057000005 L .155 .089 L .38700003 .33800004 L .38700003 .057000005 L .37 .041 L .32200004 .036000004 L .32200004 0 L .54200008 0 L .54200008 .036000004 L .488 .041 L .47100006 .057000005 L .47100006 .42400003 L .488 .44000004 L .54200008 .44500003 L .54200008 .48100005 L .32200004 .48100005 L .32200004 .44500003 L .37 .44000004 L .38700003 .42400003 L .38700003 .4 L .155 .15100001 L .155 .42400003 L .172 .44000004 L .22 .44500003 L .22 .48100005 L 0 .48100005 L 0 .44500003 L .054000006 .44000004 L .071 .42400003 L .071 .057000005 L .054000006 .041 L 0 .036000004 L 0 0 Z "/>
</symbol>
<symbol id="font_83b_68">
<path d="M 0 0 L .22 0 L .22 .036000004 L .172 .041 L .155 .059000005 L .155 .22600001 L .201 .22600001 C .23700002 .22600001 .264 .208 .286 .156 L .34 .032 L .34 0 L .50600007 0 L .50600007 .036000004 L .43800003 .043 L .42100004 .055000005 L .36600004 .16600001 C .34800003 .2 .335 .24000001 .27400003 .254 L .27400003 .256 C .289 .26000003 .321 .273 .342 .323 L .372 .39400003 C .377 .40500004 .379 .41400004 .39000003 .42600004 L .46 .386 C .47800002 .39600004 .488 .41400004 .488 .43500004 C .488 .46400003 .46600003 .49 .425 .49 C .377 .49 .347 .455 .328 .409 L .294 .33100004 C .275 .287 .24100003 .27 .20300001 .27 L .155 .27 L .155 .42400003 L .172 .44000004 L .22 .44500003 L .22 .48100005 L 0 .48100005 L 0 .44500003 L .054000006 .44000004 L .071 .42400003 L .071 .057000005 L .054000006 .041 L 0 .036000004 L 0 0 Z "/>
</symbol>
<symbol id="font_83b_82">
<path d="M 0 0 L .23600002 0 L .23600002 .036 L .172 .04100001 L .155 .056999998 L .155 .224 C .20600002 .215 .237 .215 .24900003 .215 C .325 .215 .38 .24100001 .419 .279 C .455 .314 .49300004 .37800003 .49300004 .47500003 C .49300004 .63500007 .4 .708 .302 .708 C .264 .708 .22100002 .69900009 .155 .64900007 L .155 .70400008 L .11700001 .70400008 L 0 .66800007 L 0 .637 L .071 .637 L .071 .056999998 L .055000009 .04100001 L 0 .036 L 0 0 M .155 .61200007 C .179 .62600007 .22000002 .64400008 .259 .64400008 C .357 .64400008 .403 .56 .403 .463 C .403 .35400004 .34600003 .259 .22900002 .259 C .21400002 .259 .19000001 .261 .155 .27600003 L .155 .61200007 Z "/>
</symbol>
<symbol id="font_83b_7e">
<path d="M .30600003 .009000001 L .44600005 .009000001 L .44600005 .045 L .39300005 .045 L .37600003 .06600001 L .37600003 .356 C .37600003 .37700004 .37500004 .42800004 .344 .46100004 C .30900003 .49800004 .24800003 .499 .22500003 .499 C .079 .499 .024999999 .43500004 .024999999 .38200004 C .024999999 .358 .044 .356 .056 .356 L .125 .356 L .125 .44000004 C .15 .44900004 .178 .455 .204 .455 C .29700003 .455 .29200004 .38300003 .29200004 .344 L .29200004 .312 C .185 .286 .137 .27 .101 .256 C .053999999 .23700002 0 .20600002 0 .13100001 C 0 .068 .038000004 0 .12799999 0 C .16600001 0 .215 .012 .29200004 .067 L .30600003 .009000001 M .29200004 .10100001 C .22800002 .064 .194 .056 .16800002 .056 C .107 .056 .08800001 .102000009 .08800001 .13900002 C .08800001 .194 .12600002 .21600002 .15799999 .23100002 C .19300002 .24700001 .24900002 .26500003 .29200004 .277 L .29200004 .10100001 Z "/>
</symbol>
<symbol id="font_83b_b">
<path d="M 0 .064 C 0 .030000002 .030000002 0 .063999999 0 C .098000008 0 .128 .030000002 .128 .064 C .128 .098000008 .098000008 .128 .063999999 .128 C .030000002 .128 0 .098000008 0 .064 Z "/>
</symbol>
<use xlink:href="#font_83b_11" transform="matrix(10.5,0,0,-10.5,61.2284,50.646924)" fill="#231f20"/>
<use xlink:href="#font_83b_7" transform="matrix(10.5,0,0,-10.5,67.1084,51.738927)" fill="#231f20"/>
<use xlink:href="#font_83b_1" transform="matrix(10.5,0,0,-10.5,71.1614,50.247926)" fill="#231f20"/>
<use xlink:href="#font_83b_95" transform="matrix(10.5,0,0,-10.5,74.2694,50.247926)" fill="#231f20"/>
<use xlink:href="#font_83b_87" transform="matrix(10.5,0,0,-10.5,80.3384,50.247926)" fill="#231f20"/>
<use xlink:href="#font_83b_1" transform="matrix(10.5,0,0,-10.5,87.5414,50.247926)" fill="#231f20"/>
<use xlink:href="#font_83b_93" transform="matrix(10.5,0,0,-10.5,90.785907,50.247926)" fill="#231f20"/>
<use xlink:href="#font_83b_73" transform="matrix(10.5,0,0,-10.5,96.30891,50.342428)" fill="#231f20"/>
<use xlink:href="#font_83b_71" transform="matrix(10.5,0,0,-10.5,102.3254,50.342428)" fill="#231f20"/>
<use xlink:href="#font_83b_85" transform="matrix(10.5,0,0,-10.5,107.5229,50.247926)" fill="#231f20"/>
<use xlink:href="#font_83b_71" transform="matrix(10.5,0,0,-10.5,112.8674,50.342428)" fill="#231f20"/>
<use xlink:href="#font_83b_1" transform="matrix(10.5,0,0,-10.5,118.1489,50.247926)" fill="#231f20"/>
<use xlink:href="#font_83b_7b" transform="matrix(10.5,0,0,-10.5,121.4774,50.342428)" fill="#231f20"/>
<use xlink:href="#font_83b_80" transform="matrix(10.5,0,0,-10.5,126.1604,50.342428)" fill="#231f20"/>
<use xlink:href="#font_83b_9e" transform="matrix(10.5,0,0,-10.5,131.57842,50.342428)" fill="#231f20"/>
<use xlink:href="#font_83b_81" transform="matrix(10.5,0,0,-10.5,136.75492,50.247926)" fill="#231f20"/>
<use xlink:href="#font_83b_1" transform="matrix(10.5,0,0,-10.5,142.24642,50.247926)" fill="#231f20"/>
<use xlink:href="#font_83b_66" transform="matrix(10.5,0,0,-10.5,145.31243,50.247926)" fill="#231f20"/>
<use xlink:href="#font_83b_83" transform="matrix(10.5,0,0,-10.5,150.80393,52.536928)" fill="#231f20"/>
<use xlink:href="#font_83b_7f" transform="matrix(10.5,0,0,-10.5,156.33744,50.247926)" fill="#231f20"/>
<use xlink:href="#font_83b_7b" transform="matrix(10.5,0,0,-10.5,161.97594,50.342428)" fill="#231f20"/>
<use xlink:href="#font_83b_74" transform="matrix(10.5,0,0,-10.5,166.64844,50.247926)" fill="#231f20"/>
<use xlink:href="#font_83b_7f" transform="matrix(10.5,0,0,-10.5,171.75144,50.247926)" fill="#231f20"/>
<use xlink:href="#font_83b_83" transform="matrix(10.5,0,0,-10.5,176.56989,52.536928)" fill="#231f20"/>
<use xlink:href="#font_83b_80" transform="matrix(10.5,0,0,-10.5,182.1769,50.342428)" fill="#231f20"/>
<use xlink:href="#font_83b_8d" transform="matrix(10.5,0,0,-10.5,187.2484,50.247926)" fill="#231f20"/>
<use xlink:href="#font_83b_72" transform="matrix(10.5,0,0,-10.5,195.7534,50.247926)" fill="#231f20"/>
<use xlink:href="#font_83b_1a" transform="matrix(10.5,0,0,-10.5,201.2659,50.342428)" fill="#231f20"/>
<use xlink:href="#font_83b_1" transform="matrix(10.5,0,0,-10.5,205.7914,50.247926)" fill="#231f20"/>
<use xlink:href="#font_83b_95" transform="matrix(10.5,0,0,-10.5,208.8994,50.247926)" fill="#231f20"/>
<use xlink:href="#font_83b_80" transform="matrix(10.5,0,0,-10.5,214.5169,50.342428)" fill="#231f20"/>
<use xlink:href="#font_83b_9e" transform="matrix(10.5,0,0,-10.5,219.93492,50.342428)" fill="#231f20"/>
<use xlink:href="#font_83b_80" transform="matrix(10.5,0,0,-10.5,225.60492,50.342428)" fill="#231f20"/>
<use xlink:href="#font_83b_1" transform="matrix(10.5,0,0,-10.5,230.36142,50.247926)" fill="#231f20"/>
<use xlink:href="#font_83b_7b" transform="matrix(10.5,0,0,-10.5,233.68468,50.342428)" fill="#231f20"/>
<use xlink:href="#font_83b_73" transform="matrix(10.5,0,0,-10.5,237.97917,50.342428)" fill="#231f20"/>
<use xlink:href="#font_83b_80" transform="matrix(10.5,0,0,-10.5,243.99568,50.342428)" fill="#231f20"/>
<use xlink:href="#font_83b_75" transform="matrix(10.5,0,0,-10.5,248.64719,51.717927)" fill="#231f20"/>
<use xlink:href="#font_83b_83" transform="matrix(10.5,0,0,-10.5,254.13869,52.536928)" fill="#231f20"/>
<use xlink:href="#font_83b_80" transform="matrix(10.5,0,0,-10.5,259.74568,50.342428)" fill="#231f20"/>
<use xlink:href="#font_83b_74" transform="matrix(10.5,0,0,-10.5,264.67018,50.247926)" fill="#231f20"/>
<use xlink:href="#font_83b_1" transform="matrix(10.5,0,0,-10.5,269.45817,50.247926)" fill="#231f20"/>
<use xlink:href="#font_83b_93" transform="matrix(10.5,0,0,-10.5,272.71318,50.247926)" fill="#231f20"/>
<use xlink:href="#font_83b_71" transform="matrix(10.5,0,0,-10.5,278.83467,50.342428)" fill="#231f20"/>
<use xlink:href="#font_83b_6f" transform="matrix(10.5,0,0,-10.5,284.43119,50.247926)" fill="#231f20"/>
<use xlink:href="#font_83b_74" transform="matrix(10.5,0,0,-10.5,290.6052,50.247926)" fill="#231f20"/>
<use xlink:href="#font_83b_7a" transform="matrix(10.5,0,0,-10.5,295.7082,50.247926)" fill="#231f20"/>
<use xlink:href="#font_83b_1" transform="matrix(10.5,0,0,-10.5,301.7142,50.247926)" fill="#231f20"/>
<use xlink:href="#font_83b_68" transform="matrix(10.5,0,0,-10.5,304.9692,50.247926)" fill="#231f20"/>
<use xlink:href="#font_83b_1" transform="matrix(10.5,0,0,-10.5,310.2822,50.247926)" fill="#231f20"/>
<use xlink:href="#font_83b_7f" transform="matrix(10.5,0,0,-10.5,313.5372,50.247926)" fill="#231f20"/>
<use xlink:href="#font_83b_82" transform="matrix(10.5,0,0,-10.5,318.8082,52.536928)" fill="#231f20"/>
<use xlink:href="#font_83b_7e" transform="matrix(10.5,0,0,-10.5,324.8142,50.342428)" fill="#231f20"/>
<use xlink:href="#font_83b_66" transform="matrix(10.5,0,0,-10.5,329.8122,50.247926)" fill="#231f20"/>
<use xlink:href="#font_83b_83" transform="matrix(10.5,0,0,-10.5,335.30369,52.536928)" fill="#231f20"/>
<use xlink:href="#font_83b_b" transform="matrix(10.5,0,0,-10.5,340.6902,50.342428)" fill="#231f20"/>
</g>
<g id="Layer-1" data-name="P">
<g id="Layer-2" data-name="Span">
</g>
<g id="Layer-2" data-name="Span">
</g>
<symbol id="font_83b_12">
<path d="M .051000004 .683 L .051000004 .35300002 C .091000009 .358 .11600001 .359 .14100002 .359 C .22500001 .359 .34600003 .336 .34600003 .212 C .34600003 .098000008 .264 .047 .19200002 .047 C .15600002 .047 .13200002 .057000005 .12200001 .061000006 L .082 .147 C .07700001 .148 .069000009 .15 .059000005 .15 C .018000003 .15 0 .12200001 0 .097 C 0 .009 .16000001 0 .17700002 0 C .271 0 .331 .033 .365 .064 C .411 .105000007 .43800003 .164 .43800003 .231 C .43800003 .37600003 .319 .421 .22100003 .421 C .19700001 .421 .15700002 .418 .113000009 .405 L .113000009 .6050001 L .409 .6050001 L .409 .683 L .051000004 .683 Z "/>
</symbol>
<symbol id="font_83b_78">
<path d="M 0 .48100005 L 0 .44500003 L .054000006 .44000004 L .071 .42400003 L .071 .057000005 L .054000006 .041 L 0 .036000004 L 0 0 L .18800001 0 L .18800001 .036000004 L .14 .041 L .12300001 .057000005 L .12300001 .44000004 L .287 0 L .323 0 L .48500005 .44000004 L .48500005 .057000005 L .46800003 .041 L .42000003 .036000004 L .42000003 0 L .64 0 L .64 .036000004 L .5860001 .041 L .569 .057000005 L .569 .42400003 L .5860001 .44000004 L .64 .44500003 L .64 .48100005 L .446 .48100005 L .446 .45700003 L .32200004 .11400001 L .19800002 .45700003 L .19800002 .48100005 L 0 .48100005 Z "/>
</symbol>
<symbol id="font_83b_89">
<path d="M .26200003 .48100005 L .26200003 .44500003 L .312 .44000004 L .32900004 .42400003 L .32900004 .27 L .29500003 .27 C .24900002 .27 .22000002 .298 .20700002 .33200003 L .178 .40800003 C .165 .44000004 .143 .49 .087000008 .49 C .054 .49 .024 .47000004 .024 .43500004 C .024 .42200003 .029000001 .39800004 .052 .386 L .120000008 .42600004 C .13000001 .41300003 .132 .40600003 .136 .39400003 L .163 .323 C .17 .303 .185 .266 .23200001 .256 L .23200001 .254 C .19800002 .25 .158 .22600001 .126 .15900001 L .07700001 .055000005 L .060000004 .043 L 0 .036000004 L 0 0 L .148 0 L .148 .032 L .19700001 .147 C .21300002 .18400002 .23500002 .22600001 .28300003 .22600001 L .32900004 .22600001 L .32900004 .057000005 L .312 .041 L .26200003 .036000004 L .26200003 0 L .47200004 0 L .47200004 .036000004 L .42200003 .041 L .40500004 .057000005 L .40500004 .22600001 L .45100004 .22600001 C .499 .22600001 .521 .18400002 .537 .147 L .586 .032 L .586 0 L .734 0 L .734 .036000004 L .674 .043 L .657 .055000005 L .60800006 .15900001 C .57600006 .22600001 .536 .25 .50200006 .254 L .50200006 .256 C .549 .266 .564 .303 .57100006 .323 L .59800007 .39400003 C .60200008 .40600003 .60400006 .41300003 .614 .42600004 L .68200007 .386 C .70500007 .39800004 .71000006 .42200003 .71000006 .43500004 C .71000006 .47000004 .68 .49 .647 .49 C .591 .49 .569 .44000004 .55600008 .40800003 L .527 .33200003 C .514 .298 .485 .27 .439 .27 L .40500004 .27 L .40500004 .42400003 L .42200003 .44000004 L .47200004 .44500003 L .47200004 .48100005 L .26200003 .48100005 Z "/>
</symbol>
<symbol id="font_83b_8e">
<path d="M .105000007 .28300003 L .105000007 .23500002 L .31100003 .23500002 L .31100003 .22900002 C .31100003 .11600001 .256 .044 .15900001 .044 C .133 .044 .09900001 .049000004 .062000008 .06600001 L .048 .15100001 L 0 .15100001 L 0 .021000002 C .068 .0010000002 .13000001 0 .155 0 C .21000001 0 .273 .012 .32700003 .064 C .374 .109000008 .40500004 .17700002 .40500004 .259 C .40500004 .448 .259 .499 .165 .499 C .087000008 .499 .034 .485 .010000002 .47800002 L .010000002 .365 L .058000007 .365 L .069000009 .43600003 C .105000007 .45200003 .13900002 .455 .15900001 .455 C .26900003 .455 .307 .372 .31100003 .28300003 L .105000007 .28300003 Z "/>
</symbol>
<use xlink:href="#font_83b_12" transform="matrix(10.5,0,0,-10.5,61.469903,62.974023)" fill="#231f20"/>
<use xlink:href="#font_83b_7" transform="matrix(10.5,0,0,-10.5,67.1084,64.33902)" fill="#231f20"/>
<use xlink:href="#font_83b_1" transform="matrix(10.5,0,0,-10.5,71.1614,62.848024)" fill="#231f20"/>
<use xlink:href="#font_83b_95" transform="matrix(10.5,0,0,-10.5,74.2694,62.848024)" fill="#231f20"/>
<use xlink:href="#font_83b_87" transform="matrix(10.5,0,0,-10.5,80.3384,62.848024)" fill="#231f20"/>
<use xlink:href="#font_83b_1" transform="matrix(10.5,0,0,-10.5,87.5414,62.848024)" fill="#231f20"/>
<use xlink:href="#font_83b_78" transform="matrix(10.5,0,0,-10.5,90.785907,62.848024)" fill="#231f20"/>
<use xlink:href="#font_83b_71" transform="matrix(10.5,0,0,-10.5,98.2094,62.942525)" fill="#231f20"/>
<use xlink:href="#font_83b_89" transform="matrix(10.5,0,0,-10.5,103.4909,62.848024)" fill="#231f20"/>
<use xlink:href="#font_83b_80" transform="matrix(10.5,0,0,-10.5,111.586399,62.942525)" fill="#231f20"/>
<use xlink:href="#font_83b_8d" transform="matrix(10.5,0,0,-10.5,116.6579,62.848024)" fill="#231f20"/>
<use xlink:href="#font_83b_72" transform="matrix(10.5,0,0,-10.5,125.1629,62.848024)" fill="#231f20"/>
<use xlink:href="#font_83b_1" transform="matrix(10.5,0,0,-10.5,130.0979,62.848024)" fill="#231f20"/>
<use xlink:href="#font_83b_93" transform="matrix(10.5,0,0,-10.5,133.3529,62.848024)" fill="#231f20"/>
<use xlink:href="#font_83b_82" transform="matrix(10.5,0,0,-10.5,139.31691,65.137027)" fill="#231f20"/>
<use xlink:href="#font_83b_71" transform="matrix(10.5,0,0,-10.5,145.27042,62.942525)" fill="#231f20"/>
<use xlink:href="#font_83b_66" transform="matrix(10.5,0,0,-10.5,150.67792,62.848024)" fill="#231f20"/>
<use xlink:href="#font_83b_7a" transform="matrix(10.5,0,0,-10.5,156.49492,62.848024)" fill="#231f20"/>
<use xlink:href="#font_83b_74" transform="matrix(10.5,0,0,-10.5,162.66892,62.848024)" fill="#231f20"/>
<use xlink:href="#font_83b_7e" transform="matrix(10.5,0,0,-10.5,167.8979,62.942525)" fill="#231f20"/>
<use xlink:href="#font_83b_74" transform="matrix(10.5,0,0,-10.5,172.93791,62.848024)" fill="#231f20"/>
<use xlink:href="#font_83b_72" transform="matrix(10.5,0,0,-10.5,178.04091,62.848024)" fill="#231f20"/>
<use xlink:href="#font_83b_1" transform="matrix(10.5,0,0,-10.5,182.9759,62.848024)" fill="#231f20"/>
<use xlink:href="#font_83b_8e" transform="matrix(10.5,0,0,-10.5,186.23091,62.942525)" fill="#231f20"/>
<use xlink:href="#font_83b_74" transform="matrix(10.5,0,0,-10.5,191.0399,62.848024)" fill="#231f20"/>
<use xlink:href="#font_83b_7a" transform="matrix(10.5,0,0,-10.5,196.1429,62.848024)" fill="#231f20"/>
<use xlink:href="#font_83b_1" transform="matrix(10.5,0,0,-10.5,202.1489,62.848024)" fill="#231f20"/>
<use xlink:href="#font_83b_7b" transform="matrix(10.5,0,0,-10.5,205.47216,62.942525)" fill="#231f20"/>
<use xlink:href="#font_83b_73" transform="matrix(10.5,0,0,-10.5,209.76665,62.942525)" fill="#231f20"/>
<use xlink:href="#font_83b_71" transform="matrix(10.5,0,0,-10.5,215.78316,62.942525)" fill="#231f20"/>
<use xlink:href="#font_83b_7f" transform="matrix(10.5,0,0,-10.5,221.37966,62.848024)" fill="#231f20"/>
<use xlink:href="#font_83b_7e" transform="matrix(10.5,0,0,-10.5,227.07065,62.942525)" fill="#231f20"/>
<use xlink:href="#font_83b_1a" transform="matrix(10.5,0,0,-10.5,232.52016,62.942525)" fill="#231f20"/>
</g>
<g id="Layer-1" data-name="P">
<g id="Layer-2" data-name="Span">
</g>
<g id="Layer-2" data-name="Span">
</g>
<symbol id="font_83b_13">
<path d="M .393 .7260001 C .135 .71500006 0 .51800009 0 .29700003 C 0 .22500001 .027000007 0 .23400001 0 C .315 0 .36900003 .034 .402 .066 C .45700003 .11800001 .47500003 .183 .47500003 .24000001 C .47500003 .337 .421 .45700003 .263 .45700003 C .22500001 .45700003 .16600001 .448 .097 .396 C .11500001 .50100007 .18200001 .66800007 .38500003 .66800007 L .393 .66800007 L .393 .7260001 M .09400001 .352 C .143 .386 .19300002 .397 .23200001 .397 C .304 .397 .38300003 .36 .38300003 .23200001 C .38300003 .087000008 .285 .048 .24000003 .048 C .16600001 .048 .09400001 .11800001 .09400001 .285 L .09400001 .294 L .09400001 .352 Z "/>
</symbol>
<symbol id="font_83b_77">
<path d="M 0 0 L .22 0 L .22 .036000004 L .172 .041 L .155 .057000005 L .155 .22800002 L .379 .22800002 L .379 .057000005 L .36200003 .041 L .314 .036000004 L .314 0 L .53400006 0 L .53400006 .036000004 L .48000006 .041 L .46300004 .057000005 L .46300004 .42400003 L .48000006 .44000004 L .53400006 .44500003 L .53400006 .48100005 L .314 .48100005 L .314 .44500003 L .36200003 .44000004 L .379 .42400003 L .379 .27400003 L .155 .27400003 L .155 .42400003 L .172 .44000004 L .22 .44500003 L .22 .48100005 L 0 .48100005 L 0 .44500003 L .054000006 .44000004 L .071 .42400003 L .071 .057000005 L .054000006 .041 L 0 .036000004 L 0 0 Z "/>
</symbol>
<use xlink:href="#font_83b_13" transform="matrix(10.5,0,0,-10.5,61.469903,75.573879)" fill="#231f20"/>
<use xlink:href="#font_83b_7" transform="matrix(10.5,0,0,-10.5,67.1084,76.93887)" fill="#231f20"/>
<use xlink:href="#font_83b_1" transform="matrix(10.5,0,0,-10.5,71.1614,75.447879)" fill="#231f20"/>
<use xlink:href="#font_83b_95" transform="matrix(10.5,0,0,-10.5,74.2694,75.447879)" fill="#231f20"/>
<use xlink:href="#font_83b_80" transform="matrix(10.5,0,0,-10.5,79.8869,75.54237)" fill="#231f20"/>
<use xlink:href="#font_83b_9e" transform="matrix(10.5,0,0,-10.5,85.3049,75.54237)" fill="#231f20"/>
<use xlink:href="#font_83b_80" transform="matrix(10.5,0,0,-10.5,90.9749,75.54237)" fill="#231f20"/>
<use xlink:href="#font_83b_1" transform="matrix(10.5,0,0,-10.5,95.7314,75.447879)" fill="#231f20"/>
<use xlink:href="#font_83b_78" transform="matrix(10.5,0,0,-10.5,98.981159,75.447879)" fill="#231f20"/>
<use xlink:href="#font_83b_71" transform="matrix(10.5,0,0,-10.5,106.40465,75.54237)" fill="#231f20"/>
<use xlink:href="#font_83b_89" transform="matrix(10.5,0,0,-10.5,111.68615,75.447879)" fill="#231f20"/>
<use xlink:href="#font_83b_77" transform="matrix(10.5,0,0,-10.5,119.70815,75.447879)" fill="#231f20"/>
<use xlink:href="#font_83b_71" transform="matrix(10.5,0,0,-10.5,126.01865,75.54237)" fill="#231f20"/>
<use xlink:href="#font_83b_1" transform="matrix(10.5,0,0,-10.5,131.30016,75.447879)" fill="#231f20"/>
<use xlink:href="#font_83b_93" transform="matrix(10.5,0,0,-10.5,134.55516,75.447879)" fill="#231f20"/>
<use xlink:href="#font_83b_71" transform="matrix(10.5,0,0,-10.5,140.67667,75.54237)" fill="#231f20"/>
<use xlink:href="#font_83b_80" transform="matrix(10.5,0,0,-10.5,146.34667,75.54237)" fill="#231f20"/>
<use xlink:href="#font_83b_85" transform="matrix(10.5,0,0,-10.5,151.22917,75.447879)" fill="#231f20"/>
<use xlink:href="#font_83b_7e" transform="matrix(10.5,0,0,-10.5,156.83617,75.54237)" fill="#231f20"/>
<use xlink:href="#font_83b_74" transform="matrix(10.5,0,0,-10.5,161.87618,75.447879)" fill="#231f20"/>
<use xlink:href="#font_83b_72" transform="matrix(10.5,0,0,-10.5,166.97917,75.447879)" fill="#231f20"/>
<use xlink:href="#font_83b_1" transform="matrix(10.5,0,0,-10.5,171.91417,75.447879)" fill="#231f20"/>
<use xlink:href="#font_83b_7b" transform="matrix(10.5,0,0,-10.5,175.23743,75.54237)" fill="#231f20"/>
<use xlink:href="#font_83b_1" transform="matrix(10.5,0,0,-10.5,179.53192,75.447879)" fill="#231f20"/>
<use xlink:href="#font_83b_77" transform="matrix(10.5,0,0,-10.5,182.78693,75.447879)" fill="#231f20"/>
<use xlink:href="#font_83b_7e" transform="matrix(10.5,0,0,-10.5,189.14992,75.54237)" fill="#231f20"/>
<use xlink:href="#font_83b_78" transform="matrix(10.5,0,0,-10.5,194.33693,75.447879)" fill="#231f20"/>
<use xlink:href="#font_83b_7a" transform="matrix(10.5,0,0,-10.5,201.68694,75.447879)" fill="#231f20"/>
<use xlink:href="#font_83b_1a" transform="matrix(10.5,0,0,-10.5,208.27043,75.54237)" fill="#231f20"/>
</g>
<g id="Layer-1" data-name="P">
<g id="Layer-2" data-name="Span">
</g>
<g id="Layer-2" data-name="Span">
</g>
<symbol id="font_83b_14">
<path d="M 0 .709 L 0 .542 L .047000007 .542 L .063 .633 L .37100003 .633 L .045 0 L .12800002 0 L .12800002 .023000002 L .46 .669 L .46 .709 L 0 .709 Z "/>
</symbol>
<symbol id="font_83b_76">
<path d="M .326 .703 C .221 .703 .15200001 .66 .112 .625 C .058000003 .577 0 .49000005 0 .35200004 C 0 .21800001 .055000005 .136 .09400001 .095000009 C .14500001 .042000005 .221 0 .324 0 C .437 0 .512 .051 .55600008 .09900001 C .609 .157 .646 .24500002 .646 .35200004 C .646 .548 .526 .703 .326 .703 M .321 .65 C .349 .65 .414 .645 .466 .589 C .5130001 .539 .54100009 .453 .54100009 .35000003 C .54100009 .31 .53700008 .208 .48200003 .134 C .43 .063 .36 .053000004 .324 .053000004 C .276 .053000004 .21000003 .069000009 .16100002 .14 C .10900001 .21500002 .105000007 .314 .105000007 .35300002 C .105000007 .51100006 .16800002 .65 .321 .65 Z "/>
</symbol>
<use xlink:href="#font_83b_14" transform="matrix(10.5,0,0,-10.5,61.6904,88.446918)" fill="#231f20"/>
<use xlink:href="#font_83b_7" transform="matrix(10.5,0,0,-10.5,67.1084,89.53891)" fill="#231f20"/>
<use xlink:href="#font_83b_1" transform="matrix(10.5,0,0,-10.5,71.1614,88.04791)" fill="#231f20"/>
<use xlink:href="#font_83b_76" transform="matrix(10.5,0,0,-10.5,74.5529,88.21591)" fill="#231f20"/>
<use xlink:href="#font_83b_77" transform="matrix(10.5,0,0,-10.5,82.1024,88.04791)" fill="#231f20"/>
<use xlink:href="#font_83b_7a" transform="matrix(10.5,0,0,-10.5,88.3394,88.04791)" fill="#231f20"/>
<use xlink:href="#font_83b_1" transform="matrix(10.5,0,0,-10.5,94.3454,88.04791)" fill="#231f20"/>
<use xlink:href="#font_83b_75" transform="matrix(10.5,0,0,-10.5,97.1804,89.517917)" fill="#231f20"/>
<use xlink:href="#font_83b_71" transform="matrix(10.5,0,0,-10.5,103.0709,88.14241)" fill="#231f20"/>
<use xlink:href="#font_83b_73" transform="matrix(10.5,0,0,-10.5,108.1424,88.14241)" fill="#231f20"/>
<use xlink:href="#font_83b_89" transform="matrix(10.5,0,0,-10.5,113.7704,88.04791)" fill="#231f20"/>
<use xlink:href="#font_83b_77" transform="matrix(10.5,0,0,-10.5,121.792407,88.04791)" fill="#231f20"/>
<use xlink:href="#font_83b_87" transform="matrix(10.5,0,0,-10.5,128.0294,88.04791)" fill="#231f20"/>
<use xlink:href="#font_83b_1" transform="matrix(10.5,0,0,-10.5,135.2324,88.04791)" fill="#231f20"/>
<use xlink:href="#font_83b_7f" transform="matrix(10.5,0,0,-10.5,138.48741,88.04791)" fill="#231f20"/>
<use xlink:href="#font_83b_80" transform="matrix(10.5,0,0,-10.5,144.12592,88.14241)" fill="#231f20"/>
<use xlink:href="#font_83b_82" transform="matrix(10.5,0,0,-10.5,149.11342,90.336917)" fill="#231f20"/>
<use xlink:href="#font_83b_77" transform="matrix(10.5,0,0,-10.5,154.99343,88.04791)" fill="#231f20"/>
<use xlink:href="#font_83b_83" transform="matrix(10.5,0,0,-10.5,160.90493,90.336917)" fill="#231f20"/>
<use xlink:href="#font_83b_74" transform="matrix(10.5,0,0,-10.5,166.29141,88.04791)" fill="#231f20"/>
<use xlink:href="#font_83b_72" transform="matrix(10.5,0,0,-10.5,171.39441,88.04791)" fill="#231f20"/>
<use xlink:href="#font_83b_7b" transform="matrix(10.5,0,0,-10.5,176.71791,88.14241)" fill="#231f20"/>
<use xlink:href="#font_83b_81" transform="matrix(10.5,0,0,-10.5,180.90741,88.04791)" fill="#231f20"/>
<use xlink:href="#font_83b_1" transform="matrix(10.5,0,0,-10.5,186.39891,88.04791)" fill="#231f20"/>
<use xlink:href="#font_83b_68" transform="matrix(10.5,0,0,-10.5,189.65392,88.04791)" fill="#231f20"/>
<use xlink:href="#font_83b_1" transform="matrix(10.5,0,0,-10.5,194.96692,88.04791)" fill="#231f20"/>
<use xlink:href="#font_83b_7f" transform="matrix(10.5,0,0,-10.5,198.22193,88.04791)" fill="#231f20"/>
<use xlink:href="#font_83b_80" transform="matrix(10.5,0,0,-10.5,203.85938,88.14241)" fill="#231f20"/>
<use xlink:href="#font_83b_66" transform="matrix(10.5,0,0,-10.5,208.74188,88.04791)" fill="#231f20"/>
<use xlink:href="#font_83b_80" transform="matrix(10.5,0,0,-10.5,214.63239,88.14241)" fill="#231f20"/>
<use xlink:href="#font_83b_82" transform="matrix(10.5,0,0,-10.5,219.61989,90.336917)" fill="#231f20"/>
<use xlink:href="#font_83b_83" transform="matrix(10.5,0,0,-10.5,225.1744,90.336917)" fill="#231f20"/>
<use xlink:href="#font_83b_b" transform="matrix(10.5,0,0,-10.5,230.56089,88.14241)" fill="#231f20"/>
</g>
</g>
<text x="10" y="-10" font-size="13" font-family="Arial" fill="#cccccc">https://urait.ru</text></svg>
