<?xml version="1.0" encoding="UTF-8" standalone="no"?>
<!DOCTYPE svg PUBLIC "-//W3C//DTD SVG 1.1//EN" "http://www.w3.org/Graphics/SVG/1.1/DTD/svg11.dtd">
<svg xmlns="http://www.w3.org/2000/svg" xmlns:xlink="http://www.w3.org/1999/xlink" version="1.1" width="439.37pt" height="674.646pt" viewBox="0 0 439.37 674.646">
<g enable-background="new">
<g id="Layer-1" data-name="P">
<g id="Layer-2" data-name="Span">
</g>
<symbol id="font_933_1e">
<path d="M .0040000008 0 L .299 0 L .299 .049000004 L .229 .054 L .21200001 .07 L .21200001 .30400003 L .34600003 .30400003 L .36 .291 L .37 .21800001 L .42900003 .21800001 L .42900003 .45000003 L .37 .45000003 L .36 .377 L .34600003 .36400003 L .21200001 .36400003 L .21200001 .614 L .405 .614 L .418 .601 L .43300004 .504 L .50200006 .504 L .50200006 .671 L 0 .671 L 0 .62200006 L .064 .61700007 L .080000009 .60300007 L .080000009 .07 L .064 .054 L .0040000008 .049000004 L .0040000008 0 Z "/>
</symbol>
<symbol id="font_933_35">
<path d="M .317 .009000001 L .49200005 .009000001 L .49200005 .054 L .44000004 .059 L .42700003 .07300001 L .42700003 .33100004 C .42700003 .37800003 .423 .43400003 .38400004 .47000004 C .34600003 .506 .28100003 .508 .252 .508 C .213 .508 .14400001 .504 .086 .47300003 C .028000005 .44200004 .024000004 .404 .024000004 .38900004 C .024000004 .363 .049000004 .35500003 .07000001 .35500003 L .16200002 .35500003 L .16200002 .44900004 C .18100001 .45200003 .19500001 .45400004 .21000001 .45400004 C .3 .45400004 .30400003 .39400003 .30400003 .36 L .30400003 .351 L .30400003 .321 C .268 .31300003 .16800002 .29000003 .118 .272 C .068 .254 0 .22000002 0 .134 C 0 .058000003 .042000005 0 .133 0 C .194 0 .25 .031000004 .30400003 .06600001 L .317 .009000001 M .30400003 .10700001 C .261 .08800001 .236 .07800001 .208 .07800001 C .17400001 .07800001 .134 .09200001 .134 .15200001 C .134 .22600001 .222 .255 .30400003 .27 L .30400003 .10700001 Z "/>
</symbol>
<symbol id="font_933_46">
<path d="M .005000001 0 L .28100003 0 L .28100003 .045 L .21000001 .05 L .19500001 .064 L .19500001 .351 C .214 .36400003 .24500002 .38000003 .27100004 .38000003 C .3 .38000003 .32100005 .35900004 .33100004 .34300003 L .38300003 .34300003 L .39600004 .48100005 C .37400005 .49100004 .35700003 .49800004 .33300004 .49800004 C .30200003 .49800004 .263 .469 .191 .39400003 L .19500001 .49600003 L .147 .49600003 L 0 .44900004 L 0 .409 L .072 .409 L .072 .064 L .058000003 .05 L .005000001 .045 L .005000001 0 Z "/>
</symbol>
<symbol id="font_933_3d">
<path d="M .060000007 .64900007 C .060000007 .60800006 .09300001 .57500007 .134 .57500007 C .17500001 .57500007 .20800002 .60800006 .20800002 .64900007 C .20800002 .69000008 .17500001 .72300007 .134 .72300007 C .09300001 .72300007 .060000007 .69000008 .060000007 .64900007 M .14400001 .49600003 L .0020000004 .44900004 L .0020000004 .409 L .069000009 .409 L .069000009 .064 L .055000005 .05 L 0 .045 L 0 0 L .26400004 0 L .26400004 .045 L .20700002 .05 L .19200002 .064 L .19200002 .49600003 L .14400001 .49600003 Z "/>
</symbol>
<symbol id="font_933_38">
<path d="M .35200004 .661 L .35200004 .499 C .323 .504 .289 .508 .26200003 .508 C .13900002 .508 0 .441 0 .24000001 C 0 .08900001 .09200001 0 .194 0 C .25300003 0 .30600003 .031000004 .35200004 .065000008 L .35200004 .009000001 L .54 .009000001 L .54 .054 L .48900003 .059 L .47500003 .07300001 L .47500003 .748 L .42700003 .748 L .279 .70100006 L .279 .661 L .35200004 .661 M .35200004 .10400001 C .312 .08800001 .286 .08500001 .272 .08500001 C .16000001 .08500001 .134 .17800002 .134 .261 C .134 .36 .171 .45400004 .27800004 .45400004 C .30200003 .45400004 .319 .448 .35200004 .43800003 L .35200004 .10400001 Z "/>
</symbol>
<symbol id="font_933_15">
<path d="M .07900001 .49600003 C .034999998 .49600003 0 .461 0 .416 C 0 .372 .034999998 .337 .07800001 .337 C .12300001 .337 .15900001 .373 .15900001 .416 C .15900001 .45900003 .12300001 .49600003 .07900001 .49600003 M .07900001 .15900001 C .034999998 .15900001 0 .124000009 0 .079 C 0 .035 .034999998 0 .07800001 0 C .12300001 0 .15900001 .035 .15900001 .079 C .15900001 .12200001 .12200001 .15900001 .07900001 .15900001 Z "/>
</symbol>
<symbol id="font_933_1">
<path d="M 0 0 Z "/>
</symbol>
<use xlink:href="#font_933_1e" transform="matrix(10.5,0,0,-10.5,61.2074,50.27948)" fill="#231f20"/>
<use xlink:href="#font_933_35" transform="matrix(10.5,0,0,-10.5,66.7829,50.37398)" fill="#231f20"/>
<use xlink:href="#font_933_46" transform="matrix(10.5,0,0,-10.5,72.3164,50.27948)" fill="#231f20"/>
<use xlink:href="#font_933_3d" transform="matrix(10.5,0,0,-10.5,76.9889,50.27948)" fill="#231f20"/>
<use xlink:href="#font_933_38" transform="matrix(10.5,0,0,-10.5,80.2754,50.37398)" fill="#231f20"/>
<use xlink:href="#font_933_35" transform="matrix(10.5,0,0,-10.5,86.5334,50.37398)" fill="#231f20"/>
<use xlink:href="#font_933_15" transform="matrix(10.5,0,0,-10.5,92.7599,50.36348)" fill="#231f20"/>
<use xlink:href="#font_933_1" transform="matrix(10.5,0,0,-10.5,95.3849,50.27948)" fill="#231f20"/>
</g>
<g id="Layer-1" data-name="P">
<symbol id="font_934_60">
<path d="M 0 0 L 1 0 L 1 .06100002 L 0 .06100002 L 0 0 Z "/>
</symbol>
<use xlink:href="#font_934_60" transform="matrix(10.5,0,0,-10.5,98.3198,48.07448)" fill="#231f20"/>
</g>
<g id="Layer-1" data-name="P">
<use xlink:href="#font_933_1" transform="matrix(10.5,0,0,-10.5,108.8198,50.27948)" fill="#231f20"/>
</g>
<g id="Layer-1" data-name="P">
<g id="Layer-2" data-name="Span">
</g>
<g id="Layer-2" data-name="Span">
</g>
<g id="Layer-2" data-name="Span">
</g>
<symbol id="font_934_29">
<path d="M .0030000006 0 L .21400002 0 L .21400002 .041 L .15400002 .049000004 L .136 .068 L .136 .568 L .518 0 L .584 0 L .584 .60400006 L .602 .62200006 L .662 .63000008 L .662 .671 L .45200003 .671 L .45200003 .63000008 L .512 .62200006 L .53000006 .60400006 L .53000006 .134 L .18800003 .646 L .18800003 .671 L 0 .671 L 0 .63000008 L .064 .625 L .082 .611 L .082 .068 L .064 .049000004 L .0030000006 .041 L .0030000006 0 Z "/>
</symbol>
<symbol id="font_934_45">
<path d="M .23400003 .499 C .072000008 .499 0 .37800003 0 .24900002 C 0 .16700001 .029 .109000008 .063 .072000008 C .091000009 .041 .14400001 0 .23200003 0 C .31300003 0 .36600004 .035 .397 .067 C .43500004 .10700001 .46600003 .16800002 .46600003 .24900002 C .46600003 .38700003 .379 .499 .23400003 .499 M .231 .455 C .25300003 .455 .29400004 .44900004 .328 .40600003 C .36600004 .35700003 .372 .291 .372 .24900002 C .372 .20400001 .36600004 .149 .335 .10300001 C .30400003 .057 .26400004 .044 .23200003 .044 C .19800002 .044 .15100001 .057 .120000008 .12100001 C .10000001 .16300002 .09400001 .21000001 .09400001 .25 C .09400001 .305 .105000007 .365 .136 .40600003 C .16900002 .44900004 .21000001 .455 .231 .455 Z "/>
</symbol>
<symbol id="font_934_1">
<path d="M 0 0 Z "/>
</symbol>
<symbol id="font_934_46">
<path d="M 0 0 L .23600002 0 L .23600002 .036 L .172 .04100001 L .155 .056999998 L .155 .224 C .20600002 .215 .237 .215 .24900003 .215 C .325 .215 .38 .24100001 .419 .279 C .455 .314 .49300004 .37800003 .49300004 .47500003 C .49300004 .63500007 .4 .708 .302 .708 C .264 .708 .22100002 .69900009 .155 .64900007 L .155 .70400008 L .11700001 .70400008 L 0 .66800007 L 0 .637 L .071 .637 L .071 .056999998 L .055000009 .04100001 L 0 .036 L 0 0 M .155 .61200007 C .179 .62600007 .22000002 .64400008 .259 .64400008 C .357 .64400008 .403 .56 .403 .463 C .403 .35400004 .34600003 .259 .22900002 .259 C .21400002 .259 .19000001 .261 .155 .27600003 L .155 .61200007 Z "/>
</symbol>
<symbol id="font_934_48">
<path d="M .0010000002 0 L .243 0 L .243 .036000004 L .17300001 .041 L .156 .057000005 L .156 .34300003 C .18800001 .381 .22300002 .416 .266 .416 C .289 .416 .305 .40500004 .31500004 .39200003 L .347 .39200003 L .347 .47800002 C .33400003 .48400004 .31300003 .49100004 .284 .49100004 C .25500003 .49100004 .22300002 .46300004 .155 .39200003 L .155 .48600004 L .117 .48600004 L 0 .45000003 L 0 .41900004 L .072000008 .41900004 L .072000008 .057000005 L .055 .041 L .0010000002 .036000004 L .0010000002 0 Z "/>
</symbol>
<symbol id="font_934_38">
<path d="M .12300001 .73600009 L 0 .70000007 L 0 .669 L .077 .669 L .077 0 L .20500002 0 C .25400005 0 .34100003 .004 .40800003 .056 C .47100006 .105000007 .49500004 .17400001 .49500004 .25500003 C .49500004 .42000003 .40700004 .49 .29700003 .49 C .24300002 .49 .19100002 .47000004 .16100002 .45600004 L .16100002 .73600009 L .12300001 .73600009 M .16100002 .42200003 C .179 .42700003 .21400002 .43600003 .24800001 .43600003 C .37700004 .43600003 .40500004 .33400003 .40500004 .24100001 C .40500004 .071 .29500003 .044000005 .215 .044000005 C .19600001 .044000005 .172 .045 .16100002 .046000005 L .16100002 .42200003 Z "/>
</symbol>
<symbol id="font_934_42">
<path d="M .0010000002 0 L .237 0 L .237 .036000004 L .17900002 .041 L .16100002 .057000005 L .16100002 .73600009 L .123 .73600009 L 0 .70000007 L 0 .669 L .077 .669 L .077 .057000005 L .060000004 .041 L .0010000002 .036000004 L .0010000002 0 Z "/>
</symbol>
<symbol id="font_934_3b">
<path d="M .411 .11500001 C .33900003 .06600001 .287 .057 .254 .057 C .14 .057 .086 .16300002 .086 .26500003 L .086 .272 L .41000004 .272 C .411 .282 .411 .291 .411 .3 C .411 .46100004 .31 .499 .23200003 .499 C .149 .499 .097 .462 .07000001 .43400003 C .026 .38900004 0 .32200004 0 .24600002 C 0 .10800001 .075 0 .227 0 C .29200004 0 .358 .023000002 .411 .060000004 L .411 .11500001 M .091000009 .314 C .098000008 .38000003 .134 .455 .22 .455 C .279 .455 .30200003 .416 .30800004 .404 C .316 .38900004 .32200004 .35900004 .32200004 .33900003 L .32200004 .314 L .091000009 .314 Z "/>
</symbol>
<symbol id="font_934_43">
<path d="M .155 .48600004 L .117 .48600004 L 0 .45000003 L 0 .41900004 L .071 .41900004 L .071 .057000005 L .054000006 .041 L 0 .036000004 L 0 0 L .22 0 L .22 .036000004 L .172 .041 L .155 .057000005 L .155 .39200003 C .18300002 .407 .22800002 .42400003 .272 .42400003 C .317 .42400003 .35700003 .40100003 .35700003 .32200004 L .35700003 .057000005 L .34 .041 L .29200004 .036000004 L .29200004 0 L .50600007 0 L .50600007 .036000004 L .45900003 .041 L .441 .057000005 L .441 .39200003 C .47700004 .41000004 .518 .42400003 .556 .42400003 C .6240001 .42400003 .643 .386 .643 .32200004 L .643 .057000005 L .625 .041 L .57800009 .036000004 L .57800009 0 L .7980001 0 L .7980001 .036000004 L .7440001 .041 L .727 .057000005 L .727 .33900003 C .727 .402 .6980001 .49 .59800007 .49 C .55500009 .49 .47800002 .45600004 .42600004 .42400003 C .40100003 .46600003 .36400003 .49 .316 .49 C .27100004 .49 .19700001 .45600004 .155 .43100003 L .155 .48600004 Z "/>
</symbol>
<symbol id="font_934_2">
<path d="M .03400001 .18 L .082 .18 L .111 .57600006 C .112 .58400008 .113000009 .59300008 .113000009 .61300006 C .113000009 .67700007 .09 .69200006 .058 .69200006 C .026000008 .69200006 .0029999987 .67700007 .0029999987 .61300006 C .0029999987 .59300008 .0040000008 .58400008 .0050000029 .57600006 L .03400001 .18 M 0 .058000003 C 0 .026 .026000008 0 .058 0 C .09 0 .11600001 .026 .11600001 .058000003 C .11600001 .09 .09 .11600001 .058 .11600001 C .026000008 .11600001 0 .09 0 .058000003 Z "/>
</symbol>
<symbol id="font_934_24">
<path d="M 0 0 L .252 0 L .252 .041 L .18800001 .046000005 L .17100002 .060000004 L .17100002 .611 L .18800001 .625 L .252 .63000008 L .252 .671 L 0 .671 L 0 .63000008 L .06400001 .625 L .081 .611 L .081 .060000004 L .06400001 .046000005 L 0 .041 L 0 0 Z "/>
</symbol>
<symbol id="font_934_3e">
<path d="M .123 .73600009 L 0 .70000007 L 0 .669 L .077 .669 L .077 .057000005 L .060000004 .041 L .005999999 .036000004 L .005999999 0 L .22600001 0 L .22600001 .036000004 L .17900002 .041 L .16100002 .057000005 L .16100002 .39200003 C .21900001 .42000003 .254 .42400003 .28000004 .42400003 C .30300004 .42400003 .33400003 .42100004 .35400004 .39800004 C .37300004 .37600003 .37500004 .34100003 .37500004 .32200004 L .37500004 .057000005 L .358 .041 L .31000004 .036000004 L .31000004 0 L .53000006 0 L .53000006 .036000004 L .47600005 .041 L .45900003 .057000005 L .45900003 .33900003 C .45900003 .42200003 .42600004 .49 .32600004 .49 C .27800004 .49 .21000001 .46 .16100002 .43100003 L .16100002 .73600009 L .123 .73600009 Z "/>
</symbol>
<symbol id="font_934_37">
<path d="M .30600003 .009000001 L .44600005 .009000001 L .44600005 .045 L .39300005 .045 L .37600003 .06600001 L .37600003 .356 C .37600003 .37700004 .37500004 .42800004 .344 .46100004 C .30900003 .49800004 .24800003 .499 .22500003 .499 C .079 .499 .024999999 .43500004 .024999999 .38200004 C .024999999 .358 .044 .356 .056 .356 L .125 .356 L .125 .44000004 C .15 .44900004 .178 .455 .204 .455 C .29700003 .455 .29200004 .38300003 .29200004 .344 L .29200004 .312 C .185 .286 .137 .27 .101 .256 C .053999999 .23700002 0 .20600002 0 .13100001 C 0 .068 .038000004 0 .12799999 0 C .16600001 0 .215 .012 .29200004 .067 L .30600003 .009000001 M .29200004 .10100001 C .22800002 .064 .194 .056 .16800002 .056 C .107 .056 .08800001 .102000009 .08800001 .13900002 C .08800001 .194 .12600002 .21600002 .15799999 .23100002 C .19300002 .24700001 .24900002 .26500003 .29200004 .277 L .29200004 .10100001 Z "/>
</symbol>
<symbol id="font_934_4c">
<path d="M 0 .48100005 L 0 .44500003 L .061 .43800003 L .222 0 L .278 0 L .453 .43600003 L .512 .44500003 L .512 .48100005 L .335 .48100005 L .335 .44500003 L .389 .44000004 L .397 .42400003 L .269 .097 L .152 .42400003 L .164 .44000004 L .21700001 .44500003 L .21700001 .48100005 L 0 .48100005 Z "/>
</symbol>
<symbol id="font_934_4f">
<path d="M 0 .69900009 L 0 .66300007 L .061 .656 L .23000002 .222 C .21000001 .171 .18900001 .116000007 .149 .072 L .053 .11000001 C .032 .094000007 .027 .07000001 .027 .056999998 C .027 .026000008 .051 0 .095000009 0 C .14600002 0 .17700002 .032000007 .19700001 .059 C .20700002 .072 .23000002 .105000007 .256 .16800002 L .456 .65400007 L .514 .66300007 L .514 .69900009 L .336 .69900009 L .336 .66300007 L .39000003 .65800008 L .398 .642 L .273 .33100004 L .15300001 .642 L .165 .65800008 L .21800001 .66300007 L .21800001 .69900009 L 0 .69900009 Z "/>
</symbol>
<symbol id="font_934_4a">
<path d="M .062000008 .42500005 L .062000008 .102000009 C .062000008 .078 .06300001 .044000005 .08600001 .022000002 C .107 .002 .139 0 .16 0 C .191 0 .24200002 .004 .298 .023000002 L .298 .060000004 C .28 .056 .259 .052 .227 .052 C .18800001 .052 .146 .058000003 .146 .161 L .146 .42500005 L .298 .42500005 L .298 .47200004 L .146 .47200004 L .146 .578 L .109000008 .578 L .06600001 .48500005 L 0 .45600004 L 0 .42500005 L .062000008 .42500005 Z "/>
</symbol>
<symbol id="font_934_3f">
<path d="M .117000009 .48600004 L 0 .45000003 L 0 .41900004 L .071 .41900004 L .071 .057000005 L .054000006 .041 L 0 .036000004 L 0 0 L .22600001 0 L .22600001 .036000004 L .17200002 .041 L .155 .057000005 L .155 .48600004 L .117000009 .48600004 M .061000006 .65000006 C .061000006 .61800006 .087000008 .592 .11900001 .592 C .151 .592 .17700002 .61800006 .17700002 .65000006 C .17700002 .68200007 .151 .708 .11900001 .708 C .087000008 .708 .061000006 .68200007 .061000006 .65000006 Z "/>
</symbol>
<symbol id="font_934_44">
<path d="M 0 0 L .22 0 L .22 .036000004 L .172 .041 L .155 .057000005 L .155 .39200003 C .202 .416 .23900002 .42400003 .273 .42400003 C .36100004 .42400003 .36900003 .365 .36900003 .32200004 L .36900003 .057000005 L .35200004 .041 L .30400003 .036000004 L .30400003 0 L .52400007 0 L .52400007 .036000004 L .47 .041 L .453 .057000005 L .453 .33900003 C .453 .47800002 .358 .49 .32000003 .49 C .26200003 .49 .18200001 .446 .155 .43100003 L .155 .48600004 L .117 .48600004 L 0 .45000003 L 0 .41900004 L .071 .41900004 L .071 .057000005 L .054000006 .041 L 0 .036000004 L 0 0 Z "/>
</symbol>
<symbol id="font_934_3d">
<path d="M .32900004 .68100008 C .28500004 .703 .246 .708 .21500002 .708 C .037000006 .708 .022 .58100005 .022 .544 C .022 .45700003 .078999999 .40900005 .146 .393 C .118 .36200003 .098000008 .328 .098000008 .293 C .098000008 .278 .100999999 .26500003 .107999999 .25300003 C .044999999 .24200002 0 .19800002 0 .12900001 C 0 .082 .022999999 .052 .048000006 .033999996 C .065 .020999998 .103 0 .18 0 C .37200005 0 .43900005 .125 .43900005 .18300002 C .43900005 .256 .37100003 .28500004 .26900003 .301 L .17300001 .316 C .172 .32000003 .171 .328 .171 .33600004 C .171 .34600003 .17300001 .36800004 .18200001 .38500003 C .18900001 .384 .19600001 .384 .20300001 .384 C .32500003 .384 .39000003 .46500004 .39000003 .542 C .39000003 .592 .37100003 .62100008 .36200003 .633 L .47200004 .633 L .47200004 .68100008 L .32900004 .68100008 M .20400001 .66800007 C .28100003 .66800007 .30400003 .59900006 .30400003 .546 C .30400003 .45600004 .25100003 .42400003 .206 .42400003 C .11 .42400003 .107999999 .52900007 .107999999 .54700008 C .107999999 .628 .148 .66800007 .20400001 .66800007 M .263 .23 C .35600005 .21300002 .36500005 .18900001 .36500005 .157 C .36500005 .08 .28500004 .046000005 .216 .046000005 C .137 .046000005 .08 .09300001 .08 .149 C .08 .21800001 .154 .24400002 .16600001 .24800001 L .263 .23 Z "/>
</symbol>
<symbol id="font_934_b">
<path d="M 0 .064 C 0 .030000002 .030000002 0 .063999999 0 C .098000008 0 .128 .030000002 .128 .064 C .128 .098000008 .098000008 .128 .063999999 .128 C .030000002 .128 0 .098000008 0 .064 Z "/>
</symbol>
<use xlink:href="#font_934_29" transform="matrix(10.5,0,0,-10.5,112.028408,50.27948)" fill="#231f20"/>
<use xlink:href="#font_934_45" transform="matrix(10.5,0,0,-10.5,119.4939,50.37398)" fill="#231f20"/>
<use xlink:href="#font_934_1" transform="matrix(10.5,0,0,-10.5,124.7754,50.27948)" fill="#231f20"/>
<use xlink:href="#font_934_46" transform="matrix(10.5,0,0,-10.5,127.9464,52.56848)" fill="#231f20"/>
<use xlink:href="#font_934_48" transform="matrix(10.5,0,0,-10.5,133.8264,50.27948)" fill="#231f20"/>
<use xlink:href="#font_934_45" transform="matrix(10.5,0,0,-10.5,137.9109,50.37398)" fill="#231f20"/>
<use xlink:href="#font_934_38" transform="matrix(10.5,0,0,-10.5,143.2764,50.27948)" fill="#231f20"/>
<use xlink:href="#font_934_42" transform="matrix(10.5,0,0,-10.5,149.14589,50.27948)" fill="#231f20"/>
<use xlink:href="#font_934_3b" transform="matrix(10.5,0,0,-10.5,152.2329,50.37398)" fill="#231f20"/>
<use xlink:href="#font_934_43" transform="matrix(10.5,0,0,-10.5,157.3044,50.27948)" fill="#231f20"/>
<use xlink:href="#font_934_2" transform="matrix(10.5,0,0,-10.5,167.02739,50.37398)" fill="#231f20"/>
<use xlink:href="#font_934_1" transform="matrix(10.5,0,0,-10.5,169.4214,50.27948)" fill="#231f20"/>
<use xlink:href="#font_934_24" transform="matrix(10.5,0,0,-10.5,172.7289,50.27948)" fill="#231f20"/>
<use xlink:href="#font_934_1" transform="matrix(10.5,0,0,-10.5,175.7424,50.27948)" fill="#231f20"/>
<use xlink:href="#font_934_3e" transform="matrix(10.5,0,0,-10.5,178.8819,50.27948)" fill="#231f20"/>
<use xlink:href="#font_934_37" transform="matrix(10.5,0,0,-10.5,185.06639,50.37398)" fill="#231f20"/>
<use xlink:href="#font_934_4c" transform="matrix(10.5,0,0,-10.5,189.74939,50.27948)" fill="#231f20"/>
<use xlink:href="#font_934_3b" transform="matrix(10.5,0,0,-10.5,195.2199,50.37398)" fill="#231f20"/>
<use xlink:href="#font_934_1" transform="matrix(10.5,0,0,-10.5,199.9764,50.27948)" fill="#231f20"/>
<use xlink:href="#font_934_3b" transform="matrix(10.5,0,0,-10.5,203.29965,50.37398)" fill="#231f20"/>
<use xlink:href="#font_934_4c" transform="matrix(10.5,0,0,-10.5,208.00365,50.27948)" fill="#231f20"/>
<use xlink:href="#font_934_3b" transform="matrix(10.5,0,0,-10.5,213.47415,50.37398)" fill="#231f20"/>
<use xlink:href="#font_934_48" transform="matrix(10.5,0,0,-10.5,218.54566,50.27948)" fill="#231f20"/>
<use xlink:href="#font_934_4f" transform="matrix(10.5,0,0,-10.5,222.58815,52.56848)" fill="#231f20"/>
<use xlink:href="#font_934_4a" transform="matrix(10.5,0,0,-10.5,228.06914,50.32148)" fill="#231f20"/>
<use xlink:href="#font_934_3e" transform="matrix(10.5,0,0,-10.5,231.71263,50.27948)" fill="#231f20"/>
<use xlink:href="#font_934_3f" transform="matrix(10.5,0,0,-10.5,237.81313,50.27948)" fill="#231f20"/>
<use xlink:href="#font_934_44" transform="matrix(10.5,0,0,-10.5,240.71114,50.27948)" fill="#231f20"/>
<use xlink:href="#font_934_3d" transform="matrix(10.5,0,0,-10.5,246.80113,52.56848)" fill="#231f20"/>
<use xlink:href="#font_934_1" transform="matrix(10.5,0,0,-10.5,251.86214,50.27948)" fill="#231f20"/>
<use xlink:href="#font_934_37" transform="matrix(10.5,0,0,-10.5,255.23789,50.37398)" fill="#231f20"/>
<use xlink:href="#font_934_4a" transform="matrix(10.5,0,0,-10.5,260.3724,50.32148)" fill="#231f20"/>
<use xlink:href="#font_934_1" transform="matrix(10.5,0,0,-10.5,263.61689,50.27948)" fill="#231f20"/>
<use xlink:href="#font_934_3e" transform="matrix(10.5,0,0,-10.5,266.75639,50.27948)" fill="#231f20"/>
<use xlink:href="#font_934_45" transform="matrix(10.5,0,0,-10.5,272.88838,50.37398)" fill="#231f20"/>
<use xlink:href="#font_934_43" transform="matrix(10.5,0,0,-10.5,278.4849,50.27948)" fill="#231f20"/>
<use xlink:href="#font_934_3b" transform="matrix(10.5,0,0,-10.5,287.42039,50.37398)" fill="#231f20"/>
<use xlink:href="#font_934_b" transform="matrix(10.5,0,0,-10.5,292.97489,50.37398)" fill="#231f20"/>
</g>
<g id="Layer-1" data-name="P">
<g id="Layer-2" data-name="Span">
</g>
<symbol id="font_933_19">
<path d="M .286 .67800006 L .060000004 .058000003 L 0 .049000004 L 0 0 L .215 0 L .215 .049000004 L .152 .056 L .142 .069000009 L .202 .238 L .42000003 .238 L .48000003 .068 L .47300003 .055000005 L .41000004 .049000004 L .41000004 0 L .68000009 0 L .68000009 .049000004 L .62100008 .059000005 L .391 .67800006 L .286 .67800006 M .308 .541 L .391 .294 L .221 .294 L .308 .541 Z "/>
</symbol>
<symbol id="font_933_40">
<path d="M 0 0 L .26700003 0 L .26700003 .045 L .21000001 .05 L .19500001 .064 L .19500001 .739 L .15100001 .739 L 0 .69100007 L 0 .652 L .072 .652 L .072 .064 L .058000003 .05 L 0 .045 L 0 0 Z "/>
</symbol>
<symbol id="font_933_47">
<path d="M .354 .48400004 C .294 .504 .24000001 .508 .206 .508 C .136 .508 .0069999995 .47800002 .0069999995 .36 C .0069999995 .28300003 .06600001 .25100003 .16600001 .20600002 C .24200002 .172 .25100003 .15500002 .25100003 .127 C .25100003 .08200001 .23000002 .054 .162 .054 C .14500001 .054 .117000009 .057 .082 .07400001 L .072000008 .08500001 L .061000006 .171 L 0 .171 L 0 .023000002 C .06600001 .0050000005 .12900001 0 .162 0 C .323 0 .36900003 .08400001 .36900003 .16200002 C .36900003 .18400002 .367 .20400001 .34800003 .22700002 C .33200003 .24600002 .305 .26500003 .229 .30200003 C .14700002 .34300003 .13 .363 .13 .39000003 C .13 .44300003 .17500001 .45400004 .20500002 .45400004 C .22 .45400004 .24200002 .45200003 .272 .43700005 L .284 .42600004 L .294 .351 L .354 .351 L .354 .48400004 Z "/>
</symbol>
<symbol id="font_933_49">
<path d="M .14000002 .508 L 0 .46000005 L 0 .42100004 L .065000008 .42100004 L .065000008 .171 C .065000008 .11000001 .083000008 0 .19800002 0 C .26600004 0 .32400004 .035 .36900003 .064 L .36900003 .009000001 L .557 .009000001 L .557 .054 L .506 .059 L .492 .07300001 L .492 .508 L .44600005 .508 L .30400003 .46000005 L .30400003 .42100004 L .36900003 .42100004 L .36900003 .102000009 C .33800004 .09200001 .30400003 .08600001 .28000004 .08600001 C .25800003 .08600001 .23000002 .08900001 .21000001 .113000009 C .18900001 .13800001 .18800003 .17600002 .18800003 .19800002 L .18800003 .508 L .14000002 .508 Z "/>
</symbol>
<use xlink:href="#font_933_19" transform="matrix(10.5,0,0,-10.5,60.8189,62.879518)" fill="#231f20"/>
<use xlink:href="#font_933_40" transform="matrix(10.5,0,0,-10.5,68.0219,62.879518)" fill="#231f20"/>
<use xlink:href="#font_933_47" transform="matrix(10.5,0,0,-10.5,71.3819,62.97402)" fill="#231f20"/>
<use xlink:href="#font_933_49" transform="matrix(10.5,0,0,-10.5,75.9179,62.97402)" fill="#231f20"/>
<use xlink:href="#font_933_15" transform="matrix(10.5,0,0,-10.5,82.9109,62.963518)" fill="#231f20"/>
<use xlink:href="#font_933_1" transform="matrix(10.5,0,0,-10.5,85.5359,62.879518)" fill="#231f20"/>
</g>
<g id="Layer-1" data-name="P">
<use xlink:href="#font_934_60" transform="matrix(10.5,0,0,-10.5,88.4711,60.674516)" fill="#231f20"/>
</g>
<g id="Layer-1" data-name="P">
<use xlink:href="#font_933_1" transform="matrix(10.5,0,0,-10.5,98.9711,62.879518)" fill="#231f20"/>
</g>
<g id="Layer-1" data-name="P">
<symbol id="font_934_22">
<path d="M .374 .33400003 L .374 .293 L .44500003 .28800003 L .46199999 .27400003 L .46199999 .066 C .428 .057000005 .39200003 .053000004 .363 .053000004 C .16900002 .053000004 .105000007 .205 .105000007 .354 C .105000007 .46800003 .143 .53800007 .18 .57600006 C .21100001 .60700008 .26500003 .6420001 .351 .6420001 C .398 .6420001 .435 .63100007 .466 .61600008 L .48 .59800007 L .49500004 .507 L .55100008 .507 L .55100008 .66600009 C .455 .69200006 .391 .69500008 .359 .69500008 C .284 .69500008 .19200002 .68200007 .113000009 .61500009 C .058000003 .5680001 0 .48700003 0 .35300002 C 0 .227 .052000006 .146 .097 .09900001 C .17000002 .024 .256 0 .345 0 C .424 0 .50200006 .019000002 .55200007 .035000005 L .55200007 .27400003 L .56900009 .28800003 L .6240001 .293 L .6240001 .33400003 L .374 .33400003 Z "/>
</symbol>
<symbol id="font_934_3a">
<path d="M .34600003 .67800006 L .34600003 .49000005 C .32200004 .49400003 .286 .499 .259 .499 C .193 .499 .134 .47800002 .09300001 .44500003 C .050000006 .411 0 .344 0 .23400001 C 0 .10000001 .078 0 .194 0 C .23000002 0 .28300003 .009000001 .34600003 .061 L .34600003 .009000001 L .495 .009000001 L .495 .045 L .44700004 .05 L .43 .06600001 L .43 .74500009 L .39200003 .74500009 L .26900003 .70900008 L .26900003 .67800006 L .34600003 .67800006 M .34600003 .098000008 C .314 .079 .275 .064 .238 .064 C .16100002 .064 .09 .11900001 .09 .24700001 C .09 .35900004 .14400001 .455 .26500003 .455 C .293 .455 .33 .44500003 .34600003 .441 L .34600003 .098000008 Z "/>
</symbol>
<symbol id="font_934_2d">
<path d="M 0 .032 C .028000005 .021000002 .08600001 0 .17400001 0 C .286 0 .44 .037 .44 .204 C .44 .344 .25100003 .37600003 .157 .435 C .119 .458 .104 .48700003 .104 .52500006 C .104 .60300007 .16900002 .64500007 .24000001 .64500007 C .28 .64500007 .307 .63600006 .33 .6240001 L .34500004 .60700008 L .356 .512 L .41200004 .512 L .41200004 .66700008 C .34500004 .68900009 .284 .69500008 .24400002 .69500008 C .15400002 .69500008 .011 .66200008 .011 .49800004 C .011 .359 .194 .333 .29900003 .264 C .324 .24700001 .347 .22600001 .347 .176 C .347 .08500001 .28100003 .053000004 .194 .053000004 C .136 .053000004 .104 .066 .08400001 .076000008 L .07100001 .093 L .056 .208 L 0 .208 L 0 .032 Z "/>
</symbol>
<symbol id="font_934_4b">
<path d="M .117000009 .499 L 0 .46300004 L 0 .432 L .071 .432 L .071 .15200001 C .071 .11800001 .076000008 .071 .108 .037 C .136 .007 .171 0 .20300001 0 C .25700004 0 .31900005 .028 .36900003 .065000008 L .36900003 .009000001 L .518 .009000001 L .518 .045 L .47100003 .05 L .45300005 .06600001 L .45300005 .499 L .41500003 .499 L .298 .46300004 L .298 .432 L .36900003 .432 L .36900003 .09300001 C .314 .067 .27300004 .064 .25200004 .064 C .231 .064 .20000002 .067 .18 .08800001 C .157 .11100001 .155 .14800002 .155 .16900002 L .155 .499 L .117000009 .499 Z "/>
</symbol>
<use xlink:href="#font_934_22" transform="matrix(10.5,0,0,-10.5,102.3582,63.005517)" fill="#231f20"/>
<use xlink:href="#font_934_45" transform="matrix(10.5,0,0,-10.5,109.5822,62.97402)" fill="#231f20"/>
<use xlink:href="#font_934_45" transform="matrix(10.5,0,0,-10.5,115.2522,62.97402)" fill="#231f20"/>
<use xlink:href="#font_934_3a" transform="matrix(10.5,0,0,-10.5,120.922199,62.97402)" fill="#231f20"/>
<use xlink:href="#font_934_1" transform="matrix(10.5,0,0,-10.5,126.4767,62.879518)" fill="#231f20"/>
<use xlink:href="#font_934_38" transform="matrix(10.5,0,0,-10.5,129.49546,62.879518)" fill="#231f20"/>
<use xlink:href="#font_934_4f" transform="matrix(10.5,0,0,-10.5,134.9565,65.16852)" fill="#231f20"/>
<use xlink:href="#font_934_3b" transform="matrix(10.5,0,0,-10.5,140.56349,62.97402)" fill="#231f20"/>
<use xlink:href="#font_934_b" transform="matrix(10.5,0,0,-10.5,146.118,62.97402)" fill="#231f20"/>
<use xlink:href="#font_934_1" transform="matrix(10.5,0,0,-10.5,148.26,62.879518)" fill="#231f20"/>
<use xlink:href="#font_934_2d" transform="matrix(10.5,0,0,-10.5,151.83,63.005517)" fill="#231f20"/>
<use xlink:href="#font_934_3b" transform="matrix(10.5,0,0,-10.5,157.4265,62.97402)" fill="#231f20"/>
<use xlink:href="#font_934_3b" transform="matrix(10.5,0,0,-10.5,162.5715,62.97402)" fill="#231f20"/>
<use xlink:href="#font_934_1" transform="matrix(10.5,0,0,-10.5,167.328,62.879518)" fill="#231f20"/>
<use xlink:href="#font_934_4f" transform="matrix(10.5,0,0,-10.5,170.2575,65.16852)" fill="#231f20"/>
<use xlink:href="#font_934_45" transform="matrix(10.5,0,0,-10.5,175.86452,62.97402)" fill="#231f20"/>
<use xlink:href="#font_934_4b" transform="matrix(10.5,0,0,-10.5,181.419,62.97402)" fill="#231f20"/>
<use xlink:href="#font_934_1" transform="matrix(10.5,0,0,-10.5,187.15201,62.879518)" fill="#231f20"/>
<use xlink:href="#font_934_42" transform="matrix(10.5,0,0,-10.5,190.37026,62.879518)" fill="#231f20"/>
<use xlink:href="#font_934_37" transform="matrix(10.5,0,0,-10.5,193.50975,62.97402)" fill="#231f20"/>
<use xlink:href="#font_934_4a" transform="matrix(10.5,0,0,-10.5,198.64426,62.921518)" fill="#231f20"/>
<use xlink:href="#font_934_3b" transform="matrix(10.5,0,0,-10.5,202.27727,62.97402)" fill="#231f20"/>
<use xlink:href="#font_934_48" transform="matrix(10.5,0,0,-10.5,207.34877,62.879518)" fill="#231f20"/>
<use xlink:href="#font_934_b" transform="matrix(10.5,0,0,-10.5,211.27577,62.97402)" fill="#231f20"/>
</g>
<g id="Layer-1" data-name="P">
<g id="Layer-2" data-name="Span">
</g>
<use xlink:href="#font_933_1e" transform="matrix(10.5,0,0,-10.5,61.2074,75.47949)" fill="#231f20"/>
<use xlink:href="#font_933_35" transform="matrix(10.5,0,0,-10.5,66.7829,75.57399)" fill="#231f20"/>
<use xlink:href="#font_933_46" transform="matrix(10.5,0,0,-10.5,72.3164,75.47949)" fill="#231f20"/>
<use xlink:href="#font_933_3d" transform="matrix(10.5,0,0,-10.5,76.9889,75.47949)" fill="#231f20"/>
<use xlink:href="#font_933_38" transform="matrix(10.5,0,0,-10.5,80.2754,75.57399)" fill="#231f20"/>
<use xlink:href="#font_933_35" transform="matrix(10.5,0,0,-10.5,86.5334,75.57399)" fill="#231f20"/>
<use xlink:href="#font_933_15" transform="matrix(10.5,0,0,-10.5,92.7599,75.56349)" fill="#231f20"/>
<use xlink:href="#font_933_1" transform="matrix(10.5,0,0,-10.5,95.3849,75.47949)" fill="#231f20"/>
</g>
<g id="Layer-1" data-name="P">
<use xlink:href="#font_934_60" transform="matrix(10.5,0,0,-10.5,98.3198,73.27449)" fill="#231f20"/>
</g>
<g id="Layer-1" data-name="P">
<use xlink:href="#font_933_1" transform="matrix(10.5,0,0,-10.5,108.8198,75.47949)" fill="#231f20"/>
</g>
<g id="Layer-1" data-name="P">
<symbol id="font_934_1d">
<path d="M 0 .671 L 0 .63000008 L .057000005 .625 L .07400001 .611 L .07400001 .060000004 L .057000005 .046000005 L 0 .041 L 0 0 L .26400004 0 C .316 0 .40200005 .006 .46100004 .053000004 C .51600006 .096 .526 .149 .526 .192 C .526 .24700001 .50900009 .294 .46200005 .324 C .42500005 .347 .37100003 .35500003 .33900003 .356 L .33900003 .358 C .36800004 .365 .41200004 .381 .43800003 .404 C .47500003 .43500004 .48400004 .47400005 .48400004 .513 C .48400004 .565 .46600003 .611 .41100005 .64100006 C .36900003 .66400006 .30400003 .671 .25500003 .671 L 0 .671 M .164 .624 C .169 .624 .19800002 .62700006 .22600001 .62700006 C .29200004 .62700006 .38600005 .60700008 .38600005 .503 C .38600005 .43300004 .34300003 .36600004 .201 .36600004 C .18900001 .36600004 .17700002 .36600004 .164 .367 L .164 .624 M .164 .317 C .185 .319 .23300001 .323 .261 .323 C .28900004 .323 .351 .321 .38900004 .287 C .42200003 .257 .42600004 .21700001 .42600004 .19000001 C .42600004 .051000004 .30500005 .046000005 .23700002 .046000005 C .213 .046000005 .19 .047000003 .164 .05 L .164 .317 Z "/>
</symbol>
<use xlink:href="#font_934_1d" transform="matrix(10.5,0,0,-10.5,112.1019,75.47949)" fill="#231f20"/>
<use xlink:href="#font_934_4f" transform="matrix(10.5,0,0,-10.5,118.08691,77.76849)" fill="#231f20"/>
<use xlink:href="#font_934_3b" transform="matrix(10.5,0,0,-10.5,123.6939,75.57399)" fill="#231f20"/>
<use xlink:href="#font_934_b" transform="matrix(10.5,0,0,-10.5,129.24842,75.57399)" fill="#231f20"/>
</g>
</g>
<text x="10" y="-10" font-size="13" font-family="Arial" fill="#cccccc">https://urait.ru</text></svg>
