<?xml version="1.0" encoding="UTF-8" standalone="no"?>
<!DOCTYPE svg PUBLIC "-//W3C//DTD SVG 1.1//EN" "http://www.w3.org/Graphics/SVG/1.1/DTD/svg11.dtd">
<svg xmlns="http://www.w3.org/2000/svg" xmlns:xlink="http://www.w3.org/1999/xlink" version="1.1" width="439.37pt" height="674.646pt" viewBox="0 0 439.37 674.646">
<g enable-background="new">
<g id="Layer-1" data-name="P">
<g id="Layer-2" data-name="Span">
</g>
<g id="Layer-2" data-name="Span">
</g>
<symbol id="font_9f2_4b">
<path d="M .022000002 .684 L .022000002 .63600006 L .085 .63000008 L .094000007 .62200006 L .261 .172 C .23200001 .112 .17700002 .059000005 .11900001 .057000005 L .106 .069000009 L .106 .19 L .031000002 .19 L 0 .027 C .047 .0039999999 .092 0 .117000009 0 C .172 0 .21500002 .021000002 .244 .043 C .273 .065 .31100003 .106000009 .36200003 .199 L .6 .63000008 L .66400006 .63600006 L .66400006 .684 L .44 .684 L .44 .63600006 L .50400009 .63000008 L .51400008 .61600008 L .34 .28700004 L .22700002 .61600008 L .237 .63000008 L .299 .63600006 L .299 .684 L .022000002 .684 Z "/>
</symbol>
<symbol id="font_9f2_4c">
<path d="M .17700002 .49900005 L 0 .46000005 L 0 .42500005 L .083000008 .41300003 L .0040000008 .006 L .12600002 .006 L .18900001 .34800003 C .26500003 .40700004 .30100004 .41400004 .31500004 .41400004 C .34800003 .41400004 .36300005 .38900004 .36300005 .35400004 C .36300005 .33500005 .35600005 .29900003 .35400004 .29000003 L .31900005 .124000009 C .316 .108 .31100003 .09 .31100003 .068 C .31100003 .02 .351 0 .39400003 0 C .43900005 0 .502 .019000002 .543 .034 L .543 .072 C .529 .067 .502 .061000006 .48500005 .061000006 C .44200004 .061000006 .43500004 .09 .43500004 .112 C .43500004 .124000009 .43700005 .143 .44600005 .185 L .47600005 .32200004 C .48100005 .34700004 .48600004 .37900005 .48600004 .39900003 C .48600004 .45000006 .45500005 .49800004 .39200003 .49800004 C .32000003 .49800004 .25500003 .44700004 .19500003 .40000005 L .215 .49900005 L .17700002 .49900005 Z "/>
</symbol>
<symbol id="font_9f2_5c">
<path d="M .256 .711 L .089 .67200008 L .089 .637 L .16600001 .625 L .07000001 .069000009 L .061000006 .05600001 L 0 .040000008 L 0 0 L .279 0 L .279 .040000008 L .186 .05600001 L .216 .231 C .23600002 .223 .26200003 .215 .29800005 .215 C .356 .215 .435 .23500002 .50100007 .31100003 C .558 .37700004 .583 .45700003 .583 .53300008 C .583 .66400006 .51100006 .71000006 .44300003 .71000006 C .38600005 .71000006 .329 .679 .286 .643 L .3 .711 L .256 .711 M .279 .59400007 C .28800003 .6 .334 .637 .37800003 .637 C .44200004 .637 .45500005 .56200006 .45500005 .513 C .45500005 .45500005 .44100005 .39400003 .40900005 .344 C .36900003 .28100003 .319 .27100004 .293 .27100004 C .26200003 .27100004 .23300001 .284 .22500001 .28800003 L .279 .59400007 Z "/>
</symbol>
<symbol id="font_9f2_4e">
<path d="M .43400003 .503 L .397 .479 C .34100003 .5 .305 .50200006 .28500004 .50200006 C .11800001 .50200006 0 .35300002 0 .18300002 C 0 .089 .047 0 .141 0 C .20300001 0 .26000003 .041 .30300004 .082 L .30300004 .078 C .30300004 .020000002 .34500004 .0040000008 .37900005 .0040000008 C .42000003 .0040000008 .481 .021000002 .52900007 .039 L .52900007 .077 C .51100006 .071 .485 .065000008 .46800003 .065000008 C .42500005 .065000008 .42100004 .103 .42100004 .119 C .42100004 .13100001 .42300005 .14900002 .43000005 .18900001 L .45900003 .351 C .47600005 .444 .48800005 .485 .49300004 .503 L .43400003 .503 M .351 .395 L .305 .13000001 C .27300004 .105000007 .24100003 .084 .20300001 .084 C .15900001 .084 .12799999 .11 .12799999 .20100002 C .12799999 .349 .197 .455 .30200003 .455 L .31100003 .455 L .351 .395 Z "/>
</symbol>
<symbol id="font_9f2_4a">
<path d="M .42200003 .485 L .40600003 .41 L .30200003 .252 L .3 .252 C .305 .28 .308 .305 .308 .33 C .308 .414 .286 .50200006 .20100002 .50200006 C .14600002 .50200006 .094000007 .472 .042000005 .42400003 L .042000005 .368 C .072000008 .396 .109000008 .42400003 .14600002 .42400003 C .19300002 .42400003 .20600002 .372 .20600002 .30900003 C .20600002 .21300002 .18500002 .1 .125 .056000007 L .053000004 .13200002 C .022 .124000009 0 .1 0 .067 C 0 .023000002 .040000004 0 .08 0 C .15900001 0 .21800001 .047000003 .26 .12100001 L .4 .334 L .402 .334 L .338 .010000001 L .446 .010000001 L .45900003 .094000007 L .558 .24800001 L .56 .24800001 C .554 .21900001 .55200007 .19200002 .55200007 .165 C .55200007 .119 .561 0 .66 0 C .71900007 0 .78300008 .035 .82600006 .078 L .82600006 .134 C .79800006 .108 .753 .078 .71400007 .078 C .662 .078 .65400007 .14400001 .65400007 .19400002 C .65400007 .29 .671 .347 .679 .36900003 C .694 .411 .711 .433 .735 .451 L .78800007 .374 C .823 .37600003 .86 .391 .86 .43600003 C .86 .481 .82000008 .50200006 .773 .50200006 C .69600006 .50200006 .634 .446 .6 .381 L .46100004 .16600001 L .45900003 .16600001 L .53000006 .499 L .42200003 .485 Z "/>
</symbol>
<symbol id="font_9f2_53">
<path d="M .17300001 .49300004 L 0 .46000005 L 0 .42500005 L .080000009 .41300003 L 0 .006 L .12000001 .006 L .157 .23 L .32900004 .23 L .30800004 .124000009 C .30500005 .109000008 .3 .091 .3 .068 C .3 .02 .34000004 0 .38300003 0 C .42800004 0 .49100004 .019000002 .532 .034 L .532 .072 C .518 .067 .49100004 .061000006 .474 .061000006 C .43100003 .061000006 .42400003 .09 .42400003 .112 C .42400003 .13000001 .42800004 .15200001 .43500004 .185 L .5 .49500004 L .381 .48100005 L .34100003 .28800003 L .167 .28800003 L .21100003 .49300004 L .17300001 .49300004 Z "/>
</symbol>
<symbol id="font_9f2_58">
<path d="M .384 .14600002 C .335 .109000008 .278 .078 .224 .078 C .16600001 .078 .120000008 .119 .120000008 .19900002 C .120000008 .21000001 .12100001 .22900002 .12200001 .23700002 C .131 .23600002 .14400001 .23600002 .15900001 .23600002 C .24600002 .23600002 .41200004 .263 .41200004 .39200003 C .41200004 .46400003 .367 .50200006 .28800003 .50200006 C .108 .50200006 0 .326 0 .19100002 C 0 .106 .035000005 0 .176 0 C .254 0 .32500003 .042000005 .38200004 .085 L .384 .14600002 M .13000001 .279 C .13700001 .313 .15100001 .35300002 .17300001 .389 C .207 .44500003 .24200002 .453 .26200003 .453 C .291 .453 .31100003 .432 .31100003 .40100003 C .31100003 .38500003 .30600003 .354 .27 .32500003 C .22700002 .291 .16700001 .28100003 .13000001 .279 Z "/>
</symbol>
<symbol id="font_9f2_55">
<path d="M .17300001 .497 L 0 .46400003 L 0 .42900003 L .08 .417 L .032 .157 C .030000002 .14400001 .026 .117000009 .026 .1 C .026 .032 .06300001 0 .12400001 0 C .21000001 0 .29200004 .072000008 .31300003 .087000008 L .31300003 .082 C .31300003 .035 .337 .0040000008 .38600005 .0040000008 C .40700004 .0040000008 .44200004 .010000001 .46400003 .015000001 C .47300006 .017 .48900003 .021000002 .545 .039 L .545 .077 C .52000007 .068 .49600006 .065000008 .48400004 .065000008 C .45300005 .065000008 .43600003 .088 .43600003 .117000009 C .43600003 .136 .441 .15900001 .44700004 .18900001 L .50500008 .499 L .38600005 .485 L .319 .133 C .275 .105000007 .222 .084 .19700001 .084 C .16600001 .084 .14600002 .105000007 .14600002 .13800001 C .14600002 .15 .15200001 .18600002 .15400002 .19800002 L .21100001 .497 L .17300001 .497 Z "/>
</symbol>
<symbol id="font_9f2_1">
<path d="M 0 0 Z "/>
</symbol>
<symbol id="font_9f2_b">
<path d="M .311 .683 L .065 .611 L .065 .56100007 L .21500002 .58000007 L .22600003 .57500007 L .127 .075 L .11 .058000003 L 0 .058000003 L 0 0 L .361 0 L .361 .05 L .265 .057000005 L .25300003 .072000008 L .374 .683 L .311 .683 Z "/>
</symbol>
<symbol id="font_9f2_a">
<path d="M .32700003 .694 C .136 .694 0 .48200003 0 .23700002 C 0 .091000009 .077 0 .20300001 0 C .39400003 0 .526 .20800002 .526 .45200003 C .526 .606 .44800005 .694 .32700003 .694 M .31400005 .636 C .37200005 .636 .39900003 .594 .39900003 .503 C .39900003 .38500003 .36800004 .23700002 .32600004 .15100001 C .29400004 .087000008 .25900004 .058000003 .214 .058000003 C .158 .058000003 .127 .104 .127 .18900001 C .127 .39400003 .208 .636 .31400005 .636 Z "/>
</symbol>
<symbol id="font_9f2_8">
<path d="M .078 .154 C .034 .154 0 .120000008 0 .077 C 0 .034 .035000005 0 .07700001 0 C .120000008 0 .15400002 .034 .15400002 .077 C .15400002 .120000008 .120000008 .154 .078 .154 Z "/>
</symbol>
<use xlink:href="#font_9f2_4b" transform="matrix(10.5,0,0,-10.5,61.1549,50.384428)" fill="#231f20"/>
<use xlink:href="#font_9f2_4c" transform="matrix(10.5,0,0,-10.5,67.553607,50.310926)" fill="#231f20"/>
<use xlink:href="#font_9f2_5c" transform="matrix(10.5,0,0,-10.5,72.9926,52.536928)" fill="#231f20"/>
<use xlink:href="#font_9f2_4e" transform="matrix(10.5,0,0,-10.5,80.00975,50.352926)" fill="#231f20"/>
<use xlink:href="#font_9f2_4a" transform="matrix(10.5,0,0,-10.5,85.79525,50.352926)" fill="#231f20"/>
<use xlink:href="#font_9f2_53" transform="matrix(10.5,0,0,-10.5,95.318759,50.310926)" fill="#231f20"/>
<use xlink:href="#font_9f2_58" transform="matrix(10.5,0,0,-10.5,101.41925,50.352926)" fill="#231f20"/>
<use xlink:href="#font_9f2_53" transform="matrix(10.5,0,0,-10.5,106.438259,50.310926)" fill="#231f20"/>
<use xlink:href="#font_9f2_55" transform="matrix(10.5,0,0,-10.5,112.66475,50.352926)" fill="#231f20"/>
<use xlink:href="#font_9f2_58" transform="matrix(10.5,0,0,-10.5,118.90175,50.352926)" fill="#231f20"/>
<use xlink:href="#font_9f2_1" transform="matrix(10.5,0,0,-10.5,123.64775,50.247926)" fill="#231f20"/>
<use xlink:href="#font_9f2_b" transform="matrix(10.5,0,0,-10.5,127.91074,50.247926)" fill="#231f20"/>
<use xlink:href="#font_9f2_a" transform="matrix(10.5,0,0,-10.5,133.0694,50.363428)" fill="#231f20"/>
<use xlink:href="#font_9f2_8" transform="matrix(10.5,0,0,-10.5,139.2119,50.310926)" fill="#231f20"/>
<use xlink:href="#font_9f2_1" transform="matrix(10.5,0,0,-10.5,142.1414,50.247926)" fill="#231f20"/>
</g>
<g id="Layer-1" data-name="P">
<g id="Layer-2" data-name="Span">
</g>
<symbol id="font_9f3_62">
<path d="M 0 .671 L 0 .62200006 L .060000004 .61700007 L .076000008 .60300007 L .076000008 .07 L .060000004 .054 L 0 .049000004 L 0 0 L .312 0 C .37600003 0 .56400009 .019000002 .56400009 .192 C .56400009 .28100003 .50500008 .356 .388 .356 L .382 .356 L .382 .358 C .45700003 .37600003 .52500006 .41500003 .52500006 .51600006 C .52500006 .65500006 .37 .671 .31 .671 L 0 .671 M .20800002 .615 C .21700001 .61600008 .22700002 .61700007 .24100001 .61700007 C .271 .61700007 .319 .615 .35 .591 C .38 .56700006 .387 .531 .387 .499 C .387 .469 .382 .43 .35 .40300004 C .319 .377 .27 .372 .23600002 .372 C .22400002 .372 .21500002 .372 .20800002 .37300004 L .20800002 .615 M .20800002 .31500004 C .246 .317 .259 .317 .265 .317 C .285 .317 .34 .316 .375 .294 C .419 .26700003 .424 .22200002 .424 .18900001 C .424 .158 .419 .119 .388 .091000009 C .351 .057000005 .29 .055000005 .254 .055000005 C .237 .055000005 .22000002 .056 .20800002 .057000005 L .20800002 .31500004 Z "/>
</symbol>
<symbol id="font_9f3_6a">
<path d="M .26200003 .508 C .12300001 .508 0 .43500004 0 .252 C 0 .07800001 .11500001 0 .25300003 0 C .363 0 .51000007 .052 .51000007 .254 C .51000007 .35700003 .46600003 .418 .43 .44900004 C .39100004 .48300005 .335 .508 .26200003 .508 M .254 .45400004 C .35400004 .45400004 .372 .30800004 .372 .252 C .372 .18500002 .351 .054 .254 .054 C .16000001 .054 .13800001 .18400002 .13800001 .255 C .13800001 .32700003 .15200001 .36900003 .165 .395 C .17700002 .418 .202 .45400004 .254 .45400004 Z "/>
</symbol>
<symbol id="font_9f3_6e">
<path d="M .42900003 .125 C .40700004 .11000001 .351 .07800001 .291 .07800001 C .245 .07800001 .208 .09300001 .18 .128 C .165 .14700002 .13800001 .18900001 .13800001 .26900003 C .13800001 .31500004 .16000001 .45700003 .26700003 .45700003 C .275 .45700003 .28300003 .45600004 .29200004 .45400004 L .29200004 .34800003 C .316 .33200003 .335 .32900004 .35000003 .32900004 C .39200003 .32900004 .423 .356 .423 .39800004 C .423 .41300003 .41900004 .446 .38300003 .47300003 C .35000003 .49800004 .303 .508 .259 .508 C .164 .508 .105000007 .46600003 .07700001 .439 C .030000002 .39400003 0 .328 0 .24600002 C 0 .165 .030000002 .10300001 .07000001 .064 C .10100001 .034 .156 0 .24100003 0 C .26700003 0 .344 .0030000006 .42900003 .054 L .42900003 .125 Z "/>
</symbol>
<symbol id="font_9f3_94">
<path d="M .106000009 0 L .37300004 0 L .37300004 .045 L .316 .05 L .30100004 .064 L .30100004 .43100003 L .38400004 .43100003 L .39900003 .41500003 L .411 .31500004 L .47900004 .31500004 L .47900004 .48700003 L 0 .48700003 L 0 .31500004 L .068 .31500004 L .080000009 .41500003 L .095000009 .43100003 L .17800002 .43100003 L .17800002 .064 L .16400002 .05 L .106000009 .045 L .106000009 0 Z "/>
</symbol>
<symbol id="font_9f3_72">
<path d="M .317 .009000001 L .49200005 .009000001 L .49200005 .054 L .44000004 .059 L .42700003 .07300001 L .42700003 .33100004 C .42700003 .37800003 .423 .43400003 .38400004 .47000004 C .34600003 .506 .28100003 .508 .252 .508 C .213 .508 .14400001 .504 .086 .47300003 C .028000005 .44200004 .024000004 .404 .024000004 .38900004 C .024000004 .363 .049000004 .35500003 .07000001 .35500003 L .16200002 .35500003 L .16200002 .44900004 C .18100001 .45200003 .19500001 .45400004 .21000001 .45400004 C .3 .45400004 .30400003 .39400003 .30400003 .36 L .30400003 .351 L .30400003 .321 C .268 .31300003 .16800002 .29000003 .118 .272 C .068 .254 0 .22000002 0 .134 C 0 .058000003 .042000005 0 .133 0 C .194 0 .25 .031000004 .30400003 .06600001 L .317 .009000001 M .30400003 .10700001 C .261 .08800001 .236 .07800001 .208 .07800001 C .17400001 .07800001 .134 .09200001 .134 .15200001 C .134 .22600001 .222 .255 .30400003 .27 L .30400003 .10700001 Z "/>
</symbol>
<symbol id="font_9f3_69">
<path d="M 0 0 L .25500003 0 L .25500003 .045 L .20400001 .05 L .19000001 .064 L .19000001 .22600001 L .38000003 .22600001 L .38000003 .064 L .36600004 .05 L .31500004 .045 L .31500004 0 L .57000008 0 L .57000008 .045 L .517 .05 L .503 .064 L .503 .423 L .517 .437 L .57000008 .44200004 L .57000008 .48700003 L .31500004 .48700003 L .31500004 .44200004 L .36600004 .437 L .38000003 .423 L .38000003 .282 L .19000001 .282 L .19000001 .423 L .20400001 .437 L .25500003 .44200004 L .25500003 .48700003 L 0 .48700003 L 0 .44200004 L .053 .437 L .067 .423 L .067 .064 L .053 .05 L 0 .045 L 0 0 Z "/>
</symbol>
<symbol id="font_9f3_73">
<path d="M 0 .48700003 L 0 .44200004 L .057 .437 L .07100001 .423 L .07100001 .064 L .057 .05 L .0040000008 .045 L .0040000008 0 L .29200004 0 C .36200003 0 .49100007 .015000001 .49100007 .141 C .49100007 .22800002 .42300005 .25300003 .36100004 .259 L .36100004 .261 C .41900004 .273 .46500004 .314 .46500004 .37300004 C .46500004 .409 .45300005 .439 .42000006 .46 C .40500004 .47000004 .36900003 .48700003 .28700004 .48700003 L 0 .48700003 M .194 .42900003 C .214 .432 .235 .43300004 .25300003 .43300004 C .30200003 .43300004 .34500004 .41200004 .34500004 .35900004 C .34500004 .289 .28000004 .28 .24500002 .28 C .226 .28 .20500002 .28100003 .194 .282 L .194 .42900003 M .194 .22600001 C .2 .22700002 .23 .23 .256 .23 C .33300004 .23 .35700003 .185 .35700003 .143 C .35700003 .127 .35400004 .09900001 .33200003 .078 C .31000004 .057000005 .28100003 .054 .25300003 .054 C .23100002 .054 .21300002 .056 .194 .060000004 L .194 .22600001 Z "/>
</symbol>
<symbol id="font_9f3_6c">
<path d="M 0 0 L .25500003 0 L .25500003 .045 L .20400001 .05 L .19000001 .064 L .19000001 .096 L .39400003 .319 L .39400003 .064 L .38000003 .05 L .32900004 .045 L .32900004 0 L .58400008 0 L .58400008 .045 L .531 .05 L .517 .064 L .517 .423 L .531 .437 L .58400008 .44200004 L .58400008 .48700003 L .32900004 .48700003 L .32900004 .44200004 L .38000003 .437 L .39400003 .423 L .39400003 .39900003 L .19000001 .17600002 L .19000001 .423 L .20400001 .437 L .25500003 .44200004 L .25500003 .48700003 L 0 .48700003 L 0 .44200004 L .053 .437 L .067 .423 L .067 .064 L .053 .05 L 0 .045 L 0 0 Z "/>
</symbol>
<symbol id="font_9f3_74">
<path d="M .45400004 .133 C .38000003 .087000008 .32500003 .079 .29000003 .079 C .157 .079 .128 .18100001 .128 .26400004 L .455 .26400004 C .455 .36900003 .432 .508 .24900002 .508 C .163 .508 .10800001 .47400005 .07700001 .44500003 C .030000002 .40000005 0 .33200003 0 .25 C 0 .156 .038000004 .09900001 .067 .069000009 C .10200001 .033 .15900001 0 .24900002 0 C .33800004 0 .41200004 .035 .45400004 .059 L .45400004 .133 M .133 .31700004 C .133 .40500004 .18800001 .45400004 .23700002 .45400004 C .286 .45400004 .32400004 .40700004 .32400004 .32500003 L .32400004 .31700004 L .133 .31700004 Z "/>
</symbol>
<symbol id="font_9f3_1">
<path d="M 0 0 Z "/>
</symbol>
<symbol id="font_9f3_7a">
<path d="M .0029999996 .48700003 L .0029999996 .44200004 L .060000004 .43300004 L .199 .23400001 L .059 .055000005 L 0 .045 L 0 0 L .194 0 L .194 .045 L .143 .054 L .237 .192 L .32500003 .058000003 L .321 .045 L .286 .039 L .286 0 L .52000007 0 L .52000007 .045 L .467 .053000004 L .31800003 .268 L .446 .43400003 L .50100007 .44200004 L .50100007 .48700003 L .317 .48700003 L .317 .44200004 L .368 .43400003 L .28100003 .30900003 L .201 .42800004 L .206 .439 L .24400002 .44500003 L .24400002 .48700003 L .0029999996 .48700003 Z "/>
</symbol>
<symbol id="font_9f3_67">
<path d="M .10700001 .633 L .10700001 .58800008 L .172 .583 L .186 .569 C .16800002 .45100004 .113000009 .301 .050000006 .20200002 L 0 .20200002 L 0 0 L .07 0 L .09 .13000001 L .105000007 .14600002 L .42900003 .14600002 L .444 .13000001 L .46400003 0 L .53400006 0 L .53400006 .20200002 L .47300003 .20200002 L .461 .21200001 L .461 .569 L .475 .583 L .52800008 .58800008 L .52800008 .633 L .10700001 .633 M .124000009 .20200002 C .18800001 .30400003 .23500002 .462 .254 .577 L .338 .577 L .338 .20200002 L .124000009 .20200002 Z "/>
</symbol>
<symbol id="font_9f3_77">
<path d="M 0 .70600005 L 0 .661 L .060000004 .653 L .238 .20700002 C .21700001 .157 .19500001 .11400001 .16 .08500001 L .07300001 .14500001 C .052 .135 .021000002 .113000009 .021000002 .075 C .021000002 .023000002 .075 0 .105000007 0 C .131 0 .17 .009000003 .214 .05600001 C .245 .09 .27400003 .13700001 .293 .18400002 L .48600004 .653 L .54 .661 L .54 .70600005 L .34800003 .70600005 L .34800003 .661 L .40100003 .656 L .41000004 .64100006 L .30100004 .35900004 L .193 .642 L .20300001 .656 L .254 .661 L .254 .70600005 L 0 .70600005 Z "/>
</symbol>
<symbol id="font_9f3_84">
<path d="M 0 .009000001 L .25500003 .009000001 L .25500003 .054 L .20400001 .059 L .19000001 .07300001 L .19000001 .23500002 L .29500003 .23500002 C .30100004 .09 .39800004 0 .54 0 C .669 0 .795 .07800001 .795 .254 C .795 .41500003 .69500008 .508 .549 .508 C .41400004 .508 .312 .43500004 .29500003 .291 L .19000001 .291 L .19000001 .432 L .20400001 .446 L .25500003 .45100004 L .25500003 .49600003 L 0 .49600003 L 0 .45100004 L .053 .446 L .067 .432 L .067 .07300001 L .053 .059 L 0 .054 L 0 .009000001 M .541 .45400004 C .63600006 .45400004 .65700009 .34700004 .65700009 .25100003 C .65700009 .08100001 .583 .054 .541 .054 C .523 .054 .485 .060000004 .45800004 .10400001 C .43400003 .143 .42700003 .20500002 .42700003 .255 C .42700003 .326 .441 .36900003 .45400004 .395 C .46600003 .418 .48900003 .45400004 .541 .45400004 Z "/>
</symbol>
<symbol id="font_9f3_80">
<path d="M .35500003 .957 L .20400001 .90900006 L .20400001 .87 L .27600003 .87 L .27600003 .70500007 L .26700003 .70500007 C .157 .70500007 .09900001 .66700008 .071 .64100006 C .037 .609 0 .55200007 0 .45600004 C 0 .275 .13200002 .21800001 .25800003 .21800001 L .27600003 .21800001 L .27600003 .063999999 L .26200003 .049999998 L .20400001 .045 L .20400001 0 L .47100003 0 L .47100003 .045 L .41400004 .049999998 L .39900003 .063999999 L .39900003 .21800001 L .41700004 .21800001 C .54300007 .21800001 .675 .275 .675 .45600004 C .675 .55200007 .638 .609 .60400006 .64100006 C .57600006 .66700008 .518 .70500007 .40800003 .70500007 L .39900003 .70500007 L .39900003 .957 L .35500003 .957 M .28 .272 L .268 .272 C .24000001 .272 .193 .279 .16200002 .326 C .136 .36400003 .13200002 .41400004 .13200002 .45200003 C .13200002 .544 .16000001 .651 .27600003 .651 L .28 .651 L .28 .272 M .395 .651 L .39900003 .651 C .51500007 .651 .54300007 .544 .54300007 .45200003 C .54300007 .41400004 .53900006 .36400003 .513 .326 C .48200006 .279 .43500004 .272 .40700004 .272 L .395 .272 L .395 .651 Z "/>
</symbol>
<symbol id="font_9f3_76">
<path d="M 0 0 L .268 0 L .268 .045 L .20600002 .045 L .19100002 .06300001 L .19100002 .223 C .223 .21900001 .254 .21700001 .27400003 .21700001 C .36 .21700001 .42700003 .24800001 .47000004 .29400004 C .503 .32900004 .537 .388 .537 .48000003 C .537 .65900006 .418 .717 .35000003 .717 C .298 .717 .252 .69600006 .19100002 .65400007 L .19100002 .71400007 L .14600002 .71400007 L 0 .66700008 L 0 .62700006 L .068 .62700006 L .068 .065 L .054000006 .049999998 L 0 .045 L 0 0 M .19100002 .61200007 C .23300001 .63000008 .26200003 .63100007 .272 .63100007 C .319 .63100007 .34800003 .61 .365 .591 C .381 .573 .40300004 .535 .40300004 .463 C .40300004 .34500004 .34100003 .27100004 .252 .27100004 C .22100002 .27100004 .20500002 .27400003 .19100002 .278 L .19100002 .61200007 Z "/>
</symbol>
<symbol id="font_9f3_6d">
<path d="M 0 .48700003 L 0 .44200004 L .053 .437 L .067 .423 L .067 .064 L .053 .05 L 0 .045 L 0 0 L .19800002 0 L .19800002 .045 L .14500001 .05 L .13100001 .064 L .13100001 .41500003 L .13300002 .41500003 L .28800003 0 L .33600004 0 L .48700006 .41500003 L .48900003 .41500003 L .48900003 .064 L .47500003 .05 L .42200003 .045 L .42200003 0 L .674 0 L .674 .045 L .62100008 .05 L .60700008 .064 L .60700008 .423 L .62100008 .437 L .674 .44200004 L .674 .48700003 L .45000003 .48700003 L .45000003 .46300004 L .337 .15 L .224 .46300004 L .224 .48700003 L 0 .48700003 Z "/>
</symbol>
<symbol id="font_9f3_6b">
<path d="M .117000009 .49600003 L .117000009 .45100004 L .18100001 .446 L .19600001 .432 C .192 .30800004 .169 .157 .11900001 .08100001 L .060000004 .133 C .007000001 .12900001 0 .09 0 .06600001 C 0 .028 .020000002 0 .069000009 0 C .231 0 .256 .296 .26200003 .44000004 L .36200003 .44000004 L .36200003 .07300001 L .34800003 .059 L .29200004 .054 L .29200004 .009000001 L .552 .009000001 L .552 .054 L .49900005 .059 L .48500005 .07300001 L .48500005 .432 L .49900005 .446 L .552 .45100004 L .552 .49600003 L .117000009 .49600003 Z "/>
</symbol>
<symbol id="font_9f3_89">
<path d="M 0 0 L .25300003 0 L .25300003 .045 L .20400001 .05 L .19000001 .064 L .19000001 .43100003 L .372 .43100003 L .372 .064 L .358 .05 L .30900003 .045 L .30900003 0 L .56200006 0 L .56200006 .045 L .509 .05 L .495 .064 L .495 .423 L .509 .437 L .56200006 .44200004 L .56200006 .48700003 L 0 .48700003 L 0 .44200004 L .053 .437 L .067 .423 L .067 .064 L .053 .05 L 0 .045 L 0 0 Z "/>
</symbol>
<use xlink:href="#font_9f3_62" transform="matrix(10.5,0,0,-10.5,145.87541,50.247926)" fill="#231f20"/>
<use xlink:href="#font_9f3_6a" transform="matrix(10.5,0,0,-10.5,152.65842,50.342428)" fill="#231f20"/>
<use xlink:href="#font_9f3_6e" transform="matrix(10.5,0,0,-10.5,158.86392,50.342428)" fill="#231f20"/>
<use xlink:href="#font_9f3_6e" transform="matrix(10.5,0,0,-10.5,163.95642,50.342428)" fill="#231f20"/>
<use xlink:href="#font_9f3_94" transform="matrix(10.5,0,0,-10.5,169.10457,50.247926)" fill="#231f20"/>
<use xlink:href="#font_9f3_72" transform="matrix(10.5,0,0,-10.5,174.72206,50.342428)" fill="#231f20"/>
<use xlink:href="#font_9f3_69" transform="matrix(10.5,0,0,-10.5,180.37107,50.247926)" fill="#231f20"/>
<use xlink:href="#font_9f3_6a" transform="matrix(10.5,0,0,-10.5,187.11206,50.342428)" fill="#231f20"/>
<use xlink:href="#font_9f3_73" transform="matrix(10.5,0,0,-10.5,193.18106,50.247926)" fill="#231f20"/>
<use xlink:href="#font_9f3_6c" transform="matrix(10.5,0,0,-10.5,199.02957,50.247926)" fill="#231f20"/>
<use xlink:href="#font_9f3_94" transform="matrix(10.5,0,0,-10.5,205.65508,50.247926)" fill="#231f20"/>
<use xlink:href="#font_9f3_74" transform="matrix(10.5,0,0,-10.5,211.27257,50.342428)" fill="#231f20"/>
<use xlink:href="#font_9f3_1" transform="matrix(10.5,0,0,-10.5,216.45957,50.247926)" fill="#231f20"/>
<use xlink:href="#font_9f3_6c" transform="matrix(10.5,0,0,-10.5,220.15558,50.247926)" fill="#231f20"/>
<use xlink:href="#font_9f3_6e" transform="matrix(10.5,0,0,-10.5,227.04358,50.342428)" fill="#231f20"/>
<use xlink:href="#font_9f3_7a" transform="matrix(10.5,0,0,-10.5,231.86307,50.247926)" fill="#231f20"/>
<use xlink:href="#font_9f3_6a" transform="matrix(10.5,0,0,-10.5,237.57929,50.342428)" fill="#231f20"/>
<use xlink:href="#font_9f3_67" transform="matrix(10.5,0,0,-10.5,243.31229,51.780927)" fill="#231f20"/>
<use xlink:href="#font_9f3_69" transform="matrix(10.5,0,0,-10.5,249.51779,50.247926)" fill="#231f20"/>
<use xlink:href="#font_9f3_77" transform="matrix(10.5,0,0,-10.5,255.82828,52.547426)" fill="#231f20"/>
<use xlink:href="#font_9f3_84" transform="matrix(10.5,0,0,-10.5,261.6453,50.342428)" fill="#231f20"/>
<use xlink:href="#font_9f3_1" transform="matrix(10.5,0,0,-10.5,270.45478,50.247926)" fill="#231f20"/>
<use xlink:href="#font_9f3_80" transform="matrix(10.5,0,0,-10.5,274.24525,52.536928)" fill="#231f20"/>
<use xlink:href="#font_9f3_6a" transform="matrix(10.5,0,0,-10.5,282.18324,50.342428)" fill="#231f20"/>
<use xlink:href="#font_9f3_76" transform="matrix(10.5,0,0,-10.5,288.24174,52.536928)" fill="#231f20"/>
<use xlink:href="#font_9f3_6d" transform="matrix(10.5,0,0,-10.5,294.56275,50.247926)" fill="#231f20"/>
<use xlink:href="#font_9f3_77" transform="matrix(10.5,0,0,-10.5,301.96525,52.547426)" fill="#231f20"/>
<use xlink:href="#font_9f3_1" transform="matrix(10.5,0,0,-10.5,307.48823,50.247926)" fill="#231f20"/>
<use xlink:href="#font_9f3_6e" transform="matrix(10.5,0,0,-10.5,311.2787,50.342428)" fill="#231f20"/>
<use xlink:href="#font_9f3_6b" transform="matrix(10.5,0,0,-10.5,316.19587,50.342428)" fill="#231f20"/>
<use xlink:href="#font_9f3_6a" transform="matrix(10.5,0,0,-10.5,322.74784,50.342428)" fill="#231f20"/>
<use xlink:href="#font_9f3_73" transform="matrix(10.5,0,0,-10.5,328.81687,50.247926)" fill="#231f20"/>
<use xlink:href="#font_9f3_72" transform="matrix(10.5,0,0,-10.5,334.75984,50.342428)" fill="#231f20"/>
<use xlink:href="#font_9f3_1" transform="matrix(10.5,0,0,-10.5,340.11485,50.247926)" fill="#231f20"/>
<use xlink:href="#font_9f3_6c" transform="matrix(10.5,0,0,-10.5,343.81083,50.247926)" fill="#231f20"/>
<use xlink:href="#font_9f3_1" transform="matrix(10.5,0,0,-10.5,350.3103,50.247926)" fill="#231f20"/>
<use xlink:href="#font_9f3_89" transform="matrix(10.5,0,0,-10.5,354.0063,50.247926)" fill="#231f20"/>
<use xlink:href="#font_9f3_74" transform="matrix(10.5,0,0,-10.5,360.66328,50.342428)" fill="#231f20"/>
<use xlink:href="#font_9f3_76" transform="matrix(10.5,0,0,-10.5,366.09178,52.536928)" fill="#231f20"/>
<use xlink:href="#font_9f3_74" transform="matrix(10.5,0,0,-10.5,372.50727,50.342428)" fill="#231f20"/>
<use xlink:href="#font_9f3_73" transform="matrix(10.5,0,0,-10.5,377.9463,50.247926)" fill="#231f20"/>
<use xlink:href="#font_9f3_74" transform="matrix(10.5,0,0,-10.5,383.88926,50.342428)" fill="#231f20"/>
</g>
<g id="Layer-1" data-name="P">
<symbol id="font_9f3_8">
<path d="M 0 .09800002 L 0 0 L .254 0 L .254 .09800002 L 0 .09800002 Z "/>
</symbol>
<use xlink:href="#font_9f3_8" transform="matrix(10.5,0,0,-10.5,389.5536,48.231927)" fill="#231f20"/>
</g>
<g id="Layer-1" data-name="P">
<symbol id="font_9f3_97">
<path d="M .0040000008 0 L .28000004 0 L .28000004 .045 L .209 .05 L .194 .064 L .194 .43100003 L .32100005 .43100003 L .33400003 .41700004 L .34800003 .31500004 L .41600005 .31500004 L .41600005 .48700003 L 0 .48700003 L 0 .44200004 L .057 .437 L .07100001 .423 L .07100001 .064 L .057 .05 L .0040000008 .045 L .0040000008 0 Z "/>
</symbol>
<symbol id="font_9f3_9">
<path d="M .079 .15900001 C .034999998 .15900001 0 .124000009 0 .079 C 0 .035 .034999998 0 .078 0 C .123 0 .15900001 .035 .15900001 .079 C .15900001 .12200001 .122 .15900001 .079 .15900001 Z "/>
</symbol>
<use xlink:href="#font_9f3_67" transform="matrix(10.5,0,0,-10.5,46.687704,64.38102)" fill="#231f20"/>
<use xlink:href="#font_9f3_6c" transform="matrix(10.5,0,0,-10.5,52.819704,62.848024)" fill="#231f20"/>
<use xlink:href="#font_9f3_94" transform="matrix(10.5,0,0,-10.5,59.371706,62.848024)" fill="#231f20"/>
<use xlink:href="#font_9f3_74" transform="matrix(10.5,0,0,-10.5,64.9157,62.942525)" fill="#231f20"/>
<use xlink:href="#font_9f3_1" transform="matrix(10.5,0,0,-10.5,70.029209,62.848024)" fill="#231f20"/>
<use xlink:href="#font_9f3_74" transform="matrix(10.5,0,0,-10.5,73.352458,62.942525)" fill="#231f20"/>
<use xlink:href="#font_9f3_97" transform="matrix(10.5,0,0,-10.5,78.71796,62.848024)" fill="#231f20"/>
<use xlink:href="#font_9f3_6a" transform="matrix(10.5,0,0,-10.5,83.60046,62.942525)" fill="#231f20"/>
<use xlink:href="#font_9f3_9" transform="matrix(10.5,0,0,-10.5,90.02647,62.932024)" fill="#231f20"/>
</g>
<g id="Layer-1" data-name="P">
<symbol id="font_9f4_42">
<path d="M .0010000002 0 L .237 0 L .237 .036000004 L .17900002 .041 L .16100002 .057000005 L .16100002 .73600009 L .123 .73600009 L 0 .70000007 L 0 .669 L .077 .669 L .077 .057000005 L .060000004 .041 L .0010000002 .036000004 L .0010000002 0 Z "/>
</symbol>
<symbol id="font_9f4_3f">
<path d="M .117000009 .48600004 L 0 .45000003 L 0 .41900004 L .071 .41900004 L .071 .057000005 L .054000006 .041 L 0 .036000004 L 0 0 L .22600001 0 L .22600001 .036000004 L .17200002 .041 L .155 .057000005 L .155 .48600004 L .117000009 .48600004 M .061000006 .65000006 C .061000006 .61800006 .087000008 .592 .11900001 .592 C .151 .592 .17700002 .61800006 .17700002 .65000006 C .17700002 .68200007 .151 .708 .11900001 .708 C .087000008 .708 .061000006 .68200007 .061000006 .65000006 Z "/>
</symbol>
<symbol id="font_9f4_38">
<path d="M .12300001 .73600009 L 0 .70000007 L 0 .669 L .077 .669 L .077 0 L .20500002 0 C .25400005 0 .34100003 .004 .40800003 .056 C .47100006 .105000007 .49500004 .17400001 .49500004 .25500003 C .49500004 .42000003 .40700004 .49 .29700003 .49 C .24300002 .49 .19100002 .47000004 .16100002 .45600004 L .16100002 .73600009 L .12300001 .73600009 M .16100002 .42200003 C .179 .42700003 .21400002 .43600003 .24800001 .43600003 C .37700004 .43600003 .40500004 .33400003 .40500004 .24100001 C .40500004 .071 .29500003 .044000005 .215 .044000005 C .19600001 .044000005 .172 .045 .16100002 .046000005 L .16100002 .42200003 Z "/>
</symbol>
<symbol id="font_9f4_48">
<path d="M .0010000002 0 L .243 0 L .243 .036000004 L .17300001 .041 L .156 .057000005 L .156 .34300003 C .18800001 .381 .22300002 .416 .266 .416 C .289 .416 .305 .40500004 .31500004 .39200003 L .347 .39200003 L .347 .47800002 C .33400003 .48400004 .31300003 .49100004 .284 .49100004 C .25500003 .49100004 .22300002 .46300004 .155 .39200003 L .155 .48600004 L .117 .48600004 L 0 .45000003 L 0 .41900004 L .072000008 .41900004 L .072000008 .057000005 L .055 .041 L .0010000002 .036000004 L .0010000002 0 Z "/>
</symbol>
<symbol id="font_9f4_37">
<path d="M .30600003 .009000001 L .44600005 .009000001 L .44600005 .045 L .39300005 .045 L .37600003 .06600001 L .37600003 .356 C .37600003 .37700004 .37500004 .42800004 .344 .46100004 C .30900003 .49800004 .24800003 .499 .22500003 .499 C .079 .499 .024999999 .43500004 .024999999 .38200004 C .024999999 .358 .044 .356 .056 .356 L .125 .356 L .125 .44000004 C .15 .44900004 .178 .455 .204 .455 C .29700003 .455 .29200004 .38300003 .29200004 .344 L .29200004 .312 C .185 .286 .137 .27 .101 .256 C .053999999 .23700002 0 .20600002 0 .13100001 C 0 .068 .038000004 0 .12799999 0 C .16600001 0 .215 .012 .29200004 .067 L .30600003 .009000001 M .29200004 .10100001 C .22800002 .064 .194 .056 .16800002 .056 C .107 .056 .08800001 .102000009 .08800001 .13900002 C .08800001 .194 .12600002 .21600002 .15799999 .23100002 C .19300002 .24700001 .24900002 .26500003 .29200004 .277 L .29200004 .10100001 Z "/>
</symbol>
<symbol id="font_9f4_3b">
<path d="M .411 .11500001 C .33900003 .06600001 .287 .057 .254 .057 C .14 .057 .086 .16300002 .086 .26500003 L .086 .272 L .41000004 .272 C .411 .282 .411 .291 .411 .3 C .411 .46100004 .31 .499 .23200003 .499 C .149 .499 .097 .462 .07000001 .43400003 C .026 .38900004 0 .32200004 0 .24600002 C 0 .10800001 .075 0 .227 0 C .29200004 0 .358 .023000002 .411 .060000004 L .411 .11500001 M .091000009 .314 C .098000008 .38000003 .134 .455 .22 .455 C .279 .455 .30200003 .416 .30800004 .404 C .316 .38900004 .32200004 .35900004 .32200004 .33900003 L .32200004 .314 L .091000009 .314 Z "/>
</symbol>
<symbol id="font_9f4_49">
<path d="M .30300004 .47800002 C .277 .48800005 .24100003 .499 .18600002 .499 C .136 .499 .009 .48300005 .009 .35900004 C .009 .337 .013 .31300003 .031999999 .29000003 C .04 .28000004 .062 .25800003 .127 .22800002 C .17300001 .20700002 .24000001 .18500002 .24000001 .124000009 C .24000001 .07800001 .21000001 .044 .14200002 .044 C .106 .044 .077 .057 .060000004 .06600001 L .048 .15100001 L 0 .15100001 L 0 .021000002 C .030000002 .010000001 .07 0 .125 0 C .204 0 .31800003 .026 .31800003 .15 C .31800003 .22500001 .26900003 .25100003 .17900002 .29200004 C .122 .31700004 .08900001 .34300003 .08900001 .386 C .08900001 .44300003 .13300002 .455 .17300001 .455 C .18600002 .455 .21400002 .45300005 .24600002 .43600003 L .25500003 .365 L .30300004 .365 L .30300004 .47800002 Z "/>
</symbol>
<symbol id="font_9f4_9">
<path d="M 0 0 C .098000008 .0119999949 .169 .087 .169 .182 C .169 .223 .15 .27600003 .091000009 .27600003 C .06400001 .27600003 .030000005 .263 .030000005 .218 C .030000005 .199 .037000006 .186 .046 .177 L .11 .177 L .11 .16600001 C .11 .12799999 .095 .045999998 0 .033999996 L 0 0 Z "/>
</symbol>
<symbol id="font_9f4_1">
<path d="M 0 0 Z "/>
</symbol>
<symbol id="font_9f4_3e">
<path d="M .123 .73600009 L 0 .70000007 L 0 .669 L .077 .669 L .077 .057000005 L .060000004 .041 L .005999999 .036000004 L .005999999 0 L .22600001 0 L .22600001 .036000004 L .17900002 .041 L .16100002 .057000005 L .16100002 .39200003 C .21900001 .42000003 .254 .42400003 .28000004 .42400003 C .30300004 .42400003 .33400003 .42100004 .35400004 .39800004 C .37300004 .37600003 .37500004 .34100003 .37500004 .32200004 L .37500004 .057000005 L .358 .041 L .31000004 .036000004 L .31000004 0 L .53000006 0 L .53000006 .036000004 L .47600005 .041 L .45900003 .057000005 L .45900003 .33900003 C .45900003 .42200003 .42600004 .49 .32600004 .49 C .27800004 .49 .21000001 .46 .16100002 .43100003 L .16100002 .73600009 L .123 .73600009 Z "/>
</symbol>
<symbol id="font_9f4_46">
<path d="M 0 0 L .23600002 0 L .23600002 .036 L .172 .04100001 L .155 .056999998 L .155 .224 C .20600002 .215 .237 .215 .24900003 .215 C .325 .215 .38 .24100001 .419 .279 C .455 .314 .49300004 .37800003 .49300004 .47500003 C .49300004 .63500007 .4 .708 .302 .708 C .264 .708 .22100002 .69900009 .155 .64900007 L .155 .70400008 L .11700001 .70400008 L 0 .66800007 L 0 .637 L .071 .637 L .071 .056999998 L .055000009 .04100001 L 0 .036 L 0 0 M .155 .61200007 C .179 .62600007 .22000002 .64400008 .259 .64400008 C .357 .64400008 .403 .56 .403 .463 C .403 .35400004 .34600003 .259 .22900002 .259 C .21400002 .259 .19000001 .261 .155 .27600003 L .155 .61200007 Z "/>
</symbol>
<symbol id="font_9f4_4c">
<path d="M 0 .48100005 L 0 .44500003 L .061 .43800003 L .222 0 L .278 0 L .453 .43600003 L .512 .44500003 L .512 .48100005 L .335 .48100005 L .335 .44500003 L .389 .44000004 L .397 .42400003 L .269 .097 L .152 .42400003 L .164 .44000004 L .21700001 .44500003 L .21700001 .48100005 L 0 .48100005 Z "/>
</symbol>
<symbol id="font_9f4_3c">
<path d="M 0 0 L .234 0 L .234 .036000004 L .172 .041 L .155 .057000005 L .155 .42100004 L .294 .42100004 L .294 .46800003 L .155 .46800003 L .155 .541 C .155 .63500007 .18300002 .674 .22 .697 L .31100003 .637 C .333 .642 .35200004 .66 .35200004 .68600007 C .35200004 .71800008 .324 .744 .27100004 .744 C .171 .744 .071 .65500006 .071 .47800002 L .071 .46800003 L .0069999995 .453 L .0069999995 .42100004 L .071 .42100004 L .071 .057000005 L .053000004 .041 L 0 .036000004 L 0 0 Z "/>
</symbol>
<symbol id="font_9f4_4b">
<path d="M .117000009 .499 L 0 .46300004 L 0 .432 L .071 .432 L .071 .15200001 C .071 .11800001 .076000008 .071 .108 .037 C .136 .007 .171 0 .20300001 0 C .25700004 0 .31900005 .028 .36900003 .065000008 L .36900003 .009000001 L .518 .009000001 L .518 .045 L .47100003 .05 L .45300005 .06600001 L .45300005 .499 L .41500003 .499 L .298 .46300004 L .298 .432 L .36900003 .432 L .36900003 .09300001 C .314 .067 .27300004 .064 .25200004 .064 C .231 .064 .20000002 .067 .18 .08800001 C .157 .11100001 .155 .14800002 .155 .16900002 L .155 .499 L .117000009 .499 Z "/>
</symbol>
<symbol id="font_9f4_44">
<path d="M 0 0 L .22 0 L .22 .036000004 L .172 .041 L .155 .057000005 L .155 .39200003 C .202 .416 .23900002 .42400003 .273 .42400003 C .36100004 .42400003 .36900003 .365 .36900003 .32200004 L .36900003 .057000005 L .35200004 .041 L .30400003 .036000004 L .30400003 0 L .52400007 0 L .52400007 .036000004 L .47 .041 L .453 .057000005 L .453 .33900003 C .453 .47800002 .358 .49 .32000003 .49 C .26200003 .49 .18200001 .446 .155 .43100003 L .155 .48600004 L .117 .48600004 L 0 .45000003 L 0 .41900004 L .071 .41900004 L .071 .057000005 L .054000006 .041 L 0 .036000004 L 0 0 Z "/>
</symbol>
<symbol id="font_9f4_4a">
<path d="M .062000008 .42500005 L .062000008 .102000009 C .062000008 .078 .06300001 .044000005 .08600001 .022000002 C .107 .002 .139 0 .16 0 C .191 0 .24200002 .004 .298 .023000002 L .298 .060000004 C .28 .056 .259 .052 .227 .052 C .18800001 .052 .146 .058000003 .146 .161 L .146 .42500005 L .298 .42500005 L .298 .47200004 L .146 .47200004 L .146 .578 L .109000008 .578 L .06600001 .48500005 L 0 .45600004 L 0 .42500005 L .062000008 .42500005 Z "/>
</symbol>
<symbol id="font_9f4_3d">
<path d="M .32900004 .68100008 C .28500004 .703 .246 .708 .21500002 .708 C .037000006 .708 .022 .58100005 .022 .544 C .022 .45700003 .078999999 .40900005 .146 .393 C .118 .36200003 .098000008 .328 .098000008 .293 C .098000008 .278 .100999999 .26500003 .107999999 .25300003 C .044999999 .24200002 0 .19800002 0 .12900001 C 0 .082 .022999999 .052 .048000006 .033999996 C .065 .020999998 .103 0 .18 0 C .37200005 0 .43900005 .125 .43900005 .18300002 C .43900005 .256 .37100003 .28500004 .26900003 .301 L .17300001 .316 C .172 .32000003 .171 .328 .171 .33600004 C .171 .34600003 .17300001 .36800004 .18200001 .38500003 C .18900001 .384 .19600001 .384 .20300001 .384 C .32500003 .384 .39000003 .46500004 .39000003 .542 C .39000003 .592 .37100003 .62100008 .36200003 .633 L .47200004 .633 L .47200004 .68100008 L .32900004 .68100008 M .20400001 .66800007 C .28100003 .66800007 .30400003 .59900006 .30400003 .546 C .30400003 .45600004 .25100003 .42400003 .206 .42400003 C .11 .42400003 .107999999 .52900007 .107999999 .54700008 C .107999999 .628 .148 .66800007 .20400001 .66800007 M .263 .23 C .35600005 .21300002 .36500005 .18900001 .36500005 .157 C .36500005 .08 .28500004 .046000005 .216 .046000005 C .137 .046000005 .08 .09300001 .08 .149 C .08 .21800001 .154 .24400002 .16600001 .24800001 L .263 .23 Z "/>
</symbol>
<symbol id="font_9f4_4d">
<path d="M 0 .48100005 L 0 .44500003 L .061 .43800003 L .19400002 0 L .256 0 L .391 .379 L .512 0 L .57400009 0 L .71700009 .43600003 L .77300009 .44500003 L .77300009 .48100005 L .5960001 .48100005 L .5960001 .44500003 L .65000006 .44000004 L .65800008 .42400003 L .55600008 .09900001 L .43800003 .48100005 L .377 .48100005 L .24300002 .09900001 L .15200001 .42400003 L .16400002 .44000004 L .21700002 .44500003 L .21700002 .48100005 L 0 .48100005 Z "/>
</symbol>
<symbol id="font_9f4_41">
<path d="M .005999999 0 L .22600001 0 L .22600001 .036000004 L .17900002 .041 L .16100002 .057000005 L .16100002 .22700002 L .21800003 .22700002 L .35400004 .033 L .35400004 0 L .51000007 0 L .51000007 .038000004 L .44600005 .043 L .26900003 .291 L .40600003 .43600003 L .47000004 .44400005 L .47000004 .48100005 L .28000004 .48100005 L .28000004 .44400005 L .32500003 .44000004 L .33200003 .42600004 L .17900002 .25500003 L .16100002 .25500003 L .16100002 .73600009 L .123 .73600009 L 0 .70000007 L 0 .669 L .077 .669 L .077 .057000005 L .060000004 .041 L .005999999 .036000004 L .005999999 0 Z "/>
</symbol>
<use xlink:href="#font_9f4_42" transform="matrix(10.5,0,0,-10.5,61.2284,75.447879)" fill="#231f20"/>
<use xlink:href="#font_9f4_3f" transform="matrix(10.5,0,0,-10.5,64.3784,75.447879)" fill="#231f20"/>
<use xlink:href="#font_9f4_38" transform="matrix(10.5,0,0,-10.5,67.1399,75.447879)" fill="#231f20"/>
<use xlink:href="#font_9f4_48" transform="matrix(10.5,0,0,-10.5,73.13541,75.447879)" fill="#231f20"/>
<use xlink:href="#font_9f4_37" transform="matrix(10.5,0,0,-10.5,77.366909,75.54237)" fill="#231f20"/>
<use xlink:href="#font_9f4_48" transform="matrix(10.5,0,0,-10.5,82.64841,75.447879)" fill="#231f20"/>
<use xlink:href="#font_9f4_3f" transform="matrix(10.5,0,0,-10.5,86.97546,75.447879)" fill="#231f20"/>
<use xlink:href="#font_9f4_3b" transform="matrix(10.5,0,0,-10.5,90.04145,75.54237)" fill="#231f20"/>
<use xlink:href="#font_9f4_49" transform="matrix(10.5,0,0,-10.5,95.33346,75.54237)" fill="#231f20"/>
<use xlink:href="#font_9f4_9" transform="matrix(10.5,0,0,-10.5,99.59646,77.23288)" fill="#231f20"/>
<use xlink:href="#font_9f4_1" transform="matrix(10.5,0,0,-10.5,102.200458,75.447879)" fill="#231f20"/>
<use xlink:href="#font_9f4_3e" transform="matrix(10.5,0,0,-10.5,105.90696,75.447879)" fill="#231f20"/>
<use xlink:href="#font_9f4_37" transform="matrix(10.5,0,0,-10.5,112.18596,75.54237)" fill="#231f20"/>
<use xlink:href="#font_9f4_46" transform="matrix(10.5,0,0,-10.5,117.38346,77.73688)" fill="#231f20"/>
<use xlink:href="#font_9f4_46" transform="matrix(10.5,0,0,-10.5,123.273967,77.73688)" fill="#231f20"/>
<use xlink:href="#font_9f4_3f" transform="matrix(10.5,0,0,-10.5,129.29045,75.447879)" fill="#231f20"/>
<use xlink:href="#font_9f4_3b" transform="matrix(10.5,0,0,-10.5,132.35646,75.54237)" fill="#231f20"/>
<use xlink:href="#font_9f4_48" transform="matrix(10.5,0,0,-10.5,137.52246,75.447879)" fill="#231f20"/>
<use xlink:href="#font_9f4_9" transform="matrix(10.5,0,0,-10.5,141.1985,77.23288)" fill="#231f20"/>
<use xlink:href="#font_9f4_1" transform="matrix(10.5,0,0,-10.5,143.8025,75.447879)" fill="#231f20"/>
<use xlink:href="#font_9f4_42" transform="matrix(10.5,0,0,-10.5,147.593,75.447879)" fill="#231f20"/>
<use xlink:href="#font_9f4_3f" transform="matrix(10.5,0,0,-10.5,150.74301,75.447879)" fill="#231f20"/>
<use xlink:href="#font_9f4_4c" transform="matrix(10.5,0,0,-10.5,153.36801,75.447879)" fill="#231f20"/>
<use xlink:href="#font_9f4_3b" transform="matrix(10.5,0,0,-10.5,158.93302,75.54237)" fill="#231f20"/>
<use xlink:href="#font_9f4_49" transform="matrix(10.5,0,0,-10.5,164.225,75.54237)" fill="#231f20"/>
<use xlink:href="#font_9f4_9" transform="matrix(10.5,0,0,-10.5,168.488,77.23288)" fill="#231f20"/>
<use xlink:href="#font_9f4_1" transform="matrix(10.5,0,0,-10.5,171.09201,75.447879)" fill="#231f20"/>
<use xlink:href="#font_9f4_3c" transform="matrix(10.5,0,0,-10.5,174.91402,75.447879)" fill="#231f20"/>
<use xlink:href="#font_9f4_4b" transform="matrix(10.5,0,0,-10.5,178.3475,75.54237)" fill="#231f20"/>
<use xlink:href="#font_9f4_44" transform="matrix(10.5,0,0,-10.5,184.49,75.447879)" fill="#231f20"/>
<use xlink:href="#font_9f4_44" transform="matrix(10.5,0,0,-10.5,190.5695,75.447879)" fill="#231f20"/>
<use xlink:href="#font_9f4_3f" transform="matrix(10.5,0,0,-10.5,196.691,75.447879)" fill="#231f20"/>
<use xlink:href="#font_9f4_3b" transform="matrix(10.5,0,0,-10.5,199.757,75.54237)" fill="#231f20"/>
<use xlink:href="#font_9f4_49" transform="matrix(10.5,0,0,-10.5,205.049,75.54237)" fill="#231f20"/>
<use xlink:href="#font_9f4_4a" transform="matrix(10.5,0,0,-10.5,209.165,75.489879)" fill="#231f20"/>
<use xlink:href="#font_9f4_9" transform="matrix(10.5,0,0,-10.5,212.9135,77.23288)" fill="#231f20"/>
<use xlink:href="#font_9f4_1" transform="matrix(10.5,0,0,-10.5,215.5175,75.447879)" fill="#231f20"/>
<use xlink:href="#font_9f4_38" transform="matrix(10.5,0,0,-10.5,219.1085,75.447879)" fill="#231f20"/>
<use xlink:href="#font_9f4_3f" transform="matrix(10.5,0,0,-10.5,225.146,75.447879)" fill="#231f20"/>
<use xlink:href="#font_9f4_3d" transform="matrix(10.5,0,0,-10.5,228.2435,77.73688)" fill="#231f20"/>
<use xlink:href="#font_9f4_3d" transform="matrix(10.5,0,0,-10.5,233.819,77.73688)" fill="#231f20"/>
<use xlink:href="#font_9f4_3b" transform="matrix(10.5,0,0,-10.5,239.18451,75.54237)" fill="#231f20"/>
<use xlink:href="#font_9f4_48" transform="matrix(10.5,0,0,-10.5,244.35051,75.447879)" fill="#231f20"/>
<use xlink:href="#font_9f4_9" transform="matrix(10.5,0,0,-10.5,248.02655,77.23288)" fill="#231f20"/>
<use xlink:href="#font_9f4_1" transform="matrix(10.5,0,0,-10.5,250.63056,75.447879)" fill="#231f20"/>
<use xlink:href="#font_9f4_4a" transform="matrix(10.5,0,0,-10.5,254.40006,75.489879)" fill="#231f20"/>
<use xlink:href="#font_9f4_3e" transform="matrix(10.5,0,0,-10.5,258.1391,75.447879)" fill="#231f20"/>
<use xlink:href="#font_9f4_3f" transform="matrix(10.5,0,0,-10.5,264.3341,75.447879)" fill="#231f20"/>
<use xlink:href="#font_9f4_44" transform="matrix(10.5,0,0,-10.5,267.3266,75.447879)" fill="#231f20"/>
<use xlink:href="#font_9f4_44" transform="matrix(10.5,0,0,-10.5,273.4061,75.447879)" fill="#231f20"/>
<use xlink:href="#font_9f4_3b" transform="matrix(10.5,0,0,-10.5,279.55909,75.54237)" fill="#231f20"/>
<use xlink:href="#font_9f4_49" transform="matrix(10.5,0,0,-10.5,284.8511,75.54237)" fill="#231f20"/>
<use xlink:href="#font_9f4_4a" transform="matrix(10.5,0,0,-10.5,288.9671,75.489879)" fill="#231f20"/>
<use xlink:href="#font_9f4_9" transform="matrix(10.5,0,0,-10.5,292.71559,77.23288)" fill="#231f20"/>
<use xlink:href="#font_9f4_1" transform="matrix(10.5,0,0,-10.5,295.31959,75.447879)" fill="#231f20"/>
<use xlink:href="#font_9f4_4d" transform="matrix(10.5,0,0,-10.5,298.79508,75.447879)" fill="#231f20"/>
<use xlink:href="#font_9f4_3f" transform="matrix(10.5,0,0,-10.5,307.36308,75.447879)" fill="#231f20"/>
<use xlink:href="#font_9f4_4c" transform="matrix(10.5,0,0,-10.5,309.9881,75.447879)" fill="#231f20"/>
<use xlink:href="#font_9f4_3b" transform="matrix(10.5,0,0,-10.5,315.55308,75.54237)" fill="#231f20"/>
<use xlink:href="#font_9f4_49" transform="matrix(10.5,0,0,-10.5,320.8451,75.54237)" fill="#231f20"/>
<use xlink:href="#font_9f4_9" transform="matrix(10.5,0,0,-10.5,325.10807,77.23288)" fill="#231f20"/>
<use xlink:href="#font_9f4_1" transform="matrix(10.5,0,0,-10.5,327.71208,75.447879)" fill="#231f20"/>
<use xlink:href="#font_9f4_38" transform="matrix(10.5,0,0,-10.5,331.30308,75.447879)" fill="#231f20"/>
<use xlink:href="#font_9f4_37" transform="matrix(10.5,0,0,-10.5,337.42457,75.54237)" fill="#231f20"/>
<use xlink:href="#font_9f4_38" transform="matrix(10.5,0,0,-10.5,342.47508,75.447879)" fill="#231f20"/>
<use xlink:href="#font_9f4_3f" transform="matrix(10.5,0,0,-10.5,348.51255,75.447879)" fill="#231f20"/>
<use xlink:href="#font_9f4_3b" transform="matrix(10.5,0,0,-10.5,351.57856,75.54237)" fill="#231f20"/>
<use xlink:href="#font_9f4_49" transform="matrix(10.5,0,0,-10.5,356.87059,75.54237)" fill="#231f20"/>
<use xlink:href="#font_9f4_9" transform="matrix(10.5,0,0,-10.5,361.13356,77.23288)" fill="#231f20"/>
<use xlink:href="#font_9f4_1" transform="matrix(10.5,0,0,-10.5,363.73756,75.447879)" fill="#231f20"/>
<use xlink:href="#font_9f4_49" transform="matrix(10.5,0,0,-10.5,367.68556,75.54237)" fill="#231f20"/>
<use xlink:href="#font_9f4_41" transform="matrix(10.5,0,0,-10.5,371.73854,75.447879)" fill="#231f20"/>
<use xlink:href="#font_9f4_3f" transform="matrix(10.5,0,0,-10.5,377.42955,75.447879)" fill="#231f20"/>
<use xlink:href="#font_9f4_3b" transform="matrix(10.5,0,0,-10.5,380.49555,75.54237)" fill="#231f20"/>
<use xlink:href="#font_9f4_49" transform="matrix(10.5,0,0,-10.5,385.78758,75.54237)" fill="#231f20"/>
<use xlink:href="#font_9f4_9" transform="matrix(10.5,0,0,-10.5,390.05055,77.23288)" fill="#231f20"/>
<use xlink:href="#font_9f4_1" transform="matrix(10.5,0,0,-10.5,392.56004,75.447879)" fill="#231f20"/>
</g>
<g id="Layer-1" data-name="P">
<symbol id="font_9f4_39">
<path d="M .388 .10300001 C .358 .083000008 .312 .060000004 .26000003 .060000004 C .09400001 .060000004 .09200001 .22500001 .09200001 .25800003 C .09200001 .314 .106000009 .374 .13900002 .41300003 C .172 .45200003 .21200001 .45900003 .236 .45900003 C .26000003 .45900003 .27600003 .45200003 .286 .446 L .286 .36400003 C .303 .35300002 .32200004 .35000003 .333 .35000003 C .365 .35000003 .38700003 .372 .38700003 .40500004 C .38700003 .44500003 .351 .499 .24200002 .499 C .095 .499 0 .40500004 0 .24900002 C 0 .091000009 .095 0 .22600001 0 C .26000003 0 .312 .0060000007 .388 .051000004 L .388 .10300001 Z "/>
</symbol>
<symbol id="font_9f4_3a">
<path d="M .34600003 .67800006 L .34600003 .49000005 C .32200004 .49400003 .286 .499 .259 .499 C .193 .499 .134 .47800002 .09300001 .44500003 C .050000006 .411 0 .344 0 .23400001 C 0 .10000001 .078 0 .194 0 C .23000002 0 .28300003 .009000001 .34600003 .061 L .34600003 .009000001 L .495 .009000001 L .495 .045 L .44700004 .05 L .43 .06600001 L .43 .74500009 L .39200003 .74500009 L .26900003 .70900008 L .26900003 .67800006 L .34600003 .67800006 M .34600003 .098000008 C .314 .079 .275 .064 .238 .064 C .16100002 .064 .09 .11900001 .09 .24700001 C .09 .35900004 .14400001 .455 .26500003 .455 C .293 .455 .33 .44500003 .34600003 .441 L .34600003 .098000008 Z "/>
</symbol>
<symbol id="font_9f4_45">
<path d="M .23400003 .499 C .072000008 .499 0 .37800003 0 .24900002 C 0 .16700001 .029 .109000008 .063 .072000008 C .091000009 .041 .14400001 0 .23200003 0 C .31300003 0 .36600004 .035 .397 .067 C .43500004 .10700001 .46600003 .16800002 .46600003 .24900002 C .46600003 .38700003 .379 .499 .23400003 .499 M .231 .455 C .25300003 .455 .29400004 .44900004 .328 .40600003 C .36600004 .35700003 .372 .291 .372 .24900002 C .372 .20400001 .36600004 .149 .335 .10300001 C .30400003 .057 .26400004 .044 .23200003 .044 C .19800002 .044 .15100001 .057 .120000008 .12100001 C .10000001 .16300002 .09400001 .21000001 .09400001 .25 C .09400001 .305 .105000007 .365 .136 .40600003 C .16900002 .44900004 .21000001 .455 .231 .455 Z "/>
</symbol>
<use xlink:href="#font_9f4_4d" transform="matrix(10.5,0,0,-10.5,46.7402,88.04791)" fill="#231f20"/>
<use xlink:href="#font_9f4_37" transform="matrix(10.5,0,0,-10.5,55.297704,88.14241)" fill="#231f20"/>
<use xlink:href="#font_9f4_4a" transform="matrix(10.5,0,0,-10.5,60.4322,88.08991)" fill="#231f20"/>
<use xlink:href="#font_9f4_39" transform="matrix(10.5,0,0,-10.5,64.0652,88.14241)" fill="#231f20"/>
<use xlink:href="#font_9f4_3e" transform="matrix(10.5,0,0,-10.5,68.70621,88.04791)" fill="#231f20"/>
<use xlink:href="#font_9f4_3b" transform="matrix(10.5,0,0,-10.5,74.8382,88.14241)" fill="#231f20"/>
<use xlink:href="#font_9f4_49" transform="matrix(10.5,0,0,-10.5,80.035709,88.14241)" fill="#231f20"/>
<use xlink:href="#font_9f4_9" transform="matrix(10.5,0,0,-10.5,84.2042,89.83292)" fill="#231f20"/>
<use xlink:href="#font_9f4_1" transform="matrix(10.5,0,0,-10.5,86.7137,88.04791)" fill="#231f20"/>
<use xlink:href="#font_9f4_3b" transform="matrix(10.5,0,0,-10.5,90.03695,88.14241)" fill="#231f20"/>
<use xlink:href="#font_9f4_37" transform="matrix(10.5,0,0,-10.5,95.23445,88.14241)" fill="#231f20"/>
<use xlink:href="#font_9f4_49" transform="matrix(10.5,0,0,-10.5,100.547458,88.14241)" fill="#231f20"/>
<use xlink:href="#font_9f4_3f" transform="matrix(10.5,0,0,-10.5,104.66345,88.04791)" fill="#231f20"/>
<use xlink:href="#font_9f4_3b" transform="matrix(10.5,0,0,-10.5,107.63495,88.14241)" fill="#231f20"/>
<use xlink:href="#font_9f4_49" transform="matrix(10.5,0,0,-10.5,112.83245,88.14241)" fill="#231f20"/>
<use xlink:href="#font_9f4_4a" transform="matrix(10.5,0,0,-10.5,116.85394,88.08991)" fill="#231f20"/>
<use xlink:href="#font_9f4_9" transform="matrix(10.5,0,0,-10.5,120.50795,89.83292)" fill="#231f20"/>
<use xlink:href="#font_9f4_1" transform="matrix(10.5,0,0,-10.5,123.01745,88.04791)" fill="#231f20"/>
<use xlink:href="#font_9f4_3a" transform="matrix(10.5,0,0,-10.5,126.34595,88.14241)" fill="#231f20"/>
<use xlink:href="#font_9f4_3f" transform="matrix(10.5,0,0,-10.5,132.25745,88.04791)" fill="#231f20"/>
<use xlink:href="#font_9f4_39" transform="matrix(10.5,0,0,-10.5,135.22896,88.14241)" fill="#231f20"/>
<use xlink:href="#font_9f4_4a" transform="matrix(10.5,0,0,-10.5,139.78595,88.08991)" fill="#231f20"/>
<use xlink:href="#font_9f4_3f" transform="matrix(10.5,0,0,-10.5,143.38745,88.04791)" fill="#231f20"/>
<use xlink:href="#font_9f4_45" transform="matrix(10.5,0,0,-10.5,146.35897,88.14241)" fill="#231f20"/>
<use xlink:href="#font_9f4_44" transform="matrix(10.5,0,0,-10.5,151.95546,88.04791)" fill="#231f20"/>
<use xlink:href="#font_9f4_37" transform="matrix(10.5,0,0,-10.5,158.06645,88.14241)" fill="#231f20"/>
<use xlink:href="#font_9f4_48" transform="matrix(10.5,0,0,-10.5,163.25347,88.04791)" fill="#231f20"/>
<use xlink:href="#font_9f4_3f" transform="matrix(10.5,0,0,-10.5,167.4839,88.04791)" fill="#231f20"/>
<use xlink:href="#font_9f4_3b" transform="matrix(10.5,0,0,-10.5,170.45542,88.14241)" fill="#231f20"/>
<use xlink:href="#font_9f4_49" transform="matrix(10.5,0,0,-10.5,175.65291,88.14241)" fill="#231f20"/>
<use xlink:href="#font_9f4_9" transform="matrix(10.5,0,0,-10.5,179.82141,89.83292)" fill="#231f20"/>
<use xlink:href="#font_9f4_1" transform="matrix(10.5,0,0,-10.5,182.33092,88.04791)" fill="#231f20"/>
<use xlink:href="#font_9f4_3e" transform="matrix(10.5,0,0,-10.5,185.47042,88.04791)" fill="#231f20"/>
<use xlink:href="#font_9f4_3b" transform="matrix(10.5,0,0,-10.5,191.60242,88.14241)" fill="#231f20"/>
<use xlink:href="#font_9f4_37" transform="matrix(10.5,0,0,-10.5,196.79991,88.14241)" fill="#231f20"/>
<use xlink:href="#font_9f4_4c" transform="matrix(10.5,0,0,-10.5,201.48291,88.04791)" fill="#231f20"/>
<use xlink:href="#font_9f4_3f" transform="matrix(10.5,0,0,-10.5,207.0794,88.04791)" fill="#231f20"/>
<use xlink:href="#font_9f4_3b" transform="matrix(10.5,0,0,-10.5,210.05092,88.14241)" fill="#231f20"/>
<use xlink:href="#font_9f4_48" transform="matrix(10.5,0,0,-10.5,215.12242,88.04791)" fill="#231f20"/>
<use xlink:href="#font_9f4_9" transform="matrix(10.5,0,0,-10.5,218.70293,89.83292)" fill="#231f20"/>
<use xlink:href="#font_9f4_1" transform="matrix(10.5,0,0,-10.5,221.21244,88.04791)" fill="#231f20"/>
<use xlink:href="#font_9f4_3b" transform="matrix(10.5,0,0,-10.5,224.54094,88.14241)" fill="#231f20"/>
<use xlink:href="#font_9f4_37" transform="matrix(10.5,0,0,-10.5,229.73844,88.14241)" fill="#231f20"/>
<use xlink:href="#font_9f4_48" transform="matrix(10.5,0,0,-10.5,234.92545,88.04791)" fill="#231f20"/>
<use xlink:href="#font_9f4_42" transform="matrix(10.5,0,0,-10.5,238.717,88.04791)" fill="#231f20"/>
<use xlink:href="#font_9f4_3f" transform="matrix(10.5,0,0,-10.5,241.77249,88.04791)" fill="#231f20"/>
<use xlink:href="#font_9f4_3b" transform="matrix(10.5,0,0,-10.5,244.744,88.14241)" fill="#231f20"/>
<use xlink:href="#font_9f4_48" transform="matrix(10.5,0,0,-10.5,249.8155,88.04791)" fill="#231f20"/>
<use xlink:href="#font_9f4_9" transform="matrix(10.5,0,0,-10.5,253.39496,89.83292)" fill="#231f20"/>
<use xlink:href="#font_9f4_1" transform="matrix(10.5,0,0,-10.5,255.90447,88.04791)" fill="#231f20"/>
<use xlink:href="#font_9f4_3c" transform="matrix(10.5,0,0,-10.5,259.15946,88.04791)" fill="#231f20"/>
<use xlink:href="#font_9f4_37" transform="matrix(10.5,0,0,-10.5,262.66648,88.14241)" fill="#231f20"/>
<use xlink:href="#font_9f4_39" transform="matrix(10.5,0,0,-10.5,267.92695,88.14241)" fill="#231f20"/>
<use xlink:href="#font_9f4_4a" transform="matrix(10.5,0,0,-10.5,272.48399,88.08991)" fill="#231f20"/>
<use xlink:href="#font_9f4_45" transform="matrix(10.5,0,0,-10.5,275.99095,88.14241)" fill="#231f20"/>
<use xlink:href="#font_9f4_48" transform="matrix(10.5,0,0,-10.5,281.58747,88.04791)" fill="#231f20"/>
<use xlink:href="#font_9f4_3f" transform="matrix(10.5,0,0,-10.5,285.81895,88.04791)" fill="#231f20"/>
<use xlink:href="#font_9f4_3b" transform="matrix(10.5,0,0,-10.5,288.79045,88.14241)" fill="#231f20"/>
<use xlink:href="#font_9f4_49" transform="matrix(10.5,0,0,-10.5,293.98796,88.14241)" fill="#231f20"/>
</g>
</g>
<text x="10" y="-10" font-size="13" font-family="Arial" fill="#cccccc">https://urait.ru</text></svg>
