<?xml version="1.0" encoding="UTF-8" standalone="no"?>
<!DOCTYPE svg PUBLIC "-//W3C//DTD SVG 1.1//EN" "http://www.w3.org/Graphics/SVG/1.1/DTD/svg11.dtd">
<svg xmlns="http://www.w3.org/2000/svg" xmlns:xlink="http://www.w3.org/1999/xlink" version="1.1" width="439.37pt" height="674.646pt" viewBox="0 0 439.37 674.646">
<g enable-background="new">
<g id="Layer-1" data-name="P">
<g id="Layer-2" data-name="Span">
</g>
<symbol id="font_255_41">
<path d="M .18800001 .49600003 L .14 .49600003 L 0 .44900004 L 0 .409 L .065 .409 L .065 .064 L .051 .05 L 0 .045 L 0 0 L .246 0 L .246 .045 L .202 .05 L .18800001 .064 L .18800001 .39400003 C .20400001 .4 .24000003 .41200004 .27400003 .41200004 C .32400004 .41200004 .36100004 .38200004 .36100004 .30900003 L .36100004 .064 L .34700004 .05 L .30300004 .045 L .30300004 0 L .542 0 L .542 .045 L .49800007 .05 L .48400007 .064 L .48400007 .39200003 C .527 .411 .56 .41200004 .574 .41200004 C .63600006 .41200004 .662 .367 .662 .303 L .662 .064 L .648 .05 L .60400006 .045 L .60400006 0 L .85 0 L .85 .045 L .79800006 .05 L .785 .064 L .785 .33200003 C .785 .386 .76600006 .499 .653 .499 C .605 .499 .536 .46800003 .469 .43 C .45000006 .46300004 .41300006 .499 .35300002 .499 C .30600003 .499 .24700003 .47300003 .18800001 .437 L .18800001 .49600003 Z "/>
</symbol>
<symbol id="font_255_39">
<path d="M .45400004 .133 C .38000003 .087000008 .32500003 .079 .29000003 .079 C .157 .079 .128 .18100001 .128 .26400004 L .455 .26400004 C .455 .36900003 .432 .508 .24900002 .508 C .163 .508 .10800001 .47400005 .07700001 .44500003 C .030000002 .40000005 0 .33200003 0 .25 C 0 .156 .038000004 .09900001 .067 .069000009 C .10200001 .033 .15900001 0 .24900002 0 C .33800004 0 .41200004 .035 .45400004 .059 L .45400004 .133 M .133 .31700004 C .133 .40500004 .18800001 .45400004 .23700002 .45400004 C .286 .45400004 .32400004 .40700004 .32400004 .32500003 L .32400004 .31700004 L .133 .31700004 Z "/>
</symbol>
<symbol id="font_255_1">
<path d="M 0 0 Z "/>
</symbol>
<symbol id="font_255_48">
<path d="M .065000008 .41900004 L .065000008 .128 C .065000008 .061 .069000009 0 .187 0 C .21200001 0 .28700004 .016 .33600004 .032 L .33600004 .080000009 C .31100003 .07400001 .29200004 .07300001 .272 .07300001 C .229 .07300001 .18800003 .08400001 .18800003 .17 L .18800003 .41900004 L .33600004 .41900004 L .33600004 .47900004 L .18800003 .47900004 L .18800003 .60300007 L .12600002 .60300007 L .074 .499 L 0 .45700003 L 0 .41900004 L .065000008 .41900004 Z "/>
</symbol>
<symbol id="font_255_43">
<path d="M .26200003 .508 C .12300001 .508 0 .43500004 0 .252 C 0 .07800001 .11500001 0 .25300003 0 C .363 0 .51000007 .052 .51000007 .254 C .51000007 .35700003 .46600003 .418 .43 .44900004 C .39100004 .48300005 .335 .508 .26200003 .508 M .254 .45400004 C .35400004 .45400004 .372 .30800004 .372 .252 C .372 .18500002 .351 .054 .254 .054 C .16000001 .054 .13800001 .18400002 .13800001 .255 C .13800001 .32700003 .15200001 .36900003 .165 .395 C .17700002 .418 .202 .45400004 .254 .45400004 Z "/>
</symbol>
<use xlink:href="#font_255_41" transform="matrix(10.5,0,0,-10.5,61.2704,50.615968)" fill="#231f20"/>
<use xlink:href="#font_255_39" transform="matrix(10.5,0,0,-10.5,70.699398,50.71047)" fill="#231f20"/>
<use xlink:href="#font_255_1" transform="matrix(10.5,0,0,-10.5,75.8129,50.615968)" fill="#231f20"/>
<use xlink:href="#font_255_48" transform="matrix(10.5,0,0,-10.5,78.9524,50.66847)" fill="#231f20"/>
<use xlink:href="#font_255_43" transform="matrix(10.5,0,0,-10.5,82.88989,50.71047)" fill="#231f20"/>
<use xlink:href="#font_255_43" transform="matrix(10.5,0,0,-10.5,89.0219,50.71047)" fill="#231f20"/>
</g>
<g id="Layer-1" data-name="P">
<g id="Layer-2" data-name="Span">
</g>
<symbol id="font_256_1">
<path d="M 0 0 Z "/>
</symbol>
<symbol id="font_256_60">
<path d="M 0 0 L 1 0 L 1 .06100002 L 0 .06100002 L 0 0 Z "/>
</symbol>
<symbol id="font_256_78">
<path d="M 0 .48100005 L 0 .44500003 L .054000006 .44000004 L .071 .42400003 L .071 .057000005 L .054000006 .041 L 0 .036000004 L 0 0 L .18800001 0 L .18800001 .036000004 L .14 .041 L .12300001 .057000005 L .12300001 .44000004 L .287 0 L .323 0 L .48500005 .44000004 L .48500005 .057000005 L .46800003 .041 L .42000003 .036000004 L .42000003 0 L .64 0 L .64 .036000004 L .5860001 .041 L .569 .057000005 L .569 .42400003 L .5860001 .44000004 L .64 .44500003 L .64 .48100005 L .446 .48100005 L .446 .45700003 L .32200004 .11400001 L .19800002 .45700003 L .19800002 .48100005 L 0 .48100005 Z "/>
</symbol>
<symbol id="font_256_77">
<path d="M 0 0 L .22 0 L .22 .036000004 L .172 .041 L .155 .057000005 L .155 .22800002 L .379 .22800002 L .379 .057000005 L .36200003 .041 L .314 .036000004 L .314 0 L .53400006 0 L .53400006 .036000004 L .48000006 .041 L .46300004 .057000005 L .46300004 .42400003 L .48000006 .44000004 L .53400006 .44500003 L .53400006 .48100005 L .314 .48100005 L .314 .44500003 L .36200003 .44000004 L .379 .42400003 L .379 .27400003 L .155 .27400003 L .155 .42400003 L .172 .44000004 L .22 .44500003 L .22 .48100005 L 0 .48100005 L 0 .44500003 L .054000006 .44000004 L .071 .42400003 L .071 .057000005 L .054000006 .041 L 0 .036000004 L 0 0 Z "/>
</symbol>
<symbol id="font_256_80">
<path d="M .411 .11500001 C .33900003 .06600001 .287 .057 .254 .057 C .14 .057 .086 .16300002 .086 .26500003 L .086 .272 L .41000004 .272 C .411 .282 .411 .291 .411 .3 C .411 .46100004 .31 .499 .23200003 .499 C .149 .499 .097 .462 .07000001 .43400003 C .026 .38900004 0 .32200004 0 .24600002 C 0 .10800001 .075 0 .227 0 C .29200004 0 .358 .023000002 .411 .060000004 L .411 .11500001 M .091000009 .314 C .098000008 .38000003 .134 .455 .22 .455 C .279 .455 .30200003 .416 .30800004 .404 C .316 .38900004 .32200004 .35900004 .32200004 .33900003 L .32200004 .314 L .091000009 .314 Z "/>
</symbol>
<symbol id="font_256_74">
<path d="M .091000009 0 L .349 0 L .349 .036000004 L .279 .041 L .26200003 .057000005 L .26200003 .43500004 L .363 .43500004 L .37800003 .41900004 L .38900004 .335 L .44000004 .335 L .44000004 .48100005 L 0 .48100005 L 0 .335 L .051 .335 L .062 .41900004 L .077 .43500004 L .178 .43500004 L .178 .057000005 L .161 .041 L .091000009 .036000004 L .091000009 0 Z "/>
</symbol>
<symbol id="font_256_71">
<path d="M .23400003 .499 C .072000008 .499 0 .37800003 0 .24900002 C 0 .16700001 .029 .109000008 .063 .072000008 C .091000009 .041 .14400001 0 .23200003 0 C .31300003 0 .36600004 .035 .397 .067 C .43500004 .10700001 .46600003 .16800002 .46600003 .24900002 C .46600003 .38700003 .379 .499 .23400003 .499 M .231 .455 C .25300003 .455 .29400004 .45200003 .328 .409 C .36600004 .36 .372 .291 .372 .24900002 C .372 .20400001 .36600004 .15500002 .335 .109000008 C .30400003 .063 .26400004 .044 .23200003 .044 C .19800002 .044 .15100001 .057 .120000008 .12100001 C .10000001 .16300002 .09400001 .21000001 .09400001 .25 C .09400001 .305 .105000007 .36800004 .136 .409 C .16900002 .45200003 .21000001 .455 .231 .455 Z "/>
</symbol>
<symbol id="font_256_89">
<path d="M .26200003 .48100005 L .26200003 .44500003 L .312 .44000004 L .32900004 .42400003 L .32900004 .27 L .29500003 .27 C .24900002 .27 .22000002 .298 .20700002 .33200003 L .178 .40800003 C .165 .44000004 .143 .49 .087000008 .49 C .054 .49 .024 .47000004 .024 .43500004 C .024 .42200003 .029000001 .39800004 .052 .386 L .120000008 .42600004 C .13000001 .41300003 .132 .40600003 .136 .39400003 L .163 .323 C .17 .303 .185 .266 .23200001 .256 L .23200001 .254 C .19800002 .25 .158 .22600001 .126 .15900001 L .07700001 .055000005 L .060000004 .043 L 0 .036000004 L 0 0 L .148 0 L .148 .032 L .19700001 .147 C .21300002 .18400002 .23500002 .22600001 .28300003 .22600001 L .32900004 .22600001 L .32900004 .057000005 L .312 .041 L .26200003 .036000004 L .26200003 0 L .47200004 0 L .47200004 .036000004 L .42200003 .041 L .40500004 .057000005 L .40500004 .22600001 L .45100004 .22600001 C .499 .22600001 .521 .18400002 .537 .147 L .586 .032 L .586 0 L .734 0 L .734 .036000004 L .674 .043 L .657 .055000005 L .60800006 .15900001 C .57600006 .22600001 .536 .25 .50200006 .254 L .50200006 .256 C .549 .266 .564 .303 .57100006 .323 L .59800007 .39400003 C .60200008 .40600003 .60400006 .41300003 .614 .42600004 L .68200007 .386 C .70500007 .39800004 .71000006 .42200003 .71000006 .43500004 C .71000006 .47000004 .68 .49 .647 .49 C .591 .49 .569 .44000004 .55600008 .40800003 L .527 .33200003 C .514 .298 .485 .27 .439 .27 L .40500004 .27 L .40500004 .42400003 L .42200003 .44000004 L .47200004 .44500003 L .47200004 .48100005 L .26200003 .48100005 Z "/>
</symbol>
<use xlink:href="#font_256_1" transform="matrix(10.5,0,0,-10.5,94.7608,50.615968)" fill="#231f20"/>
<use xlink:href="#font_256_60" transform="matrix(10.5,0,0,-10.5,97.700809,48.410966)" fill="#231f20"/>
<use xlink:href="#font_256_1" transform="matrix(10.5,0,0,-10.5,108.200809,50.615968)" fill="#231f20"/>
<use xlink:href="#font_256_78" transform="matrix(10.5,0,0,-10.5,111.45581,50.615968)" fill="#231f20"/>
<use xlink:href="#font_256_77" transform="matrix(10.5,0,0,-10.5,118.80581,50.615968)" fill="#231f20"/>
<use xlink:href="#font_256_80" transform="matrix(10.5,0,0,-10.5,125.1163,50.71047)" fill="#231f20"/>
<use xlink:href="#font_256_1" transform="matrix(10.5,0,0,-10.5,129.8728,50.615968)" fill="#231f20"/>
<use xlink:href="#font_256_74" transform="matrix(10.5,0,0,-10.5,132.97556,50.615968)" fill="#231f20"/>
<use xlink:href="#font_256_71" transform="matrix(10.5,0,0,-10.5,138.15206,50.71047)" fill="#231f20"/>
<use xlink:href="#font_256_89" transform="matrix(10.5,0,0,-10.5,143.43355,50.615968)" fill="#231f20"/>
<use xlink:href="#font_256_80" transform="matrix(10.5,0,0,-10.5,151.52906,50.71047)" fill="#231f20"/>
</g>
<g id="Layer-1" data-name="P">
<g id="Layer-2" data-name="Span">
</g>
<g id="Layer-2" data-name="Span">
</g>
<symbol id="font_255_2b">
<path d="M 0 .034 C .035 .022 .104 0 .18400002 0 C .255 0 .327 .015000001 .379 .052 C .44300003 .098000008 .458 .162 .458 .204 C .458 .266 .424 .30900003 .403 .329 C .366 .36400003 .312 .38700003 .272 .405 C .16600001 .45400004 .14400001 .483 .14400001 .53300008 C .14400001 .57000008 .16100002 .59300008 .17600002 .6050001 C .18400002 .61100009 .21100001 .63100007 .265 .63100007 C .295 .63100007 .318 .6240001 .335 .61700007 L .349 .60300007 L .366 .499 L .438 .499 L .438 .6610001 C .393 .67600008 .323 .69500008 .257 .69500008 C .052000006 .69500008 .014000002 .563 .014000002 .50100007 C .014000002 .441 .049 .365 .17400001 .306 C .221 .284 .322 .24700001 .322 .162 C .322 .09200001 .253 .064 .193 .064 C .17300001 .064 .13900002 .067 .105000007 .080000009 L .09200001 .095000009 L .076000008 .215 L 0 .215 L 0 .034 Z "/>
</symbol>
<symbol id="font_255_3c">
<path d="M .147 .739 L 0 .69200006 L 0 .65300008 L .072 .65300008 L .072 .064 L .058000003 .05 L .007000001 .045 L .007000001 0 L .25300003 0 L .25300003 .045 L .21000001 .05 L .19500001 .064 L .19500001 .39400003 C .21300002 .4 .25400005 .41200004 .29100005 .41200004 C .35500003 .41200004 .38100005 .36100004 .38100005 .303 L .38100005 .064 L .36700005 .05 L .323 .045 L .323 0 L .56900009 0 L .56900009 .045 L .517 .05 L .504 .064 L .504 .33200003 C .504 .462 .43700005 .499 .37200005 .499 C .31400005 .499 .25900004 .47200004 .19500001 .437 L .19500001 .739 L .147 .739 Z "/>
</symbol>
<symbol id="font_255_3d">
<path d="M .060000007 .64900007 C .060000007 .60800006 .09300001 .57500007 .134 .57500007 C .17500001 .57500007 .20800002 .60800006 .20800002 .64900007 C .20800002 .69000008 .17500001 .72300007 .134 .72300007 C .09300001 .72300007 .060000007 .69000008 .060000007 .64900007 M .14400001 .49600003 L .0020000004 .44900004 L .0020000004 .409 L .069000009 .409 L .069000009 .064 L .055000005 .05 L 0 .045 L 0 0 L .26400004 0 L .26400004 .045 L .20700002 .05 L .19200002 .064 L .19200002 .49600003 L .14400001 .49600003 Z "/>
</symbol>
<symbol id="font_255_47">
<path d="M .354 .48400004 C .294 .504 .24000001 .508 .206 .508 C .136 .508 .0069999995 .47800002 .0069999995 .36 C .0069999995 .28300003 .06600001 .25100003 .16600001 .20600002 C .24200002 .172 .25100003 .15500002 .25100003 .127 C .25100003 .08200001 .23000002 .054 .162 .054 C .14500001 .054 .117000009 .057 .082 .07400001 L .072000008 .08500001 L .061000006 .171 L 0 .171 L 0 .023000002 C .06600001 .0050000005 .12900001 0 .162 0 C .323 0 .36900003 .08400001 .36900003 .16200002 C .36900003 .18400002 .367 .20400001 .34800003 .22700002 C .33200003 .24600002 .305 .26500003 .229 .30200003 C .14700002 .34300003 .13 .363 .13 .39000003 C .13 .44300003 .17500001 .45400004 .20500002 .45400004 C .22 .45400004 .24200002 .45200003 .272 .43700005 L .284 .42600004 L .294 .351 L .354 .351 L .354 .48400004 Z "/>
</symbol>
<symbol id="font_255_4d">
<path d="M 0 .70600005 L 0 .661 L .060000004 .653 L .238 .20700002 C .21700001 .157 .19500001 .11400001 .16 .08500001 L .07300001 .14500001 C .052 .135 .021000002 .113000009 .021000002 .075 C .021000002 .023000002 .075 0 .105000007 0 C .131 0 .17 .009000003 .214 .05600001 C .245 .09 .27400003 .13700001 .293 .18400002 L .48600004 .653 L .54 .661 L .54 .70600005 L .34800003 .70600005 L .34800003 .661 L .40100003 .656 L .41000004 .64100006 L .30100004 .35900004 L .193 .642 L .20300001 .656 L .254 .661 L .254 .70600005 L 0 .70600005 Z "/>
</symbol>
<symbol id="font_255_36">
<path d="M .147 .739 L 0 .69200006 L 0 .65300008 L .072 .65300008 L .072 0 L .18200001 0 C .296 0 .397 0 .47500003 .091000009 C .512 .134 .537 .19700001 .537 .27100004 C .537 .395 .47100003 .499 .338 .499 C .284 .499 .22800002 .47300003 .19500001 .453 L .19500001 .739 L .147 .739 M .19500001 .41200004 C .229 .41900004 .24600002 .42100004 .26000003 .42100004 C .388 .42100004 .40300004 .286 .40300004 .24100001 C .40300004 .148 .367 .10700001 .35700003 .097 C .337 .07700001 .29700003 .053000004 .224 .053000004 C .215 .053000004 .20500002 .053000004 .19500001 .054 L .19500001 .41200004 Z "/>
</symbol>
<symbol id="font_255_3a">
<path d="M .0010000002 0 L .27100004 0 L .27100004 .045 L .20400001 .05 L .18800001 .064 L .18800001 .41400004 L .32200004 .41400004 L .32200004 .47400005 L .18800001 .47400005 L .18800001 .53400006 C .18800001 .625 .20300001 .66300007 .22700002 .694 L .32400004 .60800006 C .35200004 .61600008 .38200004 .634 .38200004 .671 C .38200004 .72300007 .32900004 .74300006 .28800003 .74300006 C .228 .74300006 .18100001 .71400007 .15 .68700006 C .079 .625 .065 .544 .065 .48800005 L .065 .48200003 L 0 .45200003 L 0 .41400004 L .065 .41400004 L .065 .064 L .051 .05 L .0010000002 .045 L .0010000002 0 Z "/>
</symbol>
<symbol id="font_255_46">
<path d="M .005000001 0 L .28100003 0 L .28100003 .045 L .21000001 .05 L .19500001 .064 L .19500001 .351 C .214 .36400003 .24500002 .38000003 .27100004 .38000003 C .3 .38000003 .32100005 .35900004 .33100004 .34300003 L .38300003 .34300003 L .39600004 .48100005 C .37400005 .49100004 .35700003 .49800004 .33300004 .49800004 C .30200003 .49800004 .263 .469 .191 .39400003 L .19500001 .49600003 L .147 .49600003 L 0 .44900004 L 0 .409 L .072 .409 L .072 .064 L .058000003 .05 L .005000001 .045 L .005000001 0 Z "/>
</symbol>
<symbol id="font_255_42">
<path d="M .0030000006 0 L .24900002 0 L .24900002 .045 L .20500002 .05 L .19100002 .064 L .19100002 .39400003 C .24900002 .411 .277 .41200004 .286 .41200004 C .35200004 .41200004 .37600003 .36 .37600003 .3 L .37600003 .064 L .36200003 .05 L .31800003 .045 L .31800003 0 L .564 0 L .564 .045 L .512 .05 L .499 .064 L .499 .33200003 C .499 .37100003 .49100007 .499 .367 .499 C .31100003 .499 .24300003 .467 .19100002 .437 L .19100002 .49600003 L .143 .49600003 L 0 .44900004 L 0 .409 L .068 .409 L .068 .064 L .054 .05 L .0030000006 .045 L .0030000006 0 Z "/>
</symbol>
<symbol id="font_255_38">
<path d="M .35200004 .661 L .35200004 .499 C .323 .504 .289 .508 .26200003 .508 C .13900002 .508 0 .441 0 .24000001 C 0 .08900001 .09200001 0 .194 0 C .25300003 0 .30600003 .031000004 .35200004 .065000008 L .35200004 .009000001 L .54 .009000001 L .54 .054 L .48900003 .059 L .47500003 .07300001 L .47500003 .748 L .42700003 .748 L .279 .70100006 L .279 .661 L .35200004 .661 M .35200004 .10400001 C .312 .08800001 .286 .08500001 .272 .08500001 C .16000001 .08500001 .134 .17800002 .134 .261 C .134 .36 .171 .45400004 .27800004 .45400004 C .30200003 .45400004 .319 .448 .35200004 .43800003 L .35200004 .10400001 Z "/>
</symbol>
<symbol id="font_255_9">
<path d="M .079 .15900001 C .034999998 .15900001 0 .124000009 0 .079 C 0 .035 .034999998 0 .078 0 C .123 0 .15900001 .035 .15900001 .079 C .15900001 .12200001 .122 .15900001 .079 .15900001 Z "/>
</symbol>
<use xlink:href="#font_255_2b" transform="matrix(10.5,0,0,-10.5,61.5644,63.34188)" fill="#231f20"/>
<use xlink:href="#font_255_3c" transform="matrix(10.5,0,0,-10.5,67.1609,63.21588)" fill="#231f20"/>
<use xlink:href="#font_255_39" transform="matrix(10.5,0,0,-10.5,73.6394,63.310384)" fill="#231f20"/>
<use xlink:href="#font_255_1" transform="matrix(10.5,0,0,-10.5,78.7529,63.21588)" fill="#231f20"/>
<use xlink:href="#font_255_3d" transform="matrix(10.5,0,0,-10.5,81.98165,63.21588)" fill="#231f20"/>
<use xlink:href="#font_255_47" transform="matrix(10.5,0,0,-10.5,85.31015,63.310384)" fill="#231f20"/>
<use xlink:href="#font_255_1" transform="matrix(10.5,0,0,-10.5,89.57315,63.21588)" fill="#231f20"/>
<use xlink:href="#font_255_41" transform="matrix(10.5,0,0,-10.5,92.83865,63.21588)" fill="#231f20"/>
<use xlink:href="#font_255_4d" transform="matrix(10.5,0,0,-10.5,101.83715,65.51538)" fill="#231f20"/>
<use xlink:href="#font_255_1" transform="matrix(10.5,0,0,-10.5,107.28665,63.21588)" fill="#231f20"/>
<use xlink:href="#font_255_36" transform="matrix(10.5,0,0,-10.5,110.32115,63.21588)" fill="#231f20"/>
<use xlink:href="#font_255_39" transform="matrix(10.5,0,0,-10.5,116.663158,63.310384)" fill="#231f20"/>
<use xlink:href="#font_255_47" transform="matrix(10.5,0,0,-10.5,122.20715,63.310384)" fill="#231f20"/>
<use xlink:href="#font_255_48" transform="matrix(10.5,0,0,-10.5,126.669658,63.268384)" fill="#231f20"/>
<use xlink:href="#font_255_1" transform="matrix(10.5,0,0,-10.5,130.21866,63.21588)" fill="#231f20"/>
<use xlink:href="#font_255_3a" transform="matrix(10.5,0,0,-10.5,133.47891,63.21588)" fill="#231f20"/>
<use xlink:href="#font_255_46" transform="matrix(10.5,0,0,-10.5,136.99642,63.21588)" fill="#231f20"/>
<use xlink:href="#font_255_3d" transform="matrix(10.5,0,0,-10.5,141.66893,63.21588)" fill="#231f20"/>
<use xlink:href="#font_255_39" transform="matrix(10.5,0,0,-10.5,144.95543,63.310384)" fill="#231f20"/>
<use xlink:href="#font_255_42" transform="matrix(10.5,0,0,-10.5,150.36293,63.21588)" fill="#231f20"/>
<use xlink:href="#font_255_38" transform="matrix(10.5,0,0,-10.5,156.78893,63.310384)" fill="#231f20"/>
<use xlink:href="#font_255_9" transform="matrix(10.5,0,0,-10.5,163.34091,63.29988)" fill="#231f20"/>
</g>
<g id="Layer-1" data-name="P">
<g id="Layer-2" data-name="Span">
</g>
<symbol id="font_256_76">
<path d="M .326 .703 C .221 .703 .15200001 .66 .112 .625 C .058000003 .577 0 .49000005 0 .35200004 C 0 .21800001 .055000005 .136 .09400001 .095000009 C .14500001 .042000005 .221 0 .324 0 C .437 0 .512 .051 .55600008 .09900001 C .609 .157 .646 .24500002 .646 .35200004 C .646 .548 .526 .703 .326 .703 M .321 .65 C .349 .65 .414 .645 .466 .589 C .5130001 .539 .54100009 .453 .54100009 .35000003 C .54100009 .31 .53700008 .208 .48200003 .134 C .43 .063 .36 .053000004 .324 .053000004 C .276 .053000004 .21000003 .069000009 .16100002 .14 C .10900001 .21500002 .105000007 .314 .105000007 .35300002 C .105000007 .51100006 .16800002 .65 .321 .65 Z "/>
</symbol>
<symbol id="font_256_7e">
<path d="M .30600003 .009000001 L .44600005 .009000001 L .44600005 .045 L .39300005 .045 L .37600003 .06600001 L .37600003 .356 C .37600003 .37700004 .37500004 .42800004 .344 .46100004 C .30900003 .49800004 .24800003 .499 .22500003 .499 C .079 .499 .024999999 .43500004 .024999999 .38200004 C .024999999 .358 .044 .356 .056 .356 L .125 .356 L .125 .44000004 C .15 .44900004 .178 .455 .204 .455 C .29700003 .455 .29200004 .38300003 .29200004 .344 L .29200004 .312 C .185 .286 .137 .27 .101 .256 C .053999999 .23700002 0 .20600002 0 .13100001 C 0 .068 .038000004 0 .12799999 0 C .16600001 0 .215 .012 .29200004 .067 L .30600003 .009000001 M .29200004 .10100001 C .22800002 .064 .194 .056 .16800002 .056 C .107 .056 .08800001 .102000009 .08800001 .13900002 C .08800001 .194 .12600002 .21600002 .15799999 .23100002 C .19300002 .24700001 .24900002 .26500003 .29200004 .277 L .29200004 .10100001 Z "/>
</symbol>
<symbol id="font_256_81">
<path d="M .493 .48100005 L .24600002 .48100005 C .17900002 .48100005 .07 .46600003 .07 .35000003 C .07 .28300003 .120000008 .23600002 .19500001 .23200001 L .19500001 .23 C .15200001 .215 .134 .18400002 .124000009 .165 L .067 .055000005 L .050000006 .043 L 0 .036000004 L 0 0 L .14000002 0 L .14000002 .032 L .19700001 .156 C .21200001 .186 .23000002 .21400002 .272 .21400002 L .338 .21400002 L .338 .057000005 L .321 .041 L .273 .036000004 L .273 0 L .493 0 L .493 .036000004 L .439 .041 L .42200003 .057000005 L .42200003 .42400003 L .439 .44000004 L .493 .44500003 L .493 .48100005 M .338 .25800003 C .321 .256 .304 .254 .278 .254 C .20100002 .254 .15200001 .273 .15200001 .34300003 C .15200001 .43500004 .23100002 .437 .275 .437 C .29500003 .437 .314 .43600003 .338 .432 L .338 .25800003 Z "/>
</symbol>
<symbol id="font_256_73">
<path d="M .11000001 .49000005 L .11000001 .45400004 L .172 .44900004 L .18900001 .43100003 C .187 .374 .179 .296 .167 .23500002 C .147 .13800001 .12200001 .095000009 .09900001 .067 L .036000004 .109000008 C .012000001 .09700001 0 .075 0 .052 C 0 .037 .011000001 0 .055 0 C .095000009 0 .124000009 .023000002 .142 .044 C .163 .068 .192 .11500001 .214 .21400002 C .229 .282 .238 .37100003 .24100001 .44400005 L .35100005 .44400005 L .35100005 .06600001 L .33400003 .05 L .286 .045 L .286 .009000001 L .50600007 .009000001 L .50600007 .045 L .45200003 .05 L .43500004 .06600001 L .43500004 .43300004 L .45200003 .44900004 L .50600007 .45400004 L .50600007 .49000005 L .11000001 .49000005 Z "/>
</symbol>
<symbol id="font_256_83">
<path d="M 0 .69900009 L 0 .66300007 L .061 .656 L .23000002 .222 C .21000001 .171 .18900001 .116000007 .149 .072 L .053 .11000001 C .032 .094000007 .027 .07000001 .027 .056999998 C .027 .026000008 .051 0 .095000009 0 C .14600002 0 .17700002 .032000007 .19700001 .059 C .20700002 .072 .23000002 .105000007 .256 .16800002 L .456 .65400007 L .514 .66300007 L .514 .69900009 L .336 .69900009 L .336 .66300007 L .39000003 .65800008 L .398 .642 L .273 .33100004 L .15300001 .642 L .165 .65800008 L .21800001 .66300007 L .21800001 .69900009 L 0 .69900009 Z "/>
</symbol>
<symbol id="font_256_66">
<path d="M 0 .48100005 L 0 .44500003 L .048 .44000004 L .065000008 .42400003 L .065000008 .317 C .065000008 .289 .069 .25300003 .09900001 .22500001 C .106000009 .21800001 .14000002 .19000001 .21100001 .19000001 C .24900002 .19000001 .3 .201 .33900003 .21400002 L .33900003 .057000005 L .32200004 .041 L .268 .036000004 L .268 0 L .49400006 0 L .49400006 .036000004 L .44000004 .041 L .42300005 .057000005 L .42300005 .42400003 L .44000004 .44000004 L .49400006 .44500003 L .49400006 .48100005 L .27400003 .48100005 L .27400003 .44500003 L .32200004 .44000004 L .33900003 .42400003 L .33900003 .25800003 C .30600003 .246 .26500003 .23600002 .23500002 .23600002 C .158 .23600002 .14900002 .29000003 .14900002 .321 L .14900002 .42400003 L .16600001 .44000004 L .21400002 .44500003 L .21400002 .48100005 L 0 .48100005 Z "/>
</symbol>
<symbol id="font_256_8d">
<path d="M 0 0 L .75 0 L .75 .036000004 L .696 .041 L .679 .057000005 L .679 .42400003 L .696 .44000004 L .75 .44500003 L .75 .48100005 L .53200009 .48100005 L .53200009 .44500003 L .57800009 .44000004 L .595 .42400003 L .595 .046000005 L .41700004 .046000005 L .41700004 .42400003 L .43400003 .44000004 L .48000006 .44500003 L .48000006 .48100005 L .27 .48100005 L .27 .44500003 L .316 .44000004 L .333 .42400003 L .333 .046000005 L .155 .046000005 L .155 .42400003 L .172 .44000004 L .21800001 .44500003 L .21800001 .48100005 L 0 .48100005 L 0 .44500003 L .054000006 .44000004 L .071 .42400003 L .071 .057000005 L .054000006 .041 L 0 .036000004 L 0 0 Z "/>
</symbol>
<symbol id="font_256_93">
<path d="M 0 0 L .22 0 L .22 .036000004 L .172 .041 L .155 .057000005 L .155 .43500004 L .36100004 .43500004 L .36100004 .057000005 L .344 .041 L .296 .036000004 L .296 0 L .51600006 0 L .51600006 .036000004 L .462 .041 L .44500003 .057000005 L .44500003 .42400003 L .462 .44000004 L .51600006 .44500003 L .51600006 .48100005 L 0 .48100005 L 0 .44500003 L .054000006 .44000004 L .071 .42400003 L .071 .057000005 L .054000006 .041 L 0 .036000004 L 0 0 Z "/>
</symbol>
<symbol id="font_256_75">
<path d="M .114 .62100008 L .114 .58500006 L .17600002 .58000007 L .19300002 .56200006 C .17500001 .45200003 .13200002 .30900003 .050000006 .186 L 0 .186 L 0 0 L .051000004 0 L .069000009 .124 L .084 .14 L .416 .14 L .43100003 .124 L .449 0 L .5 0 L .5 .186 L .435 .186 L .423 .19600001 L .423 .564 L .44 .58000007 L .49400003 .58500006 L .49400003 .62100008 L .114 .62100008 M .108 .186 C .17500001 .30400003 .22400002 .459 .24500002 .57500007 L .33900003 .57500007 L .33900003 .186 L .108 .186 Z "/>
</symbol>
<symbol id="font_256_82">
<path d="M 0 0 L .23600002 0 L .23600002 .036 L .172 .04100001 L .155 .056999998 L .155 .224 C .20600002 .215 .237 .215 .24900003 .215 C .325 .215 .38 .24100001 .419 .279 C .455 .314 .49300004 .37800003 .49300004 .47500003 C .49300004 .63500007 .4 .708 .302 .708 C .264 .708 .22100002 .69900009 .155 .64900007 L .155 .70400008 L .11700001 .70400008 L 0 .66800007 L 0 .637 L .071 .637 L .071 .056999998 L .055000009 .04100001 L 0 .036 L 0 0 M .155 .61200007 C .179 .62600007 .22000002 .64400008 .259 .64400008 C .357 .64400008 .403 .56 .403 .463 C .403 .35400004 .34600003 .259 .22900002 .259 C .21400002 .259 .19000001 .261 .155 .27600003 L .155 .61200007 Z "/>
</symbol>
<symbol id="font_256_6a">
<path d="M 0 0 L .24200002 0 L .24200002 .036000004 L .172 .041 L .155 .057000005 L .155 .43500004 L .314 .43500004 L .32900004 .41900004 L .34300003 .316 L .39400003 .316 L .39400003 .48100005 L 0 .48100005 L 0 .44500003 L .054000006 .44000004 L .071 .42400003 L .071 .057000005 L .054000006 .041 L 0 .036000004 L 0 0 Z "/>
</symbol>
<symbol id="font_256_b">
<path d="M 0 .064 C 0 .030000002 .030000002 0 .063999999 0 C .098000008 0 .128 .030000002 .128 .064 C .128 .098000008 .098000008 .128 .063999999 .128 C .030000002 .128 0 .098000008 0 .064 Z "/>
</symbol>
<use xlink:href="#font_256_1" transform="matrix(10.5,0,0,-10.5,165.684,63.21588)" fill="#231f20"/>
<use xlink:href="#font_256_60" transform="matrix(10.5,0,0,-10.5,168.62401,61.01088)" fill="#231f20"/>
<use xlink:href="#font_256_1" transform="matrix(10.5,0,0,-10.5,179.12401,63.21588)" fill="#231f20"/>
<use xlink:href="#font_256_76" transform="matrix(10.5,0,0,-10.5,182.51552,63.38388)" fill="#231f20"/>
<use xlink:href="#font_256_77" transform="matrix(10.5,0,0,-10.5,190.06502,63.21588)" fill="#231f20"/>
<use xlink:href="#font_256_7e" transform="matrix(10.5,0,0,-10.5,196.42801,63.310384)" fill="#231f20"/>
<use xlink:href="#font_256_1" transform="matrix(10.5,0,0,-10.5,201.30002,63.21588)" fill="#231f20"/>
<use xlink:href="#font_256_78" transform="matrix(10.5,0,0,-10.5,204.54978,63.21588)" fill="#231f20"/>
<use xlink:href="#font_256_71" transform="matrix(10.5,0,0,-10.5,211.97328,63.310384)" fill="#231f20"/>
<use xlink:href="#font_256_81" transform="matrix(10.5,0,0,-10.5,217.14978,63.21588)" fill="#231f20"/>
<use xlink:href="#font_256_1" transform="matrix(10.5,0,0,-10.5,222.64128,63.21588)" fill="#231f20"/>
<use xlink:href="#font_256_73" transform="matrix(10.5,0,0,-10.5,225.37128,63.310384)" fill="#231f20"/>
<use xlink:href="#font_256_83" transform="matrix(10.5,0,0,-10.5,230.98879,65.50488)" fill="#231f20"/>
<use xlink:href="#font_256_66" transform="matrix(10.5,0,0,-10.5,236.33329,63.21588)" fill="#231f20"/>
<use xlink:href="#font_256_8d" transform="matrix(10.5,0,0,-10.5,242.15029,63.21588)" fill="#231f20"/>
<use xlink:href="#font_256_7e" transform="matrix(10.5,0,0,-10.5,250.78128,63.310384)" fill="#231f20"/>
<use xlink:href="#font_256_81" transform="matrix(10.5,0,0,-10.5,255.5483,63.21588)" fill="#231f20"/>
<use xlink:href="#font_256_1" transform="matrix(10.5,0,0,-10.5,261.0398,63.21588)" fill="#231f20"/>
<use xlink:href="#font_256_93" transform="matrix(10.5,0,0,-10.5,264.28956,63.21588)" fill="#231f20"/>
<use xlink:href="#font_256_71" transform="matrix(10.5,0,0,-10.5,270.41105,63.310384)" fill="#231f20"/>
<use xlink:href="#font_256_75" transform="matrix(10.5,0,0,-10.5,275.37757,64.68588)" fill="#231f20"/>
<use xlink:href="#font_256_82" transform="matrix(10.5,0,0,-10.5,281.11058,65.50488)" fill="#231f20"/>
<use xlink:href="#font_256_83" transform="matrix(10.5,0,0,-10.5,286.66508,65.50488)" fill="#231f20"/>
<use xlink:href="#font_256_6a" transform="matrix(10.5,0,0,-10.5,292.19859,63.21588)" fill="#231f20"/>
<use xlink:href="#font_256_7e" transform="matrix(10.5,0,0,-10.5,296.94459,63.310384)" fill="#231f20"/>
<use xlink:href="#font_256_b" transform="matrix(10.5,0,0,-10.5,302.61457,63.310384)" fill="#231f20"/>
</g>
<g id="Layer-1" data-name="P">
<g id="Layer-2" data-name="Span">
</g>
<g id="Layer-2" data-name="Span">
</g>
<symbol id="font_255_3b">
<path d="M .373 .68500009 C .312 .712 .266 .716 .239 .716 C .153 .716 .101 .689 .071 .661 C .045 .63600006 .021000002 .59800007 .021000002 .54 C .021000002 .46100004 .074 .41400004 .14500001 .39200003 C .12000001 .36900003 .09 .34100003 .09 .296 C .09 .287 .092 .266 .10300001 .24700001 C .049000004 .24100001 0 .21100001 0 .139 C 0 .094000007 .02 .055000009 .069000009 .029 C .085 .019999996 .12799999 0 .20700002 0 C .30400003 0 .36400003 .030000002 .389 .045 C .46100004 .088 .47600005 .142 .47600005 .18100001 C .47600005 .22800002 .451 .255 .405 .277 C .384 .287 .345 .301 .257 .31300003 L .18900001 .32200004 C .18800003 .329 .18600002 .33900003 .18600002 .347 C .18600002 .366 .192 .381 .194 .38600005 C .20200002 .38500003 .21200001 .38500003 .22299999 .38500003 C .268 .38500003 .335 .393 .38500003 .43700005 C .43100003 .47800002 .43600003 .527 .43600003 .554 C .43600003 .56500008 .43400003 .594 .41300003 .628 L .521 .628 L .521 .68500009 L .373 .68500009 M .231 .669 C .26 .669 .313 .642 .313 .55 C .313 .53400006 .31100003 .497 .293 .467 C .27400003 .43600003 .24700001 .43 .231 .43 C .17500001 .43 .14900002 .503 .14900002 .551 C .14900002 .582 .16500002 .669 .231 .669 M .24900002 .222 C .31 .21200001 .328 .2 .336 .194 C .35300002 .18 .35700003 .163 .35700003 .148 C .35700003 .096 .30400003 .054000006 .241 .054000006 C .164 .054000006 .123 .107 .123 .15400002 C .123 .192 .14700002 .221 .164 .236 L .24900002 .222 Z "/>
</symbol>
<symbol id="font_255_35">
<path d="M .317 .009000001 L .49200005 .009000001 L .49200005 .054 L .44000004 .059 L .42700003 .07300001 L .42700003 .33100004 C .42700003 .37800003 .423 .43400003 .38400004 .47000004 C .34600003 .506 .28100003 .508 .252 .508 C .213 .508 .14400001 .504 .086 .47300003 C .028000005 .44200004 .024000004 .404 .024000004 .38900004 C .024000004 .363 .049000004 .35500003 .07000001 .35500003 L .16200002 .35500003 L .16200002 .44900004 C .18100001 .45200003 .19500001 .45400004 .21000001 .45400004 C .3 .45400004 .30400003 .39400003 .30400003 .36 L .30400003 .351 L .30400003 .321 C .268 .31300003 .16800002 .29000003 .118 .272 C .068 .254 0 .22000002 0 .134 C 0 .058000003 .042000005 0 .133 0 C .194 0 .25 .031000004 .30400003 .06600001 L .317 .009000001 M .30400003 .10700001 C .261 .08800001 .236 .07800001 .208 .07800001 C .17400001 .07800001 .134 .09200001 .134 .15200001 C .134 .22600001 .222 .255 .30400003 .27 L .30400003 .10700001 Z "/>
</symbol>
<symbol id="font_255_2">
<path d="M .076 .15100001 C .034 .15100001 0 .117000009 0 .074 C 0 .033 .034 0 .076 0 C .117000009 0 .151 .033 .151 .075 C .151 .116000007 .117000009 .15100001 .076 .15100001 M .049000004 .20500002 L .102000009 .20500002 L .14700002 .56200006 C .15 .5860001 .151 .5960001 .151 .6100001 C .151 .6610001 .123 .69100007 .074999999 .69100007 C .027999998 .69100007 0 .66200008 0 .61500009 C 0 .6010001 .0009999946 .59400007 .004999995 .56000009 L .049000004 .20500002 Z "/>
</symbol>
<use xlink:href="#font_255_2b" transform="matrix(10.5,0,0,-10.5,61.5644,75.94192)" fill="#231f20"/>
<use xlink:href="#font_255_43" transform="matrix(10.5,0,0,-10.5,67.29739,75.910419)" fill="#231f20"/>
<use xlink:href="#font_255_1" transform="matrix(10.5,0,0,-10.5,73.0409,75.81592)" fill="#231f20"/>
<use xlink:href="#font_255_3b" transform="matrix(10.5,0,0,-10.5,76.337909,78.09442)" fill="#231f20"/>
<use xlink:href="#font_255_43" transform="matrix(10.5,0,0,-10.5,82.1549,75.910419)" fill="#231f20"/>
<use xlink:href="#font_255_43" transform="matrix(10.5,0,0,-10.5,88.2869,75.910419)" fill="#231f20"/>
<use xlink:href="#font_255_38" transform="matrix(10.5,0,0,-10.5,94.41891,75.910419)" fill="#231f20"/>
<use xlink:href="#font_255_1" transform="matrix(10.5,0,0,-10.5,100.288417,75.81592)" fill="#231f20"/>
<use xlink:href="#font_255_35" transform="matrix(10.5,0,0,-10.5,103.61691,75.910419)" fill="#231f20"/>
<use xlink:href="#font_255_1" transform="matrix(10.5,0,0,-10.5,108.898418,75.81592)" fill="#231f20"/>
<use xlink:href="#font_255_38" transform="matrix(10.5,0,0,-10.5,112.22691,75.910419)" fill="#231f20"/>
<use xlink:href="#font_255_3d" transform="matrix(10.5,0,0,-10.5,118.39042,75.81592)" fill="#231f20"/>
<use xlink:href="#font_255_42" transform="matrix(10.5,0,0,-10.5,121.58242,75.81592)" fill="#231f20"/>
<use xlink:href="#font_255_42" transform="matrix(10.5,0,0,-10.5,127.91392,75.81592)" fill="#231f20"/>
<use xlink:href="#font_255_39" transform="matrix(10.5,0,0,-10.5,134.33992,75.910419)" fill="#231f20"/>
<use xlink:href="#font_255_46" transform="matrix(10.5,0,0,-10.5,139.70542,75.81592)" fill="#231f20"/>
<use xlink:href="#font_255_2" transform="matrix(10.5,0,0,-10.5,144.87142,75.88942)" fill="#231f20"/>
</g>
<g id="Layer-1" data-name="P">
<g id="Layer-2" data-name="Span">
</g>
<symbol id="font_256_95">
<path d="M 0 .671 L 0 .51500007 L .055 .51500007 L .069 .61 L .083000008 .625 L .236 .625 L .236 .060000004 L .21900001 .046000005 L .15200001 .041 L .15200001 0 L .41000004 0 L .41000004 .041 L .34300003 .046000005 L .326 .060000004 L .326 .625 L .47900004 .625 L .493 .61 L .507 .51500007 L .56200006 .51500007 L .56200006 .671 L 0 .671 Z "/>
</symbol>
<symbol id="font_256_68">
<path d="M 0 0 L .22 0 L .22 .036000004 L .172 .041 L .155 .059000005 L .155 .22600001 L .201 .22600001 C .23700002 .22600001 .264 .208 .286 .156 L .34 .032 L .34 0 L .50600007 0 L .50600007 .036000004 L .43800003 .043 L .42100004 .055000005 L .36600004 .16600001 C .34800003 .2 .335 .24000001 .27400003 .254 L .27400003 .256 C .289 .26000003 .321 .273 .342 .323 L .372 .39400003 C .377 .40500004 .379 .41400004 .39000003 .42600004 L .46 .386 C .47800002 .39600004 .488 .41400004 .488 .43500004 C .488 .46400003 .46600003 .49 .425 .49 C .377 .49 .347 .455 .328 .409 L .294 .33100004 C .275 .287 .24100003 .27 .20300001 .27 L .155 .27 L .155 .42400003 L .172 .44000004 L .22 .44500003 L .22 .48100005 L 0 .48100005 L 0 .44500003 L .054000006 .44000004 L .071 .42400003 L .071 .057000005 L .054000006 .041 L 0 .036000004 L 0 0 Z "/>
</symbol>
<symbol id="font_256_6f">
<path d="M 0 0 L .22 0 L .22 .036000004 L .172 .041 L .155 .057000005 L .155 .089 L .38700003 .33800004 L .38700003 .057000005 L .37 .041 L .32200004 .036000004 L .32200004 0 L .54200008 0 L .54200008 .036000004 L .488 .041 L .47100006 .057000005 L .47100006 .42400003 L .488 .44000004 L .54200008 .44500003 L .54200008 .48100005 L .32200004 .48100005 L .32200004 .44500003 L .37 .44000004 L .38700003 .42400003 L .38700003 .4 L .155 .15100001 L .155 .42400003 L .172 .44000004 L .22 .44500003 L .22 .48100005 L 0 .48100005 L 0 .44500003 L .054000006 .44000004 L .071 .42400003 L .071 .057000005 L .054000006 .041 L 0 .036000004 L 0 0 M .19500001 .693 C .18900001 .703 .17600002 .716 .15200001 .716 C .125 .716 .105000007 .698 .105000007 .66700008 C .105000007 .601 .179 .55600008 .27100004 .55600008 C .363 .55600008 .437 .601 .437 .66700008 C .437 .698 .41700004 .716 .39000003 .716 C .36600004 .716 .35300002 .703 .347 .693 L .347 .615 C .32900004 .60200008 .307 .59400007 .27100004 .59400007 C .23500002 .59400007 .21300002 .60200008 .19500001 .615 L .19500001 .693 Z "/>
</symbol>
<symbol id="font_256_85">
<path d="M .006000001 .48100005 L .006000001 .44500003 L .067 .43300004 L .20100002 .238 L .057000005 .045 L 0 .037 L 0 0 L .18900001 0 L .18900001 .037 L .13200002 .044000005 L .12700002 .056 L .22900002 .201 L .32200004 .052 L .31700004 .044000005 L .275 .037 L .275 0 L .488 0 L .488 .037 L .42800004 .045 L .28100003 .259 L .41300003 .43400003 L .46900005 .44500003 L .46900005 .48100005 L .28900004 .48100005 L .28900004 .44500003 L .337 .43800003 L .34500004 .425 L .254 .29700003 L .17000002 .42800004 L .17500001 .43800003 L .22100002 .44500003 L .22100002 .48100005 L .006000001 .48100005 Z "/>
</symbol>
<symbol id="font_256_7a">
<path d="M 0 0 L .22 0 L .22 .036000004 L .172 .041 L .155 .057000005 L .155 .089 L .38700003 .33800004 L .38700003 .057000005 L .37 .041 L .32200004 .036000004 L .32200004 0 L .54200008 0 L .54200008 .036000004 L .488 .041 L .47100006 .057000005 L .47100006 .42400003 L .488 .44000004 L .54200008 .44500003 L .54200008 .48100005 L .32200004 .48100005 L .32200004 .44500003 L .37 .44000004 L .38700003 .42400003 L .38700003 .4 L .155 .15100001 L .155 .42400003 L .172 .44000004 L .22 .44500003 L .22 .48100005 L 0 .48100005 L 0 .44500003 L .054000006 .44000004 L .071 .42400003 L .071 .057000005 L .054000006 .041 L 0 .036000004 L 0 0 Z "/>
</symbol>
<symbol id="font_256_9e">
<path d="M .432 .75500008 C .421 .72700008 .389 .72 .363 .716 L .279 .703 C .187 .689 .09500001 .66200008 .044000005 .531 C .015000001 .45600004 0 .35400004 0 .277 C 0 .19700001 .026000005 0 .23200001 0 C .313 0 .366 .035 .397 .067 C .435 .106000009 .466 .16600001 .466 .255 C .466 .38900004 .389 .499 .251 .499 C .15200001 .499 .10000001 .441 .07100001 .38900004 L .069000009 .38900004 C .07700001 .55700007 .15100001 .601 .24700003 .615 L .341 .628 C .375 .633 .447 .647 .466 .75500008 L .432 .75500008 M .24100001 .455 C .349 .455 .372 .31500004 .372 .252 C .372 .20800002 .367 .15100001 .335 .10300001 C .304 .057 .264 .044 .23200001 .044 C .19800002 .044 .15100001 .057 .120000008 .12100001 C .097 .16800002 .09400001 .22000002 .09400001 .25 C .09400001 .29000003 .10900001 .455 .24100001 .455 Z "/>
</symbol>
<symbol id="font_256_2">
<path d="M .03400001 .18 L .082 .18 L .111 .57600006 C .112 .58400008 .113000009 .59300008 .113000009 .61300006 C .113000009 .67700007 .09 .69200006 .058 .69200006 C .026000008 .69200006 .0029999987 .67700007 .0029999987 .61300006 C .0029999987 .59300008 .0040000008 .58400008 .0050000029 .57600006 L .03400001 .18 M 0 .058000003 C 0 .026 .026000008 0 .058 0 C .09 0 .11600001 .026 .11600001 .058000003 C .11600001 .09 .09 .11600001 .058 .11600001 C .026000008 .11600001 0 .09 0 .058000003 Z "/>
</symbol>
<use xlink:href="#font_256_1" transform="matrix(10.5,0,0,-10.5,147.4299,75.81592)" fill="#231f20"/>
<use xlink:href="#font_256_60" transform="matrix(10.5,0,0,-10.5,150.3699,73.610919)" fill="#231f20"/>
<use xlink:href="#font_256_1" transform="matrix(10.5,0,0,-10.5,160.8699,75.81592)" fill="#231f20"/>
<use xlink:href="#font_256_95" transform="matrix(10.5,0,0,-10.5,163.9779,75.81592)" fill="#231f20"/>
<use xlink:href="#font_256_7e" transform="matrix(10.5,0,0,-10.5,169.7529,75.910419)" fill="#231f20"/>
<use xlink:href="#font_256_68" transform="matrix(10.5,0,0,-10.5,174.93991,75.81592)" fill="#231f20"/>
<use xlink:href="#font_256_71" transform="matrix(10.5,0,0,-10.5,180.64142,75.910419)" fill="#231f20"/>
<use xlink:href="#font_256_6f" transform="matrix(10.5,0,0,-10.5,186.23792,75.81592)" fill="#231f20"/>
<use xlink:href="#font_256_1" transform="matrix(10.5,0,0,-10.5,192.24391,75.81592)" fill="#231f20"/>
<use xlink:href="#font_256_85" transform="matrix(10.5,0,0,-10.5,195.30467,75.81592)" fill="#231f20"/>
<use xlink:href="#font_256_71" transform="matrix(10.5,0,0,-10.5,200.64917,75.910419)" fill="#231f20"/>
<use xlink:href="#font_256_82" transform="matrix(10.5,0,0,-10.5,206.16167,78.10492)" fill="#231f20"/>
<use xlink:href="#font_256_71" transform="matrix(10.5,0,0,-10.5,212.11518,75.910419)" fill="#231f20"/>
<use xlink:href="#font_256_8d" transform="matrix(10.5,0,0,-10.5,217.71167,75.81592)" fill="#231f20"/>
<use xlink:href="#font_256_7a" transform="matrix(10.5,0,0,-10.5,226.21668,75.81592)" fill="#231f20"/>
<use xlink:href="#font_256_6f" transform="matrix(10.5,0,0,-10.5,232.53768,75.81592)" fill="#231f20"/>
<use xlink:href="#font_256_1" transform="matrix(10.5,0,0,-10.5,238.54367,75.81592)" fill="#231f20"/>
<use xlink:href="#font_256_71" transform="matrix(10.5,0,0,-10.5,241.87218,75.910419)" fill="#231f20"/>
<use xlink:href="#font_256_9e" transform="matrix(10.5,0,0,-10.5,247.60518,75.910419)" fill="#231f20"/>
<use xlink:href="#font_256_80" transform="matrix(10.5,0,0,-10.5,253.27518,75.910419)" fill="#231f20"/>
<use xlink:href="#font_256_75" transform="matrix(10.5,0,0,-10.5,257.92668,77.28592)" fill="#231f20"/>
<use xlink:href="#font_256_2" transform="matrix(10.5,0,0,-10.5,264.60469,75.910419)" fill="#231f20"/>
</g>
<g id="Layer-1" data-name="P">
<g id="Layer-2" data-name="Span">
</g>
<g id="Layer-2" data-name="Span">
</g>
<symbol id="font_255_2c">
<path d="M 0 .671 L 0 .49400003 L .069000009 .49400003 L .08500001 .601 L .101 .614 L .22100002 .614 L .22100002 .07 L .20400001 .054 L .13900002 .049000004 L .13900002 0 L .43800003 0 L .43800003 .049000004 L .37300004 .054 L .356 .07 L .356 .614 L .476 .614 L .491 .601 L .508 .49400003 L .577 .49400003 L .577 .671 L 0 .671 Z "/>
</symbol>
<symbol id="font_255_50">
<path d="M .021000006 0 C .123 .051 .171 .113000009 .171 .19800005 C .171 .261 .136 .303 .08300001 .303 C .042000005 .303 .013000004 .275 .013000004 .23300001 C .013000004 .215 .018 .20300004 .032000007 .183 L .092 .183 C .093 .16600004 .093 .16600004 .093 .16200003 C .093 .113000009 .065000008 .073000017 0 .030000002 L .021000006 0 Z "/>
</symbol>
<use xlink:href="#font_255_2c" transform="matrix(10.5,0,0,-10.5,61.0919,88.416019)" fill="#231f20"/>
<use xlink:href="#font_255_3c" transform="matrix(10.5,0,0,-10.5,67.5494,88.416019)" fill="#231f20"/>
<use xlink:href="#font_255_35" transform="matrix(10.5,0,0,-10.5,74.0279,88.51051)" fill="#231f20"/>
<use xlink:href="#font_255_48" transform="matrix(10.5,0,0,-10.5,79.5089,88.46851)" fill="#231f20"/>
<use xlink:href="#font_255_50" transform="matrix(10.5,0,0,-10.5,83.698398,84.26852)" fill="#231f20"/>
<use xlink:href="#font_255_47" transform="matrix(10.5,0,0,-10.5,86.30239,88.51051)" fill="#231f20"/>
<use xlink:href="#font_255_1" transform="matrix(10.5,0,0,-10.5,90.5654,88.416019)" fill="#231f20"/>
<use xlink:href="#font_255_35" transform="matrix(10.5,0,0,-10.5,93.8939,88.51051)" fill="#231f20"/>
<use xlink:href="#font_255_1" transform="matrix(10.5,0,0,-10.5,99.1754,88.416019)" fill="#231f20"/>
<use xlink:href="#font_255_3b" transform="matrix(10.5,0,0,-10.5,102.472408,90.69452)" fill="#231f20"/>
<use xlink:href="#font_255_43" transform="matrix(10.5,0,0,-10.5,108.2894,88.51051)" fill="#231f20"/>
<use xlink:href="#font_255_43" transform="matrix(10.5,0,0,-10.5,114.4214,88.51051)" fill="#231f20"/>
<use xlink:href="#font_255_38" transform="matrix(10.5,0,0,-10.5,120.553409,88.51051)" fill="#231f20"/>
<use xlink:href="#font_255_1" transform="matrix(10.5,0,0,-10.5,126.42291,88.416019)" fill="#231f20"/>
<use xlink:href="#font_255_36" transform="matrix(10.5,0,0,-10.5,129.45742,88.416019)" fill="#231f20"/>
<use xlink:href="#font_255_43" transform="matrix(10.5,0,0,-10.5,135.79943,88.51051)" fill="#231f20"/>
<use xlink:href="#font_255_4d" transform="matrix(10.5,0,0,-10.5,141.33292,90.715518)" fill="#231f20"/>
<use xlink:href="#font_255_2" transform="matrix(10.5,0,0,-10.5,147.77993,88.48952)" fill="#231f20"/>
</g>
<g id="Layer-1" data-name="P">
<g id="Layer-2" data-name="Span">
</g>
<g id="Layer-2" data-name="Span">
</g>
<symbol id="font_256_7f">
<path d="M 0 .48100005 L 0 .44500003 L .054000006 .44000004 L .071 .42400003 L .071 .057000005 L .054000006 .041 L 0 .036000004 L 0 0 L .25300003 0 C .294 0 .344 .004 .38700003 .033 C .432 .063 .44400005 .105000007 .44400005 .13700001 C .44400005 .22100002 .377 .25 .32200004 .25500003 L .32200004 .257 C .377 .27100004 .418 .314 .418 .372 C .418 .43 .386 .48100005 .24800003 .48100005 L 0 .48100005 M .155 .43500004 C .18200001 .441 .20500002 .44300003 .23000002 .44300003 C .277 .44300003 .33600004 .42800004 .33600004 .35700003 C .33600004 .272 .25300003 .268 .21000001 .268 C .18800001 .268 .17400001 .26900003 .155 .27100004 L .155 .43500004 M .155 .22900002 C .178 .23200001 .20400001 .23400001 .231 .23400001 C .25800003 .23400001 .29500003 .23300001 .321 .216 C .35300002 .19500001 .358 .163 .358 .13700001 C .358 .063 .289 .038000004 .231 .038000004 C .202 .038000004 .18100001 .040000004 .155 .046000005 L .155 .22900002 Z "/>
</symbol>
<symbol id="font_256_9">
<path d="M 0 0 C .098000008 .0119999949 .169 .087 .169 .182 C .169 .223 .15 .27600003 .091000009 .27600003 C .06400001 .27600003 .030000005 .263 .030000005 .218 C .030000005 .199 .037000006 .186 .046 .177 L .11 .177 L .11 .16600001 C .11 .12799999 .095 .045999998 0 .033999996 L 0 0 Z "/>
</symbol>
<symbol id="font_256_72">
<path d="M 0 0 L .25300003 0 C .30100004 0 .43500004 .021000002 .43500004 .14500001 C .43500004 .177 .42600004 .21800001 .38400004 .25100003 C .34 .28500004 .282 .29000003 .23200003 .29000003 C .20400001 .29000003 .18200001 .289 .155 .286 L .155 .42400003 L .172 .44000004 L .22600001 .44500003 L .22600001 .48100005 L 0 .48100005 L 0 .44500003 L .054000006 .44000004 L .071 .42400003 L .071 .057000005 L .054000006 .041 L 0 .036000004 L 0 0 M .155 .238 C .178 .24300002 .19900002 .246 .22600001 .246 C .263 .246 .347 .24300002 .347 .143 C .347 .1 .328 .07700001 .31300003 .066 C .303 .059000005 .27800004 .044000005 .22 .044000005 C .19600001 .044000005 .17500001 .046000005 .155 .05 L .155 .238 Z "/>
</symbol>
<symbol id="font_256_69">
<path d="M 0 .14 L .43800003 .14 L .453 .124 L .47100006 0 L .5220001 0 L .5220001 .186 L .45700003 .186 L .44500003 .19600001 L .44500003 .564 L .462 .58000007 L .51600006 .58500006 L .51600006 .62100008 L .296 .62100008 L .296 .58500006 L .344 .58000007 L .36100004 .564 L .36100004 .186 L .155 .186 L .155 .564 L .172 .58000007 L .22 .58500006 L .22 .62100008 L 0 .62100008 L 0 .58500006 L .054000006 .58000007 L .071 .564 L .071 .197 L .054000006 .181 L 0 .176 L 0 .14 Z "/>
</symbol>
<use xlink:href="#font_256_1" transform="matrix(10.5,0,0,-10.5,150.3382,88.416019)" fill="#231f20"/>
<use xlink:href="#font_256_60" transform="matrix(10.5,0,0,-10.5,153.2782,86.21101)" fill="#231f20"/>
<use xlink:href="#font_256_1" transform="matrix(10.5,0,0,-10.5,163.7782,88.416019)" fill="#231f20"/>
<use xlink:href="#font_256_7f" transform="matrix(10.5,0,0,-10.5,167.0332,88.416019)" fill="#231f20"/>
<use xlink:href="#font_256_71" transform="matrix(10.5,0,0,-10.5,172.6717,88.51051)" fill="#231f20"/>
<use xlink:href="#font_256_74" transform="matrix(10.5,0,0,-10.5,178.1212,88.416019)" fill="#231f20"/>
<use xlink:href="#font_256_1" transform="matrix(10.5,0,0,-10.5,182.9092,88.416019)" fill="#231f20"/>
<use xlink:href="#font_256_7a" transform="matrix(10.5,0,0,-10.5,186.15895,88.416019)" fill="#231f20"/>
<use xlink:href="#font_256_1" transform="matrix(10.5,0,0,-10.5,192.16495,88.416019)" fill="#231f20"/>
<use xlink:href="#font_256_85" transform="matrix(10.5,0,0,-10.5,195.23096,88.416019)" fill="#231f20"/>
<use xlink:href="#font_256_71" transform="matrix(10.5,0,0,-10.5,200.57546,88.51051)" fill="#231f20"/>
<use xlink:href="#font_256_82" transform="matrix(10.5,0,0,-10.5,206.08795,90.70502)" fill="#231f20"/>
<use xlink:href="#font_256_71" transform="matrix(10.5,0,0,-10.5,212.04146,88.51051)" fill="#231f20"/>
<use xlink:href="#font_256_8d" transform="matrix(10.5,0,0,-10.5,217.63796,88.416019)" fill="#231f20"/>
<use xlink:href="#font_256_71" transform="matrix(10.5,0,0,-10.5,226.21646,88.51051)" fill="#231f20"/>
<use xlink:href="#font_256_2" transform="matrix(10.5,0,0,-10.5,232.67395,88.51051)" fill="#231f20"/>
<use xlink:href="#font_256_9" transform="matrix(10.5,0,0,-10.5,235.47747,90.20102)" fill="#231f20"/>
<use xlink:href="#font_256_1" transform="matrix(10.5,0,0,-10.5,237.98697,88.416019)" fill="#231f20"/>
<use xlink:href="#font_256_93" transform="matrix(10.5,0,0,-10.5,241.23673,88.416019)" fill="#231f20"/>
<use xlink:href="#font_256_82" transform="matrix(10.5,0,0,-10.5,247.20073,90.70502)" fill="#231f20"/>
<use xlink:href="#font_256_7e" transform="matrix(10.5,0,0,-10.5,253.20673,88.51051)" fill="#231f20"/>
<use xlink:href="#font_256_7f" transform="matrix(10.5,0,0,-10.5,258.39375,88.416019)" fill="#231f20"/>
<use xlink:href="#font_256_7a" transform="matrix(10.5,0,0,-10.5,263.74876,88.416019)" fill="#231f20"/>
<use xlink:href="#font_256_73" transform="matrix(10.5,0,0,-10.5,269.54478,88.51051)" fill="#231f20"/>
<use xlink:href="#font_256_72" transform="matrix(10.5,0,0,-10.5,275.48777,88.416019)" fill="#231f20"/>
<use xlink:href="#font_256_77" transform="matrix(10.5,0,0,-10.5,280.73777,88.416019)" fill="#231f20"/>
<use xlink:href="#font_256_71" transform="matrix(10.5,0,0,-10.5,287.04826,88.51051)" fill="#231f20"/>
<use xlink:href="#font_256_2" transform="matrix(10.5,0,0,-10.5,293.50578,88.51051)" fill="#231f20"/>
<use xlink:href="#font_256_9" transform="matrix(10.5,0,0,-10.5,296.30928,90.20102)" fill="#231f20"/>
<use xlink:href="#font_256_1" transform="matrix(10.5,0,0,-10.5,298.8188,88.416019)" fill="#231f20"/>
<use xlink:href="#font_256_78" transform="matrix(10.5,0,0,-10.5,302.0738,88.416019)" fill="#231f20"/>
<use xlink:href="#font_256_71" transform="matrix(10.5,0,0,-10.5,309.49729,88.51051)" fill="#231f20"/>
<use xlink:href="#font_256_73" transform="matrix(10.5,0,0,-10.5,314.56883,88.51051)" fill="#231f20"/>
<use xlink:href="#font_256_71" transform="matrix(10.5,0,0,-10.5,320.5853,88.51051)" fill="#231f20"/>
<use xlink:href="#font_256_75" transform="matrix(10.5,0,0,-10.5,325.55183,89.88602)" fill="#231f20"/>
<use xlink:href="#font_256_80" transform="matrix(10.5,0,0,-10.5,331.44233,88.51051)" fill="#231f20"/>
<use xlink:href="#font_256_69" transform="matrix(10.5,0,0,-10.5,336.51383,89.88602)" fill="#231f20"/>
<use xlink:href="#font_256_2" transform="matrix(10.5,0,0,-10.5,343.42283,88.51051)" fill="#231f20"/>
<use xlink:href="#font_256_9" transform="matrix(10.5,0,0,-10.5,346.22633,90.20102)" fill="#231f20"/>
<use xlink:href="#font_256_1" transform="matrix(10.5,0,0,-10.5,348.73585,88.416019)" fill="#231f20"/>
<use xlink:href="#font_256_83" transform="matrix(10.5,0,0,-10.5,351.66535,90.70502)" fill="#231f20"/>
<use xlink:href="#font_256_78" transform="matrix(10.5,0,0,-10.5,357.19886,88.416019)" fill="#231f20"/>
<use xlink:href="#font_256_77" transform="matrix(10.5,0,0,-10.5,364.54887,88.416019)" fill="#231f20"/>
<use xlink:href="#font_256_7a" transform="matrix(10.5,0,0,-10.5,370.78587,88.416019)" fill="#231f20"/>
<use xlink:href="#font_256_69" transform="matrix(10.5,0,0,-10.5,377.10688,89.88602)" fill="#231f20"/>
<use xlink:href="#font_256_7e" transform="matrix(10.5,0,0,-10.5,383.28089,88.51051)" fill="#231f20"/>
<use xlink:href="#font_256_2" transform="matrix(10.5,0,0,-10.5,389.32887,88.51051)" fill="#231f20"/>
</g>
<g id="Layer-1" data-name="P">
<g id="Layer-2" data-name="Span">
</g>
<use xlink:href="#font_255_2c" transform="matrix(10.5,0,0,-10.5,61.0919,101.01587)" fill="#231f20"/>
<use xlink:href="#font_255_3c" transform="matrix(10.5,0,0,-10.5,67.5494,101.01587)" fill="#231f20"/>
<use xlink:href="#font_255_35" transform="matrix(10.5,0,0,-10.5,74.0279,101.11037)" fill="#231f20"/>
<use xlink:href="#font_255_48" transform="matrix(10.5,0,0,-10.5,79.5089,101.06837)" fill="#231f20"/>
<use xlink:href="#font_255_50" transform="matrix(10.5,0,0,-10.5,83.698398,96.86837)" fill="#231f20"/>
<use xlink:href="#font_255_47" transform="matrix(10.5,0,0,-10.5,86.30239,101.11037)" fill="#231f20"/>
<use xlink:href="#font_255_1" transform="matrix(10.5,0,0,-10.5,90.5654,101.01587)" fill="#231f20"/>
<use xlink:href="#font_255_48" transform="matrix(10.5,0,0,-10.5,93.7049,101.06837)" fill="#231f20"/>
<use xlink:href="#font_255_43" transform="matrix(10.5,0,0,-10.5,97.642398,101.11037)" fill="#231f20"/>
<use xlink:href="#font_255_43" transform="matrix(10.5,0,0,-10.5,103.7744,101.11037)" fill="#231f20"/>
<use xlink:href="#font_255_1" transform="matrix(10.5,0,0,-10.5,109.51791,101.01587)" fill="#231f20"/>
<use xlink:href="#font_255_36" transform="matrix(10.5,0,0,-10.5,112.55241,101.01587)" fill="#231f20"/>
<use xlink:href="#font_255_35" transform="matrix(10.5,0,0,-10.5,118.8944,101.11037)" fill="#231f20"/>
<use xlink:href="#font_255_38" transform="matrix(10.5,0,0,-10.5,124.5644,101.11037)" fill="#231f20"/>
<use xlink:href="#font_255_2" transform="matrix(10.5,0,0,-10.5,131.4314,101.08937)" fill="#231f20"/>
</g>
<g id="Layer-1" data-name="P">
<g id="Layer-2" data-name="Span">
</g>
<symbol id="font_256_84">
<path d="M 0 .671 L 0 .63000008 L .057000005 .625 L .07400001 .611 L .07400001 .060000004 L .057000005 .046000005 L 0 .041 L 0 0 L .24300003 0 L .24300003 .041 L .18100003 .046000005 L .164 .060000004 L .164 .324 L .22600001 .324 C .30200003 .324 .337 .27600003 .36400003 .20500002 L .43100003 .030000002 L .43100003 0 L .62100008 0 L .62100008 .041 L .55200007 .046000005 L .52500006 .063 L .46600003 .19500001 C .43900005 .256 .42200003 .28 .41000004 .294 C .39000003 .317 .35700003 .34 .314 .34800003 L .314 .35000003 C .34100003 .36 .37800003 .38300003 .40600003 .446 L .44900004 .54200008 C .46000005 .56600007 .46400003 .58100005 .485 .60800006 L .55700007 .564 C .577 .573 .591 .59300008 .591 .61800006 C .591 .65800008 .56200006 .679 .522 .679 C .45400004 .679 .42100004 .61200007 .39400003 .55300006 L .351 .45700003 C .344 .441 .32700003 .40600003 .3 .386 C .277 .36800004 .25200004 .36600004 .23700002 .36600004 L .164 .36600004 L .164 .611 L .18100003 .625 L .24300003 .63000008 L .24300003 .671 L 0 .671 Z "/>
</symbol>
<use xlink:href="#font_256_1" transform="matrix(10.5,0,0,-10.5,133.994,101.01587)" fill="#231f20"/>
<use xlink:href="#font_256_60" transform="matrix(10.5,0,0,-10.5,136.934,98.81087)" fill="#231f20"/>
<use xlink:href="#font_256_1" transform="matrix(10.5,0,0,-10.5,147.434,101.01587)" fill="#231f20"/>
<use xlink:href="#font_256_84" transform="matrix(10.5,0,0,-10.5,150.7205,101.01587)" fill="#231f20"/>
<use xlink:href="#font_256_7e" transform="matrix(10.5,0,0,-10.5,157.7345,101.11037)" fill="#231f20"/>
<use xlink:href="#font_256_68" transform="matrix(10.5,0,0,-10.5,162.92151,101.01587)" fill="#231f20"/>
<use xlink:href="#font_256_1" transform="matrix(10.5,0,0,-10.5,168.23451,101.01587)" fill="#231f20"/>
<use xlink:href="#font_256_89" transform="matrix(10.5,0,0,-10.5,171.16927,101.01587)" fill="#231f20"/>
<use xlink:href="#font_256_7e" transform="matrix(10.5,0,0,-10.5,179.31726,101.11037)" fill="#231f20"/>
<use xlink:href="#font_256_73" transform="matrix(10.5,0,0,-10.5,184.18927,101.11037)" fill="#231f20"/>
<use xlink:href="#font_256_68" transform="matrix(10.5,0,0,-10.5,190.13228,101.01587)" fill="#231f20"/>
<use xlink:href="#font_256_71" transform="matrix(10.5,0,0,-10.5,195.83379,101.11037)" fill="#231f20"/>
<use xlink:href="#font_256_2" transform="matrix(10.5,0,0,-10.5,202.29128,101.11037)" fill="#231f20"/>
</g>
<g id="Layer-1" data-name="P">
<g id="Layer-2" data-name="Span">
</g>
<use xlink:href="#font_255_48" transform="matrix(10.5,0,0,-10.5,61.1444,113.668468)" fill="#231f20"/>
<use xlink:href="#font_255_43" transform="matrix(10.5,0,0,-10.5,65.081897,113.710468)" fill="#231f20"/>
<use xlink:href="#font_255_43" transform="matrix(10.5,0,0,-10.5,71.2139,113.710468)" fill="#231f20"/>
<use xlink:href="#font_255_1" transform="matrix(10.5,0,0,-10.5,76.957408,113.61597)" fill="#231f20"/>
<use xlink:href="#font_255_36" transform="matrix(10.5,0,0,-10.5,79.991909,113.61597)" fill="#231f20"/>
<use xlink:href="#font_255_35" transform="matrix(10.5,0,0,-10.5,86.3339,113.710468)" fill="#231f20"/>
<use xlink:href="#font_255_38" transform="matrix(10.5,0,0,-10.5,92.0039,113.710468)" fill="#231f20"/>
<use xlink:href="#font_255_1" transform="matrix(10.5,0,0,-10.5,97.873409,113.61597)" fill="#231f20"/>
</g>
<g id="Layer-1" data-name="P">
<use xlink:href="#font_256_60" transform="matrix(10.5,0,0,-10.5,100.8043,111.410968)" fill="#231f20"/>
<use xlink:href="#font_256_1" transform="matrix(10.5,0,0,-10.5,111.3043,113.61597)" fill="#231f20"/>
<use xlink:href="#font_256_71" transform="matrix(10.5,0,0,-10.5,114.6328,113.710468)" fill="#231f20"/>
<use xlink:href="#font_256_66" transform="matrix(10.5,0,0,-10.5,120.0403,113.61597)" fill="#231f20"/>
<use xlink:href="#font_256_80" transform="matrix(10.5,0,0,-10.5,125.93079,113.710468)" fill="#231f20"/>
<use xlink:href="#font_256_77" transform="matrix(10.5,0,0,-10.5,131.0023,113.61597)" fill="#231f20"/>
<use xlink:href="#font_256_72" transform="matrix(10.5,0,0,-10.5,137.2393,113.61597)" fill="#231f20"/>
<use xlink:href="#font_256_1" transform="matrix(10.5,0,0,-10.5,142.1743,113.61597)" fill="#231f20"/>
<use xlink:href="#font_256_89" transform="matrix(10.5,0,0,-10.5,145.1143,113.61597)" fill="#231f20"/>
<use xlink:href="#font_256_7e" transform="matrix(10.5,0,0,-10.5,153.2623,113.710468)" fill="#231f20"/>
<use xlink:href="#font_256_73" transform="matrix(10.5,0,0,-10.5,158.13431,113.710468)" fill="#231f20"/>
<use xlink:href="#font_256_72" transform="matrix(10.5,0,0,-10.5,164.07732,113.61597)" fill="#231f20"/>
<use xlink:href="#font_256_9" transform="matrix(10.5,0,0,-10.5,169.42182,115.40097)" fill="#231f20"/>
<use xlink:href="#font_256_1" transform="matrix(10.5,0,0,-10.5,171.93132,113.61597)" fill="#231f20"/>
<use xlink:href="#font_256_71" transform="matrix(10.5,0,0,-10.5,175.25983,113.710468)" fill="#231f20"/>
<use xlink:href="#font_256_66" transform="matrix(10.5,0,0,-10.5,180.66733,113.61597)" fill="#231f20"/>
<use xlink:href="#font_256_80" transform="matrix(10.5,0,0,-10.5,186.55783,113.710468)" fill="#231f20"/>
<use xlink:href="#font_256_77" transform="matrix(10.5,0,0,-10.5,191.62934,113.61597)" fill="#231f20"/>
<use xlink:href="#font_256_72" transform="matrix(10.5,0,0,-10.5,197.86634,113.61597)" fill="#231f20"/>
<use xlink:href="#font_256_1" transform="matrix(10.5,0,0,-10.5,202.80133,113.61597)" fill="#231f20"/>
<use xlink:href="#font_256_93" transform="matrix(10.5,0,0,-10.5,206.05634,113.61597)" fill="#231f20"/>
<use xlink:href="#font_256_73" transform="matrix(10.5,0,0,-10.5,211.57933,113.710468)" fill="#231f20"/>
<use xlink:href="#font_256_71" transform="matrix(10.5,0,0,-10.5,217.59584,113.710468)" fill="#231f20"/>
<use xlink:href="#font_256_85" transform="matrix(10.5,0,0,-10.5,222.7923,113.61597)" fill="#231f20"/>
<use xlink:href="#font_256_71" transform="matrix(10.5,0,0,-10.5,228.13785,113.710468)" fill="#231f20"/>
</g>
<g id="Layer-1" data-name="P">
<g id="Layer-2" data-name="Span">
</g>
<use xlink:href="#font_255_2c" transform="matrix(10.5,0,0,-10.5,61.0919,126.21588)" fill="#231f20"/>
<use xlink:href="#font_255_43" transform="matrix(10.5,0,0,-10.5,66.8984,126.31038)" fill="#231f20"/>
<use xlink:href="#font_255_43" transform="matrix(10.5,0,0,-10.5,73.0304,126.31038)" fill="#231f20"/>
<use xlink:href="#font_255_1" transform="matrix(10.5,0,0,-10.5,78.77391,126.21588)" fill="#231f20"/>
<use xlink:href="#font_255_3b" transform="matrix(10.5,0,0,-10.5,82.070919,128.49439)" fill="#231f20"/>
<use xlink:href="#font_255_43" transform="matrix(10.5,0,0,-10.5,87.88791,126.31038)" fill="#231f20"/>
<use xlink:href="#font_255_43" transform="matrix(10.5,0,0,-10.5,94.01991,126.31038)" fill="#231f20"/>
<use xlink:href="#font_255_38" transform="matrix(10.5,0,0,-10.5,100.15192,126.31038)" fill="#231f20"/>
<use xlink:href="#font_255_1" transform="matrix(10.5,0,0,-10.5,106.02142,126.21588)" fill="#231f20"/>
<use xlink:href="#font_255_3d" transform="matrix(10.5,0,0,-10.5,109.255428,126.21588)" fill="#231f20"/>
<use xlink:href="#font_255_47" transform="matrix(10.5,0,0,-10.5,112.58392,126.31038)" fill="#231f20"/>
<use xlink:href="#font_255_42" transform="matrix(10.5,0,0,-10.5,117.14092,126.21588)" fill="#231f20"/>
<use xlink:href="#font_255_50" transform="matrix(10.5,0,0,-10.5,123.68242,122.06838)" fill="#231f20"/>
<use xlink:href="#font_255_48" transform="matrix(10.5,0,0,-10.5,126.05542,126.26838)" fill="#231f20"/>
<use xlink:href="#font_255_1" transform="matrix(10.5,0,0,-10.5,129.60442,126.21588)" fill="#231f20"/>
<use xlink:href="#font_255_3b" transform="matrix(10.5,0,0,-10.5,132.90142,128.49439)" fill="#231f20"/>
<use xlink:href="#font_255_43" transform="matrix(10.5,0,0,-10.5,138.71843,126.31038)" fill="#231f20"/>
<use xlink:href="#font_255_43" transform="matrix(10.5,0,0,-10.5,144.85044,126.31038)" fill="#231f20"/>
<use xlink:href="#font_255_38" transform="matrix(10.5,0,0,-10.5,150.98244,126.31038)" fill="#231f20"/>
<use xlink:href="#font_255_1" transform="matrix(10.5,0,0,-10.5,156.85193,126.21588)" fill="#231f20"/>
<use xlink:href="#font_255_48" transform="matrix(10.5,0,0,-10.5,159.99143,126.26838)" fill="#231f20"/>
<use xlink:href="#font_255_43" transform="matrix(10.5,0,0,-10.5,163.92894,126.31038)" fill="#231f20"/>
<use xlink:href="#font_255_43" transform="matrix(10.5,0,0,-10.5,170.06095,126.31038)" fill="#231f20"/>
<use xlink:href="#font_255_9" transform="matrix(10.5,0,0,-10.5,176.48694,126.29988)" fill="#231f20"/>
</g>
<g id="Layer-1" data-name="P">
<g id="Layer-2" data-name="Span">
</g>
<g id="Layer-2" data-name="Span">
</g>
<g id="Layer-2" data-name="Span">
</g>
<symbol id="font_256_96">
<path d="M .545 .193 L .489 .193 L .46700005 .082 L .451 .066 C .42700003 .059 .39900003 .053000004 .363 .053000004 C .259 .053000004 .20000002 .101 .16800002 .141 C .13200002 .186 .105000007 .257 .105000007 .351 C .105000007 .49 .16100002 .6420001 .35 .6420001 C .396 .6420001 .43100003 .63100007 .461 .61600008 L .474 .59800007 L .489 .507 L .545 .507 L .545 .6610001 C .507 .6750001 .442 .69500008 .357 .69500008 C .23500003 .69500008 .15600002 .65400007 .10900001 .61200007 C .051000004 .56100007 0 .47500003 0 .352 C 0 .21700001 .061 .137 .09200001 .10400001 C .17000002 .02 .266 0 .347 0 C .41300003 0 .483 .013 .545 .035000005 L .545 .193 Z "/>
</symbol>
<use xlink:href="#font_256_1" transform="matrix(10.5,0,0,-10.5,178.8203,126.21588)" fill="#231f20"/>
<use xlink:href="#font_256_60" transform="matrix(10.5,0,0,-10.5,181.7603,124.01088)" fill="#231f20"/>
<use xlink:href="#font_256_1" transform="matrix(10.5,0,0,-10.5,192.2603,126.21588)" fill="#231f20"/>
<use xlink:href="#font_256_96" transform="matrix(10.5,0,0,-10.5,195.65181,126.34188)" fill="#231f20"/>
<use xlink:href="#font_256_73" transform="matrix(10.5,0,0,-10.5,201.6263,126.31038)" fill="#231f20"/>
<use xlink:href="#font_256_7a" transform="matrix(10.5,0,0,-10.5,207.5693,126.21588)" fill="#231f20"/>
<use xlink:href="#font_256_8d" transform="matrix(10.5,0,0,-10.5,213.8903,126.21588)" fill="#231f20"/>
<use xlink:href="#font_256_68" transform="matrix(10.5,0,0,-10.5,222.39531,126.21588)" fill="#231f20"/>
<use xlink:href="#font_256_71" transform="matrix(10.5,0,0,-10.5,228.09682,126.31038)" fill="#231f20"/>
<use xlink:href="#font_256_78" transform="matrix(10.5,0,0,-10.5,233.69332,126.21588)" fill="#231f20"/>
<use xlink:href="#font_256_1" transform="matrix(10.5,0,0,-10.5,240.72832,126.21588)" fill="#231f20"/>
<use xlink:href="#font_256_85" transform="matrix(10.5,0,0,-10.5,243.79433,126.21588)" fill="#231f20"/>
<use xlink:href="#font_256_71" transform="matrix(10.5,0,0,-10.5,249.13883,126.31038)" fill="#231f20"/>
<use xlink:href="#font_256_82" transform="matrix(10.5,0,0,-10.5,254.65132,128.50489)" fill="#231f20"/>
<use xlink:href="#font_256_71" transform="matrix(10.5,0,0,-10.5,260.6048,126.31038)" fill="#231f20"/>
<use xlink:href="#font_256_8d" transform="matrix(10.5,0,0,-10.5,266.20133,126.21588)" fill="#231f20"/>
<use xlink:href="#font_256_71" transform="matrix(10.5,0,0,-10.5,274.77983,126.31038)" fill="#231f20"/>
<use xlink:href="#font_256_1" transform="matrix(10.5,0,0,-10.5,280.06135,126.21588)" fill="#231f20"/>
<use xlink:href="#font_256_60" transform="matrix(10.5,0,0,-10.5,283.00135,124.01088)" fill="#231f20"/>
<use xlink:href="#font_256_1" transform="matrix(10.5,0,0,-10.5,293.50135,126.21588)" fill="#231f20"/>
<use xlink:href="#font_256_74" transform="matrix(10.5,0,0,-10.5,296.6041,126.21588)" fill="#231f20"/>
<use xlink:href="#font_256_71" transform="matrix(10.5,0,0,-10.5,301.78059,126.31038)" fill="#231f20"/>
<use xlink:href="#font_256_89" transform="matrix(10.5,0,0,-10.5,307.0621,126.21588)" fill="#231f20"/>
<use xlink:href="#font_256_80" transform="matrix(10.5,0,0,-10.5,315.1576,126.31038)" fill="#231f20"/>
<use xlink:href="#font_256_1" transform="matrix(10.5,0,0,-10.5,319.9141,126.21588)" fill="#231f20"/>
<use xlink:href="#font_256_77" transform="matrix(10.5,0,0,-10.5,323.1691,126.21588)" fill="#231f20"/>
<use xlink:href="#font_256_80" transform="matrix(10.5,0,0,-10.5,329.47959,126.31038)" fill="#231f20"/>
<use xlink:href="#font_256_1" transform="matrix(10.5,0,0,-10.5,334.23609,126.21588)" fill="#231f20"/>
<use xlink:href="#font_256_85" transform="matrix(10.5,0,0,-10.5,337.3021,126.21588)" fill="#231f20"/>
<use xlink:href="#font_256_71" transform="matrix(10.5,0,0,-10.5,342.64659,126.31038)" fill="#231f20"/>
<use xlink:href="#font_256_82" transform="matrix(10.5,0,0,-10.5,348.1591,128.50489)" fill="#231f20"/>
<use xlink:href="#font_256_71" transform="matrix(10.5,0,0,-10.5,354.11259,126.31038)" fill="#231f20"/>
<use xlink:href="#font_256_8d" transform="matrix(10.5,0,0,-10.5,359.7091,126.21588)" fill="#231f20"/>
<use xlink:href="#font_256_71" transform="matrix(10.5,0,0,-10.5,368.2876,126.31038)" fill="#231f20"/>
<use xlink:href="#font_256_b" transform="matrix(10.5,0,0,-10.5,374.36714,126.31038)" fill="#231f20"/>
</g>
</g>
<text x="10" y="-10" font-size="13" font-family="Arial" fill="#cccccc">https://urait.ru</text></svg>
