<?xml version="1.0" encoding="UTF-8" standalone="no"?>
<!DOCTYPE svg PUBLIC "-//W3C//DTD SVG 1.1//EN" "http://www.w3.org/Graphics/SVG/1.1/DTD/svg11.dtd">
<svg xmlns="http://www.w3.org/2000/svg" xmlns:xlink="http://www.w3.org/1999/xlink" version="1.1" width="439.37pt" height="674.646pt" viewBox="0 0 439.37 674.646">
<g enable-background="new">
<g id="Layer-1" data-name="P">
<g id="Layer-2" data-name="Span">
</g>
<g id="Layer-2" data-name="Span">
</g>
<g id="Layer-2" data-name="Span">
</g>
<symbol id="font_346_20">
<path d="M 0 .671 L 0 .62200006 L .058 .61700007 L .074 .601 L .074 .07 L .058 .054 L 0 .049000004 L 0 0 L .28200004 0 L .28200004 .049000004 L .22200002 .054 L .20600002 .07 L .20600002 .32200004 L .49600003 .32200004 L .49600003 .07 L .48100005 .054 L .42000006 .049000004 L .42000006 0 L .702 0 L .702 .049000004 L .644 .054 L .628 .07 L .628 .601 L .644 .61700007 L .702 .62200006 L .702 .671 L .42000006 .671 L .42000006 .62200006 L .48100005 .61700007 L .49600003 .601 L .49600003 .38200004 L .20600002 .38200004 L .20600002 .601 L .22200002 .61700007 L .28200004 .62200006 L .28200004 .671 L 0 .671 Z "/>
</symbol>
<symbol id="font_346_39">
<path d="M .45400004 .133 C .38000003 .087000008 .32500003 .079 .29000003 .079 C .157 .079 .128 .18100001 .128 .26400004 L .455 .26400004 C .455 .36900003 .432 .508 .24900002 .508 C .163 .508 .10800001 .47400005 .07700001 .44500003 C .030000002 .40000005 0 .33200003 0 .25 C 0 .156 .038000004 .09900001 .067 .069000009 C .10200001 .033 .15900001 0 .24900002 0 C .33800004 0 .41200004 .035 .45400004 .059 L .45400004 .133 M .133 .31700004 C .133 .40500004 .18800001 .45400004 .23700002 .45400004 C .286 .45400004 .32400004 .40700004 .32400004 .32500003 L .32400004 .31700004 L .133 .31700004 Z "/>
</symbol>
<symbol id="font_346_1">
<path d="M 0 0 Z "/>
</symbol>
<symbol id="font_346_3d">
<path d="M .060000007 .64900007 C .060000007 .60800006 .09300001 .57500007 .134 .57500007 C .17500001 .57500007 .20800002 .60800006 .20800002 .64900007 C .20800002 .69000008 .17500001 .72300007 .134 .72300007 C .09300001 .72300007 .060000007 .69000008 .060000007 .64900007 M .14400001 .49600003 L .0020000004 .44900004 L .0020000004 .409 L .069000009 .409 L .069000009 .064 L .055000005 .05 L 0 .045 L 0 0 L .26400004 0 L .26400004 .045 L .20700002 .05 L .19200002 .064 L .19200002 .49600003 L .14400001 .49600003 Z "/>
</symbol>
<symbol id="font_346_47">
<path d="M .354 .48400004 C .294 .504 .24000001 .508 .206 .508 C .136 .508 .0069999995 .47800002 .0069999995 .36 C .0069999995 .28300003 .06600001 .25100003 .16600001 .20600002 C .24200002 .172 .25100003 .15500002 .25100003 .127 C .25100003 .08200001 .23000002 .054 .162 .054 C .14500001 .054 .117000009 .057 .082 .07400001 L .072000008 .08500001 L .061000006 .171 L 0 .171 L 0 .023000002 C .06600001 .0050000005 .12900001 0 .162 0 C .323 0 .36900003 .08400001 .36900003 .16200002 C .36900003 .18400002 .367 .20400001 .34800003 .22700002 C .33200003 .24600002 .305 .26500003 .229 .30200003 C .14700002 .34300003 .13 .363 .13 .39000003 C .13 .44300003 .17500001 .45400004 .20500002 .45400004 C .22 .45400004 .24200002 .45200003 .272 .43700005 L .284 .42600004 L .294 .351 L .354 .351 L .354 .48400004 Z "/>
</symbol>
<symbol id="font_346_42">
<path d="M .0030000006 0 L .24900002 0 L .24900002 .045 L .20500002 .05 L .19100002 .064 L .19100002 .39400003 C .24900002 .411 .277 .41200004 .286 .41200004 C .35200004 .41200004 .37600003 .36 .37600003 .3 L .37600003 .064 L .36200003 .05 L .31800003 .045 L .31800003 0 L .564 0 L .564 .045 L .512 .05 L .499 .064 L .499 .33200003 C .499 .37100003 .49100007 .499 .367 .499 C .31100003 .499 .24300003 .467 .19100002 .437 L .19100002 .49600003 L .143 .49600003 L 0 .44900004 L 0 .409 L .068 .409 L .068 .064 L .054 .05 L .0030000006 .045 L .0030000006 0 Z "/>
</symbol>
<symbol id="font_346_3c">
<path d="M .147 .739 L 0 .69200006 L 0 .65300008 L .072 .65300008 L .072 .064 L .058000003 .05 L .007000001 .045 L .007000001 0 L .25300003 0 L .25300003 .045 L .21000001 .05 L .19500001 .064 L .19500001 .39400003 C .21300002 .4 .25400005 .41200004 .29100005 .41200004 C .35500003 .41200004 .38100005 .36100004 .38100005 .303 L .38100005 .064 L .36700005 .05 L .323 .045 L .323 0 L .56900009 0 L .56900009 .045 L .517 .05 L .504 .064 L .504 .33200003 C .504 .462 .43700005 .499 .37200005 .499 C .31400005 .499 .25900004 .47200004 .19500001 .437 L .19500001 .739 L .147 .739 Z "/>
</symbol>
<symbol id="font_346_37">
<path d="M .42900003 .125 C .40700004 .11000001 .351 .07800001 .291 .07800001 C .245 .07800001 .208 .09300001 .18 .128 C .165 .14700002 .13800001 .18900001 .13800001 .26900003 C .13800001 .31500004 .16000001 .45700003 .26700003 .45700003 C .275 .45700003 .28300003 .45600004 .29200004 .45400004 L .29200004 .34800003 C .316 .33200003 .335 .32900004 .35000003 .32900004 C .39200003 .32900004 .423 .356 .423 .39800004 C .423 .41300003 .41900004 .446 .38300003 .47300003 C .35000003 .49800004 .303 .508 .259 .508 C .164 .508 .105000007 .46600003 .07700001 .439 C .030000002 .39400003 0 .328 0 .24600002 C 0 .165 .030000002 .10300001 .07000001 .064 C .10100001 .034 .156 0 .24100003 0 C .26700003 0 .344 .0030000006 .42900003 .054 L .42900003 .125 Z "/>
</symbol>
<symbol id="font_346_43">
<path d="M .26200003 .508 C .12300001 .508 0 .43500004 0 .252 C 0 .07800001 .11500001 0 .25300003 0 C .363 0 .51000007 .052 .51000007 .254 C .51000007 .35700003 .46600003 .418 .43 .44900004 C .39100004 .48300005 .335 .508 .26200003 .508 M .254 .45400004 C .35400004 .45400004 .372 .30800004 .372 .252 C .372 .18500002 .351 .054 .254 .054 C .16000001 .054 .13800001 .18400002 .13800001 .255 C .13800001 .32700003 .15200001 .36900003 .165 .395 C .17700002 .418 .202 .45400004 .254 .45400004 Z "/>
</symbol>
<symbol id="font_346_38">
<path d="M .35200004 .661 L .35200004 .499 C .323 .504 .289 .508 .26200003 .508 C .13900002 .508 0 .441 0 .24000001 C 0 .08900001 .09200001 0 .194 0 C .25300003 0 .30600003 .031000004 .35200004 .065000008 L .35200004 .009000001 L .54 .009000001 L .54 .054 L .48900003 .059 L .47500003 .07300001 L .47500003 .748 L .42700003 .748 L .279 .70100006 L .279 .661 L .35200004 .661 M .35200004 .10400001 C .312 .08800001 .286 .08500001 .272 .08500001 C .16000001 .08500001 .134 .17800002 .134 .261 C .134 .36 .171 .45400004 .27800004 .45400004 C .30200003 .45400004 .319 .448 .35200004 .43800003 L .35200004 .10400001 Z "/>
</symbol>
<symbol id="font_346_4d">
<path d="M 0 .70600005 L 0 .661 L .060000004 .653 L .238 .20700002 C .21700001 .157 .19500001 .11400001 .16 .08500001 L .07300001 .14500001 C .052 .135 .021000002 .113000009 .021000002 .075 C .021000002 .023000002 .075 0 .105000007 0 C .131 0 .17 .009000003 .214 .05600001 C .245 .09 .27400003 .13700001 .293 .18400002 L .48600004 .653 L .54 .661 L .54 .70600005 L .34800003 .70600005 L .34800003 .661 L .40100003 .656 L .41000004 .64100006 L .30100004 .35900004 L .193 .642 L .20300001 .656 L .254 .661 L .254 .70600005 L 0 .70600005 Z "/>
</symbol>
<symbol id="font_346_35">
<path d="M .317 .009000001 L .49200005 .009000001 L .49200005 .054 L .44000004 .059 L .42700003 .07300001 L .42700003 .33100004 C .42700003 .37800003 .423 .43400003 .38400004 .47000004 C .34600003 .506 .28100003 .508 .252 .508 C .213 .508 .14400001 .504 .086 .47300003 C .028000005 .44200004 .024000004 .404 .024000004 .38900004 C .024000004 .363 .049000004 .35500003 .07000001 .35500003 L .16200002 .35500003 L .16200002 .44900004 C .18100001 .45200003 .19500001 .45400004 .21000001 .45400004 C .3 .45400004 .30400003 .39400003 .30400003 .36 L .30400003 .351 L .30400003 .321 C .268 .31300003 .16800002 .29000003 .118 .272 C .068 .254 0 .22000002 0 .134 C 0 .058000003 .042000005 0 .133 0 C .194 0 .25 .031000004 .30400003 .06600001 L .317 .009000001 M .30400003 .10700001 C .261 .08800001 .236 .07800001 .208 .07800001 C .17400001 .07800001 .134 .09200001 .134 .15200001 C .134 .22600001 .222 .255 .30400003 .27 L .30400003 .10700001 Z "/>
</symbol>
<symbol id="font_346_46">
<path d="M .005000001 0 L .28100003 0 L .28100003 .045 L .21000001 .05 L .19500001 .064 L .19500001 .351 C .214 .36400003 .24500002 .38000003 .27100004 .38000003 C .3 .38000003 .32100005 .35900004 .33100004 .34300003 L .38300003 .34300003 L .39600004 .48100005 C .37400005 .49100004 .35700003 .49800004 .33300004 .49800004 C .30200003 .49800004 .263 .469 .191 .39400003 L .19500001 .49600003 L .147 .49600003 L 0 .44900004 L 0 .409 L .072 .409 L .072 .064 L .058000003 .05 L .005000001 .045 L .005000001 0 Z "/>
</symbol>
<symbol id="font_346_9">
<path d="M .079 .15900001 C .034999998 .15900001 0 .124000009 0 .079 C 0 .035 .034999998 0 .078 0 C .123 0 .15900001 .035 .15900001 .079 C .15900001 .12200001 .122 .15900001 .079 .15900001 Z "/>
</symbol>
<use xlink:href="#font_346_20" transform="matrix(10.5,0,0,-10.5,61.2704,50.27948)" fill="#231f20"/>
<use xlink:href="#font_346_39" transform="matrix(10.5,0,0,-10.5,69.3554,50.37398)" fill="#231f20"/>
<use xlink:href="#font_346_1" transform="matrix(10.5,0,0,-10.5,74.4689,50.27948)" fill="#231f20"/>
<use xlink:href="#font_346_3d" transform="matrix(10.5,0,0,-10.5,77.7029,50.27948)" fill="#231f20"/>
<use xlink:href="#font_346_47" transform="matrix(10.5,0,0,-10.5,81.0314,50.37398)" fill="#231f20"/>
<use xlink:href="#font_346_1" transform="matrix(10.5,0,0,-10.5,85.2944,50.27948)" fill="#231f20"/>
<use xlink:href="#font_346_3d" transform="matrix(10.5,0,0,-10.5,88.5179,50.27948)" fill="#231f20"/>
<use xlink:href="#font_346_42" transform="matrix(10.5,0,0,-10.5,91.7099,50.27948)" fill="#231f20"/>
<use xlink:href="#font_346_1" transform="matrix(10.5,0,0,-10.5,97.7474,50.27948)" fill="#231f20"/>
<use xlink:href="#font_346_3c" transform="matrix(10.5,0,0,-10.5,100.9394,50.27948)" fill="#231f20"/>
<use xlink:href="#font_346_3d" transform="matrix(10.5,0,0,-10.5,107.3234,50.27948)" fill="#231f20"/>
<use xlink:href="#font_346_47" transform="matrix(10.5,0,0,-10.5,110.6519,50.37398)" fill="#231f20"/>
<use xlink:href="#font_346_1" transform="matrix(10.5,0,0,-10.5,114.9149,50.27948)" fill="#231f20"/>
<use xlink:href="#font_346_47" transform="matrix(10.5,0,0,-10.5,118.28015,50.37398)" fill="#231f20"/>
<use xlink:href="#font_346_39" transform="matrix(10.5,0,0,-10.5,122.93165,50.37398)" fill="#231f20"/>
<use xlink:href="#font_346_37" transform="matrix(10.5,0,0,-10.5,128.43366,50.37398)" fill="#231f20"/>
<use xlink:href="#font_346_43" transform="matrix(10.5,0,0,-10.5,133.45265,50.37398)" fill="#231f20"/>
<use xlink:href="#font_346_42" transform="matrix(10.5,0,0,-10.5,139.49016,50.27948)" fill="#231f20"/>
<use xlink:href="#font_346_38" transform="matrix(10.5,0,0,-10.5,145.91616,50.37398)" fill="#231f20"/>
<use xlink:href="#font_346_1" transform="matrix(10.5,0,0,-10.5,151.78565,50.27948)" fill="#231f20"/>
<use xlink:href="#font_346_4d" transform="matrix(10.5,0,0,-10.5,154.68364,52.57898)" fill="#231f20"/>
<use xlink:href="#font_346_39" transform="matrix(10.5,0,0,-10.5,160.52165,50.37398)" fill="#231f20"/>
<use xlink:href="#font_346_35" transform="matrix(10.5,0,0,-10.5,166.02365,50.37398)" fill="#231f20"/>
<use xlink:href="#font_346_46" transform="matrix(10.5,0,0,-10.5,171.55715,50.27948)" fill="#231f20"/>
<use xlink:href="#font_346_9" transform="matrix(10.5,0,0,-10.5,175.86214,50.36348)" fill="#231f20"/>
</g>
<g id="Layer-1" data-name="P">
<g id="Layer-2" data-name="Span">
</g>
<symbol id="font_347_1">
<path d="M 0 0 Z "/>
</symbol>
<symbol id="font_347_60">
<path d="M 0 0 L 1 0 L 1 .06100002 L 0 .06100002 L 0 0 Z "/>
</symbol>
<symbol id="font_347_90">
<path d="M 0 0 L .51500007 0 L .51500007 .163 L .45900003 .163 L .44500003 .061000006 L .43100003 .046000005 L .164 .046000005 L .164 .326 L .32800005 .326 L .34200005 .312 L .35300002 .23900001 L .39900003 .23900001 L .39900003 .45900003 L .35300002 .45900003 L .34200005 .386 L .32800005 .372 L .164 .372 L .164 .625 L .39500005 .625 L .40900005 .61 L .42300005 .52500006 L .47900004 .52500006 L .47900004 .671 L 0 .671 L 0 .63000008 L .057000005 .625 L .07400001 .611 L .07400001 .060000004 L .057000005 .046000005 L 0 .041 L 0 0 Z "/>
</symbol>
<symbol id="font_347_78">
<path d="M 0 .48100005 L 0 .44500003 L .054000006 .44000004 L .071 .42400003 L .071 .057000005 L .054000006 .041 L 0 .036000004 L 0 0 L .18800001 0 L .18800001 .036000004 L .14 .041 L .12300001 .057000005 L .12300001 .44000004 L .287 0 L .323 0 L .48500005 .44000004 L .48500005 .057000005 L .46800003 .041 L .42000003 .036000004 L .42000003 0 L .64 0 L .64 .036000004 L .5860001 .041 L .569 .057000005 L .569 .42400003 L .5860001 .44000004 L .64 .44500003 L .64 .48100005 L .446 .48100005 L .446 .45700003 L .32200004 .11400001 L .19800002 .45700003 L .19800002 .48100005 L 0 .48100005 Z "/>
</symbol>
<symbol id="font_347_83">
<path d="M 0 .69900009 L 0 .66300007 L .061 .656 L .23000002 .222 C .21000001 .171 .18900001 .116000007 .149 .072 L .053 .11000001 C .032 .094000007 .027 .07000001 .027 .056999998 C .027 .026000008 .051 0 .095000009 0 C .14600002 0 .17700002 .032000007 .19700001 .059 C .20700002 .072 .23000002 .105000007 .256 .16800002 L .456 .65400007 L .514 .66300007 L .514 .69900009 L .336 .69900009 L .336 .66300007 L .39000003 .65800008 L .398 .642 L .273 .33100004 L .15300001 .642 L .165 .65800008 L .21800001 .66300007 L .21800001 .69900009 L 0 .69900009 Z "/>
</symbol>
<symbol id="font_347_7f">
<path d="M 0 .48100005 L 0 .44500003 L .054000006 .44000004 L .071 .42400003 L .071 .057000005 L .054000006 .041 L 0 .036000004 L 0 0 L .25300003 0 C .294 0 .344 .004 .38700003 .033 C .432 .063 .44400005 .105000007 .44400005 .13700001 C .44400005 .22100002 .377 .25 .32200004 .25500003 L .32200004 .257 C .377 .27100004 .418 .314 .418 .372 C .418 .43 .386 .48100005 .24800003 .48100005 L 0 .48100005 M .155 .43500004 C .18200001 .441 .20500002 .44300003 .23000002 .44300003 C .277 .44300003 .33600004 .42800004 .33600004 .35700003 C .33600004 .272 .25300003 .268 .21000001 .268 C .18800001 .268 .17400001 .26900003 .155 .27100004 L .155 .43500004 M .155 .22900002 C .178 .23200001 .20400001 .23400001 .231 .23400001 C .25800003 .23400001 .29500003 .23300001 .321 .216 C .35300002 .19500001 .358 .163 .358 .13700001 C .358 .063 .289 .038000004 .231 .038000004 C .202 .038000004 .18100001 .040000004 .155 .046000005 L .155 .22900002 Z "/>
</symbol>
<symbol id="font_347_74">
<path d="M .091000009 0 L .349 0 L .349 .036000004 L .279 .041 L .26200003 .057000005 L .26200003 .43500004 L .363 .43500004 L .37800003 .41900004 L .38900004 .335 L .44000004 .335 L .44000004 .48100005 L 0 .48100005 L 0 .335 L .051 .335 L .062 .41900004 L .077 .43500004 L .178 .43500004 L .178 .057000005 L .161 .041 L .091000009 .036000004 L .091000009 0 Z "/>
</symbol>
<symbol id="font_347_71">
<path d="M .23400003 .499 C .072000008 .499 0 .37800003 0 .24900002 C 0 .16700001 .029 .109000008 .063 .072000008 C .091000009 .041 .14400001 0 .23200003 0 C .31300003 0 .36600004 .035 .397 .067 C .43500004 .10700001 .46600003 .16800002 .46600003 .24900002 C .46600003 .38700003 .379 .499 .23400003 .499 M .231 .455 C .25300003 .455 .29400004 .45200003 .328 .409 C .36600004 .36 .372 .291 .372 .24900002 C .372 .20400001 .36600004 .15500002 .335 .109000008 C .30400003 .063 .26400004 .044 .23200003 .044 C .19800002 .044 .15100001 .057 .120000008 .12100001 C .10000001 .16300002 .09400001 .21000001 .09400001 .25 C .09400001 .305 .105000007 .36800004 .136 .409 C .16900002 .45200003 .21000001 .455 .231 .455 Z "/>
</symbol>
<symbol id="font_347_82">
<path d="M 0 0 L .23600002 0 L .23600002 .036 L .172 .04100001 L .155 .056999998 L .155 .224 C .20600002 .215 .237 .215 .24900003 .215 C .325 .215 .38 .24100001 .419 .279 C .455 .314 .49300004 .37800003 .49300004 .47500003 C .49300004 .63500007 .4 .708 .302 .708 C .264 .708 .22100002 .69900009 .155 .64900007 L .155 .70400008 L .11700001 .70400008 L 0 .66800007 L 0 .637 L .071 .637 L .071 .056999998 L .055000009 .04100001 L 0 .036 L 0 0 M .155 .61200007 C .179 .62600007 .22000002 .64400008 .259 .64400008 C .357 .64400008 .403 .56 .403 .463 C .403 .35400004 .34600003 .259 .22900002 .259 C .21400002 .259 .19000001 .261 .155 .27600003 L .155 .61200007 Z "/>
</symbol>
<symbol id="font_347_6f">
<path d="M 0 0 L .22 0 L .22 .036000004 L .172 .041 L .155 .057000005 L .155 .089 L .38700003 .33800004 L .38700003 .057000005 L .37 .041 L .32200004 .036000004 L .32200004 0 L .54200008 0 L .54200008 .036000004 L .488 .041 L .47100006 .057000005 L .47100006 .42400003 L .488 .44000004 L .54200008 .44500003 L .54200008 .48100005 L .32200004 .48100005 L .32200004 .44500003 L .37 .44000004 L .38700003 .42400003 L .38700003 .4 L .155 .15100001 L .155 .42400003 L .172 .44000004 L .22 .44500003 L .22 .48100005 L 0 .48100005 L 0 .44500003 L .054000006 .44000004 L .071 .42400003 L .071 .057000005 L .054000006 .041 L 0 .036000004 L 0 0 M .19500001 .693 C .18900001 .703 .17600002 .716 .15200001 .716 C .125 .716 .105000007 .698 .105000007 .66700008 C .105000007 .601 .179 .55600008 .27100004 .55600008 C .363 .55600008 .437 .601 .437 .66700008 C .437 .698 .41700004 .716 .39000003 .716 C .36600004 .716 .35300002 .703 .347 .693 L .347 .615 C .32900004 .60200008 .307 .59400007 .27100004 .59400007 C .23500002 .59400007 .21300002 .60200008 .19500001 .615 L .19500001 .693 Z "/>
</symbol>
<symbol id="font_347_6a">
<path d="M 0 0 L .24200002 0 L .24200002 .036000004 L .172 .041 L .155 .057000005 L .155 .43500004 L .314 .43500004 L .32900004 .41900004 L .34300003 .316 L .39400003 .316 L .39400003 .48100005 L 0 .48100005 L 0 .44500003 L .054000006 .44000004 L .071 .42400003 L .071 .057000005 L .054000006 .041 L 0 .036000004 L 0 0 Z "/>
</symbol>
<symbol id="font_347_75">
<path d="M .114 .62100008 L .114 .58500006 L .17600002 .58000007 L .19300002 .56200006 C .17500001 .45200003 .13200002 .30900003 .050000006 .186 L 0 .186 L 0 0 L .051000004 0 L .069000009 .124 L .084 .14 L .416 .14 L .43100003 .124 L .449 0 L .5 0 L .5 .186 L .435 .186 L .423 .19600001 L .423 .564 L .44 .58000007 L .49400003 .58500006 L .49400003 .62100008 L .114 .62100008 M .108 .186 C .17500001 .30400003 .22400002 .459 .24500002 .57500007 L .33900003 .57500007 L .33900003 .186 L .108 .186 Z "/>
</symbol>
<symbol id="font_347_b">
<path d="M 0 .064 C 0 .030000002 .030000002 0 .063999999 0 C .098000008 0 .128 .030000002 .128 .064 C .128 .098000008 .098000008 .128 .063999999 .128 C .030000002 .128 0 .098000008 0 .064 Z "/>
</symbol>
<use xlink:href="#font_347_1" transform="matrix(10.5,0,0,-10.5,178.2062,50.27948)" fill="#231f20"/>
<use xlink:href="#font_347_60" transform="matrix(10.5,0,0,-10.5,181.14621,48.07448)" fill="#231f20"/>
<use xlink:href="#font_347_1" transform="matrix(10.5,0,0,-10.5,191.64621,50.27948)" fill="#231f20"/>
<use xlink:href="#font_347_90" transform="matrix(10.5,0,0,-10.5,194.93271,50.27948)" fill="#231f20"/>
<use xlink:href="#font_347_78" transform="matrix(10.5,0,0,-10.5,200.94922,50.27948)" fill="#231f20"/>
<use xlink:href="#font_347_83" transform="matrix(10.5,0,0,-10.5,207.97373,52.56848)" fill="#231f20"/>
<use xlink:href="#font_347_1" transform="matrix(10.5,0,0,-10.5,213.19223,50.27948)" fill="#231f20"/>
<use xlink:href="#font_347_7f" transform="matrix(10.5,0,0,-10.5,216.44199,50.27948)" fill="#231f20"/>
<use xlink:href="#font_347_74" transform="matrix(10.5,0,0,-10.5,221.64998,50.27948)" fill="#231f20"/>
<use xlink:href="#font_347_71" transform="matrix(10.5,0,0,-10.5,226.82648,50.37398)" fill="#231f20"/>
<use xlink:href="#font_347_82" transform="matrix(10.5,0,0,-10.5,232.33898,52.56848)" fill="#231f20"/>
<use xlink:href="#font_347_71" transform="matrix(10.5,0,0,-10.5,238.29248,50.37398)" fill="#231f20"/>
<use xlink:href="#font_347_6f" transform="matrix(10.5,0,0,-10.5,243.88898,50.27948)" fill="#231f20"/>
<use xlink:href="#font_347_1" transform="matrix(10.5,0,0,-10.5,249.89498,50.27948)" fill="#231f20"/>
<use xlink:href="#font_347_6a" transform="matrix(10.5,0,0,-10.5,253.14473,50.27948)" fill="#231f20"/>
<use xlink:href="#font_347_71" transform="matrix(10.5,0,0,-10.5,257.83824,50.37398)" fill="#231f20"/>
<use xlink:href="#font_347_75" transform="matrix(10.5,0,0,-10.5,262.80476,51.74948)" fill="#231f20"/>
<use xlink:href="#font_347_b" transform="matrix(10.5,0,0,-10.5,269.10478,50.37398)" fill="#231f20"/>
</g>
<g id="Layer-1" data-name="P">
<g id="Layer-2" data-name="Span">
</g>
<g id="Layer-2" data-name="Span">
</g>
<g id="Layer-2" data-name="Span">
</g>
<symbol id="font_346_48">
<path d="M .065000008 .41900004 L .065000008 .128 C .065000008 .061 .069000009 0 .187 0 C .21200001 0 .28700004 .016 .33600004 .032 L .33600004 .080000009 C .31100003 .07400001 .29200004 .07300001 .272 .07300001 C .229 .07300001 .18800003 .08400001 .18800003 .17 L .18800003 .41900004 L .33600004 .41900004 L .33600004 .47900004 L .18800003 .47900004 L .18800003 .60300007 L .12600002 .60300007 L .074 .499 L 0 .45700003 L 0 .41900004 L .065000008 .41900004 Z "/>
</symbol>
<symbol id="font_346_41">
<path d="M .18800001 .49600003 L .14 .49600003 L 0 .44900004 L 0 .409 L .065 .409 L .065 .064 L .051 .05 L 0 .045 L 0 0 L .246 0 L .246 .045 L .202 .05 L .18800001 .064 L .18800001 .39400003 C .20400001 .4 .24000003 .41200004 .27400003 .41200004 C .32400004 .41200004 .36100004 .38200004 .36100004 .30900003 L .36100004 .064 L .34700004 .05 L .30300004 .045 L .30300004 0 L .542 0 L .542 .045 L .49800007 .05 L .48400007 .064 L .48400007 .39200003 C .527 .411 .56 .41200004 .574 .41200004 C .63600006 .41200004 .662 .367 .662 .303 L .662 .064 L .648 .05 L .60400006 .045 L .60400006 0 L .85 0 L .85 .045 L .79800006 .05 L .785 .064 L .785 .33200003 C .785 .386 .76600006 .499 .653 .499 C .605 .499 .536 .46800003 .469 .43 C .45000006 .46300004 .41300006 .499 .35300002 .499 C .30600003 .499 .24700003 .47300003 .18800001 .437 L .18800001 .49600003 Z "/>
</symbol>
<use xlink:href="#font_346_20" transform="matrix(10.5,0,0,-10.5,61.2704,62.879518)" fill="#231f20"/>
<use xlink:href="#font_346_39" transform="matrix(10.5,0,0,-10.5,69.56015,62.97402)" fill="#231f20"/>
<use xlink:href="#font_346_1" transform="matrix(10.5,0,0,-10.5,74.8784,62.879518)" fill="#231f20"/>
<use xlink:href="#font_346_3d" transform="matrix(10.5,0,0,-10.5,79.340908,62.879518)" fill="#231f20"/>
<use xlink:href="#font_346_47" transform="matrix(10.5,0,0,-10.5,82.87415,62.97402)" fill="#231f20"/>
<use xlink:href="#font_346_1" transform="matrix(10.5,0,0,-10.5,87.3419,62.879518)" fill="#231f20"/>
<use xlink:href="#font_346_48" transform="matrix(10.5,0,0,-10.5,91.70991,62.93202)" fill="#231f20"/>
<use xlink:href="#font_346_39" transform="matrix(10.5,0,0,-10.5,95.85216,62.97402)" fill="#231f20"/>
<use xlink:href="#font_346_42" transform="matrix(10.5,0,0,-10.5,101.46441,62.879518)" fill="#231f20"/>
<use xlink:href="#font_346_1" transform="matrix(10.5,0,0,-10.5,107.711917,62.879518)" fill="#231f20"/>
<use xlink:href="#font_346_35" transform="matrix(10.5,0,0,-10.5,112.26891,62.97402)" fill="#231f20"/>
<use xlink:href="#font_346_48" transform="matrix(10.5,0,0,-10.5,117.954669,62.93202)" fill="#231f20"/>
<use xlink:href="#font_346_1" transform="matrix(10.5,0,0,-10.5,121.69791,62.879518)" fill="#231f20"/>
<use xlink:href="#font_346_41" transform="matrix(10.5,0,0,-10.5,126.19191,62.879518)" fill="#231f20"/>
<use xlink:href="#font_346_43" transform="matrix(10.5,0,0,-10.5,135.82567,62.97402)" fill="#231f20"/>
<use xlink:href="#font_346_47" transform="matrix(10.5,0,0,-10.5,142.20966,62.97402)" fill="#231f20"/>
<use xlink:href="#font_346_48" transform="matrix(10.5,0,0,-10.5,146.8769,62.93202)" fill="#231f20"/>
<use xlink:href="#font_346_9" transform="matrix(10.5,0,0,-10.5,151.31316,62.963518)" fill="#231f20"/>
</g>
<g id="Layer-1" data-name="P">
<g id="Layer-2" data-name="Span">
</g>
<g id="Layer-2" data-name="Span">
</g>
<symbol id="font_347_96">
<path d="M .545 .193 L .489 .193 L .46700005 .082 L .451 .066 C .42700003 .059 .39900003 .053000004 .363 .053000004 C .259 .053000004 .20000002 .101 .16800002 .141 C .13200002 .186 .105000007 .257 .105000007 .351 C .105000007 .49 .16100002 .6420001 .35 .6420001 C .396 .6420001 .43100003 .63100007 .461 .61600008 L .474 .59800007 L .489 .507 L .545 .507 L .545 .6610001 C .507 .6750001 .442 .69500008 .357 .69500008 C .23500003 .69500008 .15600002 .65400007 .10900001 .61200007 C .051000004 .56100007 0 .47500003 0 .352 C 0 .21700001 .061 .137 .09200001 .10400001 C .17000002 .02 .266 0 .347 0 C .41300003 0 .483 .013 .545 .035000005 L .545 .193 Z "/>
</symbol>
<symbol id="font_347_7e">
<path d="M .30600003 .009000001 L .44600005 .009000001 L .44600005 .045 L .39300005 .045 L .37600003 .06600001 L .37600003 .356 C .37600003 .37700004 .37500004 .42800004 .344 .46100004 C .30900003 .49800004 .24800003 .499 .22500003 .499 C .079 .499 .024999999 .43500004 .024999999 .38200004 C .024999999 .358 .044 .356 .056 .356 L .125 .356 L .125 .44000004 C .15 .44900004 .178 .455 .204 .455 C .29700003 .455 .29200004 .38300003 .29200004 .344 L .29200004 .312 C .185 .286 .137 .27 .101 .256 C .053999999 .23700002 0 .20600002 0 .13100001 C 0 .068 .038000004 0 .12799999 0 C .16600001 0 .215 .012 .29200004 .067 L .30600003 .009000001 M .29200004 .10100001 C .22800002 .064 .194 .056 .16800002 .056 C .107 .056 .08800001 .102000009 .08800001 .13900002 C .08800001 .194 .12600002 .21600002 .15799999 .23100002 C .19300002 .24700001 .24900002 .26500003 .29200004 .277 L .29200004 .10100001 Z "/>
</symbol>
<symbol id="font_347_80">
<path d="M .411 .11500001 C .33900003 .06600001 .287 .057 .254 .057 C .14 .057 .086 .16300002 .086 .26500003 L .086 .272 L .41000004 .272 C .411 .282 .411 .291 .411 .3 C .411 .46100004 .31 .499 .23200003 .499 C .149 .499 .097 .462 .07000001 .43400003 C .026 .38900004 0 .32200004 0 .24600002 C 0 .10800001 .075 0 .227 0 C .29200004 0 .358 .023000002 .411 .060000004 L .411 .11500001 M .091000009 .314 C .098000008 .38000003 .134 .455 .22 .455 C .279 .455 .30200003 .416 .30800004 .404 C .316 .38900004 .32200004 .35900004 .32200004 .33900003 L .32200004 .314 L .091000009 .314 Z "/>
</symbol>
<symbol id="font_347_9e">
<path d="M .432 .75500008 C .421 .72700008 .389 .72 .363 .716 L .279 .703 C .187 .689 .09500001 .66200008 .044000005 .531 C .015000001 .45600004 0 .35400004 0 .277 C 0 .19700001 .026000005 0 .23200001 0 C .313 0 .366 .035 .397 .067 C .435 .106000009 .466 .16600001 .466 .255 C .466 .38900004 .389 .499 .251 .499 C .15200001 .499 .10000001 .441 .07100001 .38900004 L .069000009 .38900004 C .07700001 .55700007 .15100001 .601 .24700003 .615 L .341 .628 C .375 .633 .447 .647 .466 .75500008 L .432 .75500008 M .24100001 .455 C .349 .455 .372 .31500004 .372 .252 C .372 .20800002 .367 .15100001 .335 .10300001 C .304 .057 .264 .044 .23200001 .044 C .19800002 .044 .15100001 .057 .120000008 .12100001 C .097 .16800002 .09400001 .22000002 .09400001 .25 C .09400001 .29000003 .10900001 .455 .24100001 .455 Z "/>
</symbol>
<symbol id="font_347_73">
<path d="M .11000001 .49000005 L .11000001 .45400004 L .172 .44900004 L .18900001 .43100003 C .187 .374 .179 .296 .167 .23500002 C .147 .13800001 .12200001 .095000009 .09900001 .067 L .036000004 .109000008 C .012000001 .09700001 0 .075 0 .052 C 0 .037 .011000001 0 .055 0 C .095000009 0 .124000009 .023000002 .142 .044 C .163 .068 .192 .11500001 .214 .21400002 C .229 .282 .238 .37100003 .24100001 .44400005 L .35100005 .44400005 L .35100005 .06600001 L .33400003 .05 L .286 .045 L .286 .009000001 L .50600007 .009000001 L .50600007 .045 L .45200003 .05 L .43500004 .06600001 L .43500004 .43300004 L .45200003 .44900004 L .50600007 .45400004 L .50600007 .49000005 L .11000001 .49000005 Z "/>
</symbol>
<symbol id="font_347_72">
<path d="M 0 0 L .25300003 0 C .30100004 0 .43500004 .021000002 .43500004 .14500001 C .43500004 .177 .42600004 .21800001 .38400004 .25100003 C .34 .28500004 .282 .29000003 .23200003 .29000003 C .20400001 .29000003 .18200001 .289 .155 .286 L .155 .42400003 L .172 .44000004 L .22600001 .44500003 L .22600001 .48100005 L 0 .48100005 L 0 .44500003 L .054000006 .44000004 L .071 .42400003 L .071 .057000005 L .054000006 .041 L 0 .036000004 L 0 0 M .155 .238 C .178 .24300002 .19900002 .246 .22600001 .246 C .263 .246 .347 .24300002 .347 .143 C .347 .1 .328 .07700001 .31300003 .066 C .303 .059000005 .27800004 .044000005 .22 .044000005 C .19600001 .044000005 .17500001 .046000005 .155 .05 L .155 .238 Z "/>
</symbol>
<symbol id="font_347_8d">
<path d="M 0 0 L .75 0 L .75 .036000004 L .696 .041 L .679 .057000005 L .679 .42400003 L .696 .44000004 L .75 .44500003 L .75 .48100005 L .53200009 .48100005 L .53200009 .44500003 L .57800009 .44000004 L .595 .42400003 L .595 .046000005 L .41700004 .046000005 L .41700004 .42400003 L .43400003 .44000004 L .48000006 .44500003 L .48000006 .48100005 L .27 .48100005 L .27 .44500003 L .316 .44000004 L .333 .42400003 L .333 .046000005 L .155 .046000005 L .155 .42400003 L .172 .44000004 L .21800001 .44500003 L .21800001 .48100005 L 0 .48100005 L 0 .44500003 L .054000006 .44000004 L .071 .42400003 L .071 .057000005 L .054000006 .041 L 0 .036000004 L 0 0 Z "/>
</symbol>
<symbol id="font_347_7b">
<path d="M .388 .10300001 C .358 .083000008 .312 .060000004 .26000003 .060000004 C .09400001 .060000004 .09200001 .22500001 .09200001 .25800003 C .09200001 .314 .106000009 .374 .13900002 .41300003 C .172 .45200003 .21200001 .45900003 .236 .45900003 C .26000003 .45900003 .27600003 .45200003 .286 .446 L .286 .36400003 C .303 .35300002 .32200004 .35000003 .333 .35000003 C .365 .35000003 .38700003 .372 .38700003 .40500004 C .38700003 .44500003 .351 .499 .24200002 .499 C .095 .499 0 .40500004 0 .24900002 C 0 .091000009 .095 0 .22600001 0 C .26000003 0 .312 .0060000007 .388 .051000004 L .388 .10300001 Z "/>
</symbol>
<symbol id="font_347_81">
<path d="M .493 .48100005 L .24600002 .48100005 C .17900002 .48100005 .07 .46600003 .07 .35000003 C .07 .28300003 .120000008 .23600002 .19500001 .23200001 L .19500001 .23 C .15200001 .215 .134 .18400002 .124000009 .165 L .067 .055000005 L .050000006 .043 L 0 .036000004 L 0 0 L .14000002 0 L .14000002 .032 L .19700001 .156 C .21200001 .186 .23000002 .21400002 .272 .21400002 L .338 .21400002 L .338 .057000005 L .321 .041 L .273 .036000004 L .273 0 L .493 0 L .493 .036000004 L .439 .041 L .42200003 .057000005 L .42200003 .42400003 L .439 .44000004 L .493 .44500003 L .493 .48100005 M .338 .25800003 C .321 .256 .304 .254 .278 .254 C .20100002 .254 .15200001 .273 .15200001 .34300003 C .15200001 .43500004 .23100002 .437 .275 .437 C .29500003 .437 .314 .43600003 .338 .432 L .338 .25800003 Z "/>
</symbol>
<symbol id="font_347_77">
<path d="M 0 0 L .22 0 L .22 .036000004 L .172 .041 L .155 .057000005 L .155 .22800002 L .379 .22800002 L .379 .057000005 L .36200003 .041 L .314 .036000004 L .314 0 L .53400006 0 L .53400006 .036000004 L .48000006 .041 L .46300004 .057000005 L .46300004 .42400003 L .48000006 .44000004 L .53400006 .44500003 L .53400006 .48100005 L .314 .48100005 L .314 .44500003 L .36200003 .44000004 L .379 .42400003 L .379 .27400003 L .155 .27400003 L .155 .42400003 L .172 .44000004 L .22 .44500003 L .22 .48100005 L 0 .48100005 L 0 .44500003 L .054000006 .44000004 L .071 .42400003 L .071 .057000005 L .054000006 .041 L 0 .036000004 L 0 0 Z "/>
</symbol>
<use xlink:href="#font_347_1" transform="matrix(10.5,0,0,-10.5,153.861,62.879518)" fill="#231f20"/>
<use xlink:href="#font_347_60" transform="matrix(10.5,0,0,-10.5,158.02948,60.674516)" fill="#231f20"/>
<use xlink:href="#font_347_1" transform="matrix(10.5,0,0,-10.5,168.73424,62.879518)" fill="#231f20"/>
<use xlink:href="#font_347_96" transform="matrix(10.5,0,0,-10.5,173.35424,63.005517)" fill="#231f20"/>
<use xlink:href="#font_347_7e" transform="matrix(10.5,0,0,-10.5,180.18447,62.97402)" fill="#231f20"/>
<use xlink:href="#font_347_78" transform="matrix(10.5,0,0,-10.5,185.57622,62.879518)" fill="#231f20"/>
<use xlink:href="#font_347_71" transform="matrix(10.5,0,0,-10.5,193.20447,62.97402)" fill="#231f20"/>
<use xlink:href="#font_347_80" transform="matrix(10.5,0,0,-10.5,199.07923,62.97402)" fill="#231f20"/>
<use xlink:href="#font_347_1" transform="matrix(10.5,0,0,-10.5,204.04047,62.879518)" fill="#231f20"/>
<use xlink:href="#font_347_9e" transform="matrix(10.5,0,0,-10.5,208.66046,62.97402)" fill="#231f20"/>
<use xlink:href="#font_347_71" transform="matrix(10.5,0,0,-10.5,214.5352,62.97402)" fill="#231f20"/>
<use xlink:href="#font_347_73" transform="matrix(10.5,0,0,-10.5,219.81145,62.97402)" fill="#231f20"/>
<use xlink:href="#font_347_72" transform="matrix(10.5,0,0,-10.5,225.95922,62.879518)" fill="#231f20"/>
<use xlink:href="#font_347_8d" transform="matrix(10.5,0,0,-10.5,231.41397,62.879518)" fill="#231f20"/>
<use xlink:href="#font_347_80" transform="matrix(10.5,0,0,-10.5,240.19722,62.97402)" fill="#231f20"/>
<use xlink:href="#font_347_80" transform="matrix(10.5,0,0,-10.5,245.54697,62.97402)" fill="#231f20"/>
<use xlink:href="#font_347_1" transform="matrix(10.5,0,0,-10.5,250.51346,62.879518)" fill="#231f20"/>
<use xlink:href="#font_347_80" transform="matrix(10.5,0,0,-10.5,255.07045,62.97402)" fill="#231f20"/>
<use xlink:href="#font_347_78" transform="matrix(10.5,0,0,-10.5,260.3467,62.879518)" fill="#231f20"/>
<use xlink:href="#font_347_83" transform="matrix(10.5,0,0,-10.5,267.57597,65.16852)" fill="#231f20"/>
<use xlink:href="#font_347_1" transform="matrix(10.5,0,0,-10.5,272.9992,62.879518)" fill="#231f20"/>
<use xlink:href="#font_347_75" transform="matrix(10.5,0,0,-10.5,277.06269,64.34952)" fill="#231f20"/>
<use xlink:href="#font_347_80" transform="matrix(10.5,0,0,-10.5,283.15794,62.97402)" fill="#231f20"/>
<use xlink:href="#font_347_7b" transform="matrix(10.5,0,0,-10.5,288.5077,62.97402)" fill="#231f20"/>
<use xlink:href="#font_347_81" transform="matrix(10.5,0,0,-10.5,292.90196,62.879518)" fill="#231f20"/>
<use xlink:href="#font_347_74" transform="matrix(10.5,0,0,-10.5,298.7662,62.879518)" fill="#231f20"/>
<use xlink:href="#font_347_72" transform="matrix(10.5,0,0,-10.5,304.07398,62.879518)" fill="#231f20"/>
<use xlink:href="#font_347_b" transform="matrix(10.5,0,0,-10.5,310.01173,62.97402)" fill="#231f20"/>
<use xlink:href="#font_347_1" transform="matrix(10.5,0,0,-10.5,312.35847,62.879518)" fill="#231f20"/>
<use xlink:href="#font_347_90" transform="matrix(10.5,0,0,-10.5,316.87345,62.879518)" fill="#231f20"/>
<use xlink:href="#font_347_78" transform="matrix(10.5,0,0,-10.5,323.0947,62.879518)" fill="#231f20"/>
<use xlink:href="#font_347_83" transform="matrix(10.5,0,0,-10.5,330.32395,65.16852)" fill="#231f20"/>
<use xlink:href="#font_347_1" transform="matrix(10.5,0,0,-10.5,335.7472,62.879518)" fill="#231f20"/>
<use xlink:href="#font_347_77" transform="matrix(10.5,0,0,-10.5,340.23069,62.879518)" fill="#231f20"/>
<use xlink:href="#font_347_80" transform="matrix(10.5,0,0,-10.5,346.7459,62.97402)" fill="#231f20"/>
<use xlink:href="#font_347_1" transform="matrix(10.5,0,0,-10.5,351.69148,62.879518)" fill="#231f20"/>
<use xlink:href="#font_347_9e" transform="matrix(10.5,0,0,-10.5,356.31147,62.97402)" fill="#231f20"/>
<use xlink:href="#font_347_71" transform="matrix(10.5,0,0,-10.5,362.1862,62.97402)" fill="#231f20"/>
<use xlink:href="#font_347_73" transform="matrix(10.5,0,0,-10.5,367.4677,62.97402)" fill="#231f20"/>
<use xlink:href="#font_347_72" transform="matrix(10.5,0,0,-10.5,373.61546,62.879518)" fill="#231f20"/>
<use xlink:href="#font_347_8d" transform="matrix(10.5,0,0,-10.5,379.0702,62.879518)" fill="#231f20"/>
<use xlink:href="#font_347_80" transform="matrix(10.5,0,0,-10.5,387.85343,62.97402)" fill="#231f20"/>
<use xlink:href="#font_347_1" transform="matrix(10.5,0,0,-10.5,392.60997,62.879518)" fill="#231f20"/>
</g>
<g id="Layer-1" data-name="P">
<symbol id="font_347_7a">
<path d="M 0 0 L .22 0 L .22 .036000004 L .172 .041 L .155 .057000005 L .155 .089 L .38700003 .33800004 L .38700003 .057000005 L .37 .041 L .32200004 .036000004 L .32200004 0 L .54200008 0 L .54200008 .036000004 L .488 .041 L .47100006 .057000005 L .47100006 .42400003 L .488 .44000004 L .54200008 .44500003 L .54200008 .48100005 L .32200004 .48100005 L .32200004 .44500003 L .37 .44000004 L .38700003 .42400003 L .38700003 .4 L .155 .15100001 L .155 .42400003 L .172 .44000004 L .22 .44500003 L .22 .48100005 L 0 .48100005 L 0 .44500003 L .054000006 .44000004 L .071 .42400003 L .071 .057000005 L .054000006 .041 L 0 .036000004 L 0 0 Z "/>
</symbol>
<use xlink:href="#font_347_75" transform="matrix(10.5,0,0,-10.5,46.666704,76.94949)" fill="#231f20"/>
<use xlink:href="#font_347_80" transform="matrix(10.5,0,0,-10.5,52.5572,75.57399)" fill="#231f20"/>
<use xlink:href="#font_347_7b" transform="matrix(10.5,0,0,-10.5,57.7022,75.57399)" fill="#231f20"/>
<use xlink:href="#font_347_81" transform="matrix(10.5,0,0,-10.5,61.8917,75.47949)" fill="#231f20"/>
<use xlink:href="#font_347_74" transform="matrix(10.5,0,0,-10.5,67.5512,75.47949)" fill="#231f20"/>
<use xlink:href="#font_347_7a" transform="matrix(10.5,0,0,-10.5,72.654209,75.47949)" fill="#231f20"/>
<use xlink:href="#font_347_1" transform="matrix(10.5,0,0,-10.5,78.6602,75.47949)" fill="#231f20"/>
<use xlink:href="#font_347_73" transform="matrix(10.5,0,0,-10.5,81.38496,75.57399)" fill="#231f20"/>
<use xlink:href="#font_347_80" transform="matrix(10.5,0,0,-10.5,87.40145,75.57399)" fill="#231f20"/>
<use xlink:href="#font_347_74" transform="matrix(10.5,0,0,-10.5,92.32595,75.47949)" fill="#231f20"/>
<use xlink:href="#font_347_b" transform="matrix(10.5,0,0,-10.5,97.38695,75.57399)" fill="#231f20"/>
</g>
<g id="Layer-1" data-name="P">
<g id="Layer-2" data-name="Span">
</g>
<symbol id="font_346_3a">
<path d="M .0010000002 0 L .27100004 0 L .27100004 .045 L .20400001 .05 L .18800001 .064 L .18800001 .41400004 L .32200004 .41400004 L .32200004 .47400005 L .18800001 .47400005 L .18800001 .53400006 C .18800001 .625 .20300001 .66300007 .22700002 .694 L .32400004 .60800006 C .35200004 .61600008 .38200004 .634 .38200004 .671 C .38200004 .72300007 .32900004 .74300006 .28800003 .74300006 C .228 .74300006 .18100001 .71400007 .15 .68700006 C .079 .625 .065 .544 .065 .48800005 L .065 .48200003 L 0 .45200003 L 0 .41400004 L .065 .41400004 L .065 .064 L .051 .05 L .0010000002 .045 L .0010000002 0 Z "/>
</symbol>
<use xlink:href="#font_346_42" transform="matrix(10.5,0,0,-10.5,61.2389,88.07947)" fill="#231f20"/>
<use xlink:href="#font_346_43" transform="matrix(10.5,0,0,-10.5,67.664897,88.173969)" fill="#231f20"/>
<use xlink:href="#font_346_48" transform="matrix(10.5,0,0,-10.5,73.6079,88.131969)" fill="#231f20"/>
<use xlink:href="#font_346_1" transform="matrix(10.5,0,0,-10.5,77.1569,88.07947)" fill="#231f20"/>
<use xlink:href="#font_346_47" transform="matrix(10.5,0,0,-10.5,80.5274,88.173969)" fill="#231f20"/>
<use xlink:href="#font_346_43" transform="matrix(10.5,0,0,-10.5,85.1789,88.173969)" fill="#231f20"/>
<use xlink:href="#font_346_1" transform="matrix(10.5,0,0,-10.5,90.92241,88.07947)" fill="#231f20"/>
<use xlink:href="#font_346_3a" transform="matrix(10.5,0,0,-10.5,94.18791,88.07947)" fill="#231f20"/>
<use xlink:href="#font_346_35" transform="matrix(10.5,0,0,-10.5,97.84191,88.173969)" fill="#231f20"/>
<use xlink:href="#font_346_47" transform="matrix(10.5,0,0,-10.5,103.55391,88.173969)" fill="#231f20"/>
<use xlink:href="#font_346_48" transform="matrix(10.5,0,0,-10.5,108.01641,88.131969)" fill="#231f20"/>
</g>
<g id="Layer-1" data-name="P">
<g id="Layer-2" data-name="Span">
</g>
<g id="Layer-2" data-name="Span">
</g>
<symbol id="font_347_68">
<path d="M 0 0 L .22 0 L .22 .036000004 L .172 .041 L .155 .059000005 L .155 .22600001 L .201 .22600001 C .23700002 .22600001 .264 .208 .286 .156 L .34 .032 L .34 0 L .50600007 0 L .50600007 .036000004 L .43800003 .043 L .42100004 .055000005 L .36600004 .16600001 C .34800003 .2 .335 .24000001 .27400003 .254 L .27400003 .256 C .289 .26000003 .321 .273 .342 .323 L .372 .39400003 C .377 .40500004 .379 .41400004 .39000003 .42600004 L .46 .386 C .47800002 .39600004 .488 .41400004 .488 .43500004 C .488 .46400003 .46600003 .49 .425 .49 C .377 .49 .347 .455 .328 .409 L .294 .33100004 C .275 .287 .24100003 .27 .20300001 .27 L .155 .27 L .155 .42400003 L .172 .44000004 L .22 .44500003 L .22 .48100005 L 0 .48100005 L 0 .44500003 L .054000006 .44000004 L .071 .42400003 L .071 .057000005 L .054000006 .041 L 0 .036000004 L 0 0 Z "/>
</symbol>
<symbol id="font_347_87">
<path d="M 0 0 L .243 0 C .291 0 .425 .021000002 .425 .14500001 C .425 .26500003 .30900003 .29000003 .22600001 .29000003 C .2 .29000003 .18 .289 .155 .286 L .155 .42400003 L .172 .44000004 L .22600001 .44500003 L .22600001 .48100005 L 0 .48100005 L 0 .44500003 L .054000006 .44000004 L .071 .42400003 L .071 .057000005 L .054000006 .041 L 0 .036000004 L 0 0 M .155 .238 C .17600002 .24400002 .19500001 .246 .21900001 .246 C .25800003 .246 .34100003 .24300002 .34100003 .143 C .34100003 .042000005 .24700001 .044000005 .21400002 .044000005 C .193 .044000005 .17300001 .046000005 .155 .05 L .155 .238 M .43 .44500003 L .484 .44000004 L .50100007 .42400003 L .50100007 .057000005 L .484 .041 L .43 .036000004 L .43 0 L .656 0 L .656 .036000004 L .602 .041 L .58500006 .057000005 L .58500006 .42400003 L .602 .44000004 L .656 .44500003 L .656 .48100005 L .43 .48100005 L .43 .44500003 Z "/>
</symbol>
<use xlink:href="#font_347_1" transform="matrix(10.5,0,0,-10.5,111.5561,88.07947)" fill="#231f20"/>
<use xlink:href="#font_347_60" transform="matrix(10.5,0,0,-10.5,114.4961,85.874469)" fill="#231f20"/>
<use xlink:href="#font_347_1" transform="matrix(10.5,0,0,-10.5,124.9961,88.07947)" fill="#231f20"/>
<use xlink:href="#font_347_77" transform="matrix(10.5,0,0,-10.5,128.2511,88.07947)" fill="#231f20"/>
<use xlink:href="#font_347_80" transform="matrix(10.5,0,0,-10.5,134.56162,88.173969)" fill="#231f20"/>
<use xlink:href="#font_347_1" transform="matrix(10.5,0,0,-10.5,139.31812,88.07947)" fill="#231f20"/>
<use xlink:href="#font_347_74" transform="matrix(10.5,0,0,-10.5,142.4156,88.07947)" fill="#231f20"/>
<use xlink:href="#font_347_7e" transform="matrix(10.5,0,0,-10.5,147.64459,88.173969)" fill="#231f20"/>
<use xlink:href="#font_347_68" transform="matrix(10.5,0,0,-10.5,152.8316,88.07947)" fill="#231f20"/>
<use xlink:href="#font_347_1" transform="matrix(10.5,0,0,-10.5,158.1446,88.07947)" fill="#231f20"/>
<use xlink:href="#font_347_9e" transform="matrix(10.5,0,0,-10.5,161.53612,88.173969)" fill="#231f20"/>
<use xlink:href="#font_347_87" transform="matrix(10.5,0,0,-10.5,167.13262,88.07947)" fill="#231f20"/>
<use xlink:href="#font_347_7b" transform="matrix(10.5,0,0,-10.5,174.72412,88.173969)" fill="#231f20"/>
<use xlink:href="#font_347_74" transform="matrix(10.5,0,0,-10.5,179.39662,88.07947)" fill="#231f20"/>
<use xlink:href="#font_347_82" transform="matrix(10.5,0,0,-10.5,184.41562,90.36847)" fill="#231f20"/>
<use xlink:href="#font_347_71" transform="matrix(10.5,0,0,-10.5,190.36913,88.173969)" fill="#231f20"/>
</g>
<g id="Layer-1" data-name="P">
<symbol id="font_346_4a">
<path d="M 0 .48700003 L 0 .44200004 L .060000004 .43500004 L .22000002 0 L .31000004 0 L .48200003 .43400003 L .54 .44200004 L .54 .48700003 L .35000003 .48700003 L .35000003 .44200004 L .40100003 .43600003 L .40900005 .42200003 L .29500003 .13100001 L .191 .423 L .202 .43600003 L .254 .44200004 L .254 .48700003 L 0 .48700003 Z "/>
</symbol>
<symbol id="font_346_52">
<path d="M .32100005 .61200007 C .35400004 .634 .36700005 .65300008 .36700005 .68 C .36700005 .72 .33600004 .74500009 .28800003 .74500009 C .24100001 .74500009 .19100002 .725 .149 .688 C .092 .637 .066 .573 .065 .48200003 L 0 .45200003 L 0 .41400004 L .065 .41400004 L .065 .064 L .049999998 .05 L 0 .045 L 0 0 L .256 0 L .256 .045 L .20400001 .05 L .18800001 .064 L .18800001 .41400004 L .38800005 .41400004 L .38800005 .064 L .37300004 .05 L .323 .045 L .323 0 L .583 0 L .583 .045 L .52500006 .05 L .51100006 .064 L .51100006 .50100007 L .46500004 .50100007 L .41000004 .47400005 L .18800001 .47400005 L .18800001 .53400006 C .18800001 .615 .19800002 .65800008 .22400002 .693 L .32100005 .61200007 M .46100004 .716 C .41900004 .716 .39100004 .688 .39100004 .648 C .39100004 .60800006 .42000006 .57900008 .45900003 .57900008 C .49800007 .57900008 .528 .609 .528 .648 C .528 .68600007 .49900005 .716 .46100004 .716 Z "/>
</symbol>
<use xlink:href="#font_346_48" transform="matrix(10.5,0,0,-10.5,61.1444,100.732)" fill="#231f20"/>
<use xlink:href="#font_346_3c" transform="matrix(10.5,0,0,-10.5,65.155399,100.679508)" fill="#231f20"/>
<use xlink:href="#font_346_39" transform="matrix(10.5,0,0,-10.5,71.633899,100.774)" fill="#231f20"/>
<use xlink:href="#font_346_1" transform="matrix(10.5,0,0,-10.5,76.7474,100.679508)" fill="#231f20"/>
<use xlink:href="#font_346_4a" transform="matrix(10.5,0,0,-10.5,79.61915,100.679508)" fill="#231f20"/>
<use xlink:href="#font_346_39" transform="matrix(10.5,0,0,-10.5,85.457149,100.774)" fill="#231f20"/>
<use xlink:href="#font_346_46" transform="matrix(10.5,0,0,-10.5,90.82265,100.679508)" fill="#231f20"/>
<use xlink:href="#font_346_4d" transform="matrix(10.5,0,0,-10.5,95.34815,102.979007)" fill="#231f20"/>
<use xlink:href="#font_346_1" transform="matrix(10.5,0,0,-10.5,100.79765,100.679508)" fill="#231f20"/>
<use xlink:href="#font_346_52" transform="matrix(10.5,0,0,-10.5,104.063159,100.679508)" fill="#231f20"/>
<use xlink:href="#font_346_46" transform="matrix(10.5,0,0,-10.5,110.56265,100.679508)" fill="#231f20"/>
<use xlink:href="#font_346_47" transform="matrix(10.5,0,0,-10.5,115.16165,100.774)" fill="#231f20"/>
<use xlink:href="#font_346_48" transform="matrix(10.5,0,0,-10.5,119.62415,100.732)" fill="#231f20"/>
<use xlink:href="#font_346_1" transform="matrix(10.5,0,0,-10.5,123.17315,100.679508)" fill="#231f20"/>
<use xlink:href="#font_346_48" transform="matrix(10.5,0,0,-10.5,126.3074,100.732)" fill="#231f20"/>
<use xlink:href="#font_346_3d" transform="matrix(10.5,0,0,-10.5,130.1504,100.679508)" fill="#231f20"/>
<use xlink:href="#font_346_41" transform="matrix(10.5,0,0,-10.5,133.3739,100.679508)" fill="#231f20"/>
<use xlink:href="#font_346_39" transform="matrix(10.5,0,0,-10.5,142.8029,100.774)" fill="#231f20"/>
</g>
<g id="Layer-1" data-name="P">
<g id="Layer-2" data-name="Span">
</g>
<symbol id="font_347_93">
<path d="M 0 0 L .22 0 L .22 .036000004 L .172 .041 L .155 .057000005 L .155 .43500004 L .36100004 .43500004 L .36100004 .057000005 L .344 .041 L .296 .036000004 L .296 0 L .51600006 0 L .51600006 .036000004 L .462 .041 L .44500003 .057000005 L .44500003 .42400003 L .462 .44000004 L .51600006 .44500003 L .51600006 .48100005 L 0 .48100005 L 0 .44500003 L .054000006 .44000004 L .071 .42400003 L .071 .057000005 L .054000006 .041 L 0 .036000004 L 0 0 Z "/>
</symbol>
<symbol id="font_347_79">
<path d="M .10800001 .23100002 C .11500001 .23200001 .148 .23500002 .16700001 .23500002 C .19500001 .23500002 .27400003 .23200001 .27400003 .143 C .27400003 .067 .215 .044 .155 .044 C .13100001 .044 .097 .048 .062000008 .06600001 L .048 .15100001 L 0 .15100001 L 0 .021000002 C .033 .012 .08800001 0 .157 0 C .24200002 0 .36600004 .024 .36600004 .14500001 C .36600004 .23700002 .291 .261 .24100003 .26500003 L .24100003 .26700003 C .303 .28100003 .344 .326 .344 .379 C .344 .49100004 .231 .499 .16600001 .499 C .13900002 .499 .091000009 .49700005 .02 .47800002 L .02 .365 L .068 .365 L .079 .43600003 C .10900001 .45000003 .13800001 .455 .163 .455 C .193 .455 .25800003 .44700004 .25800003 .36900003 C .25800003 .28500004 .19000001 .279 .15400002 .279 C .13700001 .279 .12200001 .28000004 .10800001 .282 L .10800001 .23100002 Z "/>
</symbol>
<use xlink:href="#font_347_1" transform="matrix(10.5,0,0,-10.5,147.9121,100.679508)" fill="#231f20"/>
<use xlink:href="#font_347_60" transform="matrix(10.5,0,0,-10.5,150.8521,98.4745)" fill="#231f20"/>
<use xlink:href="#font_347_1" transform="matrix(10.5,0,0,-10.5,161.3521,100.679508)" fill="#231f20"/>
<use xlink:href="#font_347_7b" transform="matrix(10.5,0,0,-10.5,164.6806,100.774)" fill="#231f20"/>
<use xlink:href="#font_347_7e" transform="matrix(10.5,0,0,-10.5,169.41609,100.774)" fill="#231f20"/>
<use xlink:href="#font_347_78" transform="matrix(10.5,0,0,-10.5,174.6031,100.679508)" fill="#231f20"/>
<use xlink:href="#font_347_87" transform="matrix(10.5,0,0,-10.5,181.95311,100.679508)" fill="#231f20"/>
<use xlink:href="#font_347_6f" transform="matrix(10.5,0,0,-10.5,189.47112,100.679508)" fill="#231f20"/>
<use xlink:href="#font_347_1" transform="matrix(10.5,0,0,-10.5,195.47711,100.679508)" fill="#231f20"/>
<use xlink:href="#font_347_93" transform="matrix(10.5,0,0,-10.5,198.72687,100.679508)" fill="#231f20"/>
<use xlink:href="#font_347_80" transform="matrix(10.5,0,0,-10.5,204.84838,100.774)" fill="#231f20"/>
<use xlink:href="#font_347_82" transform="matrix(10.5,0,0,-10.5,209.83588,102.968509)" fill="#231f20"/>
<use xlink:href="#font_347_7f" transform="matrix(10.5,0,0,-10.5,215.71588,100.679508)" fill="#231f20"/>
<use xlink:href="#font_347_87" transform="matrix(10.5,0,0,-10.5,221.07088,100.679508)" fill="#231f20"/>
<use xlink:href="#font_347_6f" transform="matrix(10.5,0,0,-10.5,228.58889,100.679508)" fill="#231f20"/>
<use xlink:href="#font_347_1" transform="matrix(10.5,0,0,-10.5,234.59488,100.679508)" fill="#231f20"/>
<use xlink:href="#font_347_82" transform="matrix(10.5,0,0,-10.5,237.76064,102.968509)" fill="#231f20"/>
<use xlink:href="#font_347_7e" transform="matrix(10.5,0,0,-10.5,243.76663,100.774)" fill="#231f20"/>
<use xlink:href="#font_347_79" transform="matrix(10.5,0,0,-10.5,248.95365,100.774)" fill="#231f20"/>
</g>
</g>
<text x="10" y="-10" font-size="13" font-family="Arial" fill="#cccccc">https://urait.ru</text></svg>
