<?xml version="1.0" encoding="UTF-8" standalone="no"?>
<!DOCTYPE svg PUBLIC "-//W3C//DTD SVG 1.1//EN" "http://www.w3.org/Graphics/SVG/1.1/DTD/svg11.dtd">
<svg xmlns="http://www.w3.org/2000/svg" xmlns:xlink="http://www.w3.org/1999/xlink" version="1.1" width="439.37pt" height="674.646pt" viewBox="0 0 439.37 674.646">
<g enable-background="new">
<path transform="matrix(1,0,0,-1,140.315,250.68921)" stroke-width="1.144" stroke-linecap="butt" stroke-miterlimit="10" stroke-linejoin="miter" fill="none" stroke="#231f20" d="M 0 0 L 158.74 0 "/>
<path transform="matrix(1,0,0,-1,140.315,254.11731)" stroke-width="2.288" stroke-linecap="butt" stroke-miterlimit="10" stroke-linejoin="miter" fill="none" stroke="#231f20" d="M 0 0 L 158.74 0 "/>
<path transform="matrix(1,0,0,-1,140.315,257.5453)" stroke-width="1.144" stroke-linecap="butt" stroke-miterlimit="10" stroke-linejoin="miter" fill="none" stroke="#231f20" d="M 0 0 L 158.74 0 "/>
<g id="Layer-1" data-name="P">
<symbol id="font_19d_62">
<path d="M 0 0 L .13100001 0 L .13100001 .25100003 C .13900002 .25100003 .14800002 .25100003 .157 .25100003 C .21100003 .25100003 .279 .27100004 .321 .31500004 C .35600005 .35300002 .37800003 .404 .37800003 .47700004 C .37800003 .53400006 .36 .59000006 .32000003 .625 C .27600003 .666 .215 .67700007 .13700001 .67700007 C .08700001 .67700007 .037000006 .67200008 0 .66400006 L 0 0 M .13100001 .56600007 C .13900002 .569 .15100001 .57100006 .16300002 .57100006 C .224 .57100006 .24800003 .52500006 .24800003 .46600003 C .24800003 .40300004 .21800003 .356 .15200001 .356 C .14400001 .356 .13700001 .356 .13100001 .358 L .13100001 .56600007 Z "/>
</symbol>
<symbol id="font_19d_5a">
<path d="M .36400003 .008 C .358 .041 .35600005 .08100001 .35600005 .120000008 L .35600005 .302 C .35600005 .401 .33200003 .505 .183 .505 C .115 .505 .058000007 .484 .031 .468 L .055 .38 C .08400001 .398 .116000007 .408 .155 .408 C .201 .408 .224 .38 .224 .342 L .224 .331 C .113 .33 0 .277 0 .149 C 0 .062000004 .055 0 .12900001 0 C .17200002 0 .21000001 .018000002 .23700002 .056 L .23900002 .056 L .24600002 .008 L .36400003 .008 M .22800002 .16100002 C .22800002 .15300001 .227 .14500001 .22500003 .13800001 C .21600002 .109000008 .192 .09600001 .171 .09600001 C .151 .09600001 .124000009 .11400001 .124000009 .163 C .124000009 .231 .18400002 .24500002 .22800002 .246 L .22800002 .16100002 Z "/>
</symbol>
<symbol id="font_19d_4b">
<path d="M .072000008 .21800001 L .11400001 .21800001 C .162 .21800001 .207 .2 .207 .15400002 C .207 .124000009 .18200001 .094000007 .117 .094000007 C .08400001 .094000007 .045 .105000007 .022 .11500001 L 0 .028 C .035 .011 .081 0 .132 0 C .242 0 .34200005 .049000004 .34200005 .149 C .34200005 .21300002 .29300005 .259 .223 .269 L .223 .271 C .28300003 .285 .32400004 .323 .32400004 .381 C .32400004 .45000003 .27000005 .505 .162 .505 C .102000009 .505 .05 .492 .0150000019 .472 L .035 .391 C .060000004 .404 .093 .415 .12100001 .415 C .16700001 .415 .19100002 .393 .19100002 .361 C .19100002 .325 .16100002 .304 .113000009 .304 L .072000008 .304 L .072000008 .21800001 Z "/>
</symbol>
<symbol id="font_19d_4f">
<path d="M .09200001 .624 L .09200001 .491 C .09200001 .43700005 .087000008 .38200004 .076000008 .33100004 C .069000009 .296 .057 .25800003 .04 .231 L 0 .229 L .005 0 L .10300001 0 L .11000001 .135 L .34700004 .135 L .35300002 0 L .45200003 0 L .45700003 .229 L .41200004 .231 L .41200004 .624 L .09200001 .624 M .207 .523 L .28300003 .523 L .28300003 .23400001 L .165 .23400001 C .18 .26500003 .18900001 .298 .19500001 .333 C .20300001 .38200004 .207 .43400003 .207 .482 L .207 .523 Z "/>
</symbol>
<symbol id="font_19d_5c">
<path d="M .358 .20400001 C .361 .21800001 .36200003 .237 .36200003 .272 C .36200003 .42000006 .301 .503 .19600001 .503 C .08500001 .503 0 .40500004 0 .24100001 C 0 .088 .07300001 0 .20600002 0 C .256 0 .307 .009 .341 .022 L .323 .116000007 C .3 .108 .267 .1 .23 .1 C .172 .1 .128 .128 .126 .20400001 L .358 .20400001 M .127 .29600004 C .128 .34500004 .14500001 .40800003 .18800001 .40800003 C .22700002 .40800003 .24300002 .35900004 .24300002 .29600004 L .127 .29600004 Z "/>
</symbol>
<symbol id="font_19d_4a">
<path d="M .066 .497 L .066 .285 C .066 .231 .062000004 .171 .044000005 .13900002 C .035 .124000009 .024 .11100001 0 .105000007 L .021000002 0 C .042000005 0 .067 .006 .08800001 .016 C .17500001 .056 .18800001 .158 .18800001 .289 L .18800001 .392 L .261 .392 L .261 .008 L .39200003 .008 L .39200003 .497 L .066 .497 Z "/>
</symbol>
<symbol id="font_19d_4d">
<path d="M 0 0 Z "/>
</symbol>
<symbol id="font_19d_1b">
<path d="M 0 .674 L 0 0 L .13100001 0 L .13100001 .674 L 0 .674 Z "/>
</symbol>
<use xlink:href="#font_19d_62" transform="matrix(35,0,0,-35,164.96739,132.1015)" fill="#231f20"/>
<use xlink:href="#font_19d_5a" transform="matrix(35,0,0,-35,178.96738,132.3815)" fill="#231f20"/>
<use xlink:href="#font_19d_4b" transform="matrix(35,0,0,-35,193.49239,132.3815)" fill="#231f20"/>
<use xlink:href="#font_19d_4f" transform="matrix(35,0,0,-35,206.5824,136.8265)" fill="#231f20"/>
<use xlink:href="#font_19d_5c" transform="matrix(35,0,0,-35,223.9424,132.31151)" fill="#231f20"/>
<use xlink:href="#font_19d_4a" transform="matrix(35,0,0,-35,237.59239,132.3815)" fill="#231f20"/>
<use xlink:href="#font_19d_4d" transform="matrix(35,0,0,-35,252.9189,132.1015)" fill="#231f20"/>
<use xlink:href="#font_19d_1b" transform="matrix(35,0,0,-35,261.6269,132.1015)" fill="#231f20"/>
</g>
<g id="Layer-1" data-name="P">
<symbol id="font_19d_6">
<path d="M .076000008 0 C .122 0 .153 .034 .153 .087000008 C .153 .141 .11900001 .17400001 .077 .17400001 C .037 .17400001 0 .13700001 0 .087000008 C 0 .034 .035000005 0 .076000008 0 Z "/>
</symbol>
<symbol id="font_19d_1">
<path d="M 0 0 Z "/>
</symbol>
<use xlink:href="#font_19d_6" transform="matrix(35,0,0,-35,269.9581,132.3815)" fill="#ffffff"/>
<use xlink:href="#font_19d_1" transform="matrix(35,0,0,-35,276.4331,132.1015)" fill="#ffffff"/>
</g>
<g id="Layer-1" data-name="P">
<use xlink:href="#font_19d_1" transform="matrix(35,0,0,-35,283.1105,132.1015)" fill="#ffffff"/>
</g>
<g id="Layer-1" data-name="P">
<symbol id="font_19d_45">
<path d="M 0 .679 L 0 .007 C .030000005 .0030000003 .07200001 0 .12200001 0 C .21900001 0 .291 .023000002 .337 .072000008 C .37300004 .10800001 .39300005 .16 .39300005 .22500001 C .39300005 .293 .36900003 .34600003 .32900004 .381 C .29200004 .41300003 .24100003 .43100003 .18300002 .43100003 C .16400002 .43100003 .14900002 .43 .13000001 .42600004 L .13000001 .56700006 L .344 .56700006 L .344 .679 L 0 .679 M .13100001 .323 C .14000002 .32500003 .15 .326 .16100002 .326 C .19000001 .326 .21400002 .31300003 .231 .293 C .24800003 .27400003 .25700004 .246 .25700004 .215 C .25700004 .185 .24900002 .157 .23200003 .137 C .21600002 .117000009 .19100002 .105000007 .16000001 .105000007 C .14900002 .105000007 .14000002 .105000007 .13100001 .10700001 L .13100001 .323 Z "/>
</symbol>
<symbol id="font_19d_65">
<path d="M .27800004 .15400002 L .30700005 0 L .43400005 0 L .30300004 .674 L .14600002 .674 L 0 0 L .127 0 L .157 .15400002 L .27800004 .15400002 M .17 .256 L .19500001 .39600004 C .202 .43500004 .21200001 .505 .21900001 .55 L .222 .55 C .22800002 .505 .237 .43800003 .244 .397 L .26600004 .256 L .17 .256 Z "/>
</symbol>
<symbol id="font_19d_67">
<path d="M .032000007 .5500001 C .058 .56500008 .095000009 .57800009 .12600002 .57800009 C .18200001 .57800009 .21100001 .54600009 .21100001 .499 C .21100001 .437 .15100001 .408 .091000009 .408 L .078 .408 L .078 .30900003 L .097 .30900003 C .16800002 .30900003 .23000002 .279 .23000002 .20400001 C .23000002 .15 .19300002 .11000001 .123 .11000001 C .086 .11000001 .048 .120000008 .019000002 .13700001 L 0 .030000002 C .031000002 .013 .080000009 0 .136 0 C .25700004 0 .367 .071 .367 .2 C .367 .293 .312 .35300002 .23300001 .36900003 L .23300001 .371 C .30100004 .388 .34700004 .455 .34700004 .52400007 C .34700004 .61200007 .28700004 .69000008 .15900001 .69000008 C .095000009 .69000008 .039000006 .67100009 .010000002 .651 L .032000007 .5500001 Z "/>
</symbol>
<symbol id="font_19d_44">
<path d="M .222 .69000008 C .07300001 .69000008 0 .531 0 .347 C 0 .16200002 .060000004 0 .213 0 C .34100003 0 .43100003 .10300001 .43100003 .357 C .43100003 .51100006 .38500003 .69000008 .222 .69000008 M .21700001 .57600006 C .27600003 .57600006 .294 .469 .294 .351 C .294 .21400002 .273 .11400001 .21800001 .11400001 C .165 .11400001 .136 .19200002 .136 .345 C .136 .49 .165 .57600006 .21700001 .57600006 Z "/>
</symbol>
<symbol id="font_19d_64">
<path d="M 0 .007 C .030000005 .0030000003 .07200001 0 .12200001 0 C .23500002 0 .30300004 .024000003 .34300003 .068 C .37500004 .101 .39300005 .14400001 .39300005 .2 C .39300005 .27400003 .351 .33900003 .27300004 .361 L .27300004 .365 C .34000004 .39400003 .37100003 .45200003 .37100003 .512 C .37100003 .559 .35600005 .60400006 .32000003 .634 C .27300004 .674 .21200001 .68200007 .14900002 .68200007 C .09200001 .68200007 .040000004 .67800006 0 .669 L 0 .007 M .13100001 .58000007 C .13900002 .583 .15100001 .58400008 .165 .58400008 C .21900001 .58400008 .24200002 .546 .24200002 .497 C .24200002 .442 .206 .402 .15900001 .402 L .13100001 .402 L .13100001 .58000007 M .13100001 .305 L .15900001 .305 C .21100003 .30400003 .25700004 .269 .25700004 .202 C .25700004 .133 .21300003 .101 .16000001 .101 C .14800002 .101 .13900002 .101 .13100001 .10300001 L .13100001 .305 Z "/>
</symbol>
<symbol id="font_19d_68">
<path d="M .13900002 0 C .14800002 .019000002 .15300001 .039 .158 .059000005 C .16900002 .109000008 .17400001 .20700002 .20300001 .24400002 C .21600002 .26000003 .23400001 .26900003 .257 .26900003 L .271 .26900003 L .271 0 L .402 0 L .402 .66400006 C .361 .67300006 .30900003 .67700007 .259 .67700007 C .19100002 .67700007 .13100001 .66200008 .08800001 .62700006 C .052 .597 .026 .549 .026 .48000003 C .026 .395 .07100001 .34 .142 .31800003 L .142 .316 C .12400001 .31100003 .106000009 .3 .094000007 .287 C .044 .23400001 .044 .14 .026 .072000008 C .018 .046000005 .009000001 .020000002 0 0 L .13900002 0 M .271 .37100003 C .264 .37 .261 .37 .253 .37 C .19600001 .37 .158 .411 .158 .47500003 C .158 .526 .18400002 .57500007 .24500002 .57500007 C .256 .57500007 .264 .573 .271 .572 L .271 .37100003 Z "/>
</symbol>
<symbol id="font_19d_73">
<path d="M 0 .674 L 0 0 L .13100001 0 L .13100001 .56 L .31100003 .56 L .31100003 .674 L 0 .674 Z "/>
</symbol>
<symbol id="font_19d_59">
<path d="M .44900004 0 L .56600007 0 L .52500006 .674 L .38700003 .674 L .33400003 .43 C .316 .34500004 .30100004 .26900003 .291 .194 L .28900004 .194 C .277 .27 .26000003 .34500004 .24100003 .43 L .187 .674 L .049000004 .674 L 0 0 L .11300001 0 L .124000009 .23400001 C .12800002 .30100004 .132 .386 .134 .45900003 L .137 .45900003 C .14700002 .386 .16500002 .30200003 .178 .24800001 L .23400003 .011000001 L .32700003 .011000001 L .38500003 .252 C .39800004 .30400003 .41600005 .38700003 .42800004 .45900003 L .43100003 .45900003 C .42900003 .38700003 .43400003 .3 .43700005 .23600002 L .44900004 0 Z "/>
</symbol>
<symbol id="font_19d_66">
<path d="M .11900001 0 L .25000004 0 L .25000004 .55300006 L .37000004 .55300006 L .37000004 .674 L 0 .674 L 0 .55300006 L .11900001 .55300006 L .11900001 0 Z "/>
</symbol>
<symbol id="font_19d_61">
<path d="M 0 .674 L 0 0 L .12100001 0 L .22000003 .257 C .24200002 .31300003 .272 .39400003 .28700004 .455 L .289 .455 C .286 .38700003 .28100003 .287 .28100003 .15200001 L .28100003 0 L .39600004 0 L .39600004 .674 L .277 .674 L .17800002 .41300003 C .158 .36100004 .12400001 .273 .105000007 .215 L .103000018 .215 C .10800001 .28500004 .11600001 .40100003 .11600001 .52500006 L .11600001 .674 L 0 .674 Z "/>
</symbol>
<symbol id="font_19d_60">
<path d="M 0 .674 L 0 0 L .128 0 L .128 .286 L .13800001 .286 C .192 .286 .21000001 .23500002 .22600001 .156 C .23700002 .10300001 .24700001 .048 .263 0 L .39400003 0 C .374 .062000004 .36300005 .126 .34800003 .19100002 C .32900004 .273 .30600003 .33600004 .23700002 .36200003 L .39200003 .674 L .24800003 .674 L .13800001 .381 L .128 .381 L .128 .674 L 0 .674 Z "/>
</symbol>
<use xlink:href="#font_19d_45" transform="matrix(35,0,0,-35,78.676,174.2765)" fill="#231f20"/>
<use xlink:href="#font_19d_65" transform="matrix(35,0,0,-35,93.446,174.1015)" fill="#231f20"/>
<use xlink:href="#font_19d_67" transform="matrix(35,0,0,-35,109.826,174.3815)" fill="#231f20"/>
<use xlink:href="#font_19d_44" transform="matrix(35,0,0,-35,124.071,174.3815)" fill="#231f20"/>
<use xlink:href="#font_19d_64" transform="matrix(35,0,0,-35,142.061,174.2765)" fill="#231f20"/>
<use xlink:href="#font_19d_65" transform="matrix(35,0,0,-35,157.216,174.1015)" fill="#231f20"/>
<use xlink:href="#font_19d_68" transform="matrix(35,0,0,-35,173.17601,174.1015)" fill="#231f20"/>
<use xlink:href="#font_19d_1" transform="matrix(35,0,0,-35,189.276,174.1015)" fill="#231f20"/>
<use xlink:href="#font_19d_73" transform="matrix(35,0,0,-35,197.991,174.1015)" fill="#231f20"/>
<use xlink:href="#font_19d_62" transform="matrix(35,0,0,-35,211.291,174.1015)" fill="#231f20"/>
<use xlink:href="#font_19d_65" transform="matrix(35,0,0,-35,223.996,174.1015)" fill="#231f20"/>
<use xlink:href="#font_19d_59" transform="matrix(35,0,0,-35,240.901,174.1015)" fill="#231f20"/>
<use xlink:href="#font_19d_59" transform="matrix(35,0,0,-35,263.196,174.1015)" fill="#231f20"/>
<use xlink:href="#font_19d_65" transform="matrix(35,0,0,-35,284.61604,174.1015)" fill="#231f20"/>
<use xlink:href="#font_19d_66" transform="matrix(35,0,0,-35,299.00105,174.1015)" fill="#231f20"/>
<use xlink:href="#font_19d_61" transform="matrix(35,0,0,-35,314.36604,174.1015)" fill="#231f20"/>
<use xlink:href="#font_19d_60" transform="matrix(35,0,0,-35,332.321,174.1015)" fill="#231f20"/>
<use xlink:href="#font_19d_65" transform="matrix(35,0,0,-35,346.98603,174.1015)" fill="#231f20"/>
<use xlink:href="#font_19d_1" transform="matrix(35,0,0,-35,362.73603,174.1015)" fill="#231f20"/>
</g>
<g id="Layer-1" data-name="P">
<symbol id="font_19d_71">
<path d="M 0 .674 L 0 0 L .13100001 0 L .13100001 .282 L .268 .282 L .268 0 L .39900003 0 L .39900003 .674 L .268 .674 L .268 .404 L .13100001 .404 L .13100001 .674 L 0 .674 Z "/>
</symbol>
<symbol id="font_19d_74">
<path d="M .09300001 .68200007 L .09300001 .378 C .09300001 .24700001 .08400001 .17500001 .045 .135 C .033 .123 .016 .11500001 0 .11100001 L .028 0 C .061 0 .09300001 .013 .11800001 .033 C .20300001 .09900001 .21300002 .23500002 .21300002 .39000003 L .21300002 .568 L .31300003 .568 L .31300003 .008 L .44400005 .008 L .44400005 .68200007 L .09300001 .68200007 Z "/>
</symbol>
<symbol id="font_19d_80">
<path d="M 0 .674 L 0 0 L .12100001 0 L .22000003 .257 C .24200002 .31300003 .272 .39400003 .28700004 .455 L .289 .455 C .286 .38700003 .28100003 .287 .28100003 .15200001 L .28100003 0 L .39600004 0 L .39600004 .674 L .277 .674 L .17800002 .41300003 C .158 .36100004 .12400001 .273 .105000007 .215 L .103000018 .215 C .10800001 .28500004 .11600001 .40100003 .11600001 .52500006 L .11600001 .674 L 0 .674 M .07100001 .814 C .076000008 .72800007 .12900001 .69900009 .19700003 .69900009 C .27 .69900009 .316 .72800007 .326 .814 L .24300003 .814 C .24100003 .777 .22500003 .757 .19800002 .757 C .16700001 .757 .15600002 .777 .15300001 .814 L .07100001 .814 Z "/>
</symbol>
<symbol id="font_19d_81">
<path d="M .34300003 .126 C .32700003 .121 .30200003 .116000007 .28 .116000007 C .2 .116000007 .139 .179 .139 .34000004 C .139 .507 .206 .571 .28 .571 C .30900003 .571 .326 .565 .34100003 .558 L .363 .66800007 C .35000003 .677 .31800003 .686 .272 .686 C .141 .686 0 .587 0 .33300004 C 0 .142 .08200001 0 .254 0 C .3 0 .337 .007 .356 .016 L .34300003 .126 Z "/>
</symbol>
<symbol id="font_19d_69">
<path d="M 0 .679 L 0 .007 C .030000005 .0030000003 .07200001 0 .11400001 0 C .20900002 0 .282 .024000003 .328 .072000008 C .36300005 .109000008 .38400004 .16 .38400004 .228 C .38400004 .351 .29900003 .43100003 .17900002 .43100003 C .16400002 .43100003 .14600002 .43 .13000001 .42700003 L .13000001 .679 L 0 .679 M .13100001 .323 C .13900002 .32500003 .15 .326 .15900001 .326 C .21300003 .326 .24800003 .28 .24800003 .215 C .24800003 .155 .21000001 .105000007 .15500002 .105000007 C .14800002 .105000007 .14000002 .105000007 .13100001 .10700001 L .13100001 .323 M .43300004 .679 L .43300004 .0050000005 L .565 .0050000005 L .565 .679 L .43300004 .679 Z "/>
</symbol>
<use xlink:href="#font_19d_65" transform="matrix(35,0,0,-35,85.4482,216.1015)" fill="#231f20"/>
<use xlink:href="#font_19d_71" transform="matrix(35,0,0,-35,103.228199,216.1015)" fill="#231f20"/>
<use xlink:href="#font_19d_73" transform="matrix(35,0,0,-35,121.2532,216.1015)" fill="#231f20"/>
<use xlink:href="#font_19d_74" transform="matrix(35,0,0,-35,131.71819,216.3815)" fill="#231f20"/>
<use xlink:href="#font_19d_61" transform="matrix(35,0,0,-35,151.31819,216.1015)" fill="#231f20"/>
<use xlink:href="#font_19d_80" transform="matrix(35,0,0,-35,169.2732,216.1015)" fill="#231f20"/>
<use xlink:href="#font_19d_81" transform="matrix(35,0,0,-35,186.0732,216.31151)" fill="#231f20"/>
<use xlink:href="#font_19d_60" transform="matrix(35,0,0,-35,201.05319,216.1015)" fill="#231f20"/>
<use xlink:href="#font_19d_44" transform="matrix(35,0,0,-35,215.43819,216.3815)" fill="#231f20"/>
<use xlink:href="#font_19d_73" transform="matrix(35,0,0,-35,233.42819,216.1015)" fill="#231f20"/>
<use xlink:href="#font_19d_44" transform="matrix(35,0,0,-35,244.8347,216.3815)" fill="#231f20"/>
<use xlink:href="#font_19d_1" transform="matrix(35,0,0,-35,260.7947,216.1015)" fill="#231f20"/>
<use xlink:href="#font_19d_68" transform="matrix(35,0,0,-35,267.6897,216.1015)" fill="#231f20"/>
<use xlink:href="#font_19d_67" transform="matrix(35,0,0,-35,284.34974,216.3815)" fill="#231f20"/>
<use xlink:href="#font_19d_69" transform="matrix(35,0,0,-35,299.95973,216.2765)" fill="#231f20"/>
<use xlink:href="#font_19d_60" transform="matrix(35,0,0,-35,323.7947,216.1015)" fill="#231f20"/>
<use xlink:href="#font_19d_65" transform="matrix(35,0,0,-35,338.45973,216.1015)" fill="#231f20"/>
</g>
</g>
<text x="10" y="-10" font-size="13" font-family="Arial" fill="#cccccc">https://urait.ru</text></svg>
